<svg xmlns="http://www.w3.org/2000/svg" viewBox="0 0 77.53 105.87"><g data-name="Layer 2"><path d="M51.9 34.08h-8.53v-8.52A1.33 1.33 0 0 0 42 24.24h-6.51a1.33 1.33 0 0 0-1.33 1.33v8.51h-8.54a1.33 1.33 0 0 0-1.32 1.32v6.54a1.33 1.33 0 0 0 1.33 1.33h8.54v8.51a1.33 1.33 0 0 0 1.33 1.33H42a1.33 1.33 0 0 0 1.33-1.33v-8.52h8.57a1.33 1.33 0 0 0 1.33-1.33V35.4a1.33 1.33 0 0 0-1.33-1.32zm24.87 4.59c0 20.94-31 59.47-38 66.45-7.53-7.51-38-45.51-38-66.45a38 38 0 0 1 76 0zm-14.47 0a23.54 23.54 0 1 1-23.54-23.48 23.51 23.51 0 0 1 23.55 23.48z" fill="none" stroke="#fff" stroke-linecap="round" stroke-linejoin="round" stroke-width="1.5" data-name="Layer 1"/></g></svg>