<svg xmlns="http://www.w3.org/2000/svg" viewBox="0 0 111.86 100.5"><g data-name="Layer 2"><path d="M.75 54.91h38.89l5.76-20.38 2.34 30.57 7.56-16.63v18.59l11.35-35.21 2.7 22.34h41.77m-2.88-26.31A26.71 26.71 0 0 0 82 .75c-12.12 0-25.14 10-25.14 24.13h0C56.82 10.4 41.64.75 29.51.75 16.23.75 5.4 11.71 5.4 27.88c0 9.32 9 19 14.1 25.29l37.3 46.56v0h0v0l37.3-46.56c5.12-6.33 14.14-15.97 14.14-25.29z" fill="none" stroke="#fff" stroke-linecap="round" stroke-linejoin="round" stroke-width="1.5" data-name="Layer 1"/></g></svg>