<svg xmlns="http://www.w3.org/2000/svg" viewBox="0 0 75.68 113.99"><g data-name="Layer 2"><path d="M62.08.75h.82v11.62h-.82a5.85 5.85 0 0 1-5.89-5.81A5.85 5.85 0 0 1 62.08.75zm-37.3 11.62H24V.75h.82a5.85 5.85 0 0 1 5.89 5.81 5.85 5.85 0 0 1-5.93 5.81zm38.45-6a7.65 7.65 0 0 1 7.7 7.6v24.25a27.32 27.32 0 0 1-54.64 0V14A7.65 7.65 0 0 1 24 6.41M28.89 82h30.42a15.52 15.52 0 0 1 15.62 15.37v.45a15.62 15.62 0 0 1-31.25 0V65.41m-14.57 16.1a14.09 14.09 0 0 1-14.18 14 14 14 0 1 1 0-28 14.09 14.09 0 0 1 14.18 14zm-8.15 0a6 6 0 1 1-6-5.95A6 6 0 0 1 21 81.51z" fill="none" stroke="#fff" stroke-linecap="round" stroke-linejoin="round" stroke-width="1.5" data-name="Layer 1"/></g></svg>