<svg xmlns="http://www.w3.org/2000/svg" viewBox="0 0 90.3 117.02"><g data-name="Layer 2"><path d="M58.49.65l18.38 10.89M37.29 82L18.91 71.13m26.54 4.94L19.84 60.9m31-55.14l25.57 15.17m-7.34-4.35l-10.93-6.47 4.07-7.25 10.93 6.47zm-35.5 63.23l-10.93-6.48 4.54-8.09 10.93 6.47zM56 50.45L42.62 74.4l-20-11.82 31-55.14 20 11.82-11.69 20.82m5.7-9.47a49.79 49.79 0 0 1 1.59 81.54m-19.09-50.3A28.24 28.24 0 0 1 54 61.5c11.19 0 20.27 9.32 20.27 20.82a20.91 20.91 0 0 1-10.48 18.23m-3.09-1.68H49.45a4 4 0 0 0-3.67 2.48l-6.3 15h31.19l-6.3-15a4 4 0 0 0-3.67-2.48zM.65 83l42.62 23.75M20 116.37h68.23m-68.27 0h68.27M65.3 45.72a5.77 5.77 0 1 1-5.77-5.92 5.85 5.85 0 0 1 5.77 5.92z" fill="none" stroke="#fff" stroke-linecap="round" stroke-linejoin="round" stroke-width="1.3" data-name="Layer 1"/></g></svg>