<svg xmlns="http://www.w3.org/2000/svg" viewBox="0 0 61.08 51.38"><g data-name="Layer 2"><path d="M11.19 3.27L13.45 6m12-2.6l-2.16 2.7M18.48.65v3.54m3.22 8.25H15V10a3.37 3.37 0 1 1 6.74 0zm3.73 11.46h-4.26v-4.36a1.11 1.11 0 0 0-1.1-1.12h-2.52a1.11 1.11 0 0 0-1.1 1.12v4.36h-4.26A1.11 1.11 0 0 0 11.1 25v2.6a1.11 1.11 0 0 0 1.1 1.12h4.26v4.36a1.11 1.11 0 0 0 1.1 1.12h2.52a1.11 1.11 0 0 0 1.1-1.12v-4.35h4.26a1.11 1.11 0 0 0 1.1-1.12V25a1.11 1.11 0 0 0-1.11-1.1zm28.67 6.91H35.9M36 15.5v30.06m-13.55.08h18.27m12.43 0h4.3a3 3 0 0 0 3-3.05v-8.73a3 3 0 0 0-3-3.05H54L48.76 19.7a5.13 5.13 0 0 0-4.62-3H36v-1.2a3 3 0 0 0-3-3.05H3.63a3 3 0 0 0-3 3.05v27.09a3 3 0 0 0 3 3.05h6.59m50.21-7.31h-2.55a2.09 2.09 0 0 1 0-4.18h2.55zm-7.55 6.33A5.93 5.93 0 1 1 47 38.6a6 6 0 0 1 5.88 6.06zm-3.41 0A2.52 2.52 0 1 1 47 42.08a2.55 2.55 0 0 1 2.47 2.58zm-27 0a5.93 5.93 0 1 1-5.93-6.07 6 6 0 0 1 5.95 6.07zm-3.41 0a2.52 2.52 0 1 1-2.52-2.58 2.55 2.55 0 0 1 2.54 2.58z" fill="none" stroke="#295093" stroke-linecap="round" stroke-linejoin="round" stroke-width="1.3" data-name="Layer 1"/></g></svg>