<svg xmlns="http://www.w3.org/2000/svg" viewBox="0 0 72.28 57.34"><defs><style>.cls-1{fill:none;stroke:#fff;stroke-linecap:round;stroke-linejoin:round;stroke-width:1.3px}</style></defs><g id="Layer_2" data-name="Layer 2"><g id="Layer_1-2" data-name="Layer 1"><path class="cls-1" d="M68.38 20.46l3.24-3.13m-6.37-3.57l4.74 5m-4.38-9.37a2.54 2.54 0 0 0 .09-3.54l-.57-.61L63.36 7zM61 13.88a2.42 2.42 0 0 1-3.47-.1l-.57-.61 1.78-1.72zm4.29-.13a3.16 3.16 0 0 1-4.52-.13l-2.86-3.08 4.65-4.49 2.86 3.08a3.31 3.31 0 0 1-.16 4.62zM43.74 24.36l-2.49-6.89a2.45 2.45 0 0 0-3.13-1.56 2.53 2.53 0 0 0-1.53 3.2L40 28.67m-2-15.82L42 4A2.44 2.44 0 0 0 40.75.84a2.35 2.35 0 0 0-3.1 1.29l-5.49 12-.21.52a6 6 0 0 1-5.07 3.48c-2.27.12-4.48-.66-5.53-3L16.62 3.84a2.35 2.35 0 0 0-3.08-1.34 2.44 2.44 0 0 0-1.31 3.15L18.58 21a32.43 32.43 0 0 1 1.76 5.35m22.72 18.39v4.16h10.83M34.58 30.71l-.31-5.06a13.25 13.25 0 0 1 .11-2.79"/><path class="cls-1" d="M27.85 56.69h10.49v-4.37A17.54 17.54 0 0 1 39.93 45l6-12.57a2.53 2.53 0 0 0-1.16-3.36 2.48 2.48 0 0 0-3.33 1.17l-4.76 9.93-.25.53A6.33 6.33 0 0 1 31 44.07c-2.39 0-4.67-.94-5.64-3.46l-3.48-10.05A2.48 2.48 0 0 0 18.72 29a2.52 2.52 0 0 0-1.54 3.2l4.9 14.39a23.73 23.73 0 0 1 1 6.5v3.6m34.99-7.79v-8.5a17.63 17.63 0 0 1 1.57-7.24l5.93-12.53a2.53 2.53 0 0 0-1.14-3.35 2.43 2.43 0 0 0-3.28 1.17l-4.68 9.89-.25.52a6.22 6.22 0 0 1-5.42 3.32A7.7 7.7 0 0 1 49 32"/><ellipse class="cls-1" cx="50.73" cy="24.45" rx="4.26" ry="4.31"/><ellipse class="cls-1" cx="30.95" cy="36.97" rx="4.26" ry="4.31"/><path class="cls-1" d="M9.14 11.27l7.38 15.65m-6.06-7.19a2.65 2.65 0 0 0-2.8 1.62c-1.07 2-2.69 3.29-4.35 3.4l1-3.18L.65 20s2.85-.8 3.83-2.82a10.73 10.73 0 0 1 3.09-3.51m23.22-3.38a4.27 4.27 0 1 1-4.49-4.13 4.33 4.33 0 0 1 4.49 4.13z"/></g></g></svg>