<svg xmlns="http://www.w3.org/2000/svg" viewBox="0 0 79.3 42.82"><g data-name="Layer 2"><path d="M66.95 27v15m4.2-13.57v13.51m-7.4-17.19s.63 1.24 6 2.89 8.87 4.5 8.87 8.84v5.68m-24.24-1.6H64.8m-10.39-4H64.8m-10.39-4.1H64.8M52.42 27v15m-4.2-13.57v4m7.4-7.61s-.63 1.24-6 2.89a20.71 20.71 0 0 0-4.16 1.74m10.16-7.95v3.26l3.93 4.55 4.2-4.75V21m-11.54-8v1.39L53 15s-.05 7.24 6.24 7.7c0 0 6.51.67 7.08-7.86l.71-.7v-1.22M63.12 1.6s-2.2.1-2.2 1.71v5.42M56.09 1.6s2.2.1 2.2 1.71v5.42m-7 .21a8.13 8.13 0 0 1 16.27 0m1.15-.16c0 1.88-4.16 3.41-9.29 3.41s-9.29-1.53-9.29-3.41M31.06 24.41l3.16 4.21-2.2 1 3 2.32-4.2 9.63m-1.39-18.15L36.34 27m3.41 1.75l2 1a3.69 3.69 0 0 1 2.4 3.07c.18 1 1.19 6.72 1.56 9.11M15.09 24.41l-3.16 4.21 2.2 1-3 2.32m.87 2.11l4.59 7.52m.12-18.15L4.37 29.76A3.69 3.69 0 0 0 2 32.83c-.18 1-1 6.72-1.33 9.11m24.41-9.76l.79 6m-3.31-6l-.27 6m-1.46-7.48l1.6 1.55h2.64l1.51-1.82m-2.79-2.08a9.27 9.27 0 0 1 3.83 3.51m-4-3.44a7.08 7.08 0 0 0-3.85 4m-2.1-9.15s-.86-.2-1.06 1.06a2.79 2.79 0 0 0 .49 2.37c.38.75 4.43 9.58 6.36 14.91m1.71 0c.95-4.48 2.71-12 4.53-15.32 0 0 .49-2.81-.86-3.07m-11.07-2.63v2.9a23.33 23.33 0 0 0 5.88 4.86s3.83-1.91 5-4.36v-2.82m1.63-8.52s.42-2.13 1.8-1.74-.25 5.4-1.9 5.35m-13.67-3.61s-.42-2.13-1.8-1.74.25 5.4 1.9 5.35m-1-5.47s-.12-1.18-.3-3.22a3.64 3.64 0 0 1 1.26-3.11s.43-2.65 3.87-3.38 9.88-1.52 11.63 6.58l-2 4.09m-12.3-6v2.83l-1.09 1.74a36.47 36.47 0 0 0 .4 8c.49 2.93 4 5.9 5.66 5.93s2 .07 4.77-2.2 2.57-8.91 2.52-10.7a3.22 3.22 0 0 0-1-2.49L29 6s-1.33-.92-4.74-1.11a18.13 18.13 0 0 0-6.46.86z" fill="none" stroke="#fff" stroke-linecap="round" stroke-linejoin="round" stroke-width="1.3" data-name="Layer 1"/></g></svg>