<svg xmlns="http://www.w3.org/2000/svg" viewBox="0 0 50.51 44.84"><g data-name="Layer 2"><path d="M6.1 20.19v-9.48a2.64 2.64 0 0 0-2.73-2.55 2.64 2.64 0 0 0-2.72 2.55v15.6l10 10v2.21m7.31.08V28.53l-8.11-8.28a2.56 2.56 0 0 0-3.53-.07 2.19 2.19 0 0 0-.07 3.17L11.8 29M5.42 44.19h14.49v-5.54H5.42zm39-24v-9.48a2.73 2.73 0 0 1 5.45 0v15.6l-10 10v2.21m-7.31.08V28.53l8.12-8.28a2.56 2.56 0 0 1 3.53-.07 2.19 2.19 0 0 1 .07 3.17L38.71 29m6.38 15.19H30.6v-5.54h14.49zM37.38 6.27a5.82 5.82 0 0 0-6-5.62c-3.31 0-6.28 2.51-6.28 5.62h0c0-3.1-3-5.62-6.28-5.62a5.82 5.82 0 0 0-6 5.62 6.47 6.47 0 0 0 2.08 4.85l10.2 8.93h0l10.2-8.93a6.47 6.47 0 0 0 2.08-4.85z" fill="none" stroke="#fff" stroke-linecap="round" stroke-linejoin="round" stroke-width="1.3" data-name="Layer 1"/></g></svg>