<svg xmlns="http://www.w3.org/2000/svg" viewBox="0 0 76.25 35.91"><defs><style>.cls-1{fill:#95173b}</style></defs><g id="Layer_2" data-name="Layer 2"><g id="Layer_1-2" data-name="Layer 1"><path class="cls-1" d="M8.17 20.43c1.51 0 1.55.39 1.57.56v.16c0 .39.19.6.47.6a.52.52 0 0 0 .49-.56V19.3c0-.5-.32-.54-.42-.54h-.5a7.69 7.69 0 0 1-1.1.09H2.81c-.17 0-.76 0-1.2-.07a2.83 2.83 0 0 1-.48-.06.78.78 0 0 0-.28-.07c-.32 0-.45.39-.49.55 0 .07-.36 1.57-.36 1.8a.47.47 0 0 0 .45.49.49.49 0 0 0 .48-.37v-.09a1.65 1.65 0 0 1 .18-.34c.13-.21.38-.32 1.32-.34h1.94v6.33c0 1.53 0 2.74-.07 3.36s-.15.53-.2.55a1.67 1.67 0 0 1-.39.06.46.46 0 0 0-.47.47c0 .11 0 .48.6.48h3.6c.44 0 .6-.26.6-.48a.46.46 0 0 0-.47-.48 5.44 5.44 0 0 1-.66-.07c-.22 0-.27-.06-.32-.52-.07-.63-.07-1.84-.07-3.36V20.4zm8.59 5.49h-2.41l1.17-3.41zm5.71 5.26a.5.5 0 0 0-.54-.48 1.83 1.83 0 0 1-.53-.08c-.23-.08-.59-.19-1.13-1.52s-1.41-3.53-2.21-5.57v-.2c-.74-1.87-1.37-3.48-1.51-3.8l-.08-.19c-.12-.28-.25-.59-.61-.59s-.52.37-.7.84l-3.73 9.85c-.33.86-.59 1.16-1.05 1.22h-.42a.49.49 0 0 0-.49.48c0 .15.06.49.65.49h3.07c.43 0 .58-.26.58-.49a.47.47 0 0 0-.51-.48H13c-.06 0-.2 0-.2-.07a3 3 0 0 1 .21-.93l.86-2.42h3.4l1.37 3.47a.43.43 0 0 0-.27.42c0 .42.43.44.77.46h2.64c.66 0 .71-.37.71-.49"/><path class="cls-1" d="M26.5 18.75h-3.39c-.53 0-.6.37-.6.48a.5.5 0 0 0 .47.49h.49c.26 0 .32 0 .35.54s0 1.57 0 4v4.56c0 4.21-.56 4.79-1.4 5.66a3 3 0 0 1-.49.38.68.68 0 0 0-.36.56.44.44 0 0 0 .45.45h.25c.17-.09.45-.27.67-.42a6.3 6.3 0 0 0 2.45-2.56c.51-1.19.55-2.26.55-4.79v-7.8c0-.48.07-.49.28-.54a1.43 1.43 0 0 1 .33 0 .5.5 0 0 0 .47-.49c0-.11 0-.48-.59-.48m18.12 11.92a3 3 0 0 1-.92-.13c-.4-.14-.51-.72-.57-1.33L42 19.49c-.08-.64-.4-.74-.58-.74-.34 0-.49.32-.56.45l-4.32 9.2-4.47-9.21a.7.7 0 0 0-.63-.44c-.27 0-.48.24-.52.6l-1.16 10.34v.15c-.07.61-.13.77-.31.8a2.34 2.34 0 0 1-.37 0 .49.49 0 0 0-.51.47c0 .24.16.5.62.5H32c.59 0 .63-.38.63-.5a.48.48 0 0 0-.47-.47 2.16 2.16 0 0 1-.53-.08c-.12 0-.12-.06-.12-.1v-.77l.49-5.88.86 1.83v.08l.61 1.29c.39.85 1.44 2.87 1.86 3.66.33.62.48.91.84.91s.53-.32.87-1l3.31-7 .65 6.86a1.68 1.68 0 0 1 0 .25.49.49 0 0 0-.2.39c0 .45.5.49.76.52.58.06 2.34.08 2.73.08s.67-.25.67-.5a.46.46 0 0 0-.47-.47m10.95-1.89c-.4 0-.47.39-.5.53-.08.58-.28.71-.51.82a19.82 19.82 0 0 1-3.36.14c-1.51 0-1.52-.18-1.54-.92v-3.72c.36 0 .92 0 1.25.07.48.06.51.16.52.23a1.1 1.1 0 0 1 .05.4.46.46 0 0 0 .45.5c.24 0 .49-.2.49-.65 0-.08 0-.67.07-1a4.81 4.81 0 0 1 .09-.68 1.12 1.12 0 0 0 0-.23.45.45 0 0 0-.44-.49.58.58 0 0 0-.42.25l-.06.07c-.07.07-.25.09-.53.11h-.11a12.39 12.39 0 0 1-1.41 0v-4.2c1 0 3.7 0 3.9.05.79.1.83.19.86.27a1.4 1.4 0 0 1 .07.42c0 .39.24.56.47.56a.52.52 0 0 0 .48-.44c0-.13 0-.41.07-.76v-.32a3.28 3.28 0 0 1 .09-.52 1 1 0 0 0 0-.26.45.45 0 0 0-.42-.5.62.62 0 0 0-.27.07h-.1a5.87 5.87 0 0 1-.59.07h-7.41c-.55 0-.6.37-.6.48a.5.5 0 0 0 .47.49 4.33 4.33 0 0 1 .49 0c.26 0 .32 0 .35.54s0 1.23 0 3.66v2.78a33 33 0 0 1-.09 3.35v.05a1.73 1.73 0 0 1-.11.48h-.44a.47.47 0 0 0-.47.48c0 .23.16.49.6.49h2.9c.66 0 3.48.06 4.69.06.6 0 1 0 1.21-.67a13.14 13.14 0 0 0 .23-1.61c0-.57-.38-.59-.45-.59m10.9.14c-.4 0-.47.4-.5.53-.08.58-.27.7-.52.82a19.74 19.74 0 0 1-3.36.14c-1.51 0-1.52-.18-1.54-.92v-3.72c.41 0 1.1 0 1.43.07a.87.87 0 0 1 .31.08.87.87 0 0 0 0 .11 1.06 1.06 0 0 1 .05.4.46.46 0 0 0 .45.5c.24 0 .49-.2.49-.65 0-.08 0-.67.07-1a4.32 4.32 0 0 1 .09-.67 1.28 1.28 0 0 0 0-.23.45.45 0 0 0-.44-.49.59.59 0 0 0-.42.25l-.06.07c-.07.07-.25.09-.53.11h-.03a13 13 0 0 1-1.41 0v-4.2c1 0 3.7 0 3.9.05.79.1.83.19.86.27a1.44 1.44 0 0 1 .06.42c0 .39.24.56.47.56a.52.52 0 0 0 .48-.45 7.28 7.28 0 0 0 .07-.73v-.33a2.88 2.88 0 0 1 .09-.52 1 1 0 0 0 0-.26.44.44 0 0 0-.42-.5.62.62 0 0 0-.27.07h-.1c-.15 0-.37.06-.59.07h-7.43c-.55 0-.6.37-.6.48a.5.5 0 0 0 .47.49 4.34 4.34 0 0 1 .49 0c.26 0 .32 0 .35.54s0 1.23 0 3.66v2.78a33 33 0 0 1-.09 3.36v.05a1.72 1.72 0 0 1-.11.48h-.44a.47.47 0 0 0-.47.48c0 .23.16.49.6.49h2.9c.66 0 3.47.06 4.68.06.6 0 1 0 1.22-.67a13.47 13.47 0 0 0 .23-1.61c0-.57-.38-.59-.46-.59m9.52.08a.53.53 0 0 0-.5.5 1.58 1.58 0 0 1-.3.75c-.27.33-.85.36-1.64.36a3.55 3.55 0 0 1-1.87-.27 11.46 11.46 0 0 1-.22-3.28v-6.48c0-.49.09-.51.29-.55h.48a.48.48 0 0 0 .47-.47c0-.23-.15-.48-.6-.48h-3.55c-.55 0-.6.37-.6.48a.5.5 0 0 0 .47.49 4.32 4.32 0 0 1 .49 0c.26 0 .32 0 .35.54s0 1.23 0 3.66v2.78c0 1.53 0 2.73-.08 3.36-.06.38-.09.48-.15.5a2 2 0 0 1-.41.06.47.47 0 0 0-.47.49c0 .23.16.48.6.48h3.29c.75 0 1.65.06 2.77.06.86 0 1.16-.05 1.34-.68a10.65 10.65 0 0 0 .25-1.67c0-.57-.38-.6-.45-.6"/><path d="M26.75 12.29a6 6 0 0 0-1.13.74l-3 2.54h7.64a8.85 8.85 0 0 1-3.46-3.28m7.07 2.39h1.64l-1.16-1.19a6.5 6.5 0 0 0-4.66-1.89 7.34 7.34 0 0 0-1.21.11 6.62 6.62 0 0 0 5.4 3M32.2 5.32A6 6 0 0 0 30.89 5l-4-.42.44 4.09a6.34 6.34 0 0 0 .3 1.35 8.13 8.13 0 0 1 2-.26 8.49 8.49 0 0 1 2.72.44 9.25 9.25 0 0 1-.2-4.89m20.64 10.22L49.67 13a6 6 0 0 0-1.14-.73A8.88 8.88 0 0 1 45 15.55h7.64zm-13.11-3.35a7 7 0 0 0 1.74-6 6.91 6.91 0 0 0-2.9 5.56v1.69zm-5.86-6.02a7 7 0 0 0 1.77 6l1.17 1.19V11.7a6.91 6.91 0 0 0-2.93-5.54M43 5.29a9.24 9.24 0 0 1-.17 4.89 8.37 8.37 0 0 1 2.72-.46 8.26 8.26 0 0 1 2 .24 6.69 6.69 0 0 0 .29-1.35l.41-4.09-4 .45a5.83 5.83 0 0 0-1.25.32m-3.22 9.37h1.64a6.63 6.63 0 0 0 5.38-3 6.6 6.6 0 0 0-1.21-.11 6.49 6.49 0 0 0-4.65 1.92zM37.62 8a9 9 0 0 1 3.22-3.61 6.34 6.34 0 0 0-.72-1.16L37.6 0l-2.5 3.21a6.24 6.24 0 0 0-.71 1.17A9 9 0 0 1 37.62 8" fill="#b4a129"/></g></g></svg>