<svg xmlns="http://www.w3.org/2000/svg" viewBox="0 0 78.67 28.49"><defs><style>.cls-1{fill:#931831}.cls-2{fill:#616971}</style></defs><g id="Layer_2" data-name="Layer 2"><g id="Layer_1-2" data-name="Layer 1"><path class="cls-1" d="M53.72 9.72a.3.3 0 1 0 0-.6.3.3 0 0 0-.3.3.29.29 0 0 0 .3.3m2.16 11.51a1.82 1.82 0 0 1-.26.35 2.08 2.08 0 0 1-.33.29 1.71 1.71 0 0 1-.37.2 1 1 0 0 1-.36.07 1.38 1.38 0 0 1-.48-.08 1.34 1.34 0 0 1-.39-.22 1 1 0 0 1-.27-.32.82.82 0 0 1-.1-.39v-4h-1.09v4a1.66 1.66 0 0 0 .14.67A1.77 1.77 0 0 0 54 22.87a1.59 1.59 0 0 0 .52-.09 2.5 2.5 0 0 0 .53-.25 2.82 2.82 0 0 0 .48-.37 2.24 2.24 0 0 0 .36-.45v1h1.28v-5.56h-1.29zm2.85-14.31c0 1.47-.3 1.46-.88 1.46s-.71-.7-.71-1.39c0-.87.35-1.29 1-1.29a2.32 2.32 0 0 1 .55.06zm.73.4v-2a3.41 3.41 0 0 0-1.11-.19 2 2 0 0 0-1.49.55 2 2 0 0 0-.54 1.47 3.22 3.22 0 0 0 .25 1.24h-1.43c-.4 0-.6-.57-.6-1V5.24l-.82.21v1.92c0 .44-.2 1-.6 1h-1.48V6.65a2.7 2.7 0 0 0 0-.5 1.09 1.09 0 0 0-.19-.44A1 1 0 0 0 51 5.4a1.67 1.67 0 0 0-.68-.12 2 2 0 0 0-.43 0 1.83 1.83 0 0 0-.35.12 1.79 1.79 0 0 0-.29.16l-.25.22.24.33.21-.11.23-.18a1.72 1.72 0 0 1 .32-.19.69.69 0 0 1 .28-.06.65.65 0 0 1 .47.16.58.58 0 0 1 .16.43v2.22h-2v.39h4.48a1.25 1.25 0 0 0 .79-.25 1.25 1.25 0 0 0 .81.25h2.69c1.23 0 1.85.16 1.85-1.45m-6.82 2.11a.3.3 0 0 0-.61 0 .3.3 0 0 0 .3.3.3.3 0 0 0 .31-.29m15.88 8.93a1.75 1.75 0 0 1 .3-.47 1.37 1.37 0 0 1 .41-.31 1.08 1.08 0 0 1 .48-.11 1.41 1.41 0 0 1 .56.11 1.43 1.43 0 0 1 .46.31 1.45 1.45 0 0 1 .31.47 1.55 1.55 0 0 1 .11.59h-2.78a1.8 1.8 0 0 1 .14-.59m3.58 2.79a2.23 2.23 0 0 1-.46.44 2.35 2.35 0 0 1-.6.31 2.1 2.1 0 0 1-.7.12 1.61 1.61 0 0 1-.8-.2 1.9 1.9 0 0 1-.62-.55 2.63 2.63 0 0 1-.41-.83 3.59 3.59 0 0 1-.14-1h4.17a2.25 2.25 0 0 0-.18-.89 2.3 2.3 0 0 0-.51-.75 2.49 2.49 0 0 0-.79-.52 2.55 2.55 0 0 0-1-.19 2.66 2.66 0 0 0-1.13.23 2.55 2.55 0 0 0-.87.65 3 3 0 0 0-.56 1 3.78 3.78 0 0 0-.2 1.25 2.57 2.57 0 0 0 .22 1.05 2.73 2.73 0 0 0 .59.86 2.8 2.8 0 0 0 .87.58 2.66 2.66 0 0 0 1.06.21 2.39 2.39 0 0 0 .85-.16 3 3 0 0 0 .78-.45 3.14 3.14 0 0 0 .62-.66 2.64 2.64 0 0 0 .39-.81l-.32-.15a1.63 1.63 0 0 1-.27.51M65 9.43a.3.3 0 0 0-.61 0 .3.3 0 0 0 .3.3.3.3 0 0 0 .31-.3m-2.63 11.63h-.06L59.5 15.5h-1.25v7.25h.54v-5.9h.09l3 5.9h.25l3-5.94v5.94h1.29V15.5h-1.28zm3.9-11.63a.3.3 0 0 0-.6 0 .29.29 0 0 0 .3.3.3.3 0 0 0 .3-.29m-28 11a3.39 3.39 0 0 1-.49 1.1 2.33 2.33 0 0 1-.8.73 2.25 2.25 0 0 1-1.1.26 2.23 2.23 0 0 1-1.92-1 3.38 3.38 0 0 1-.49-1.1 5.52 5.52 0 0 1-.16-1.39 5.32 5.32 0 0 1 .16-1.37 3.25 3.25 0 0 1 .53-1.03 2.28 2.28 0 0 1 .8-.7 2.4 2.4 0 0 1 1.11-.25 2.34 2.34 0 0 1 1.1.25 2.31 2.31 0 0 1 .8.7 3.25 3.25 0 0 1 .49 1.07 5.23 5.23 0 0 1 .17 1.37 5.42 5.42 0 0 1-.17 1.39m1.07-3.28a3.71 3.71 0 0 0-.62-.76 3.92 3.92 0 0 0-.81-.58 4.07 4.07 0 0 0-1-.38 4.31 4.31 0 0 0-1.08-.13 4.21 4.21 0 0 0-1.58.29 4 4 0 0 0-1.27.8 3.75 3.75 0 0 0-.85 1.19 3.49 3.49 0 0 0-.31 1.46 3.73 3.73 0 0 0 .61 1.92 3.82 3.82 0 0 0 .62.78 3.86 3.86 0 0 0 .81.6 4.23 4.23 0 0 0 1 .39 4.25 4.25 0 0 0 2.15 0 4.18 4.18 0 0 0 1-.39A3.91 3.91 0 0 0 39.38 21a3.73 3.73 0 0 0 .54-1.93 3.59 3.59 0 0 0-.54-1.9m36-11.53h.42v2.74h-.69c-.51 0-.77-.69-.77-1.34 0-.86.39-1.39 1-1.39M75 8.76h.78a1.6 1.6 0 0 1-1.12 1.5l.17.32a2.11 2.11 0 0 0 1.76-1.82V5.18h-1.2a1.86 1.86 0 0 0-1.4.56 2 2 0 0 0-.53 1.45A2 2 0 0 0 74 8.55c.27.27.64.21 1.08.21m3.5-5.33l-.82.08v5.6h.82zm-27.7 17.65a2.09 2.09 0 0 1-.36.49 1.57 1.57 0 0 1-.5.33 1.69 1.69 0 0 1-.67.12 1.55 1.55 0 0 1-.8-.21 2 2 0 0 1-.62-.57 2.68 2.68 0 0 1-.4-.84 3.59 3.59 0 0 1-.14-1 2.5 2.5 0 0 1 .11-.75 1.85 1.85 0 0 1 .32-.61 1.55 1.55 0 0 1 .51-.41 1.47 1.47 0 0 1 .68-.15 1.3 1.3 0 0 1 .46.07.65.65 0 0 1 .43.48 1.55 1.55 0 0 1 0 .36.59.59 0 0 0 0 .23.62.62 0 0 0 .34.33.67.67 0 0 0 .27.05.75.75 0 0 0 .27 0 .89.89 0 0 0 .24-.13.64.64 0 0 0 .17-.19.48.48 0 0 0 .06-.24.94.94 0 0 0-.16-.53 1.41 1.41 0 0 0-.45-.42 2.37 2.37 0 0 0-.68-.28 3.51 3.51 0 0 0-.86-.1 2.69 2.69 0 0 0-1.13.24 2.91 2.91 0 0 0-.92.65 3.14 3.14 0 0 0-.85 2.17 2.81 2.81 0 0 0 .21 1.08 2.77 2.77 0 0 0 .56.88 2.68 2.68 0 0 0 .84.59 2.48 2.48 0 0 0 1 .22 2.54 2.54 0 0 0 .89-.15 2.34 2.34 0 0 0 .73-.44 2.74 2.74 0 0 0 .57-.7 3.86 3.86 0 0 0 .38-.94l-.33-.14a5.48 5.48 0 0 1-.27.58m-5.68 0a2.06 2.06 0 0 1-.36.49 1.58 1.58 0 0 1-.5.33 1.7 1.7 0 0 1-.67.12 1.55 1.55 0 0 1-.8-.21 2 2 0 0 1-.62-.57 2.72 2.72 0 0 1-.4-.84 3.59 3.59 0 0 1-.14-1 2.5 2.5 0 0 1 .11-.75 1.85 1.85 0 0 1 .32-.61 1.55 1.55 0 0 1 .51-.41 1.47 1.47 0 0 1 .68-.15 1.31 1.31 0 0 1 .46.07.68.68 0 0 1 .29.19.68.68 0 0 1 .14.29 1.5 1.5 0 0 1 0 .36.59.59 0 0 0 0 .23.65.65 0 0 0 .13.2.66.66 0 0 0 .21.14.67.67 0 0 0 .27.05.75.75 0 0 0 .27 0 .89.89 0 0 0 .24-.13.64.64 0 0 0 .17-.19.48.48 0 0 0 .06-.24.94.94 0 0 0-.16-.53 1.42 1.42 0 0 0-.45-.42 2.37 2.37 0 0 0-.68-.28 3.51 3.51 0 0 0-.86-.1 2.69 2.69 0 0 0-1.13.24 2.92 2.92 0 0 0-.92.65 3.14 3.14 0 0 0-.85 2.17 2.83 2.83 0 0 0 .2 1.08 2.8 2.8 0 0 0 .56.88 2.68 2.68 0 0 0 .84.59 2.48 2.48 0 0 0 1 .22 2.54 2.54 0 0 0 .89-.15 2.34 2.34 0 0 0 .73-.44 2.74 2.74 0 0 0 .57-.7 3.86 3.86 0 0 0 .38-.94l-.34-.14a5.47 5.47 0 0 1-.27.58m32.11.74l-.1.08a1.86 1.86 0 0 1-.3.18 1.91 1.91 0 0 1-.34.13 1.39 1.39 0 0 1-.35 0 1.27 1.27 0 0 1-.68-.2 1.86 1.86 0 0 1-.56-.55 2.87 2.87 0 0 1-.38-.81 3.46 3.46 0 0 1-.14-1 3.12 3.12 0 0 1 .13-.9 2.37 2.37 0 0 1 .34-.71 1.55 1.55 0 0 1 .51-.46 1.22 1.22 0 0 1 .62-.17 1.26 1.26 0 0 1 .5.11 1.49 1.49 0 0 1 .45.3 1.44 1.44 0 0 1 .3.43zm0-7.74v3.37a2.23 2.23 0 0 0-.42-.27 1.67 1.67 0 0 0-.71-.14 2.64 2.64 0 0 0-.96.11 3.08 3.08 0 0 0-.93.67 3.15 3.15 0 0 0-.63 1 2.77 2.77 0 0 0-.23 1.1 3.22 3.22 0 0 0 .18 1.09 3 3 0 0 0 .51.91 2.46 2.46 0 0 0 .75.62 1.93 1.93 0 0 0 .92.23 2.68 2.68 0 0 0 .48 0 3 3 0 0 0 .49-.13 3.53 3.53 0 0 0 .47-.21l.27-.17v.55h1.28V14zM62.63 8.38h-.69c-.51 0-.77-.69-.77-1.34 0-.86.39-1.39 1-1.39h.42zM72.7 7c0-1.3-.74-1.87-2-1.87h-1.56l.73-.74.94-1h-.94a30.38 30.38 0 0 1-2.28 2.42h2.9c.93 0 1.39.31 1.39.95v1.62H67c-.4 0-.6-.57-.6-1V5.24l-.82.21v1.92c0 .44-.2 1-.6 1h-1.5V5.18h-1.2a1.86 1.86 0 0 0-1.4.56 2 2 0 0 0-.53 1.45 2 2 0 0 0 .46 1.36c.27.27.64.21 1.08.21h.78a1.6 1.6 0 0 1-1.12 1.5l.17.32a2.12 2.12 0 0 0 1.74-1.82h1.73a1.25 1.25 0 0 0 .81-.24 1.26 1.26 0 0 0 .81.25h5.89z"/><path class="cls-2" d="M77.67 25.49a1.3 1.3 0 0 1 .84.34l.16.13v-.86a1.8 1.8 0 0 0-.91-.26 1.77 1.77 0 0 0-1.41.65 1.81 1.81 0 0 0-.44 1.2 1.75 1.75 0 0 0 .53 1.28 1.77 1.77 0 0 0 1.29.53 1.91 1.91 0 0 0 1-.26v-.87l-.16.14-.22.17-.2.11a1 1 0 0 1-.41.08 1.06 1.06 0 0 1-.8-.33 1.11 1.11 0 0 1-.32-.81 1.14 1.14 0 0 1 .33-.83 1 1 0 0 1 .79-.34M52.37 12.59a.23.23 0 1 0 .23.23.23.23 0 0 0-.23-.23m.77.23a.23.23 0 1 0-.23.23.23.23 0 0 0 .23-.23m.86-2.13a.24.24 0 1 0-.24-.24.24.24 0 0 0 .24.24m-3.27.22h-.6a.23.23 0 0 1 .15-.29.23.23 0 0 1 .24.08l.2-.15a.53.53 0 0 0-.38-.19.51.51 0 0 0-.49.31.5.5 0 0 0 0 .24h-.34v.28h1.26zm13.03 17.56a1.92 1.92 0 0 0 1-.26h.05v-.87l-.16.14-.22.17-.2.11a1 1 0 0 1-.41.08 1.07 1.07 0 0 1-.8-.33 1.11 1.11 0 0 1-.32-.81 1.14 1.14 0 0 1 .33-.83 1 1 0 0 1 .79-.34 1.3 1.3 0 0 1 .84.34l.16.13v-.86h-.05a1.8 1.8 0 0 0-.91-.26 1.77 1.77 0 0 0-1.41.64 1.81 1.81 0 0 0-.44 1.2 1.75 1.75 0 0 0 .53 1.28 1.77 1.77 0 0 0 1.29.53m3.56-.79h-.98v-2.85h-.7v3.52h1.68v-.67zm.78-2.85h.7v3.52h-.7zm6.04 0h.7v3.52h-.7zm-1.81 1.89l-2.42-1.99v3.62h.7V26.5l2.42 1.99v-3.6h-.7v1.89zM55.36 12.82a.23.23 0 1 0-.23.23.23.23 0 0 0 .23-.23"/><path class="cls-2" d="M59.46 12.26v-.68a.95.95 0 0 0-1-.86l.75-.79h-.61l-1.16 1.21.32.3a.71.71 0 0 1 .57-.25.6.6 0 0 1 .43.15.52.52 0 0 1 .15.3 2.11 2.11 0 0 1 0 .3h-1.62c-.2 0-.28-.09-.28-.28V10h-.46v1.6c0 .2-.09.3-.28.3h-.37c-.2 0-.29-.08-.29-.28v-.73h-.46v.72c0 .2-.09.29-.29.29h-.34c-.2 0-.29-.08-.29-.28v-.73h-.46v.72c0 .2-.09.29-.29.29h-.34c-.2 0-.29-.08-.29-.28v-.73h-.45v.72c0 .2-.09.29-.29.29h-.28c-.25 0-.37-.12-.37-.39V10H51v1.62c0 .19-.09.28-.29.28h-1.17c-.2 0-.29-.09-.29-.28v-.72h-.46v.76a.65.65 0 0 0 .7.67h1.25a.72.72 0 0 0 .55-.21.65.65 0 0 0 .52.21h.32a.75.75 0 0 0 .5-.16.73.73 0 0 0 .49.16h.38a.75.75 0 0 0 .5-.16.73.73 0 0 0 .49.16h.38a.75.75 0 0 0 .5-.16.73.73 0 0 0 .49.16h.41a.72.72 0 0 0 .5-.17.72.72 0 0 0 .49.17h2.2zm-3.56.56a.23.23 0 1 0-.23.23.23.23 0 0 0 .23-.23"/><path class="cls-1" d="M22.92 21.94a5.88 5.88 0 0 1-3 3 12.43 12.43 0 0 1-13.86-2.56A12.18 12.18 0 0 1 3.32 8.86a9.57 9.57 0 0 1 2.23-3.54 11.8 11.8 0 0 1 3.56-2 14 14 0 0 1 8.47-.5h.11a2.53 2.53 0 0 0 2.1-.71c.61-.62.74-1.41.41-1.63a.54.54 0 0 0-.15-.07c-6.33-1.55-11.89 1.3-16 6C0 10.93-1.58 17.46 2 22.76s10.79 7.33 16.34 4.19a16.93 16.93 0 0 0 7.12-7.76 6 6 0 0 1-1.51-.43 11.15 11.15 0 0 1-1 3.18"/><path class="cls-1" d="M19.2 4.94c-3.7-1.18-7.24.08-10 2.6a10.11 10.11 0 0 0-1.59 1.7c-.31.47.39-.11.59-.24 4.22-3.84 11-2 14 2.39a10.38 10.38 0 0 1 1.13 2.15 4.8 4.8 0 0 1 1.1.62 7.09 7.09 0 0 0 1.93.94 10 10 0 0 0-.35-3 10.44 10.44 0 0 0-6.81-7.16"/><path class="cls-2" d="M31 14.73c-1.71 1.94-5.06 1.08-6.87-.2-1-.71-1.81-1-2.77-.11-.49.46-1.07 1.43-1.88 1.06-.44-.2-.57-.7-.76-1.1-.47-1-1.07-1.2-1.91-.38-1.06 1-1.81 2.27-3.31 2.75a3.56 3.56 0 0 1-3.7-1.06A4.26 4.26 0 0 1 8.92 14a4.68 4.68 0 0 1 0-1.84 14.29 14.29 0 0 1 .85-2.3c.14-.32.5-1.14.1-.64-1.88 2.36-4 6-2.09 8.94a3.61 3.61 0 0 0 4.45 1.41A6 6 0 0 0 14 18.34c.55-.51 1-1.43 1.67-1.81 1.48-.89 1.29 1.93 2.58 1.94.67 0 1.07-.66 1.51-1.05.82-.73 1.29-.89 2.25-.31a8.25 8.25 0 0 0 4.12 1.63 4.35 4.35 0 0 0 3.62-1.4 8.94 8.94 0 0 0 1.21-2c.08-.15.52-1.12.1-.64"/></g></g></svg>