<svg xmlns="http://www.w3.org/2000/svg" viewBox="0 0 60.75 42.44"><defs><style>.cls-1{fill:#a40344}.cls-4{fill:#fff}</style></defs><g id="Layer_2" data-name="Layer 2"><g id="Layer_1-2" data-name="Layer 1"><rect class="cls-1" y="15.71" width="60.75" height="26.73" rx="3.23" ry="3.23"/><path class="cls-1" d="M18.6 13.32v-1h.21a.89.89 0 0 1 .83 1v1h-.21a.89.89 0 0 1-.83-1m1.72 0v-1h.21a.89.89 0 0 1 .83 1v1h-.21a.89.89 0 0 1-.83-1m11.09 0v-1h.21a.89.89 0 0 1 .83 1v1h-.21a.89.89 0 0 1-.83-1m17.49 0v-1h.21a.89.89 0 0 1 .83 1v1h-.21a.89.89 0 0 1-.83-1M42.81 13a5.8 5.8 0 0 1-1.14-.1h-.14v-.14a.63.63 0 0 1 .19-.44 1.09 1.09 0 0 1 .74-.28h.35c1.27 0 1.37-.63 1.38-1.68v-7a1 1 0 0 1 1-1h.17v4.3c0 1.33 1 2.89 3.71 2.89s3.23-1.27 3.23-2.64V3.32a1 1 0 0 1 1-1h.17v4.61c0 1 0 3.6-4.37 3.6a4.45 4.45 0 0 1-3.74-1.59v1.85c0 1.48-.85 2.24-2.53 2.24"/><path class="cls-1" d="M35.27 6.43a.94.94 0 0 0-.22 1l-.1.06s-.9-1.08-.18-1.89a1.35 1.35 0 0 1 1.12-.42 3.34 3.34 0 0 1 1.68.52l2 1.19a4.85 4.85 0 0 0 .6.29 2 2 0 0 0 .62.16h2l-1.16 1.09H40.5a3.5 3.5 0 0 0-1.89.51l-.79.45-.94.53a4.91 4.91 0 0 1-2.35.55h-5.3A4.45 4.45 0 0 1 24.92 8a4.45 4.45 0 0 1-4.31 2.44h-1.38A4.57 4.57 0 0 1 15.69 9v1.13a3.37 3.37 0 0 1-1 2.47 4.53 4.53 0 0 1-3.31 1.18 4.21 4.21 0 0 1-3-1.08A3.51 3.51 0 0 1 7.25 10a3.82 3.82 0 0 1 .94-2.56 5 5 0 0 1 3.2-1.55h.09a1.12 1.12 0 0 1 1.26 1v.25l-.24-.08a2.79 2.79 0 0 0-.88-.06 3.48 3.48 0 0 0-2.43.87 2.68 2.68 0 0 0-.84 2 2.53 2.53 0 0 0 .84 1.94 3.09 3.09 0 0 0 2.16.81 3.38 3.38 0 0 0 2.43-.78 2.66 2.66 0 0 0 .74-2V1a1 1 0 0 1 .92-1h.24v6.77c0 1.27 1 2.64 3.63 2.64h1.29c2.71 0 3.7-1.47 3.74-2.73v-3a1 1 0 0 1 1-1h.17v4c0 1.32 1 2.73 3.74 2.73h5.29a4.17 4.17 0 0 0 1.63-.34c.14-.06.51-.24 1.4-.76a9.21 9.21 0 0 1 1.2-.59l-1.88-1.1a4.26 4.26 0 0 0-.5-.24 1.07 1.07 0 0 0-1.11.06"/><path d="M12.84 36.33a3.06 3.06 0 0 1-3 1.86 6.74 6.74 0 0 0-2.33.27 5 5 0 0 1 1.79-2.6 3.58 3.58 0 0 1 1.18-.53 9.29 9.29 0 0 0-.67-.31 4 4 0 0 0-.8.43 5.67 5.67 0 0 0-2.12 3.4l-.1.57.48-.32a4.8 4.8 0 0 1 2.54-.41 3.73 3.73 0 0 0 1.92-.42 4 4 0 0 0 1.66-1.89l-.53-.05" fill="#b8b20e"/><path d="M17.67 33.3a6 6 0 0 0-.82.6c-1.79 1.57-3.53 1.83-5.31.79a8.76 8.76 0 0 0-2.84-1.13 6.48 6.48 0 0 1 3.65-1.87 5 5 0 0 1 3 .68c1 .55 1.53.27 1.53.27a6.14 6.14 0 0 0-4.6-1.64 7.38 7.38 0 0 0-4.53 2.58l-.46.59.71-.02a6.2 6.2 0 0 1 3.17 1.1 4.82 4.82 0 0 0 2.45.71 5.52 5.52 0 0 0 3.62-1.57 2.82 2.82 0 0 1 2-.93 1.18 1.18 0 0 0-1.57-.17" fill="#ebe76b"/><path class="cls-4" d="M11.66 22.47a3.14 3.14 0 0 0-3.36 3.4 3.13 3.13 0 0 0 3.45 3.26 3.07 3.07 0 0 0 3.18-3.36 3.09 3.09 0 0 0-3.27-3.3m0 7.6a3.81 3.81 0 0 1-3.29-1.49v1.25h-.25a.87.87 0 0 1-.76-.88V18.73h.21a.85.85 0 0 1 .82 1v3.37a4 4 0 0 1 3.29-1.54A4.08 4.08 0 0 1 16 25.78a4.06 4.06 0 0 1-4.28 4.28m26.11-7.59a3.12 3.12 0 0 1 3.35 2.71h-6.69a3.18 3.18 0 0 1 3.34-2.71m2.95 5.25A3 3 0 0 1 38 29.13c-2.06 0-3.39-1.15-3.51-3h7.87v-.17a4.17 4.17 0 0 0-4.42-4.42 4.17 4.17 0 0 0-4.48 4.21c0 2.67 1.71 4.33 4.46 4.33a4 4 0 0 0 4.21-2.91l.05-.16c-.57-.17-1 0-1.37.72m-9.37-8.04v-1h.21a.88.88 0 0 1 .82.94v1h-.21a.88.88 0 0 1-.82-.94m0 2.08h.21a.88.88 0 0 1 .82.94V31a1.89 1.89 0 0 1-2.15 2.1 4.45 4.45 0 0 1-1-.09h-.13v-.13a.64.64 0 0 1 .18-.44 1 1 0 0 1 .73-.25h.19c1.08 0 1.13-.6 1.13-1.76zm-4.35 8.05h-.21a.88.88 0 0 1-.81-.94v-7.11h.27a.88.88 0 0 1 .75.92v.4a3.29 3.29 0 0 1 2.63-1.55h.08a1 1 0 0 1 1.09.92v.25l-.23-.09a2.14 2.14 0 0 0-.74-.08 2.76 2.76 0 0 0-2.83 2.92zm-2.38-7.12a.87.87 0 0 0-.86-.93h-.17v4.67c0 1.24-.81 2.68-3.11 2.68s-2.7-1.18-2.7-2.46v-4a.87.87 0 0 0-.86-.89h-.17v4.93c0 .92 0 3.36 3.71 3.36a3.67 3.67 0 0 0 3.12-1.42v.24a.88.88 0 0 0 .82.94h.21zm22.38-.23a3.12 3.12 0 0 1 3.35 2.71h-6.69a3.18 3.18 0 0 1 3.34-2.71M50 27.72a3 3 0 0 1-2.77 1.35c-2.06 0-3.39-1.15-3.51-3h7.87v-.17a4.17 4.17 0 0 0-4.42-4.42 4.17 4.17 0 0 0-4.48 4.21c0 2.67 1.71 4.33 4.46 4.33a4 4 0 0 0 4.21-2.91l.05-.16c-.57-.17-1 0-1.37.72m2.32 1.21a.88.88 0 0 0 .81.93h.21V19.66a.88.88 0 0 0-.82-.94h-.21zm-15.25 6.54a2.51 2.51 0 0 1 2-.57 1.29 1.29 0 0 1 1.34 1.28v2.41c0 .09 0 .19-.13.22a.27.27 0 0 1-.25-.1.64.64 0 0 1-.16-.52v-1.49c0-.9-.33-1.25-1.14-1.27s-1.48.42-1.51 1.29v1.49a1 1 0 0 1-.09.64.61.61 0 0 1-.46-.68v-1.63c0-.81-.31-1.09-1.12-1.11a1.73 1.73 0 0 0-.76.13 1.05 1.05 0 0 0-.71 1v1.91c0 .11 0 .26-.11.3s-.27-.05-.35-.17a1 1 0 0 1-.15-.6v-1.27A1.58 1.58 0 0 1 34.69 35a2.22 2.22 0 0 1 2.42.45m7.02 1.4a5.27 5.27 0 0 1-1.3.13 2.73 2.73 0 0 0-.76.1c-.4.13-.57.31-.55.62a.72.72 0 0 0 .57.64 2.31 2.31 0 0 0 1.11 0c.72-.23.92-.52.93-1.44m.57.15v.64c0 .22 0 .64.39.81.18.07.13.29-.07.35a.59.59 0 0 1-.71-.15c-.18-.24-.33-.15-.53 0a2.65 2.65 0 0 1-2 .18 1 1 0 0 1-.78-1.17 1 1 0 0 1 .81-1.08 10.11 10.11 0 0 1 1.46-.19h.42c.14 0 .39 0 .43-.28a.54.54 0 0 0-.25-.61 2.2 2.2 0 0 0-1.17-.16.93.93 0 0 0-1 .58.44.44 0 0 1-.09.11c-.11.12-.25.26-.42.16s-.09-.26 0-.39a1.27 1.27 0 0 1 1-.95 4.79 4.79 0 0 1 1.48 0 1.08 1.08 0 0 1 1 1.08 10.36 10.36 0 0 1 0 1.06zm-16.2-.1a5.86 5.86 0 0 0-1.39.16.56.56 0 0 0-.45.48.59.59 0 0 0 .34.63.88.88 0 0 0 .26.11 2.24 2.24 0 0 0 1.44-.17 1 1 0 0 0 .54-.62c.15-.49.06-.61-.46-.59h-.28m.77 1.43a2.58 2.58 0 0 1-2.29.41 1.11 1.11 0 0 1-.89-1.05 1 1 0 0 1 .74-1.08 9.44 9.44 0 0 1 1.6-.22 2.53 2.53 0 0 1 .35 0c.18 0 .4 0 .44-.25a.57.57 0 0 0-.22-.63 2.16 2.16 0 0 0-1.17-.18 1 1 0 0 0-1 .56 1 1 0 0 1-.12.18.31.31 0 0 1-.37.12c-.19-.09-.06-.25 0-.36a1.17 1.17 0 0 1 1.19-1 6.68 6.68 0 0 1 1.27 0 1.1 1.1 0 0 1 1 1.19v1.63c0 .32 0 .62.37.74a.28.28 0 0 1 .15.21c0 .16-.15.14-.26.17-.42.13-.67-.08-.84-.43m-9.85-3.02a1.36 1.36 0 0 0-1.52 1.46 1.45 1.45 0 0 0 1.49 1.54 1.44 1.44 0 0 0 1.51-1.5 1.37 1.37 0 0 0-1.48-1.5m-1.45 0a2.3 2.3 0 0 1 2.91 0 2.21 2.21 0 0 1 .2 2.73c-.66.89-1.74 1-3.1.3a4.76 4.76 0 0 0 0 1.05v.49c0 .16 0 .21-.14.21a.44.44 0 0 1-.24-.12c-.2-.18-.17-.42-.17-.66v-4.24c0-.24 0-.25.15-.28a.29.29 0 0 1 .29.16 2.54 2.54 0 0 1 .16.31m5.51-2.85c-.16.63-.64.48-1.06.6v1.94c0 .24.15.28.38.13A2.17 2.17 0 0 1 24.9 35a1.07 1.07 0 0 1 .71 1v2.55c0 .09 0 .19-.15.2a.31.31 0 0 1-.25-.11.69.69 0 0 1-.15-.53v-1.49c0-.49 0-.92-.54-1.13a1.77 1.77 0 0 0-1.63.1 1 1 0 0 0-.43.92v1.91c0 .13 0 .31-.16.33a.37.37 0 0 1-.33-.23 1.2 1.2 0 0 1-.13-.61v-4.39a2.08 2.08 0 0 1 0-.35c.08-.45.25-.6.71-.61a3.24 3.24 0 0 0 .91-.09M53 38.31a2.37 2.37 0 0 1-2 .46 1.25 1.25 0 0 1-1.17-1.06c-.09-.93 0-1.87 0-2.86a.62.62 0 0 1 .55.7v1.63c0 .78.29 1.06 1.07 1.09a2.23 2.23 0 0 0 .42 0A1.16 1.16 0 0 0 53 37v-1.56a3.52 3.52 0 0 1 0-.44c0-.16.18-.21.31-.11a.7.7 0 0 1 .22.64v4.67c0 .88-.23.94-1 .95h-.14c-.15 0-.38.05-.41-.16s.19-.32.41-.37c.59-.11.59-.12.6-.71s0-1 0-1.65"/><path class="cls-4" d="M49.34 37.47a1.88 1.88 0 0 1-2.28 1.36 2 2 0 0 1-.11-4 1.92 1.92 0 0 1 2.41 1.43.53.53 0 0 1-.65-.28 1.42 1.42 0 0 0-1.46-.65 1.48 1.48 0 0 0 0 2.95 1.42 1.42 0 0 0 1.41-.62c.19-.29.22-.27.63-.22m-17.77-2.18a1.8 1.8 0 0 1 1-.54.62.62 0 0 1 .65.32c.08.15.06.28-.14.3s-.19 0-.28 0a1.23 1.23 0 0 0-1.35 1.36v1.48a3.29 3.29 0 0 1 0 .42c0 .19-.16.22-.31.14a.55.55 0 0 1-.3-.52v-3c0-.14 0-.3.15-.37s.31 0 .4.19l.14.19"/></g></g></svg>