<svg xmlns="http://www.w3.org/2000/svg" viewBox="0 0 75.01 31.94"><defs><style>.cls-1{fill:#a21a76}</style></defs><g id="Layer_2" data-name="Layer 2"><g id="Layer_1-2" data-name="Layer 1"><path class="cls-1" d="M73.1 22.81a13.18 13.18 0 0 1-2.1-.57c-.32-.11-.63-.23-.94-.37a22.34 22.34 0 0 1-2.25-1.08c-.41-.23-.81-.46-1.21-.71A28.69 28.69 0 0 0 63 18a9.66 9.66 0 0 0-1.11-.4 6.43 6.43 0 0 0-4.25 0 9.61 9.61 0 0 0-2.56 1.58c1.43-1.07 3.31-.81 4.89-.3a20 20 0 0 1 4.24 2A23.62 23.62 0 0 0 68.12 23l.21.08a10.33 10.33 0 0 0 2.06.48 9 9 0 0 0 4-.36c.19-.06.39-.16.59-.24a11.48 11.48 0 0 1-1.9-.12"/><path d="M24.37.9h3.52v22.65h-3.52zM18.2.9H.17v.97h13.52L.17 23.55h18.08v-.9H4.65L18.2.9zm35.13 0l-8.28 17.4L36.97.9h-4.18l11.02 23.15L54.5.9h-1.17zm8.38-.51L51 23.54h1.17l8.3-17.4 5.93 12.72h.07a14.3 14.3 0 0 0 5.37 2.72zM69 2.63h.47a2.15 2.15 0 0 0 .53-.05.54.54 0 0 0 .29-.17.49.49 0 0 0 .09-.31.49.49 0 0 0-.08-.3.45.45 0 0 0-.27-.16 2.34 2.34 0 0 0-.5 0H69zm-.34-1.31h1.17a1.14 1.14 0 0 1 .7.2.67.67 0 0 1 .25.56.79.79 0 0 1-.17.5 1 1 0 0 1-.6.29 2.3 2.3 0 0 1 .33.23 1.35 1.35 0 0 1 .22.33c.08.15.19.4.33.73h-.39a6.39 6.39 0 0 0-.42-.83.88.88 0 0 0-.36-.33 1.38 1.38 0 0 0-.52-.08H69v1.24h-.34zm1.08-1a2.25 2.25 0 0 0-.9.18 2.4 2.4 0 0 0-1.24 1.3 2.38 2.38 0 0 0-.18.91 2.38 2.38 0 0 0 1.16 2.06 2.33 2.33 0 0 0 2.36 0 2.35 2.35 0 0 0 .85-.87 2.32 2.32 0 0 0 .32-1.19 2.35 2.35 0 0 0-.18-.91A2.4 2.4 0 0 0 70.67.52a2.25 2.25 0 0 0-.91-.18m0-.34a2.67 2.67 0 0 1 2.33 1.35 2.65 2.65 0 0 1 .36 1.36 2.66 2.66 0 0 1-.36 1.36 2.64 2.64 0 0 1-1 1 2.65 2.65 0 0 1-2.69 0 2.71 2.71 0 0 1-1.34-2.35A2.71 2.71 0 0 1 68.42.36 2.64 2.64 0 0 1 69.77 0" fill="#432a51"/><path class="cls-1" d="M2.26 28.18a.43.43 0 0 0-.07-.24.35.35 0 0 0-.2-.14h-.64L1.11 29h.34a.86.86 0 0 0 .28 0 .79.79 0 0 0 .2-.1.69.69 0 0 0 .15-.15.9.9 0 0 0 .1-.18.93.93 0 0 0 .05-.19 1 1 0 0 0 0-.19m.8-.09a1.71 1.71 0 0 1 0 .33 1.46 1.46 0 0 1-.12.34 1.44 1.44 0 0 1-.21.32 1.28 1.28 0 0 1-.31.27 1.61 1.61 0 0 1-.43.18 2.17 2.17 0 0 1-.57.07H1L.76 30.8a.1.1 0 0 1 0 .05H.01a.06.06 0 0 1 0-.05l.67-3.34a.33.33 0 0 1 .11-.2.34.34 0 0 1 .21-.07h1.3a1.15 1.15 0 0 1 .31.1.83.83 0 0 1 .24.18.72.72 0 0 1 .15.25 1 1 0 0 1 .05.33m2.38 2.75a.11.11 0 0 1 0 .05h-.52a.07.07 0 0 1 0-.05l.08-.42a1 1 0 0 1-.16.2 1.39 1.39 0 0 1-.23.19 1.34 1.34 0 0 1-.28.14 1 1 0 0 1-.31.05.89.89 0 0 1-.34-.06.57.57 0 0 1-.22-.15.59.59 0 0 1-.12-.23 1.06 1.06 0 0 1 0-.29 1.5 1.5 0 0 1 0-.2v-.21l.32-1.59h.64L4 29.78a1.13 1.13 0 0 0 0 .13v.13a.54.54 0 0 0 0 .13.25.25 0 0 0 0 .09.18.18 0 0 0 .07.06h.11a.48.48 0 0 0 .25-.08 1 1 0 0 0 .24-.21 1.47 1.47 0 0 0 .2-.32 1.65 1.65 0 0 0 .13-.36l.22-1.11h.7zm2.83-2.6a.72.72 0 0 1 0 .07v.4a.39.39 0 0 1 0 .1.07.07 0 0 1-.06 0h-.4a.38.38 0 0 0-.21.07 1.09 1.09 0 0 0-.21.2 1.45 1.45 0 0 0-.18.28 1.31 1.31 0 0 0-.11.34l-.23 1.14a.09.09 0 0 1 0 .05h-.67a.07.07 0 0 1 0-.05l.51-2.56a.1.1 0 0 1 0-.05h.54a.07.07 0 0 1 0 .05l-.08.41a1.26 1.26 0 0 1 .16-.23 1.21 1.21 0 0 1 .19-.18.89.89 0 0 1 .21-.12.58.58 0 0 1 .21 0h.24a.07.07 0 0 1 0 .05m1.97.69a.24.24 0 0 0-.09-.19.39.39 0 0 0-.26-.08.63.63 0 0 0-.26.05.66.66 0 0 0-.2.14.89.89 0 0 0-.15.21 1.43 1.43 0 0 0-.1.25h.24a2.06 2.06 0 0 0 .38 0 .88.88 0 0 0 .25-.08.36.36 0 0 0 .14-.12.28.28 0 0 0 0-.15m.71-.05a.73.73 0 0 1-.09.37.8.8 0 0 1-.29.28 1.58 1.58 0 0 1-.5.18 3.59 3.59 0 0 1-.72.06H9a1.15 1.15 0 0 0 0 .13A1 1 0 0 0 9 30a.46.46 0 0 0 .12.35.54.54 0 0 0 .39.12 2 2 0 0 0 .34 0l.26-.06.19-.06h.11a.11.11 0 0 1 0 .06 1 1 0 0 1 0 .11 1 1 0 0 1 0 .13.69.69 0 0 1 0 .12.24.24 0 0 1-.06.08.35.35 0 0 1-.12.07L10 30.9h-.62a1.77 1.77 0 0 1-.48-.06.85.85 0 0 1-.34-.17.72.72 0 0 1-.21-.3 1.25 1.25 0 0 1-.11-.37 2.43 2.43 0 0 1 0-.41 2.15 2.15 0 0 1 .12-.43 2.08 2.08 0 0 1 .21-.41 1.48 1.48 0 0 1 .3-.34 1.44 1.44 0 0 1 .41-.24 1.49 1.49 0 0 1 .54-.09 1.44 1.44 0 0 1 .45.06.9.9 0 0 1 .31.16.68.68 0 0 1 .18.23.65.65 0 0 1 .06.27m3.81-.71a.34.34 0 0 0 0-.14.28.28 0 0 0-.09-.1.38.38 0 0 0-.14-.07.83.83 0 0 0-.22 0h-.41l-.2 1H14a.72.72 0 0 0 .31-.06.59.59 0 0 0 .2-.15.57.57 0 0 0 .11-.2.71.71 0 0 0 0-.22m-.13 1.58a.35.35 0 0 0-.14-.29.7.7 0 0 0-.43-.11h-.5l-.21 1.06h.53a.9.9 0 0 0 .34-.06.65.65 0 0 0 .23-.15.56.56 0 0 0 .13-.21.69.69 0 0 0 0-.24m.9-1.72a1.06 1.06 0 0 1 0 .32 1 1 0 0 1-.14.27 1 1 0 0 1-.22.22 1.06 1.06 0 0 1-.29.15.78.78 0 0 1 .31.03.63.63 0 0 1 .18.15.62.62 0 0 1 .12.21.81.81 0 0 1 0 .27 1.16 1.16 0 0 1 0 .29 1.12 1.12 0 0 1-.12.29 1.25 1.25 0 0 1-.21.27 1.28 1.28 0 0 1-.31.22 1.72 1.72 0 0 1-.42.15 2.4 2.4 0 0 1-.55.06h-1a.22.22 0 0 1-.17-.06.2.2 0 0 1 0-.18l.65-3.23a.27.27 0 0 1 .1-.18.31.31 0 0 1 .18-.06h.89a2.45 2.45 0 0 1 .51 0 1.06 1.06 0 0 1 .36.14.63.63 0 0 1 .22.23.72.72 0 0 1 .07.34m2.24.29a.71.71 0 0 1 0 .07v.4a.42.42 0 0 1 0 .1.07.07 0 0 1-.06 0h-.27a.38.38 0 0 0-.21.07 1 1 0 0 0-.21.2 1.51 1.51 0 0 0-.18.28 1.35 1.35 0 0 0-.11.34l-.23 1.15a.09.09 0 0 1 0 .05h-.65a.08.08 0 0 1 0-.05l.51-2.56a.1.1 0 0 1 0-.05h.54a.08.08 0 0 1 0 .05l-.08.41a1.32 1.32 0 0 1 .16-.23 1.21 1.21 0 0 1 .19-.18.87.87 0 0 1 .21-.12.58.58 0 0 1 .21 0h.24a.07.07 0 0 1 0 .05m1.32-.8a.77.77 0 0 1-.05.18.32.32 0 0 1-.09.12.38.38 0 0 1-.14.06h-.41a.22.22 0 0 1-.11-.06.2.2 0 0 1 0-.12.61.61 0 0 1 0-.18.63.63 0 0 1 .05-.17.32.32 0 0 1 .09-.12.36.36 0 0 1 .14-.07h.41a.22.22 0 0 1 .11.07.19.19 0 0 1 0 .12.78.78 0 0 1 0 .17m-.74 3.42a.1.1 0 0 1 0 .05h-.69a.09.09 0 0 1 0-.05l.51-2.55h.65zm1.42 0a.1.1 0 0 1 0 .05h-.62a.07.07 0 0 1 0-.05l.65-3.8a.11.11 0 0 1 0-.05h.64a.08.08 0 0 1 0 .05zm1.42 0a.1.1 0 0 1 0 .05h-.67a.07.07 0 0 1 0-.05l.7-3.8a.11.11 0 0 1 0-.05h.64A.08.08 0 0 1 22 27zm2.16-3.42a.77.77 0 0 1-.05.18.32.32 0 0 1-.09.12.36.36 0 0 1-.14.06h-.41a.22.22 0 0 1-.11-.06.21.21 0 0 1 0-.12.61.61 0 0 1 0-.18.67.67 0 0 1 .05-.17.33.33 0 0 1 .09-.12.35.35 0 0 1 .14-.07L23 27h.2a.21.21 0 0 1 .11.07.19.19 0 0 1 0 .12.68.68 0 0 1 0 .17m-.74 3.42a.1.1 0 0 1 0 .05h-.69a.08.08 0 0 1 0-.05l.51-2.55h.72zM25.36 29a.76.76 0 0 0-.22-.24.5.5 0 0 0-.28-.08.44.44 0 0 0-.22.06.65.65 0 0 0-.18.15 1.08 1.08 0 0 0-.14.22 1.62 1.62 0 0 0-.1.26 2 2 0 0 0-.06.28 1.83 1.83 0 0 0 0 .26 1 1 0 0 0 0 .16.4.4 0 0 0 0 .14.29.29 0 0 0 .09.1.28.28 0 0 0 .15 0 .53.53 0 0 0 .26-.08 1 1 0 0 0 .25-.21 1.42 1.42 0 0 0 .2-.3 1.49 1.49 0 0 0 .13-.37zm.36 1.79a.12.12 0 0 1-.09.09.91.91 0 0 1-.25 0h-.23a.1.1 0 0 1 0-.05l.08-.41a.76.76 0 0 1-.14.19 1.16 1.16 0 0 1-.22.19 1.35 1.35 0 0 1-.28.14 1 1 0 0 1-.32.05.8.8 0 0 1-.38-.08.65.65 0 0 1-.24-.22.93.93 0 0 1-.13-.31 1.75 1.75 0 0 1 0-.37 2.47 2.47 0 0 1 0-.39 2.56 2.56 0 0 1 .11-.43 2.27 2.27 0 0 1 .18-.41 1.59 1.59 0 0 1 .27-.35 1.26 1.26 0 0 1 .36-.24 1.1 1.1 0 0 1 .46-.09.89.89 0 0 1 .42.1 1 1 0 0 1 .32.29v-.23s0-.07.09-.08a.86.86 0 0 1 .25 0h.23zm3.44-1.98a1.51 1.51 0 0 1 0 .2v.21l-.36 1.58a.09.09 0 0 1 0 .05h-.63a.07.07 0 0 1 0-.05l.31-1.53v-.14a1.24 1.24 0 0 0 0-.13.38.38 0 0 0-.05-.21.2.2 0 0 0-.18-.08.51.51 0 0 0-.24.07 1 1 0 0 0-.24.2 1.41 1.41 0 0 0-.2.3 1.3 1.3 0 0 0-.13.36l-.23 1.16a.11.11 0 0 1 0 .05h-.65a.07.07 0 0 1 0-.05l.51-2.56h.54l-.08.42a1.24 1.24 0 0 1 .16-.21 1.33 1.33 0 0 1 .52-.32 1 1 0 0 1 .32-.05.88.88 0 0 1 .34.06.58.58 0 0 1 .34.39 1.08 1.08 0 0 1 0 .28m2.62-.4a.85.85 0 0 1 0 .15 1.2 1.2 0 0 1 0 .16.47.47 0 0 1-.06.13.11.11 0 0 1-.08 0 .13.13 0 0 1-.09 0l-.1-.08-.15-.08a.62.62 0 0 0-.23 0 .52.52 0 0 0-.26.07.72.72 0 0 0-.21.17 1 1 0 0 0-.14.24 2.2 2.2 0 0 0-.1.27 1.93 1.93 0 0 0-.05.26 1.52 1.52 0 0 0 0 .22.53.53 0 0 0 .1.35.4.4 0 0 0 .32.12.8.8 0 0 0 .27 0l.2-.09.14-.09a.19.19 0 0 1 .11 0 .18.18 0 0 1 0 .07.78.78 0 0 1 0 .12v.15a1.16 1.16 0 0 1 0 .14.26.26 0 0 1-.06.1l-.12.08-.19.08-.24.06h-.27a1 1 0 0 1-.73-.25 1 1 0 0 1-.24-.73 2.48 2.48 0 0 1 0-.38 2.41 2.41 0 0 1 .11-.42 2.16 2.16 0 0 1 .19-.41 1.49 1.49 0 0 1 .29-.35 1.34 1.34 0 0 1 .92-.34h.42l.16.07.11.07v.06a.17.17 0 0 1 0 .06m1.94.47a.24.24 0 0 0-.09-.19.39.39 0 0 0-.26-.08.63.63 0 0 0-.26.05.65.65 0 0 0-.2.14.89.89 0 0 0-.15.21 1.36 1.36 0 0 0-.1.25H33a2.07 2.07 0 0 0 .39 0 .88.88 0 0 0 .25-.08.36.36 0 0 0 .14-.12.28.28 0 0 0 0-.15m.71-.05a.74.74 0 0 1-.09.37.82.82 0 0 1-.29.28 1.59 1.59 0 0 1-.5.18 3.59 3.59 0 0 1-.72.06h-.26v.25a.46.46 0 0 0 .12.35.54.54 0 0 0 .39.12 1.94 1.94 0 0 0 .34 0l.26-.06.19-.06h.11a.1.1 0 0 1 0 .06.8.8 0 0 1 0 .11 1.27 1.27 0 0 1 0 .13.7.7 0 0 1 0 .12.23.23 0 0 1-.06.08.37.37 0 0 1-.13.07l-.22.06h-.29L33 31a1.77 1.77 0 0 1-.48-.06.85.85 0 0 1-.34-.17.72.72 0 0 1-.21-.3 1.25 1.25 0 0 1-.07-.43 2.54 2.54 0 0 1 0-.41 2.22 2.22 0 0 1 .12-.43 2.14 2.14 0 0 1 .21-.41 1.46 1.46 0 0 1 .3-.34 1.42 1.42 0 0 1 .41-.24 1.5 1.5 0 0 1 .54-.09 1.44 1.44 0 0 1 .45.06.92.92 0 0 1 .31.16.69.69 0 0 1 .18.23.65.65 0 0 1 .06.27m2.98-1.46a.77.77 0 0 1-.05.18.33.33 0 0 1-.09.12.36.36 0 0 1-.14.06h-.41a.22.22 0 0 1-.11-.06.2.2 0 0 1 0-.12.61.61 0 0 1 0-.18.67.67 0 0 1 .05-.17.33.33 0 0 1 .09-.12.35.35 0 0 1 .14-.07h.41a.22.22 0 0 1 .11.07.19.19 0 0 1 0 .12.68.68 0 0 1 0 .17m-.74 3.42a.1.1 0 0 1 0 .05h-.69a.08.08 0 0 1 0-.05l.51-2.55h.64zm3.45-1.99a1.51 1.51 0 0 1 0 .2v.21l-.32 1.58a.09.09 0 0 1 0 .05h-.63a.08.08 0 0 1 0-.05l.31-1.53a1.31 1.31 0 0 0 0-.14V29a.39.39 0 0 0-.05-.21.21.21 0 0 0-.18-.08.51.51 0 0 0-.24.07 1 1 0 0 0-.24.2 1.41 1.41 0 0 0-.2.3 1.3 1.3 0 0 0-.13.36l-.23 1.16a.11.11 0 0 1 0 .05h-.65a.07.07 0 0 1 0-.05l.51-2.56h.54l-.08.42a1.24 1.24 0 0 1 .16-.21 1.18 1.18 0 0 1 .23-.19 1.21 1.21 0 0 1 .28-.14 1 1 0 0 1 .32-.05.88.88 0 0 1 .34.06.58.58 0 0 1 .34.39 1.08 1.08 0 0 1 0 .28m3.51.06a.24.24 0 0 0-.09-.19.39.39 0 0 0-.26-.08.63.63 0 0 0-.26.05.65.65 0 0 0-.2.14.89.89 0 0 0-.15.21 1.43 1.43 0 0 0-.1.25h.24a2.06 2.06 0 0 0 .38 0 .88.88 0 0 0 .25-.08.36.36 0 0 0 .14-.12.28.28 0 0 0 0-.15m.71-.05a.73.73 0 0 1-.09.37.8.8 0 0 1-.29.28 1.58 1.58 0 0 1-.5.18 3.59 3.59 0 0 1-.72.06h-.22a1 1 0 0 0 0 .13 1 1 0 0 0 0 .12.46.46 0 0 0 .12.35.54.54 0 0 0 .39.12 2 2 0 0 0 .34 0l.26-.06.19-.06h.11a.11.11 0 0 1 0 .06.8.8 0 0 1 0 .11.87.87 0 0 1 0 .13.69.69 0 0 1 0 .12.24.24 0 0 1-.06.08.36.36 0 0 1-.12.07l-.22.06h-.29L43 31a1.77 1.77 0 0 1-.48-.06.86.86 0 0 1-.34-.17.73.73 0 0 1-.21-.3 1.25 1.25 0 0 1-.07-.43 2.43 2.43 0 0 1 0-.41 2.15 2.15 0 0 1 .12-.43 2 2 0 0 1 .21-.41 1.46 1.46 0 0 1 .3-.34 1.43 1.43 0 0 1 .41-.24 1.49 1.49 0 0 1 .54-.09 1.44 1.44 0 0 1 .45.06.91.91 0 0 1 .31.16.68.68 0 0 1 .18.23.65.65 0 0 1 .06.27m2.88-.62a.51.51 0 0 1 0 .08.63.63 0 0 1 0 .1q-.11.31-.23.62a8.921 8.921 0 0 1-.61 1.21 6.64 6.64 0 0 1-.39.56l-.07.06h-.81a.11.11 0 0 1-.07 0 .16.16 0 0 1 0-.08l-.3-2.3v-.17a.23.23 0 0 1 0-.09.09.09 0 0 1 .05 0h.59a.19.19 0 0 1 0 .06l.22 1.88a4.86 4.86 0 0 0 .27-.44 6.5 6.5 0 0 0 .41-.95c.06-.17.12-.35.17-.53a.14.14 0 0 1 0-.06h.65m2.06.69a.24.24 0 0 0-.09-.19.39.39 0 0 0-.26-.08.64.64 0 0 0-.26.05.65.65 0 0 0-.2.14.86.86 0 0 0-.15.21 1.36 1.36 0 0 0-.1.25h.24a2.08 2.08 0 0 0 .39 0 .89.89 0 0 0 .25-.08.36.36 0 0 0 .14-.12.28.28 0 0 0 0-.15m.71-.05a.73.73 0 0 1-.09.37.79.79 0 0 1-.29.28 1.58 1.58 0 0 1-.5.18 3.59 3.59 0 0 1-.72.06h-.26a1.15 1.15 0 0 0 0 .13v.12a.46.46 0 0 0 .12.35.54.54 0 0 0 .39.12 2 2 0 0 0 .34 0l.26-.06.19-.06h.11a.11.11 0 0 1 0 .06 1 1 0 0 1 0 .11 1 1 0 0 1 0 .13.69.69 0 0 1 0 .12.23.23 0 0 1-.06.08.35.35 0 0 1-.12.07l-.22.06h-.62a1.76 1.76 0 0 1-.48-.06.84.84 0 0 1-.34-.17.72.72 0 0 1-.21-.3 1.25 1.25 0 0 1-.07-.43 2.43 2.43 0 0 1 0-.41 2.15 2.15 0 0 1 .12-.43 2.08 2.08 0 0 1 .21-.41 1.44 1.44 0 0 1 .3-.34 1.42 1.42 0 0 1 .41-.24 1.5 1.5 0 0 1 .54-.09 1.44 1.44 0 0 1 .45.06.91.91 0 0 1 .31.16.66.66 0 0 1 .18.23.64.64 0 0 1 .06.27m2.35-.6a.71.71 0 0 1 0 .07v.4a.46.46 0 0 1 0 .1.07.07 0 0 1-.06 0H52a.38.38 0 0 0-.21.07 1.09 1.09 0 0 0-.21.2 1.46 1.46 0 0 0-.18.28 1.32 1.32 0 0 0-.11.34l-.23 1.15a.09.09 0 0 1 0 .05h-.64a.07.07 0 0 1 0-.05l.51-2.56a.1.1 0 0 1 0-.05h.54a.08.08 0 0 1 0 .05l-.08.41a1.32 1.32 0 0 1 .16-.23 1.26 1.26 0 0 1 .19-.18.89.89 0 0 1 .21-.12.59.59 0 0 1 .22 0h.24a.07.07 0 0 1 0 .05m2.59.06a.53.53 0 0 1 0 .08.61.61 0 0 1 0 .1l-.21.54c-.08.19-.16.38-.26.58s-.21.4-.33.62-.27.43-.43.66l-.7 1-.07.06h-.74a.06.06 0 0 1 0-.06.18.18 0 0 1 0-.08l.65-.86-.42-2.46v-.08a.49.49 0 0 1 0-.07.16.16 0 0 1 0-.08.12.12 0 0 1 .06 0h.59a.24.24 0 0 1 0 .07l.26 1.79a4.69 4.69 0 0 0 .26-.44c.08-.15.15-.3.22-.45s.12-.31.18-.46.1-.31.15-.47h.4a.89.89 0 0 1 .25 0 .08.08 0 0 1 .07.08m5.76-.09a.38.38 0 0 1 0 .09v.08c-.07.21-.15.41-.23.62s-.18.41-.28.61-.21.4-.32.6-.24.38-.37.56a.19.19 0 0 1-.07.06h-.72a.11.11 0 0 1-.06 0 .19.19 0 0 1 0-.08l-.13-1.58-.71 1.57-.05.08a.17.17 0 0 1-.08 0h-.81a.12.12 0 0 1-.07 0 .16.16 0 0 1 0-.08l-.22-2.31a.63.63 0 0 1 0-.06v-.07a.28.28 0 0 1 0-.09.09.09 0 0 1 .05-.06h.61a.15.15 0 0 1 0 .06l.13 1.88.84-1.88v-.06h.66a.11.11 0 0 1 0 .05l.15 1.89c.07-.12.14-.26.21-.41s.14-.3.21-.47.13-.33.2-.5.12-.34.17-.5a.11.11 0 0 1 0-.06h.65m1.7-.78a.77.77 0 0 1-.05.18.32.32 0 0 1-.09.12.36.36 0 0 1-.14.06h-.41a.22.22 0 0 1-.11-.06.21.21 0 0 1 0-.12.61.61 0 0 1 0-.18.67.67 0 0 1 .05-.17.33.33 0 0 1 .09-.12.35.35 0 0 1 .11-.09h.41a.21.21 0 0 1 .11.07.19.19 0 0 1 0 .12.68.68 0 0 1 0 .17m-.74 3.42a.1.1 0 0 1 0 .05h-.69a.08.08 0 0 1 0-.05l.51-2.55h.64zm2.8-1.66a1 1 0 0 0 0-.18.38.38 0 0 0-.05-.14.23.23 0 0 0-.09-.08.3.3 0 0 0-.14 0 .49.49 0 0 0-.26.08.93.93 0 0 0-.24.21 1.4 1.4 0 0 0-.2.3 1.35 1.35 0 0 0-.13.37L63 30a.75.75 0 0 0 .22.24.5.5 0 0 0 .28.08.42.42 0 0 0 .22-.06.66.66 0 0 0 .18-.15 1.09 1.09 0 0 0 .14-.22 1.65 1.65 0 0 0 .1-.26 2 2 0 0 0 .06-.28 2.24 2.24 0 0 0 0-.26m.74-.06a2.44 2.44 0 0 1 0 .4 2.78 2.78 0 0 1-.1.43 2.36 2.36 0 0 1-.18.41 1.48 1.48 0 0 1-.27.35 1.18 1.18 0 0 1-.36.24 1.1 1.1 0 0 1-.45.09h-.22l-.18-.06-.15-.1-.12-.12-.23 1.16a.12.12 0 0 1 0 .05h-.64a.08.08 0 0 1 0-.05l.72-3.58a.12.12 0 0 1 .09-.09.9.9 0 0 1 .26 0h.23l-.08.42a.79.79 0 0 1 .14-.2 1.14 1.14 0 0 1 .22-.19 1.27 1.27 0 0 1 .29-.14.94.94 0 0 1 .32-.06.82.82 0 0 1 .37.08.65.65 0 0 1 .24.21.88.88 0 0 1 .13.31 1.66 1.66 0 0 1 0 .38m2.17-.11a.24.24 0 0 0-.09-.19.39.39 0 0 0-.26-.08.63.63 0 0 0-.26.05.65.65 0 0 0-.2.14.89.89 0 0 0-.15.21 1.43 1.43 0 0 0-.1.25h.24a2.06 2.06 0 0 0 .38 0 .9.9 0 0 0 .25-.08.37.37 0 0 0 .15-.16.28.28 0 0 0 0-.15m.71-.05a.73.73 0 0 1-.09.37.8.8 0 0 1-.29.28 1.58 1.58 0 0 1-.5.18 3.59 3.59 0 0 1-.72.06H66a1 1 0 0 0 0 .13v.12a.46.46 0 0 0 .12.35.54.54 0 0 0 .39.12 2 2 0 0 0 .34 0l.26-.06.19-.06h.11a.11.11 0 0 1 0 .06.8.8 0 0 1 0 .11 1 1 0 0 1 0 .13.69.69 0 0 1 0 .12.24.24 0 0 1-.06.08.36.36 0 0 1-.12.07l-.23.04h-.62a1.77 1.77 0 0 1-.48-.06.85.85 0 0 1-.34-.17.72.72 0 0 1-.21-.3 1.25 1.25 0 0 1-.07-.43 2.54 2.54 0 0 1 0-.41 2.09 2.09 0 0 1 .12-.43 2 2 0 0 1 .21-.41 1.43 1.43 0 0 1 .72-.58 1.5 1.5 0 0 1 .54-.09 1.44 1.44 0 0 1 .45.06.91.91 0 0 1 .31.16.68.68 0 0 1 .18.23.65.65 0 0 1 .06.27M69 30.33a1.06 1.06 0 0 1 0 .11v.14a.89.89 0 0 1 0 .14.35.35 0 0 1-.07.11.32.32 0 0 1-.13.07.8.8 0 0 1-.23 0h-.18a.28.28 0 0 1-.11-.05.18.18 0 0 1-.06-.09.39.39 0 0 1 0-.12.91.91 0 0 1 0-.11 1.08 1.08 0 0 1 0-.14.72.72 0 0 1 0-.14.38.38 0 0 1 .08-.11.32.32 0 0 1 .13-.07.76.76 0 0 1 .23 0h.18a.25.25 0 0 1 .11.06.16.16 0 0 1 .05.09.43.43 0 0 1 0 .12m1.51-.01a1.06 1.06 0 0 1 0 .11v.14a.8.8 0 0 1 0 .14.37.37 0 0 1-.08.11.31.31 0 0 1-.13.07.8.8 0 0 1-.23 0h-.18a.28.28 0 0 1-.11-.05.18.18 0 0 1-.06-.09.39.39 0 0 1 0-.12 1.15 1.15 0 0 1 0-.11 1.28 1.28 0 0 1 0-.14.79.79 0 0 1 0-.14.38.38 0 0 1 .08-.11.32.32 0 0 1 .13-.07.77.77 0 0 1 .23 0h.18a.25.25 0 0 1 .11.06.17.17 0 0 1 .05.09.47.47 0 0 1 0 .12m1.56-.01a1.06 1.06 0 0 1 0 .11v.14a.89.89 0 0 1 0 .14.37.37 0 0 1-.08.11.31.31 0 0 1-.13.07.8.8 0 0 1-.23 0h-.18a.28.28 0 0 1-.11-.05.19.19 0 0 1-.06-.09.39.39 0 0 1 0-.12 1.15 1.15 0 0 1 0-.11v-.14a.79.79 0 0 1 0-.14.4.4 0 0 1 .08-.11.32.32 0 0 1 .13-.07.78.78 0 0 1 .23 0h.18a.25.25 0 0 1 .11.06.17.17 0 0 1 .05.09.47.47 0 0 1 0 .12"/></g></g></svg>