<svg xmlns="http://www.w3.org/2000/svg" viewBox="0 0 75.61 20.03"><g data-name="Layer 2"><g data-name="Layer 1"><path d="M30.22 0A2.22 2.22 0 0 0 28 2.2a2.24 2.24 0 0 0 4.48 0A2.22 2.22 0 0 0 30.22 0M28.3 19.68h3.84V7.46H28.3zm13.46-3.12c-1.56 0-1.82-.76-1.91-1.74v-4.3h3.66V7.46h-3.69V3.89H36v3.57h-2.24v3.07H36v4.69c.09 2.72 1.59 5 4.83 4.81a7.57 7.57 0 0 0 3.41-.88l-.95-3a3.4 3.4 0 0 1-1.51.45M13 7.46H8.4l-3.88 4.19h-.68V2.17H0v17.51h3.84V15.2h.7l4.1 4.44h4.87l-5.88-6.37zm41.34 6.85a3 3 0 0 1-2.91 2.48 3 3 0 0 1-3-3.17 2.91 2.91 0 0 1 3-3.17 3 3 0 0 1 2.91 2.48zm0-6.85v.94a5.83 5.83 0 0 0-3.67-1.31 6.29 6.29 0 0 0-6.08 6.47 6.16 6.16 0 0 0 6.1 6.44 5.83 5.83 0 0 0 3.67-1.31v1h3.84V7.46zM17.15 12.2a2.57 2.57 0 0 1 2.55-2 2.54 2.54 0 0 1 2.54 2zm2.51-5.12a6.43 6.43 0 0 0-6.35 6.47A6.22 6.22 0 0 0 19.66 20c2.83 0 5.23-1.36 6.07-3.79l-3.4-.71a2.85 2.85 0 0 1-5.27-1h8.86a6.61 6.61 0 0 0 .08-1 6.22 6.22 0 0 0-6.34-6.47" fill="#743e91"/><path d="M65.94 13.74a3 3 0 1 1 5.91 0v.11h3.77a6.73 6.73 0 0 0-13.45 0h3.77v-.11m-3.74 5.94h13.38v-3.84H62.2zm6.72-15.29a2.22 2.22 0 0 0 2.24-2.2 2.24 2.24 0 0 0-4.48 0 2.22 2.22 0 0 0 2.24 2.2" fill="#fcc01a"/></g></g></svg>