<svg xmlns="http://www.w3.org/2000/svg" viewBox="0 0 64.81 32.23"><defs><style>.cls-1{fill:#e33147}</style></defs><g id="Layer_2" data-name="Layer 2"><g id="Layer_1-2" data-name="Layer 1"><path class="cls-1" d="M55.9 12.8l3.43-2a2.37 2.37 0 0 0 1.07-1.93V3.53a2.36 2.36 0 0 0-1.08-1.93L57.43.48a2 2 0 0 0-.34-.15h.23a5.08 5.08 0 0 1 2.27.55l3.48 2a3 3 0 0 1 1.43 2.43v4.78a3 3 0 0 1-1.43 2.45L58.83 15a2.75 2.75 0 0 1-1.37.36A3.38 3.38 0 0 1 56 15l-2-1.14zm0-12.25a1.53 1.53 0 0 1 .36 0 2.08 2.08 0 0 1 1 .25l1.89 1.13a2.09 2.09 0 0 1 .93 1.66v5.28a2.07 2.07 0 0 1-.93 1.66l-2.26 1.31a3 3 0 0 0 .58-1.77V5.3a3.35 3.35 0 0 0-1.57-2.73l-1.84-1L55.18.9l.09-.05a4.28 4.28 0 0 1 .67-.3M50.3 10.1V5.31a3 3 0 0 1 1.43-2.46l2-1.15 2 1.13a3 3 0 0 1 1.45 2.47v4.78a2.79 2.79 0 0 1-.71 1.83 3.19 3.19 0 0 1-.72.63l-1.95 1.1a.15.15 0 0 1-.11 0l-.49-.25-1.47-.83a3 3 0 0 1-1.43-2.45M50.08.47l-1.92 1.14a2.4 2.4 0 0 0-1.08 1.92v5.34a2.36 2.36 0 0 0 1.08 1.92l3.29 1.94 1.2.7.17.08.59.34-1.91 1.08a2.74 2.74 0 0 1-1.37.36 3.36 3.36 0 0 1-1.48-.36l-4.24-2.41A3 3 0 0 1 43 10.08V5.3a3 3 0 0 1 1.42-2.45l3.49-2A4.21 4.21 0 0 1 50.4.33a1.76 1.76 0 0 0-.32.15m1.34 0a4.7 4.7 0 0 1 .85.34l1.18.67-1.86 1.09A3.39 3.39 0 0 0 50 5.31v4.78a3.59 3.59 0 0 0 .58 1.78l-2.26-1.34a2.09 2.09 0 0 1-.93-1.66V3.53a2.07 2.07 0 0 1 .93-1.66L50.23.74a1.73 1.73 0 0 1 .89-.24h.29m11.82 2.09L59.74.6a5.23 5.23 0 0 0-2.42-.6 4.48 4.48 0 0 0-2.25.6l-1 .56a.7.7 0 0 1-.35.07.54.54 0 0 1-.31-.07l-1-.57A5.36 5.36 0 0 0 50 0a4.5 4.5 0 0 0-2.25.59l-3.49 2a3.35 3.35 0 0 0-1.59 2.71v4.78a3.35 3.35 0 0 0 1.59 2.72l4.24 2.41a3.52 3.52 0 0 0 1.64.4 3 3 0 0 0 1.53-.4L53.73 14l2.09 1.18a3.54 3.54 0 0 0 1.64.41 3 3 0 0 0 1.52-.4l4.24-2.41a3.32 3.32 0 0 0 1.58-2.72V5.31a3.35 3.35 0 0 0-1.58-2.72M.47 30.85a2.15 2.15 0 0 1 .34-.3l.43-.3a3.9 3.9 0 0 0 .43-.33 1.71 1.71 0 0 0 .34-.4 1 1 0 0 0 .13-.52.92.92 0 0 0-.08-.4.83.83 0 0 0-.22-.28.92.92 0 0 0-.33-.17 1.37 1.37 0 0 0-.39-.06 1 1 0 0 0-.75.29 1.37 1.37 0 0 0-.29.87v.05h.27a1.26 1.26 0 0 1 0-.36.83.83 0 0 1 .15-.29.69.69 0 0 1 .25-.19.82.82 0 0 1 .35-.07.81.81 0 0 1 .28 0 .7.7 0 0 1 .23.13.66.66 0 0 1 .16.21.61.61 0 0 1 .06.27.75.75 0 0 1-.07.33 1.11 1.11 0 0 1-.2.28 2.12 2.12 0 0 1-.29.24L1 30.1l-.34.24a2.16 2.16 0 0 0-.31.27 1.35 1.35 0 0 0-.23.33 1.07 1.07 0 0 0-.11.41v.05h2.18v-.27H.33a.59.59 0 0 1 .14-.28m2.29-.5L4 28.6v1.75zm2 0h-.51v-2.18H4l-1.55 2.19v.24H4v.8h.27v-.8h.53z"/><path class="cls-1" d="M6.96 28.97h-.35l-.71.94-.71-.94h-.36l.89 1.15-.95 1.28h.34l.79-1.06.77 1.06h.36l-.96-1.28.89-1.15zm.15-.56H8.9a6.31 6.31 0 0 0-.59.76 4.7 4.7 0 0 0-.41.77 3.73 3.73 0 0 0-.22.72 6.28 6.28 0 0 0-.09.69v.05h.3a5.31 5.31 0 0 1 .18-1 4.37 4.37 0 0 1 .3-.77 3.85 3.85 0 0 1 .39-.63l.45-.54v-.24h-2.1zm6.09 1.12h-1.97v-1.47h-.3v3.34h.3v-1.6h1.97v1.6h.3v-3.34h-.3v1.47zm2.6.65a1.31 1.31 0 0 1-.06.39 1.06 1.06 0 0 1-.17.33.77.77 0 0 1-.27.22.76.76 0 0 1-.36.08.77.77 0 0 1-.36-.08.79.79 0 0 1-.27-.23 1 1 0 0 1-.16-.33 1.32 1.32 0 0 1 0-.77 1 1 0 0 1 .16-.33.78.78 0 0 1 .27-.22.84.84 0 0 1 .73 0 .78.78 0 0 1 .27.23 1.06 1.06 0 0 1 .17.33 1.32 1.32 0 0 1 .06.39m0-.89a1.05 1.05 0 0 0-.35-.28 1.18 1.18 0 0 0-1 0 1 1 0 0 0-.35.28 1.22 1.22 0 0 0-.21.4 1.65 1.65 0 0 0 0 1 1.2 1.2 0 0 0 .21.41 1 1 0 0 0 .35.28 1.17 1.17 0 0 0 1 0 1.05 1.05 0 0 0 .35-.28 1.19 1.19 0 0 0 .21-.41 1.65 1.65 0 0 0 0-1 1.23 1.23 0 0 0-.21-.4m2.19.93a1 1 0 0 0-.28-.12l-.34-.11h-.28l-.24-.08a.47.47 0 0 1-.16-.12.32.32 0 0 1-.06-.2.3.3 0 0 1 .05-.18.45.45 0 0 1 .14-.13.64.64 0 0 1 .2-.07 1.12 1.12 0 0 1 .49 0 .59.59 0 0 1 .2.1.43.43 0 0 1 .13.17.6.6 0 0 1 0 .25h.27a.86.86 0 0 0-.07-.36.69.69 0 0 0-.2-.25.8.8 0 0 0-.29-.14 1.51 1.51 0 0 0-.66 0 1 1 0 0 0-.28.1.62.62 0 0 0-.21.2.56.56 0 0 0-.09.32.57.57 0 0 0 .13.4.86.86 0 0 0 .32.2 2 2 0 0 0 .39.1l.38.09a.78.78 0 0 1 .28.15.32.32 0 0 1 .1.26.36.36 0 0 1-.06.22.44.44 0 0 1-.17.14.81.81 0 0 1-.23.07 1.06 1.06 0 0 1-.52 0 .63.63 0 0 1-.22-.12.64.64 0 0 1-.22-.47h-.27a.91.91 0 0 0 .08.38.79.79 0 0 0 .21.28.88.88 0 0 0 .32.17 1.31 1.31 0 0 0 .38.05h.33a1 1 0 0 0 .31-.11.71.71 0 0 0 .23-.21.58.58 0 0 0 .09-.34.68.68 0 0 0-.07-.32.58.58 0 0 0-.19-.21m2.59-.15a1.5 1.5 0 0 1-.05.4 1 1 0 0 1-.15.32.72.72 0 0 1-.26.22.81.81 0 0 1-.37.08.84.84 0 0 1-.39-.08.7.7 0 0 1-.29-.23 1 1 0 0 1-.13-.32 2 2 0 0 1 0-.39 1.78 1.78 0 0 1 0-.39 1 1 0 0 1 .14-.33.7.7 0 0 1 .25-.23.87.87 0 0 1 .75 0 .77.77 0 0 1 .25.23 1 1 0 0 1 .15.33 1.51 1.51 0 0 1 0 .38m0-.89a1 1 0 0 0-.34-.28 1.07 1.07 0 0 0-.49-.1.94.94 0 0 0-.62.22.88.88 0 0 0-.18.21V29h-.18v3.27h.26v-1.21a.76.76 0 0 0 .27.26 1.1 1.1 0 0 0 .54.13 1.15 1.15 0 0 0 .49-.1 1 1 0 0 0 .35-.26 1.15 1.15 0 0 0 .2-.4 1.78 1.78 0 0 0 .07-.5 1.68 1.68 0 0 0-.07-.48 1.18 1.18 0 0 0-.2-.41m.62-1.24h.27v.56h-.27zm0 .91h.27v2.43h-.27zm1.17-.73H22V29h-.4v.25h.4v1.58a.7.7 0 0 0 .05.34.46.46 0 0 0 .17.19.57.57 0 0 0 .24.07h.31v-.25h-.26a.3.3 0 0 1-.14 0 .21.21 0 0 1-.08-.1.61.61 0 0 1 0-.21v-1.66h.51V29h-.5zm2.27 1.89v.33a1.13 1.13 0 0 1 0 .16.72.72 0 0 1-.11.25.77.77 0 0 1-.25.23.85.85 0 0 1-.44.1.67.67 0 0 1-.42-.12.4.4 0 0 1-.14-.34.46.46 0 0 1 .06-.24.42.42 0 0 1 .15-.14.67.67 0 0 1 .21-.08h.96m.31 1a.26.26 0 0 1 0-.08v-1.64a.59.59 0 0 0-.21-.47 1 1 0 0 0-.65-.18 1 1 0 0 0-.68.21.81.81 0 0 0-.27.61v.05h.27a.56.56 0 0 1 .19-.43.75.75 0 0 1 .48-.14 1 1 0 0 1 .29 0 .53.53 0 0 1 .18.09.35.35 0 0 1 .1.13.37.37 0 0 1 0 .16 1.11 1.11 0 0 1 0 .2.17.17 0 0 1-.05.11.32.32 0 0 1-.14.07h-.85a1 1 0 0 0-.29.11.63.63 0 0 0-.31.58.64.64 0 0 0 .22.54 1 1 0 0 0 .61.17 1.12 1.12 0 0 0 .32 0 1 1 0 0 0 .26-.12.91.91 0 0 0 .2-.18v-.05a.53.53 0 0 0 0 .09.32.32 0 0 0 .05.13.28.28 0 0 0 .11.09.55.55 0 0 0 .34 0v-.24h-.24m.51-3.03h.27v3.34h-.27z"/><path d="M1.8 14.25l3.1 8.28 3.12-8.28h1.79v9.85H8.57v-8.19h-.03L5.47 24.1H4.35l-3.08-8.19h-.02v8.19H.01v-9.85H1.8zM18 20.89a5.47 5.47 0 0 0-.12-1.36 3.94 3.94 0 0 0-.52-1.32 3.1 3.1 0 0 0-1-1 2.91 2.91 0 0 0-1.58-.39 3.24 3.24 0 0 0-1.34.27 3.2 3.2 0 0 0-1.06.77 3.56 3.56 0 0 0-.7 1.17 4.27 4.27 0 0 0-.25 1.49 5.74 5.74 0 0 0 .24 1.5 3.3 3.3 0 0 0 .64 1.19 2.92 2.92 0 0 0 1.06.77 3.66 3.66 0 0 0 1.48.28 3.23 3.23 0 0 0 2-.61 2.84 2.84 0 0 0 1-1.81h-1.13a1.68 1.68 0 0 1-.63 1 2 2 0 0 1-1.22.35 2.47 2.47 0 0 1-1-.19 2 2 0 0 1-1.1-1.26 2.86 2.86 0 0 1-.11-.89zm-1.24-1h-4.1a2.37 2.37 0 0 1 .18-.78 2.12 2.12 0 0 1 .41-.64 1.9 1.9 0 0 1 .63-.44 2 2 0 0 1 .82-.16 2 2 0 0 1 .81.16 2.13 2.13 0 0 1 .64.43 2.07 2.07 0 0 1 .43.64 2.45 2.45 0 0 1 .19.78m8.81 4.22v-9.85H24.4v3.67a1.86 1.86 0 0 0-.48-.53 2.58 2.58 0 0 0-.6-.34 2.93 2.93 0 0 0-.63-.19 3.63 3.63 0 0 0-.59-.05 3.24 3.24 0 0 0-1.43.3 2.93 2.93 0 0 0-1 .8 3.42 3.42 0 0 0-.67 1.17 5.07 5.07 0 0 0-.2 1.43 4.82 4.82 0 0 0 .2 1.44 3.54 3.54 0 0 0 .61 1.19 3 3 0 0 0 1 .81 3.22 3.22 0 0 0 1.44.3 3.48 3.48 0 0 0 1.41-.25 1.73 1.73 0 0 0 .91-.85v1zm-1.13-3.56a4.15 4.15 0 0 1-.12 1 2.53 2.53 0 0 1-.38.86 1.93 1.93 0 0 1-1.68.85 2.09 2.09 0 0 1-1-.22 2 2 0 0 1-.69-.59 2.63 2.63 0 0 1-.4-.85 3.65 3.65 0 0 1-.13-1 4.55 4.55 0 0 1 .11-1 2.62 2.62 0 0 1 .36-.88 1.87 1.87 0 0 1 .66-.62 2 2 0 0 1 1-.24 2.19 2.19 0 0 1 1 .23 2 2 0 0 1 .7.6 2.53 2.53 0 0 1 .39.86 4.05 4.05 0 0 1 .13 1m9.17.35a5.77 5.77 0 0 0-.12-1.36 3.94 3.94 0 0 0-.52-1.32 3.12 3.12 0 0 0-1-1 2.91 2.91 0 0 0-1.58-.39 3.23 3.23 0 0 0-1.34.27 3.16 3.16 0 0 0-1.06.77 3.54 3.54 0 0 0-.7 1.17 4.27 4.27 0 0 0-.25 1.48 5.66 5.66 0 0 0 .24 1.5 3.26 3.26 0 0 0 .65 1.19 2.86 2.86 0 0 0 1.05.77 3.65 3.65 0 0 0 1.48.28 3.23 3.23 0 0 0 2-.61 2.85 2.85 0 0 0 1-1.81H32.3a1.67 1.67 0 0 1-.63 1 2 2 0 0 1-1.22.35 2.47 2.47 0 0 1-1-.19 1.95 1.95 0 0 1-1.1-1.26 2.72 2.72 0 0 1-.11-.89zm-1.24-1h-4.1a2.32 2.32 0 0 1 .18-.78 2 2 0 0 1 .41-.64 1.89 1.89 0 0 1 .63-.44 2 2 0 0 1 .82-.16 2 2 0 0 1 .81.16 2 2 0 0 1 1.06 1.07 2.5 2.5 0 0 1 .19.78m8.99.66a4.75 4.75 0 0 0-.22-1.47 3.32 3.32 0 0 0-.66-1.19 3.12 3.12 0 0 0-1.08-.79 4 4 0 0 0-3 0 3.1 3.1 0 0 0-1.09.79 3.31 3.31 0 0 0-.66 1.19 4.72 4.72 0 0 0-.22 1.47 4.67 4.67 0 0 0 .23 1.46 3.33 3.33 0 0 0 .66 1.18 3 3 0 0 0 1.09.79 4.07 4.07 0 0 0 3 0 3 3 0 0 0 1.08-.79A3.33 3.33 0 0 0 41.1 22a4.7 4.7 0 0 0 .22-1.46m-1.24 0a3.61 3.61 0 0 1-.17 1.15 2.4 2.4 0 0 1-.47.84 2.07 2.07 0 0 1-.71.52 2.15 2.15 0 0 1-1.72 0 2.05 2.05 0 0 1-.71-.52 2.44 2.44 0 0 1-.48-.84 3.95 3.95 0 0 1 0-2.31 2.48 2.48 0 0 1 .48-.85A2 2 0 0 1 37 18a2.16 2.16 0 0 1 1.72 0 2.05 2.05 0 0 1 .71.52 2.45 2.45 0 0 1 .47.85 3.62 3.62 0 0 1 .17 1.15M43.76 17v1.5a3.16 3.16 0 0 1 1-1.28 2.62 2.62 0 0 1 1.57-.39V18a3.34 3.34 0 0 0-1.2.19 1.91 1.91 0 0 0-.8.56 2.37 2.37 0 0 0-.44.9 4.81 4.81 0 0 0-.14 1.22v3.23h-1.09V17zM25.51 7.18a2.41 2.41 0 0 0-.14-.85 2.08 2.08 0 0 0-.37-.65 1.73 1.73 0 0 0-.58-.43 1.71 1.71 0 0 0-.72-.15 1.86 1.86 0 0 0-.56.09 1.76 1.76 0 0 0-.58.33 2.84 2.84 0 0 0-.56.65 5.15 5.15 0 0 0-.5 1.05 2.39 2.39 0 0 1-.28.57 1.47 1.47 0 0 1-.31.33 1 1 0 0 1-.32.16 1.19 1.19 0 0 1-.3 0h-.64a.83.83 0 0 1-.72-.82V5h-.67v2.52a.86.86 0 0 1-.81.8h-1.08a.84.84 0 0 1-.64-.4 12.24 12.24 0 0 1-.7-1L13.9 5h-.72l1.26 2.24a1.1 1.1 0 0 1 .1.49.54.54 0 0 1-.05.23.73.73 0 0 1-.13.17h-.05a1.3 1.3 0 0 1-.72.16H11.7V9h2.51a1 1 0 0 0 .8-.9 2.39 2.39 0 0 0 .65.69 1.12 1.12 0 0 0 .7.23h1.38a1.73 1.73 0 0 0 .42-.09 1.15 1.15 0 0 0 .33-.19l.1-.1.1.1a1.12 1.12 0 0 0 .33.19 1.71 1.71 0 0 0 .42.09h.92A2.55 2.55 0 0 0 21 8.9a1.15 1.15 0 0 0 .61-.5 4.59 4.59 0 0 0 1.15.6 3.43 3.43 0 0 0 1 .15 1.6 1.6 0 0 0 1.31-.53 2.2 2.2 0 0 0 .43-1.43m-.68 0a1.33 1.33 0 0 1-.31 1 1.17 1.17 0 0 1-.84.3 2.4 2.4 0 0 1-.89-.17 4.55 4.55 0 0 1-.88-.48 6.7 6.7 0 0 1 .39-.95 3.1 3.1 0 0 1 .41-.62 1.37 1.37 0 0 1 .44-.34 1.11 1.11 0 0 1 .47-.11 1.13 1.13 0 0 1 .52.12 1.21 1.21 0 0 1 .38.31 1.38 1.38 0 0 1 .23.44 1.68 1.68 0 0 1 .08.52m-14.36 3.6a.46.46 0 1 0-.33.14.45.45 0 0 0 .33-.14M8.11 9h2.49V5h-.66v3.32H7.43v-.63a5.62 5.62 0 0 0-.11-1.14A2.51 2.51 0 0 0 7 5.68a1.59 1.59 0 0 0-.61-.56 2 2 0 0 0-.91-.2 1.87 1.87 0 0 0-.87.2 2 2 0 0 0-.65.51 2.38 2.38 0 0 0-.41.73 2.53 2.53 0 0 0-.14.83 2.08 2.08 0 0 0 .14.81 1.49 1.49 0 0 0 .45.6 1.58 1.58 0 0 0 .63.31 3.21 3.21 0 0 0 .74.09h1.38a1.65 1.65 0 0 1-.18.84 1.26 1.26 0 0 1-.52.49 2.42 2.42 0 0 1-.8.24 7.39 7.39 0 0 1-1 .06H4v.68h.24a7.17 7.17 0 0 0 1.29-.11 2.58 2.58 0 0 0 1-.37 1.85 1.85 0 0 0 .62-.71A2.83 2.83 0 0 0 7.42 9zm-1.36-.68H5.44A1.61 1.61 0 0 1 4.4 8a1.12 1.12 0 0 1-.4-.9 1.84 1.84 0 0 1 .08-.55 1.54 1.54 0 0 1 .26-.5 1.39 1.39 0 0 1 .42-.36 1.19 1.19 0 0 1 .59-.14A1.33 1.33 0 0 1 6 5.7a1.11 1.11 0 0 1 .42.39 1.8 1.8 0 0 1 .23.6 3.81 3.81 0 0 1 .07.78zM2.08 9.79a7.21 7.21 0 0 0 .1-1.29V6.29h-.66v3.1a1.79 1.79 0 0 1-.2.69 1 1 0 0 1-.46.41 2.21 2.21 0 0 1-.81.16v.68a3.34 3.34 0 0 0 1.06-.18 1.42 1.42 0 0 0 .66-.49 2.06 2.06 0 0 0 .34-.86m6.29.31a.46.46 0 1 0 .3-.11.45.45 0 0 0-.33.14m9.11 0a.46.46 0 1 0 .33-.14.45.45 0 0 0-.33.14m1.44 0a.46.46 0 1 0 .33-.14.45.45 0 0 0-.33.14"/></g></g></svg>