<svg xmlns="http://www.w3.org/2000/svg" viewBox="0 0 76.25 23.21"><defs><style>.cls-1{fill:none}.cls-2{fill:#136db5}.cls-7{fill:#b8b7b6}.cls-9{fill:#a5243b}.cls-10{fill:#3f1c2e}</style><clipPath id="clip-path"><path class="cls-1" d="M66.5.91a16.53 16.53 0 0 0 0 3.85 15.67 15.67 0 0 0 .5 2.89 14.56 14.56 0 0 1 2.79-1 23.29 23.29 0 0 1 6.41-.59 4.68 4.68 0 0 0-.78-2.5 20.86 20.86 0 0 0-6.25.3A28.82 28.82 0 0 1 68.9 0a4.51 4.51 0 0 0-2.4.91"/></clipPath><radialGradient id="radial-gradient" cx="-608.88" cy="7258.74" r="1" gradientTransform="matrix(5.87 0 0 5.87 3642.84 -42595.92)" gradientUnits="userSpaceOnUse"><stop offset="0" stop-color="#008dd0"/><stop offset=".01" stop-color="#008dd0"/><stop offset=".99" stop-color="#136db5"/><stop offset="1" stop-color="#136db5"/></radialGradient><clipPath id="clip-path-2"><path class="cls-1" d="M67.17 7.9a11.2 11.2 0 0 0 3.08 4.93A5.48 5.48 0 0 0 73 12s-1.83-1.28-3-5.07a15.67 15.67 0 0 0-2.76 1m-3.62-1.1a5.41 5.41 0 0 0 .71 2.78 7.41 7.41 0 0 1 2.47-1.84 18.51 18.51 0 0 1-.6-2.87 8.35 8.35 0 0 0-2.58 1.93"/></clipPath><radialGradient id="radial-gradient-2" cx="-608.88" cy="7258.74" r="1" gradientTransform="matrix(4.97 0 0 4.97 3096.61 -36104.12)" gradientUnits="userSpaceOnUse"><stop offset="0" stop-color="#e4003f"/><stop offset=".31" stop-color="#cc0e3d"/><stop offset=".75" stop-color="#b01e3c"/><stop offset="1" stop-color="#a5243b"/></radialGradient></defs><g id="Layer_2" data-name="Layer 2"><g id="Layer_1-2" data-name="Layer 1"><path class="cls-2" d="M24.44 17.84h-1.31a1.44 1.44 0 0 1-1.44-1.44V10h1.13v6.4a.31.31 0 0 0 .31.31h1.32zm4.88-.03H28.2V13.5a.66.66 0 0 0-.66-.66h-2.3v-1.13h2.3a1.79 1.79 0 0 1 1.78 1.78z"/><path class="cls-2" d="M26.56 15.14a.76.76 0 0 0-.76.76v.1a.76.76 0 0 0 .76.76h.33a1.3 1.3 0 0 0 1.3-1.3v-.27zm.33 2.7h-.33A1.89 1.89 0 0 1 24.68 16v-.1a1.89 1.89 0 0 1 1.88-1.9h2.76v1.4a2.43 2.43 0 0 1-2.43 2.43M30.28 10h1.13v7.84h-1.13zm15.57 0h1.13v7.84h-1.13z"/><path class="cls-2" d="M50.57 17.84h-1.12v-4.25a.64.64 0 0 0-.64-.64h-.49A1.34 1.34 0 0 0 47 14.29V15h-1.15v-.76a2.47 2.47 0 0 1 2.47-2.47h.49a1.77 1.77 0 0 1 1.77 1.77zm6.95-6.1h1.13v6.1h-1.13z"/><path class="cls-2" d="M58.65 15h-1.13v-.76A2.47 2.47 0 0 1 60 11.82h1v1.13h-1a1.34 1.34 0 0 0-1.34 1.34zm-22.36-.79h2.51v-.63a.74.74 0 0 0-.74-.74h-.89a.89.89 0 0 0-.89.89zm3.4 3.63h-2.56a2 2 0 0 1-2-2v-2.12a2 2 0 0 1 2-2h.89a1.87 1.87 0 0 1 1.87 1.87v1a.75.75 0 0 1-.75.75h-2.85v.53a.85.85 0 0 0 .84.84h2.56zm22.9-3.63h2.51v-.63a.74.74 0 0 0-.74-.74h-.89a.89.89 0 0 0-.88.89zM66 17.84h-2.56a2 2 0 0 1-2-2v-2.12a2 2 0 0 1 2-2h.89a1.87 1.87 0 0 1 1.87 1.87v1a.75.75 0 0 1-.75.75h-2.86v.53a.85.85 0 0 0 .84.84H66zm-33.31-3.07h-1.34l2.49-3.03h1.34l-2.49 3.03z"/><path class="cls-2" d="M32.73 14.77H31.4l2.44 3.04h1.34l-2.45-3.04zm10.65 3.07H42a3.76 3.76 0 0 1-1.27-.22l-.19-.07.38-1.06.2.07a2.63 2.63 0 0 0 .89.15h1.36a.45.45 0 0 0 .45-.45v-.44a.39.39 0 0 0-.31-.38l-1.65-.32a1.51 1.51 0 0 1-1.23-1.48v-.27a1.58 1.58 0 0 1 1.58-1.58h1.34a4.17 4.17 0 0 1 1.3.21l-.35 1.07a3 3 0 0 0-.95-.15h-1.34a.45.45 0 0 0-.45.45v.27a.39.39 0 0 0 .31.38l1.65.32A1.51 1.51 0 0 1 45 15.82v.44a1.58 1.58 0 0 1-1.58 1.58m10.72-4.89a1.21 1.21 0 0 0-1.21 1.21v1.34a1.21 1.21 0 0 0 1.21 1.21h.1a1.21 1.21 0 0 0 1.21-1.21v-1.35a1.21 1.21 0 0 0-1.21-1.21zm.1 4.89h-.1a2.34 2.34 0 0 1-2.34-2.34v-1.35a2.34 2.34 0 0 1 2.33-2.33h.1a2.34 2.34 0 0 1 2.33 2.33v1.35a2.34 2.34 0 0 1-2.33 2.33"/><g clip-path="url(#clip-path)"><path fill="url(#radial-gradient)" d="M66.24 0h10.01v7.65H66.24z"/></g><g clip-path="url(#clip-path-2)"><path fill="url(#radial-gradient-2)" d="M63.56 4.9h9.39v7.94h-9.39z"/></g><path class="cls-7" d="M23.55 22h-.62v-.31h.94v1.35h-.77a1.76 1.76 0 0 1-.61-.1 1.2 1.2 0 0 1-.44-.28 1.16 1.16 0 0 1-.27-.44 1.66 1.66 0 0 1-.09-.57 1.8 1.8 0 0 1 .1-.62 1.32 1.32 0 0 1 .29-.48 1.28 1.28 0 0 1 .47-.3 1.62 1.62 0 0 1 .6-.11h.61v.3l-.28-.07h-.31a1.34 1.34 0 0 0-.44.07 1 1 0 0 0-.37.22 1.06 1.06 0 0 0-.25.37 1.28 1.28 0 0 0-.09.52 1.42 1.42 0 0 0 .08.5.9.9 0 0 0 .22.35.87.87 0 0 0 .35.2 1.47 1.47 0 0 0 .46.07h.43zm.98-1.86h.31v3.02h-.31zm2.32 2.03a1.12 1.12 0 0 0 0-.33.74.74 0 0 0-.12-.24.52.52 0 0 0-.18-.15.53.53 0 0 0-.23-.05.54.54 0 0 0-.23.05.53.53 0 0 0-.18.15.74.74 0 0 0-.12.24 1.25 1.25 0 0 0 0 .65.7.7 0 0 0 .12.24.52.52 0 0 0 .18.15.53.53 0 0 0 .23.05.51.51 0 0 0 .42-.2.72.72 0 0 0 .12-.24 1.11 1.11 0 0 0 0-.32m.33 0a1.33 1.33 0 0 1-.06.43 1 1 0 0 1-.18.33.8.8 0 0 1-.29.21.91.91 0 0 1-.37.07.94.94 0 0 1-.38-.07.8.8 0 0 1-.29-.21.94.94 0 0 1-.18-.33 1.39 1.39 0 0 1-.06-.43 1.33 1.33 0 0 1 .06-.43 1 1 0 0 1 .18-.33.8.8 0 0 1 .29-.21.92.92 0 0 1 .38-.08.94.94 0 0 1 .38.08.78.78 0 0 1 .29.21 1 1 0 0 1 .18.33 1.39 1.39 0 0 1 .06.43m1.86-.01a1.14 1.14 0 0 0-.05-.38.63.63 0 0 0-.14-.23.47.47 0 0 0-.18-.11.62.62 0 0 0-.19 0 .61.61 0 0 0-.27.06.86.86 0 0 0-.23.16v1l.07.09.11.09.14.07a.5.5 0 0 0 .17 0 .52.52 0 0 0 .25-.06.5.5 0 0 0 .18-.16.74.74 0 0 0 .11-.25 1.29 1.29 0 0 0 0-.31m.33 0a1.4 1.4 0 0 1-.07.48 1 1 0 0 1-.19.33.77.77 0 0 1-.27.2.83.83 0 0 1-.32.06.66.66 0 0 1-.22 0l-.16-.08-.08-.12-.05-.07-.07.22h-.24v-3H28v1.22a.72.72 0 0 1 .24-.18.74.74 0 0 1 .31-.06h.17l.19.06a.8.8 0 0 1 .18.12.73.73 0 0 1 .15.19 1 1 0 0 1 .1.27 1.48 1.48 0 0 1 0 .35m1.66.17h-.46a.5.5 0 0 0-.31.09.32.32 0 0 0-.11.27.44.44 0 0 0 0 .16.31.31 0 0 0 .19.18h.14a.53.53 0 0 0 .19 0l.15-.07.11-.08.07-.06zm0 .65l-.1.1-.14.09-.17.06h-.19a.73.73 0 0 1-.26 0 .54.54 0 0 1-.2-.12.56.56 0 0 1-.13-.2.73.73 0 0 1 0-.27.65.65 0 0 1 .05-.26.55.55 0 0 1 .14-.2.64.64 0 0 1 .22-.12.89.89 0 0 1 .29 0h.28L31 22v-.14a1 1 0 0 0 0-.14.36.36 0 0 0 0-.11.4.4 0 0 0-.17-.17.63.63 0 0 0-.31-.07h-.27l-.26.08v-.27h.56a.94.94 0 0 1 .47.11.58.58 0 0 1 .31.43 1.07 1.07 0 0 1 0 .18v1.32H31zm.93-2.8h.31v3.02h-.31zm2.13.23v2.48h1.32v.31h-1.65v-2.79h.33zm1.8.81h.31v2h-.31zm0-.82h.31v.36h-.31zm2.05.03h-.25a.61.61 0 0 0-.19 0 .33.33 0 0 0-.14.09.39.39 0 0 0-.09.16.76.76 0 0 0 0 .23v.3h.57v.28h-.57v1.7h-.31v-1.7h-.34v-.28h.34v-.3a1 1 0 0 1 .06-.36.66.66 0 0 1 .15-.24.61.61 0 0 1 .23-.14.86.86 0 0 1 .28 0h.3zm.95 1.01a.47.47 0 0 0-.2 0 .54.54 0 0 0-.16.12.63.63 0 0 0-.11.18.71.71 0 0 0-.05.22h1a.8.8 0 0 0 0-.22.53.53 0 0 0-.09-.18.4.4 0 0 0-.14-.12.43.43 0 0 0-.19 0m.08 1.53h.28l.26-.07v.27a1 1 0 0 1-.25.08 1.67 1.67 0 0 1-.33 0 1.34 1.34 0 0 1-.39-.05.79.79 0 0 1-.31-.17.82.82 0 0 1-.21-.32 1.31 1.31 0 0 1-.08-.47 1.36 1.36 0 0 1 .07-.47 1 1 0 0 1 .19-.33.78.78 0 0 1 .28-.2.84.84 0 0 1 .33-.07.8.8 0 0 1 .3.06.63.63 0 0 1 .24.17.87.87 0 0 1 .16.31 1.52 1.52 0 0 1 .06.45v.08h-1.29a.83.83 0 0 0 .05.32.56.56 0 0 0 .15.21.6.6 0 0 0 .22.12 1 1 0 0 0 .28 0M41 21.12a1.15 1.15 0 0 1 .27 0 .74.74 0 0 1 .22.08v.27l-.23-.08h-.22a.7.7 0 0 0-.23 0 .53.53 0 0 0-.21.13.65.65 0 0 0-.15.24 1.07 1.07 0 0 0-.06.37 1 1 0 0 0 0 .3.69.69 0 0 0 .12.23.56.56 0 0 0 .21.15.69.69 0 0 0 .29.06h.23l.23-.07v.27H41a1.08 1.08 0 0 1-.37-.06.82.82 0 0 1-.3-.19.9.9 0 0 1-.2-.32 1.25 1.25 0 0 1-.08-.46 1.41 1.41 0 0 1 0-.35 1.1 1.1 0 0 1 .11-.27.84.84 0 0 1 .16-.2.86.86 0 0 1 .2-.14.84.84 0 0 1 .21-.08h.22m2.13 1.29h-.47a.49.49 0 0 0-.31.09.32.32 0 0 0-.11.27.44.44 0 0 0 0 .16.3.3 0 0 0 .19.18h.15a.54.54 0 0 0 .19 0l.15-.07.11-.08.07-.06zm0 .65L43 23l-.14.09-.17.06h-.19a.73.73 0 0 1-.25 0A.54.54 0 0 1 42 23a.59.59 0 0 1-.13-.2.73.73 0 0 1 0-.27.65.65 0 0 1 .05-.26.56.56 0 0 1 .14-.2.63.63 0 0 1 .22-.12.89.89 0 0 1 .29 0h.28l.23.06v-.14a1.21 1.21 0 0 0 0-.14.34.34 0 0 0 0-.11.4.4 0 0 0-.17-.17.62.62 0 0 0-.31-.07h-.27l-.26.08v-.27h.56a.94.94 0 0 1 .47.11.61.61 0 0 1 .26.28.57.57 0 0 1 0 .15 1 1 0 0 1 0 .18v1.32h-.26zm1.97-1.5h-.22l-.2.06a.76.76 0 0 0-.17.11.55.55 0 0 0-.13.15v1.38H44v-2h.24l.06.31a.66.66 0 0 1 .11-.14.77.77 0 0 1 .15-.12l.19-.08a.76.76 0 0 1 .21 0h.08zm1.08-.04a.47.47 0 0 0-.2 0 .55.55 0 0 0-.16.12.63.63 0 0 0-.11.18.68.68 0 0 0-.05.22h1a.8.8 0 0 0 0-.22.53.53 0 0 0-.09-.18.4.4 0 0 0-.14-.12.43.43 0 0 0-.19 0m.17 1.52h.28l.26-.07v.27a1 1 0 0 1-.25.08 1.65 1.65 0 0 1-.33 0 1.34 1.34 0 0 1-.39-.05.8.8 0 0 1-.31-.17.82.82 0 0 1-.21-.32 1.31 1.31 0 0 1-.08-.47 1.38 1.38 0 0 1 .07-.47 1 1 0 0 1 .19-.33.79.79 0 0 1 .28-.2.85.85 0 0 1 .33-.07.8.8 0 0 1 .3.06.64.64 0 0 1 .24.17.89.89 0 0 1 .16.31 1.55 1.55 0 0 1 .06.45v.08h-1.38a.85.85 0 0 0 .05.32.58.58 0 0 0 .15.21.61.61 0 0 0 .22.12 1 1 0 0 0 .28 0"/><path d="M5.84 15c0-1.42.75-2 1.55-2s1.54.79 1.54 2-.71 2-1.56 2c-1 0-1.53-1-1.53-2m6.48 1.44c0 .43-.36.63-.83.63a2.31 2.31 0 0 1-1.32-.48 4 4 0 0 0 .3-1.3c.88.44 1.86.66 1.86 1.15m-2.89 1.2a3.42 3.42 0 0 0 2.06.67c1.34 0 2.37-.75 2.37-2 0-2.13-3.28-1.93-3.28-2.93 0-.38.38-.58.92-.58.34 0 .77.15.77.45v.31h1.35v-.66c0-1-1.33-1.33-2.17-1.33a2.66 2.66 0 0 0-2 .69 2.5 2.5 0 0 0-1.78-.69 2.36 2.36 0 0 0-1.36.43v-.42h-.83a1 1 0 0 0-.6.15H3.6v1.35h.48a.29.29 0 0 1 .17 0l-.83 2.41a8.73 8.73 0 0 0-.22.92 7.19 7.19 0 0 0-.2-.88l-1.21-3.36a.81.81 0 0 0-.91-.6H0v1.35h.13a.32.32 0 0 1 .34.23L2.24 18h1.83l.28-.77v3.43h1.52v-3.21a2.14 2.14 0 0 0 1.77.84 2.63 2.63 0 0 0 1.78-.67" fill="#fff"/><path class="cls-2" d="M6.34 11.57V12zm-.02 0h-1a.83.83 0 0 0-.39.14H5c.57 0 .77.26.77.61v.25a1.85 1.85 0 0 1 .57-.57zm-5.42 0a.81.81 0 0 1 .91.6L3 15.53a7.35 7.35 0 0 1 .23.91 7.16 7.16 0 0 0-.23-.91l-1.19-3.36a.81.81 0 0 0-.91-.6m3.45 5.62l-.28.81.26-.72z"/><path class="cls-2" d="M.88 11.57H0v1.35h.15a.32.32 0 0 1 .34.23L2.26 18h1.81l.28-.77v.05-3.93a.26.26 0 0 0-.09-.23l-.83 2.41a8.7 8.7 0 0 0-.22.91 7.17 7.17 0 0 0-.21-.91l-1.21-3.35a.81.81 0 0 0-.91-.6"/><path class="cls-9" d="M7.75 11.57h-.32.3a2.5 2.5 0 0 1 1.78.69 2.5 2.5 0 0 0-1.77-.68m-.53 1.38c-.73.08-1.37.7-1.37 2 0 1 .51 2 1.53 2-1 0-1.53-1-1.53-2 0-1.3.63-1.91 1.35-2m3.25 2.3a4 4 0 0 1-.29 1.29 4 4 0 0 0 .3-1.29m-4.58 2.16v3.19-3.16m3.55.17a2.59 2.59 0 0 1-1.48.65 2.6 2.6 0 0 0 1.48-.64"/><path class="cls-9" d="M7.73 11.57h-.3a2.29 2.29 0 0 0-1.09.43v.93h-.15a.32.32 0 0 0-.34.23l-1.48 4v3.43h1.5v-3.14a2.14 2.14 0 0 0 1.77.84h.29a2.59 2.59 0 0 0 1.47-.65 2.72 2.72 0 0 1-.51-.47l.73-1a3.05 3.05 0 0 0 .5.45 4 4 0 0 0 .29-1.29 2 2 0 0 1-1.4-1.81 1.66 1.66 0 0 1 .44-1.18 2.5 2.5 0 0 0-1.78-.69m-.51 1.38h.19c.91 0 1.54.79 1.54 2s-.64 1.9-1.43 2h-.1c-1 0-1.52-1-1.52-2 0-1.31.64-1.92 1.37-2M4.9 11.72H3.62 4.9m.01 0H3.62v1.35h.48a.28.28 0 0 1 .17 0l.33-1a.9.9 0 0 1 .31-.45"/><path class="cls-10" d="M5 11.72h-.09a.9.9 0 0 0-.31.45l-.33 1a.26.26 0 0 1 .09.23v3.84l1.48-4a.32.32 0 0 1 .34-.23h.15V12a1.85 1.85 0 0 0-.55.59v-.25c0-.35-.21-.61-.77-.61"/><path class="cls-2" d="M11.48 11.57h-.45.43c.84 0 2.17.29 2.17 1.33v.66-.66c0-1-1.33-1.33-2.17-1.33m-.18 1.24c-.44 0-.72.24-.72.57 0 1 3.28.8 3.28 2.93a2 2 0 0 1-2 1.93 2 2 0 0 0 2-1.94c0-2.13-3.28-1.93-3.28-2.93 0-.32.28-.52.7-.56m-1.12 3.74a2.29 2.29 0 0 0 1.31.46 2.31 2.31 0 0 1-1.32-.48"/><path class="cls-2" d="M11.46 11.57h-.43a2.42 2.42 0 0 0-1.51.67 3.61 3.61 0 0 1 1 2.65v.33c.88.44 1.86.66 1.86 1.15s-.28.58-.67.62h-.18a2.3 2.3 0 0 1-1.31-.46 3 3 0 0 1-.73 1 3.43 3.43 0 0 0 2.06.67h.35a2 2 0 0 0 2-1.93c0-2.13-3.28-1.93-3.28-2.93 0-.33.29-.52.72-.57h.22c.34 0 .77.15.77.45v.31h1.33v-.63c0-1-1.33-1.33-2.17-1.33"/><path class="cls-10" d="M9.52 12.26a1.66 1.66 0 0 0-.44 1.18 2 2 0 0 0 1.4 1.81v-.33a3.61 3.61 0 0 0-1-2.66m.14 3.82l-.73 1a2.73 2.73 0 0 0 .51.47 3 3 0 0 0 .73-1 3.05 3.05 0 0 1-.5-.45"/><path class="cls-7" d="M17.48 9.97h.37v8.41h-.37z"/></g></g></svg>