<svg xmlns="http://www.w3.org/2000/svg" viewBox="0 0 74.09 34.6"><defs><style>.cls-3{fill:#dddada}</style></defs><g id="Layer_2" data-name="Layer 2"><g id="Layer_1-2" data-name="Layer 1"><path d="M34.73 8.59h-3.09v2.04h2.9v1.42h-2.9v2.33h3.21v1.43h-4.96V7.17h4.84v1.42zm3.59 5.93a1.49 1.49 0 0 0 .74-.16 1.08 1.08 0 0 0 .44-.52 3.07 3.07 0 0 0 .22-1q.05-.59.05-1.48t0-1.29a3.2 3.2 0 0 0-.2-.93 1.15 1.15 0 0 0-.45-.56 1.47 1.47 0 0 0-.79-.19h-.74v6.08zm.34-7.36a3.12 3.12 0 0 1 1.46.3 2.12 2.12 0 0 1 .87.85 3.77 3.77 0 0 1 .42 1.33 12.62 12.62 0 0 1 .11 1.73 12.12 12.12 0 0 1-.14 2 3.78 3.78 0 0 1-.48 1.39 2.09 2.09 0 0 1-.91.81 3.39 3.39 0 0 1-1.44.27H35.8V7.16zm5.64 6.03a4 4 0 0 0 0 .6 1.34 1.34 0 0 0 .16.47.82.82 0 0 0 .31.31 1.17 1.17 0 0 0 1 0 .85.85 0 0 0 .31-.31 1.36 1.36 0 0 0 .16-.47 4 4 0 0 0 0-.6v-6h1.74v6a3.47 3.47 0 0 1-.23 1.36 2.17 2.17 0 0 1-.62.85 2.09 2.09 0 0 1-.88.42 4.81 4.81 0 0 1-1 .11 5.41 5.41 0 0 1-1-.1 2.1 2.1 0 0 1-.88-.39 2 2 0 0 1-.62-.84 3.68 3.68 0 0 1-.23-1.42v-6h1.78zm8.35-4.48a.84.84 0 0 0-.82-.43.82.82 0 0 0-.54.18A1.17 1.17 0 0 0 51 9a4.83 4.83 0 0 0-.17 1v1.56a15.22 15.22 0 0 0 .07 1.58 3.51 3.51 0 0 0 .21.94.86.86 0 0 0 .35.45 1 1 0 0 0 .49.11 1.17 1.17 0 0 0 .43-.08.73.73 0 0 0 .34-.31 2 2 0 0 0 .23-.67 6.11 6.11 0 0 0 .09-1.13h1.74a7.86 7.86 0 0 1-.11 1.33 3 3 0 0 1-.41 1.1 2 2 0 0 1-.84.74 3.15 3.15 0 0 1-1.4.27 3.29 3.29 0 0 1-1.56-.31 2.12 2.12 0 0 1-.89-.91 4 4 0 0 1-.4-1.42 17.09 17.09 0 0 1-.17-1.76 17.13 17.13 0 0 1 .09-1.81 4 4 0 0 1 .4-1.42 2.24 2.24 0 0 1 .89-.93A3.14 3.14 0 0 1 51.94 7a3 3 0 0 1 1.47.3 2.06 2.06 0 0 1 .8.77 2.65 2.65 0 0 1 .33 1 8.16 8.16 0 0 1 .07 1h-1.74a3.16 3.16 0 0 0-.22-1.37m6.63 3.85l-.83-3.89-.84 3.89zm.23-5.39l2.29 8.64H60l-.41-1.8h-2.3l-.4 1.83h-1.82l2.29-8.64zm5.37 3.78a1.43 1.43 0 0 0 1-.3 1.27 1.27 0 0 0 .34-1A1.07 1.07 0 0 0 65 8.45h-.82v2.49zm.75-3.78a2.43 2.43 0 0 1 1.69.55 2.15 2.15 0 0 1 .61 1.68 2.6 2.6 0 0 1-.35 1.42 1.62 1.62 0 0 1-1.09.71 1.57 1.57 0 0 1 1 .42 1.79 1.79 0 0 1 .33 1.06v1.17c0 .46 0 .81.07 1.05a.68.68 0 0 0 .32.5v.07h-1.83a1 1 0 0 1-.17-.42v-2.15a1.35 1.35 0 0 0-.25-.8.93.93 0 0 0-.78-.29h-.93v3.66h-1.84V7.16zm8.34 1.43h-3.09v2.04h2.9v1.42h-2.9v2.33h3.21v1.43h-4.95V7.17h4.83v1.42zM29.9 17.88h1.21v6H29.9zm4.97 4.11h.01v-4.11h1.11v6h-1.38l-1.48-4.2h-.01v4.2h-1.11v-6h1.39l1.47 4.11zm2.94.19a2 2 0 0 0 0 .38.68.68 0 0 0 .13.29.63.63 0 0 0 .25.19 1 1 0 0 0 .39.07.77.77 0 0 0 .5-.18.68.68 0 0 0 .22-.56 1 1 0 0 0-.05-.35.68.68 0 0 0-.18-.27 1.25 1.25 0 0 0-.33-.21 4.74 4.74 0 0 0-.51-.2 4.31 4.31 0 0 1-.7-.29 1.85 1.85 0 0 1-.49-.37 1.3 1.3 0 0 1-.29-.5 2 2 0 0 1-.09-.65 1.68 1.68 0 0 1 .5-1.33 2 2 0 0 1 1.36-.44 3 3 0 0 1 .75.09 1.56 1.56 0 0 1 .59.29 1.32 1.32 0 0 1 .39.5 1.79 1.79 0 0 1 .14.74v.17h-1.15a1.19 1.19 0 0 0-.15-.66.56.56 0 0 0-.5-.23.85.85 0 0 0-.34.06.57.57 0 0 0-.21.16.56.56 0 0 0-.11.22 1.24 1.24 0 0 0 0 .26.86.86 0 0 0 .12.47 1 1 0 0 0 .5.35l.93.4a2.86 2.86 0 0 1 .56.31 1.53 1.53 0 0 1 .35.35 1.19 1.19 0 0 1 .18.42 2.3 2.3 0 0 1 0 .5 1.65 1.65 0 0 1-.57 1.38 2.42 2.42 0 0 1-1.53.43 2 2 0 0 1-1.47-.44 1.74 1.74 0 0 1-.44-1.28V22h1.21zm6.9-3.31H43.4v5.01h-1.21v-5.01h-1.31v-.99h3.83v.99zm.58-.99h1.21v6h-1.21zm5.63.99H49.6v5.01h-1.21v-5.01h-1.31v-.99h3.84v.99zm1.65 3.2a2.79 2.79 0 0 0 0 .42.92.92 0 0 0 .11.33.58.58 0 0 0 .22.22.81.81 0 0 0 .7 0 .59.59 0 0 0 .21-.22.94.94 0 0 0 .11-.33 2.67 2.67 0 0 0 0-.42v-4.19h1.28v4.19a2.44 2.44 0 0 1-.2.93 1.52 1.52 0 0 1-.43.59 1.46 1.46 0 0 1-.61.29 3.34 3.34 0 0 1-.71.08 3.74 3.74 0 0 1-.72-.07 1.46 1.46 0 0 1-.61-.27 1.4 1.4 0 0 1-.43-.58 2.55 2.55 0 0 1-.16-1v-4.16h1.21zm6.91-3.2h-1.32v5.01h-1.21v-5.01h-1.31v-.99h3.84v.99zm3.87 0h-2.14v1.41h2.02v1h-2.02v1.61h2.23v.99H60v-6h3.35v.99zm3.82 3.04a2.78 2.78 0 0 0 .12.69.76.76 0 0 0 .25.39.83.83 0 0 0 .87 0 .77.77 0 0 0 .25-.39 2.83 2.83 0 0 0 .12-.69v-2a2.87 2.87 0 0 0-.12-.69.77.77 0 0 0-.25-.39.83.83 0 0 0-.87 0 .76.76 0 0 0-.25.39 2.81 2.81 0 0 0-.12.69v2M66 19.62a2.81 2.81 0 0 1 .28-1 1.56 1.56 0 0 1 .62-.64 2.65 2.65 0 0 1 2.17 0 1.55 1.55 0 0 1 .62.64 2.81 2.81 0 0 1 .28 1 12.82 12.82 0 0 1 0 2.52 2.79 2.79 0 0 1-.28 1 1.47 1.47 0 0 1-.62.63 2.8 2.8 0 0 1-2.17 0 1.48 1.48 0 0 1-.62-.63 2.79 2.79 0 0 1-.28-1 12.61 12.61 0 0 1 0-2.52m8.09-1.74v.99h-2.14v1.41h2.01v1h-2.01v2.6h-1.21v-6h3.35zM31.18 29.55a.76.76 0 0 0 .38-.08.55.55 0 0 0 .23-.27 1.53 1.53 0 0 0 .11-.49V27.3a1.66 1.66 0 0 0-.1-.47.59.59 0 0 0-.23-.28.74.74 0 0 0-.41-.1h-.38v3.11zm.17-3.76a1.6 1.6 0 0 1 .75.15 1.08 1.08 0 0 1 .44.43 1.91 1.91 0 0 1 .21.68 6.41 6.41 0 0 1 .06.89 6.23 6.23 0 0 1-.07 1 1.92 1.92 0 0 1-.24.71 1.07 1.07 0 0 1-.46.42 1.74 1.74 0 0 1-.74.14h-1.41v-4.42zm4.53.73H34.3v1.04h1.48v.73H34.3v1.19h1.64v.73H33.4v-4.42h2.48v.73zm2.61 2.3h.01v-3.03h.81v4.42H38.3l-1.09-3.1h-.01v3.1h-.82v-4.42h1.03l1.08 3.03zm4.03-2.3h-.96v3.69h-.9v-3.69h-.96v-.73h2.82v.73zm1.89 2.02l-.43-2-.43 2zm.12-2.75l1.17 4.42h-.93l-.2-.94h-1.18l-.2.94h-.93l1.17-4.42zm1.48 0h.89v3.69h1.58v.73h-2.47v-4.42zM51.08 29a1.51 1.51 0 0 0 0 .28.5.5 0 0 0 .09.21.48.48 0 0 0 .18.14.73.73 0 0 0 .29 0 .57.57 0 0 0 .37-.13.5.5 0 0 0 .16-.41.76.76 0 0 0 0-.26.5.5 0 0 0-.13-.2.93.93 0 0 0-.24-.16l-.37-.15a3.21 3.21 0 0 1-.51-.22 1.39 1.39 0 0 1-.36-.27 1 1 0 0 1-.21-.37 1.51 1.51 0 0 1-.07-.48 1.23 1.23 0 0 1 .37-1 1.46 1.46 0 0 1 1-.32 2.2 2.2 0 0 1 .55.06 1.15 1.15 0 0 1 .43.21 1 1 0 0 1 .28.37 1.31 1.31 0 0 1 .1.54V27h-.85a.88.88 0 0 0-.11-.49.41.41 0 0 0-.37-.17.63.63 0 0 0-.25 0 .43.43 0 0 0-.16.11.4.4 0 0 0-.08.16.82.82 0 0 0 0 .19.65.65 0 0 0 .09.34.79.79 0 0 0 .37.26l.69.3a2.15 2.15 0 0 1 .41.23 1.14 1.14 0 0 1 .26.26.88.88 0 0 1 .13.31 1.69 1.69 0 0 1 0 .37 1.22 1.22 0 0 1-.41 1 1.79 1.79 0 0 1-1.13.32 1.48 1.48 0 0 1-1.08-.33 1.28 1.28 0 0 1-.33-.94v-.18h.89zm4.26-2.42a.43.43 0 0 0-.42-.22.42.42 0 0 0-.28.09.59.59 0 0 0-.17.29 2.35 2.35 0 0 0-.09.53v.8a7.88 7.88 0 0 0 0 .81 1.75 1.75 0 0 0 .11.48.43.43 0 0 0 .18.23.51.51 0 0 0 .25.06.6.6 0 0 0 .22 0 .37.37 0 0 0 .18-.16 1 1 0 0 0 .12-.34 3.11 3.11 0 0 0 0-.58h.89a4 4 0 0 1-.06.68 1.52 1.52 0 0 1-.21.56 1 1 0 0 1-.43.38 1.61 1.61 0 0 1-.72.14 1.68 1.68 0 0 1-.8-.16 1.08 1.08 0 0 1-.46-.46 2 2 0 0 1-.2-.72 9.35 9.35 0 0 1 0-1.85 2 2 0 0 1 .2-.73 1.14 1.14 0 0 1 .46-.47 1.61 1.61 0 0 1 .8-.17 1.54 1.54 0 0 1 .75.15 1.06 1.06 0 0 1 .41.39 1.4 1.4 0 0 1 .17.51 4.18 4.18 0 0 1 0 .52h-.89a1.63 1.63 0 0 0-.11-.7m1.7-.85h.89v4.42h-.89zm4.02.73h-1.58v1.04h1.49v.73h-1.49v1.19h1.64v.73h-2.53v-4.42h2.47v.73zm2.61 2.3h.01v-3.03h.82v4.42h-1.01l-1.09-3.1h-.02v3.1h-.81v-4.42h1.02l1.08 3.03zm3.22-2.24a.43.43 0 0 0-.42-.22.42.42 0 0 0-.28.09.6.6 0 0 0-.17.29 2.41 2.41 0 0 0-.09.53v.8a7.92 7.92 0 0 0 0 .81 1.79 1.79 0 0 0 .11.48.43.43 0 0 0 .18.23.51.51 0 0 0 .25.06.61.61 0 0 0 .22 0 .38.38 0 0 0 .18-.16 1.07 1.07 0 0 0 .12-.34 3.2 3.2 0 0 0 0-.58h.89a4 4 0 0 1-.06.68 1.54 1.54 0 0 1-.21.56 1 1 0 0 1-.43.38 1.61 1.61 0 0 1-.72.14 1.68 1.68 0 0 1-.8-.16 1.09 1.09 0 0 1-.46-.46 2 2 0 0 1-.2-.72 9.35 9.35 0 0 1 0-1.85 2.06 2.06 0 0 1 .2-.73 1.14 1.14 0 0 1 .46-.47 1.61 1.61 0 0 1 .8-.17 1.54 1.54 0 0 1 .75.15 1 1 0 0 1 .41.39 1.38 1.38 0 0 1 .17.51 4.18 4.18 0 0 1 0 .52h-.89a1.61 1.61 0 0 0-.11-.7m4.12-.12h-1.57v1.04h1.48v.73h-1.48v1.19h1.64v.73h-2.54v-4.42h2.47v.73zM72 29a1.51 1.51 0 0 0 0 .28.49.49 0 0 0 .09.21.47.47 0 0 0 .18.14.73.73 0 0 0 .29 0 .57.57 0 0 0 .37-.13.5.5 0 0 0 .16-.41.73.73 0 0 0 0-.26.49.49 0 0 0-.13-.2.91.91 0 0 0-.24-.16l-.37-.15a3.16 3.16 0 0 1-.51-.22 1.4 1.4 0 0 1-.36-.27 1 1 0 0 1-.21-.37 1.51 1.51 0 0 1-.07-.48 1.23 1.23 0 0 1 .37-1 1.46 1.46 0 0 1 1-.32 2.2 2.2 0 0 1 .55.06 1.15 1.15 0 0 1 .43.21 1 1 0 0 1 .29.37 1.33 1.33 0 0 1 .1.54V27h-.85a.88.88 0 0 0-.11-.49.41.41 0 0 0-.37-.17.63.63 0 0 0-.25 0 .43.43 0 0 0-.16.11.42.42 0 0 0-.08.16.87.87 0 0 0 0 .19.64.64 0 0 0 .09.34.78.78 0 0 0 .37.26l.69.3a2.12 2.12 0 0 1 .41.23 1.12 1.12 0 0 1 .26.26.87.87 0 0 1 .13.31 1.75 1.75 0 0 1 0 .37 1.22 1.22 0 0 1-.41 1 1.79 1.79 0 0 1-1.13.32 1.48 1.48 0 0 1-1.08-.33 1.28 1.28 0 0 1-.33-.94v-.18H72zM27.77 17.41A13.89 13.89 0 1 1 13.89 3.53a13.88 13.88 0 0 1 13.88 13.88" fill="#3ea3dc"/><path d="M25.5 6.8C22.85 2.67 18.67 0 14 0A13.7 13.7 0 0 0 2.81 6.25a15.73 15.73 0 0 1 22.69.55M3.34 29.08A13.52 13.52 0 0 0 14 34.6a13.65 13.65 0 0 0 11-6.06 15.73 15.73 0 0 1-21.65.53" fill="#c6c6c6"/><path class="cls-3" d="M15.49 14.17v10.41a27.26 27.26 0 0 1 6-3.94l.33-2.42a2.18 2.18 0 0 1-.91.66c-.53.17-.82-.8-.12-1.07s.46-.41.12-.46-.85-.5-.16-.91.31-.43 0-.56-.22-.74.51-1.17 1.58-.87 1.58-.87l.92-3.47a19.7 19.7 0 0 0-8.28 3.8"/><path class="cls-3" d="M22.94 14s1-.85 1.19-.33a1 1 0 0 1-.24 1c-.11.13-.4.22-.05.29s.7 0 .32.56-.85.4-.7.69.74.18.31.78A4 4 0 0 1 22.22 18c-.22.07.13-2.31.72-4.09m-8.11-.08a15.5 15.5 0 0 1 7.3-3.83l.09-1.88s-5.84 2.62-7.39 5.64m-2.28.41v10.41a27.26 27.26 0 0 0-6-3.94l-.33-2.42a2.18 2.18 0 0 0 .91.66c.53.17.82-.8.12-1.07s-.46-.41-.12-.46.85-.5.16-.91-.31-.43 0-.56.22-.74-.51-1.17-1.58-.87-1.58-.87l-.92-3.47a19.7 19.7 0 0 1 8.28 3.8"/><path class="cls-3" d="M5.1 14s-1-.85-1.19-.33a1 1 0 0 0 .24 1c.11.13.4.22.05.29s-.7 0-.33.56.85.4.71.69-.74.18-.31.78A4 4 0 0 0 5.82 18c.18.12-.12-2.27-.72-4m8.12-.17A15.5 15.5 0 0 0 5.91 10l-.09-1.88s5.84 2.62 7.4 5.64m-.04 1.32h1.71l-.11 10.17h-1.79l.19-10.17zm.82-1.74a12.33 12.33 0 0 1 4.23-4 4.24 4.24 0 0 0-2.74-4 6 6 0 0 0-3.4.15 4.2 4.2 0 0 0-2.33 3.7S12.83 11 14 13.34M3.66 21.48l.43.91-.4.19-.17-.37-.39.18.16.34-.38.18-.16-.34-.44.21.18.4-.4.19-.45-.94 2.02-.95zm.67 1.36l.24.38a3 3 0 0 1 .28.52.46.46 0 0 1 0 .27.42.42 0 0 1-.11.19 3 3 0 0 1-.35.25l-.66.42a1.75 1.75 0 0 1-.36.19.29.29 0 0 1-.19 0 .43.43 0 0 1-.18-.12 1.58 1.58 0 0 1-.19-.26L2.45 24zm0 .71l-1.24.79c0 .07.09.11.13.11a.71.71 0 0 0 .25-.12l.73-.47.16-.11a.09.09 0 0 0 0-.07.32.32 0 0 0-.06-.12m1.96 1.85l-1.12 1a2.37 2.37 0 0 1-.28.22.48.48 0 0 1-.22.06.53.53 0 0 1-.27-.06.84.84 0 0 1-.26-.21.93.93 0 0 1-.19-.32.55.55 0 0 1 0-.29.47.47 0 0 1 .08-.21c.05-.06.17-.17.36-.34l1-.87.4.45-1.26 1.1a.6.6 0 0 0-.13.14.07.07 0 0 0 0 .08.07.07 0 0 0 .08 0 .85.85 0 0 0 .17-.13L5.86 25zm.81 1.94L6.6 27l.24-.3a.76.76 0 0 0 .16-.2.11.11 0 0 0-.15-.1.74.74 0 0 0-.15.16l-.7.8a.7.7 0 0 0-.12.18.09.09 0 0 0 0 .1.08.08 0 0 0 .1 0 .77.77 0 0 0 .16-.17l.18-.22.47.38-.05.07a1.66 1.66 0 0 1-.35.35.51.51 0 0 1-.33.06.8.8 0 0 1-.4-.18.91.91 0 0 1-.28-.34.45.45 0 0 1 0-.34 1.63 1.63 0 0 1 .26-.42l.41-.51a3.06 3.06 0 0 1 .26-.32.49.49 0 0 1 .23-.12.56.56 0 0 1 .29 0 1 1 0 0 1 .59.52.48.48 0 0 1 0 .33 1.39 1.39 0 0 1-.24.39zm1.87-.03l-.77 2.12-.54-.29.16-.37-.19-.1-.21.32-.55-.3 1.34-1.8zm-1 1.1q.14-.35.37-.87c-.26.34-.44.6-.55.77zm1.59-.82l.4.14a3.42 3.42 0 0 1 .54.22.4.4 0 0 1 .18.23.73.73 0 0 1 0 .42.63.63 0 0 1-.18.31.36.36 0 0 1-.29 0 .46.46 0 0 1 .19.19.35.35 0 0 1 0 .15 2.09 2.09 0 0 1-.09.32l-.19.56-.54-.14.24-.7a.49.49 0 0 0 0-.22S9.78 29 9.71 29l-.33 1-.57-.2zm.45.56l-.16.47a.28.28 0 0 0 .14 0s.06-.06.1-.15v-.26a.23.23 0 0 0-.12-.08m1.35.01l.99.19-.08.43-.4-.07-.08.42.37.07-.08.41-.37-.07-.09.48.44.09-.09.44-1.02-.2.41-2.19z"/><path class="cls-3" transform="rotate(-88.95 14.079 29.586)" d="M12.97 29.29h2.23v.6h-2.23z"/><path class="cls-3" d="M15.86 28.22l.63 2.14-.51.15-.58-.89.28.98-.48.14-.63-2.14.48-.14.61.87-.28-.97.48-.14zm2-.06l-.52.21-.06-.15a.32.32 0 0 0-.07-.13.08.08 0 0 0-.08 0 .09.09 0 0 0-.06.07.24.24 0 0 0 0 .13.38.38 0 0 0 .09.14.47.47 0 0 0 .21.06 1.69 1.69 0 0 1 .61.16.84.84 0 0 1 .28.4.79.79 0 0 1 .08.35.45.45 0 0 1-.14.26.92.92 0 0 1-.33.22.9.9 0 0 1-.41.07.45.45 0 0 1-.29-.12 1.14 1.14 0 0 1-.2-.34l-.05-.13.52-.21.1.25a.38.38 0 0 0 .08.14.09.09 0 0 0 .09 0 .1.1 0 0 0 .07-.07.27.27 0 0 0 0-.14.41.41 0 0 0-.15-.22 1.8 1.8 0 0 0-.34-.08l-.36-.08a.47.47 0 0 1-.18-.12.73.73 0 0 1-.16-.25.8.8 0 0 1-.08-.37.46.46 0 0 1 .13-.25.89.89 0 0 1 .31-.2 1 1 0 0 1 .4-.08.4.4 0 0 1 .27.09 1 1 0 0 1 .19.33zm1.39-1.44l.21.39-.32.17.82 1.58-.54.28-.82-1.59-.31.17-.21-.4 1.17-.6z"/><path class="cls-3" transform="rotate(-32.1 20.566 27.219)" d="M20.26 26.11h.6v2.23h-.6z"/><path class="cls-3" d="M21.7 25.04l.27.35-.29.22 1.09 1.42-.48.36-1.08-1.41-.28.21-.28-.35 1.05-.8zm1.3-1.25l1.06 1a2.51 2.51 0 0 1 .24.26.48.48 0 0 1 .08.22.53.53 0 0 1 0 .27.87.87 0 0 1-.19.27.93.93 0 0 1-.3.21.54.54 0 0 1-.29 0 .47.47 0 0 1-.22-.09 4.93 4.93 0 0 1-.36-.34L22 24.77l.42-.43 1.19 1.18a.61.61 0 0 0 .14.12.06.06 0 0 0 .08 0 .07.07 0 0 0 0-.08.86.86 0 0 0-.14-.16l-1.17-1.15zm.98-1.34l.36.25-.21.3 1.45 1.03-.35.49-1.45-1.03-.21.29-.36-.26.77-1.07zm.17-.32l.44-.9.4.2-.18.36.38.18.17-.34.38.19-.17.34.45.21.19-.39.4.19-.46.94-2-.98z"/></g></g></svg>