<svg xmlns="http://www.w3.org/2000/svg" viewBox="0 0 60.75 44.62"><defs><style>.cls-1{fill:#a40344}.cls-4{fill:#fff}</style></defs><g id="Layer_2" data-name="Layer 2"><g id="Layer_1-2" data-name="Layer 1"><rect class="cls-1" y="17.89" width="60.75" height="26.73" rx="3.23" ry="3.23"/><path class="cls-1" d="M18.6 15.5v-1h.21a.89.89 0 0 1 .83 1v1h-.21a.89.89 0 0 1-.83-1m1.72 0v-1h.21a.89.89 0 0 1 .83 1v1h-.21a.89.89 0 0 1-.83-1m11.09 0v-1h.21a.89.89 0 0 1 .83 1v1h-.21a.89.89 0 0 1-.83-1m17.49 0v-1h.21a.89.89 0 0 1 .83 1v1h-.21a.89.89 0 0 1-.83-1M21.28 2.1a.85.85 0 0 0-.91.87.91.91 0 0 0 1.81 0 .85.85 0 0 0-.91-.87m14.88 0a.85.85 0 0 0-.91.87.87.87 0 0 0 .37.72 1.11 1.11 0 0 0 .54.15.85.85 0 0 0 .91-.84.85.85 0 0 0-.91-.87M18 5.69a1.5 1.5 0 0 1-1.53-1.47A1.92 1.92 0 0 1 17 2.75a1.44 1.44 0 0 1 .89-.49.37.37 0 0 1 .31.11l.1.12h-.15a1.44 1.44 0 0 0-.79.47 1.45 1.45 0 0 0-.44 1 1.12 1.12 0 0 0 .29.83 1.15 1.15 0 0 0 .78.33 1.28 1.28 0 0 0 .53-.1 1.06 1.06 0 0 0 .28-.18l-.86-.28a.2.2 0 0 1-.13-.21.25.25 0 0 1 0-.14 2 2 0 0 1 .31-.21.66.66 0 0 1 .42-.14h1.67a1.38 1.38 0 0 1-.3-.84 1.37 1.37 0 0 1 2.74 0 1.37 1.37 0 0 1-.29.84h.47c.45-.06.5-.55.5-.69v-.92c0-.28.19-.36.29-.36h.14v1.23a.61.61 0 1 0 1.21 0v-.87c0-.28.19-.36.29-.36h.14v1.23a.59.59 0 1 0 1.17 0v-.87c0-.28.19-.36.29-.36H27v1.23a.64.64 0 0 0 .61.7h.2a.65.65 0 0 0 .61-.7v-.87c0-.28.2-.36.29-.36h.14v1.23a.71.71 0 0 0 .27.58 1.28 1.28 0 0 0 .69.12c.47 0 .62-.09.71-.18a.78.78 0 0 0 .18-.52v-.87c0-.28.19-.36.29-.36h.14v1.23a.61.61 0 1 0 1.21 0v-.87c0-.28.19-.36.29-.36h.14v1.23a.63.63 0 0 0 .59.69c.52 0 .58-.53.58-.69v-.87c0-.28.19-.36.29-.36h.14v1.23a.63.63 0 0 0 .6.69h.17a1.36 1.36 0 0 1-.35-.81 1.37 1.37 0 0 1 2.74 0 1.31 1.31 0 0 1-1.29 1.3h-1.37a1 1 0 0 1-.78-.53 1 1 0 0 1-.27.34.88.88 0 0 1-.51.19.9.9 0 0 1-.47-.14 1 1 0 0 1-.34-.39.91.91 0 0 1-.75.52h-.11a.93.93 0 0 1-.78-.52 1 1 0 0 1-.33.38 1.39 1.39 0 0 1-.75.16 1.69 1.69 0 0 1-.8-.13 1 1 0 0 1-.38-.41 1 1 0 0 1-.35.39 1 1 0 0 1-.53.14 1.11 1.11 0 0 1-.62-.15 1 1 0 0 1-.34-.38.92.92 0 0 1-.7.52h-.16a.93.93 0 0 1-.73-.52.92.92 0 0 1-.75.52h-.1a.93.93 0 0 1-.78-.52.91.91 0 0 1-.78.53h-4.2l.72.24a.18.18 0 0 1 .1.08.25.25 0 0 1 0 .12.41.41 0 0 1-.06.21 1.44 1.44 0 0 1-.52.52 1.69 1.69 0 0 1-.85.21zm2.94-4.53V.77H21a.36.36 0 0 1 .33.38v.39h-.09a.36.36 0 0 1-.33-.38m3.95-.77V0h.08a.35.35 0 0 1 .33.38v.39h-.09a.36.36 0 0 1-.33-.38m-.27.77V.77h.08a.36.36 0 0 1 .33.38v.39h-.08a.36.36 0 0 1-.33-.38m.79 0V.77h.09a.36.36 0 0 1 .33.38v.39h-.08a.36.36 0 0 1-.33-.38m2.62 0V.77h.08a.36.36 0 0 1 .33.38v.39h-.09a.35.35 0 0 1-.32-.38m.81 0V.77h.09a.36.36 0 0 1 .33.38v.39h-.08a.36.36 0 0 1-.33-.38M42.81 15.2a5.8 5.8 0 0 1-1.14-.1h-.14v-.14a.63.63 0 0 1 .19-.44 1.09 1.09 0 0 1 .74-.28h.35c1.27 0 1.37-.63 1.38-1.68v-7a1 1 0 0 1 1-1h.17v4.27c0 1.33 1 2.89 3.71 2.89s3.23-1.27 3.23-2.64V5.5a1 1 0 0 1 1-1h.17v4.61c0 1 0 3.6-4.37 3.6a4.45 4.45 0 0 1-3.74-1.59V13c0 1.48-.85 2.24-2.53 2.24"/><path class="cls-1" d="M35.27 8.61a.94.94 0 0 0-.22 1L35 9.7s-.9-1.08-.18-1.89a1.35 1.35 0 0 1 1.12-.43 3.35 3.35 0 0 1 1.68.52l2 1.19a5 5 0 0 0 .6.29 2 2 0 0 0 .62.16h2l-1.18 1.07H40.5a3.5 3.5 0 0 0-1.89.51l-.79.45-.94.53a4.91 4.91 0 0 1-2.35.55h-5.3a4.45 4.45 0 0 1-4.31-2.44 4.45 4.45 0 0 1-4.31 2.44h-1.38a4.57 4.57 0 0 1-3.54-1.49v1.13a3.36 3.36 0 0 1-1 2.47 4.53 4.53 0 0 1-3.31 1.18 4.21 4.21 0 0 1-3-1.08 3.51 3.51 0 0 1-1.07-2.64 3.82 3.82 0 0 1 .94-2.55 5 5 0 0 1 3.2-1.55h.09a1.12 1.12 0 0 1 1.26 1v.25l-.24-.08a2.79 2.79 0 0 0-.89-.09 3.48 3.48 0 0 0-2.48.8 2.68 2.68 0 0 0-.84 2 2.53 2.53 0 0 0 .84 2 3.09 3.09 0 0 0 2.16.81 3.38 3.38 0 0 0 2.43-.81 2.66 2.66 0 0 0 .74-2V3.18a1 1 0 0 1 .92-1h.24V9c0 1.27 1 2.63 3.63 2.63h1.29c2.71 0 3.7-1.47 3.74-2.73v-3a1 1 0 0 1 1-1h.17v4c0 1.32 1 2.73 3.74 2.73h5.29a4.15 4.15 0 0 0 1.63-.34c.14-.06.51-.24 1.4-.76a9.1 9.1 0 0 1 1.2-.59l-1.88-1.1a4.11 4.11 0 0 0-.5-.24 1.07 1.07 0 0 0-1.11.06"/><path d="M21.29 38.51a3.06 3.06 0 0 1-3 1.86 6.77 6.77 0 0 0-2.33.27A5 5 0 0 1 17.71 38a3.59 3.59 0 0 1 1.18-.53 9.29 9.29 0 0 0-.67-.31 4 4 0 0 0-.8.43A5.67 5.67 0 0 0 15.31 41l-.1.57.48-.32a4.79 4.79 0 0 1 2.54-.41 3.73 3.73 0 0 0 1.92-.42 4 4 0 0 0 1.66-1.89 5.18 5.18 0 0 1-.53-.05" fill="#b8b20e"/><path d="M26 35.48a6 6 0 0 0-.82.6c-1.79 1.57-3.53 1.83-5.31.79a8.76 8.76 0 0 0-2.83-1.13 6.47 6.47 0 0 1 3.65-1.87 5 5 0 0 1 3 .68c1 .55 1.53.27 1.53.27a6.15 6.15 0 0 0-4.63-1.6 7.38 7.38 0 0 0-4.53 2.58l-.46.59.75-.07a6.2 6.2 0 0 1 3.17 1.1 4.82 4.82 0 0 0 2.45.71 5.52 5.52 0 0 0 3.62-1.57 2.82 2.82 0 0 1 2-.93 1.18 1.18 0 0 0-1.59-.15" fill="#ebe76b"/><path class="cls-4" d="M34.46 36.36A1.51 1.51 0 1 0 36 37.87a1.48 1.48 0 0 0-1.59-1.51m0 3.47a2 2 0 1 1 2.07-2 1.95 1.95 0 0 1-2.07 2m18.89-.12h-.08a.49.49 0 0 1-.4-.54v-4.53h.08a.47.47 0 0 1 .4.52zm-7.61 0h-.09a.47.47 0 0 1-.4-.52v-3.28h.09a.5.5 0 0 1 .39.56zm5.83-1.9a1.29 1.29 0 0 1-.49.12l-1.18.07c-.65 0-.93.24-.93.65s.36.71 1.07.71c.53 0 1.55-.22 1.55-1.07zm-1.57 2c-1.26 0-1.53-.63-1.53-1.16s.25-1 1.41-1.09l1.23-.08c.35 0 .46-.05.46-.42s-.15-.71-1.22-.71c-.78 0-1 .21-1.15.52s-.37.39-.45.4h-.13v-.09c.12-.91.6-1.27 1.72-1.27.79 0 1.7.13 1.7 1.12v2c0 .28 0 .32.11.33.28 0 .43.14.43.31v.06h-.06a1.24 1.24 0 0 1-.41.06c-.42 0-.5-.26-.51-.6a2 2 0 0 1-1.61.64m-11.31-.01c-1.13 0-1.76-.44-1.8-1.29v-.09H37a.5.5 0 0 1 .42.38c0 .14.2.56 1.34.56s1.2-.37 1.2-.69-.21-.5-.64-.56L38 38c-.67-.09-1.06-.44-1.06-1s.41-1.08 1.56-1.08 1.66.4 1.72 1.22v.09h-.12a.51.51 0 0 1-.42-.34v-.05c-.16-.33-.53-.47-1.17-.47s-1.07.22-1.07.62.2.46.64.52l1.12.15c.5.07 1.18.25 1.18 1 0 .52-.31 1.13-1.77 1.13m-9.76-.07h-.09c-.13 0-.39-.15-.39-.56v-4.53c0-.7.14-1 .94-1a2.76 2.76 0 0 1 .55 0h.07v.08s0 .31-.51.31-.56.06-.56.42v2.09a1.69 1.69 0 0 1 1.42-.63C32 35.91 32 37 32 37.45v2.27h-.09c-.13 0-.39-.15-.39-.56v-1.69c0-.58-.15-1.11-1.22-1.11a1.23 1.23 0 0 0-1.41 1.22z"/><path class="cls-4" d="M42.84 36.36a1.39 1.39 0 0 0-1.53 1.11 1.83 1.83 0 0 0 0 .37 2.14 2.14 0 0 0 0 .42 1.43 1.43 0 0 0 1.49 1.13 1.51 1.51 0 0 0 0-3m-1.57 4.71a.46.46 0 0 1-.4-.51V35.9h.09a.5.5 0 0 1 .39.56v.08a1.78 1.78 0 0 1 1.49-.65 2 2 0 1 1 0 3.91 1.83 1.83 0 0 1-1.49-.67v1.97zm6.63-1.32c-.8 0-.94-.33-.94-1v-2.42h-.25c-.47 0-.54-.3-.55-.34v-.1h.8v-1.09H47c.12 0 .39.14.4.55v.53h.48c.49 0 .55.31.56.35v.1h-1.03v2.56c0 .36.17.42.55.42s.52.3.52.31v.07h-.07a2.92 2.92 0 0 1-.55 0m-2.65-4.64v-.45h.1a.41.41 0 0 1 .38.44v.45h-.1a.41.41 0 0 1-.38-.44M11.66 24.64A3.14 3.14 0 0 0 8.3 28a3.13 3.13 0 0 0 3.45 3.26 3.07 3.07 0 0 0 3.18-3.36 3.09 3.09 0 0 0-3.27-3.3m0 7.6a3.81 3.81 0 0 1-3.29-1.49V32h-.25a.87.87 0 0 1-.76-.88V20.9h.21a.85.85 0 0 1 .82 1v3.37a4 4 0 0 1 3.29-1.54A4.08 4.08 0 0 1 16 28a4.06 4.06 0 0 1-4.28 4.28m26.11-7.64a3.12 3.12 0 0 1 3.35 2.71h-6.69a3.18 3.18 0 0 1 3.34-2.71m2.95 5.25A3 3 0 0 1 38 31.3c-2.06 0-3.39-1.15-3.51-3h7.87v-.17a4.17 4.17 0 0 0-4.42-4.42 4.17 4.17 0 0 0-4.48 4.21c0 2.67 1.71 4.33 4.46 4.33a4 4 0 0 0 4.21-2.91l.05-.16c-.57-.17-1 0-1.37.72m-9.37-8.03v-1h.21a.88.88 0 0 1 .82.94v1h-.21a.88.88 0 0 1-.82-.94m0 2.08h.21a.88.88 0 0 1 .82.94v8.33a1.89 1.89 0 0 1-2.15 2.1 4.45 4.45 0 0 1-1-.09h-.13v-.13a.64.64 0 0 1 .18-.43 1 1 0 0 1 .73-.25h.19c1.08 0 1.13-.6 1.13-1.76zM27.09 32h-.21a.88.88 0 0 1-.81-.94v-7.11h.27a.88.88 0 0 1 .75.92v.4a3.3 3.3 0 0 1 2.63-1.55h.08a1 1 0 0 1 1.09.92v.25l-.23-.09a2.11 2.11 0 0 0-.74-.08 2.76 2.76 0 0 0-2.83 2.92zm-2.38-7.12a.87.87 0 0 0-.86-.93h-.17v4.67c0 1.24-.81 2.68-3.11 2.68s-2.7-1.18-2.7-2.46v-4a.87.87 0 0 0-.86-.89h-.17v4.93c0 .92 0 3.36 3.71 3.36a3.67 3.67 0 0 0 3.12-1.42v.24a.88.88 0 0 0 .82.94h.21zm22.38-.24a3.12 3.12 0 0 1 3.35 2.71h-6.69a3.18 3.18 0 0 1 3.34-2.71M50 29.89a3 3 0 0 1-2.77 1.35c-2.06 0-3.39-1.15-3.51-3h7.87v-.17a4.17 4.17 0 0 0-4.42-4.42 4.17 4.17 0 0 0-4.48 4.21c0 2.67 1.71 4.33 4.46 4.33a4 4 0 0 0 4.21-2.91l.05-.16c-.57-.17-1 0-1.37.72m2.32 1.22a.88.88 0 0 0 .81.93h.21V21.84a.88.88 0 0 0-.82-.94h-.21z"/></g></g></svg>