<svg xmlns="http://www.w3.org/2000/svg" xmlns:xlink="http://www.w3.org/1999/xlink" viewBox="0 0 73.93 22.2"><defs><style>.cls-1{fill:none}.cls-3{fill:#3b1547}.cls-4{fill:#706f6f}.cls-5{fill:#931831}</style><clipPath id="clip-path" transform="translate(-11.3)"><path class="cls-1" d="M0 0h85.23v22.2H0z"/></clipPath><clipPath id="clip-path-2" transform="translate(-11.3)"><path class="cls-1" d="M19.62 18.85a7.47 7.47 0 0 1-2.28.36h-3v-2.49c-.93-.55-1.93-1.21-3-1.94v7.42h6.19a10.44 10.44 0 0 0 10.21-10.43v-.72a8 8 0 0 1-8.11 7.8"/></clipPath><linearGradient id="linear-gradient" x1="-604.38" y1="7173.8" x2="-603.38" y2="7173.8" gradientTransform="translate(9934.21 -117898.34) scale(16.44)" gradientUnits="userSpaceOnUse"><stop offset="0" stop-color="#3c4395"/><stop offset=".02" stop-color="#333d91"/><stop offset=".04" stop-color="#27348b"/><stop offset=".14" stop-color="#2f3c90"/><stop offset=".3" stop-color="#46539d"/><stop offset=".49" stop-color="#6b78b3"/><stop offset=".72" stop-color="#9facd2"/><stop offset=".97" stop-color="#e1edf9"/><stop offset="1" stop-color="#eaf6fe"/><stop offset="1" stop-color="#eaf6fe"/></linearGradient><clipPath id="clip-path-3" transform="translate(-11.3)"><path class="cls-1" d="M11.3 0v7.4c1.07-.75 2.07-1.42 3-2V3h3a7.44 7.44 0 0 1 2 .28h.31a8 8 0 0 1 8.11 7.8v-.62A10.44 10.44 0 0 0 17.31 0z"/></clipPath><linearGradient id="linear-gradient-2" x1="-604.39" y1="7173.8" x2="-603.39" y2="7173.8" gradientTransform="translate(9934.21 -117909.44) scale(16.44)" xlink:href="#linear-gradient"/></defs><g id="Layer_2" data-name="Layer 2"><g id="Layer_1-2" data-name="Layer 1"><g clip-path="url(#clip-path)"><path class="cls-3" d="M33.15 7.58H36a5.49 5.49 0 0 1 1.46.15 2.55 2.55 0 0 1 1.15.7 3.33 3.33 0 0 1 .73 1.24 5.63 5.63 0 0 1 .25 1.81 5 5 0 0 1-.23 1.63 3.37 3.37 0 0 1-.82 1.35 2.73 2.73 0 0 1-1.09.61 4.67 4.67 0 0 1-1.37.16h-2.93zm1.55 1.3v5.07h1.15a4.17 4.17 0 0 0 .93-.07 1.41 1.41 0 0 0 .62-.32 1.62 1.62 0 0 0 .41-.74 5 5 0 0 0 .16-1.4 4.58 4.58 0 0 0-.16-1.36 1.76 1.76 0 0 0-.44-.74 1.47 1.47 0 0 0-.71-.32 7 7 0 0 0-1.27-.07z" transform="translate(-11.3)"/><path class="cls-3" d="M31.27 15.23v-3.22l-2.8-4.43h1.81l1.8 3.03 1.76-3.03h1.78l-2.81 4.44v3.21h-1.54zm4.77 0V7.58h1.5l3.13 5.11V7.58h1.44v7.65h-1.55l-3.09-4.99v4.99h-1.43z"/><path class="cls-3" d="M61.55 15.23h-1.68l-.67-1.73h-3.06l-.63 1.74h-1.64l3-7.65h1.63zm-2.84-3l-1.06-2.86-1 2.84z" transform="translate(-11.3)"/><path class="cls-4" d="M27.64 19.77v-2.11h.42v.83h.84v-.83h.42v2.11h-.42v-.92h-.84v.92h-.42z"/><path class="cls-4" d="M41.95 19.28l.4.07a.66.66 0 0 1-.24.34.72.72 0 0 1-.42.12.68.68 0 0 1-.59-.26.87.87 0 0 1-.15-.53.84.84 0 0 1 .2-.6.65.65 0 0 1 .5-.22.68.68 0 0 1 .54.23 1 1 0 0 1 .19.69h-1a.41.41 0 0 0 .1.28.31.31 0 0 0 .23.1.25.25 0 0 0 .16-.05.32.32 0 0 0 .1-.17m0-.41a.39.39 0 0 0-.09-.27.29.29 0 0 0-.43 0 .38.38 0 0 0-.08.26zm1.03-.16l-.37-.07a.58.58 0 0 1 .21-.33.78.78 0 0 1 .45-.11 1 1 0 0 1 .4.06.4.4 0 0 1 .19.16.84.84 0 0 1 .05.36v.47a1.63 1.63 0 0 0 0 .3.85.85 0 0 0 .07.21h-.4v-.12a.72.72 0 0 1-.22.15.63.63 0 0 1-.25.05.52.52 0 0 1-.37-.13.46.46 0 0 1-.07-.56.4.4 0 0 1 .17-.16 1.36 1.36 0 0 1 .32-.09 2.27 2.27 0 0 0 .39-.1.21.21 0 0 0-.06-.17.34.34 0 0 0-.22 0 .29.29 0 0 0-.17 0 .3.3 0 0 0-.1.15m.54.33l-.25.06a.73.73 0 0 0-.22.07.17.17 0 0 0-.08.14.2.2 0 0 0 .06.15.22.22 0 0 0 .16.06.35.35 0 0 0 .21-.07.25.25 0 0 0 .1-.13.77.77 0 0 0 0-.2z" transform="translate(-11.3)"/><path class="cls-4" d="M33.05 17.66h.41v2.11h-.41z"/><path class="cls-4" d="M45.87 18.24v.32h-.28v.62a2 2 0 0 0 0 .22.09.09 0 0 0 0 .05h.23v.31a.81.81 0 0 1-.32.06.52.52 0 0 1-.2 0 .3.3 0 0 1-.13-.1.39.39 0 0 1-.06-.16 1.9 1.9 0 0 1 0-.28v-.67H45v-.32h.19v-.3l.41-.24v.54zm.68-.58v.78a.6.6 0 0 1 .72-.18.4.4 0 0 1 .17.13.48.48 0 0 1 .08.18 1.7 1.7 0 0 1 0 .3v.9h-.4V19a1.22 1.22 0 0 0 0-.31.2.2 0 0 0-.08-.1.25.25 0 0 0-.15 0 .34.34 0 0 0-.18 0 .28.28 0 0 0-.11.15.87.87 0 0 0 0 .29v.77h-.41v-2.14zm2.74 1.03l-.4.07a.31.31 0 0 0-.09-.18.28.28 0 0 0-.18-.06.3.3 0 0 0-.24.1.54.54 0 0 0-.09.35.62.62 0 0 0 .09.38.3.3 0 0 0 .25.11.28.28 0 0 0 .19-.07.39.39 0 0 0 .1-.23l.4.07a.71.71 0 0 1-.24.41.73.73 0 0 1-.47.14.7.7 0 0 1-.54-.21 1 1 0 0 1 0-1.18.71.71 0 0 1 .54-.21.74.74 0 0 1 .44.12.66.66 0 0 1 .24.37m.61.04l-.37-.07a.58.58 0 0 1 .21-.33.78.78 0 0 1 .45-.11 1 1 0 0 1 .4.06.39.39 0 0 1 .19.16.84.84 0 0 1 .05.36v.47a1.63 1.63 0 0 0 0 .3.89.89 0 0 0 .07.21h-.4v-.12a.73.73 0 0 1-.22.15.63.63 0 0 1-.25.05.52.52 0 0 1-.37-.13.42.42 0 0 1-.14-.32.43.43 0 0 1 .06-.23.4.4 0 0 1 .17-.16 1.36 1.36 0 0 1 .32-.09 2.27 2.27 0 0 0 .39-.1.21.21 0 0 0-.06-.17.34.34 0 0 0-.22 0 .29.29 0 0 0-.17 0 .3.3 0 0 0-.1.15m.54.33l-.25.06a.73.73 0 0 0-.22.07.17.17 0 0 0-.08.14.19.19 0 0 0 .06.15.21.21 0 0 0 .16.06.35.35 0 0 0 .21-.07.25.25 0 0 0 .1-.13.77.77 0 0 0 0-.2zm1.17.65h-.41v-1.53h.38v.22a.63.63 0 0 1 .17-.2.31.31 0 0 1 .17 0 .52.52 0 0 1 .27.08l-.13.35a.35.35 0 0 0-.19-.07.22.22 0 0 0-.14 0 .33.33 0 0 0-.09.17 2.38 2.38 0 0 0 0 .51zm1.65-.49l.4.07a.66.66 0 0 1-.25.34.72.72 0 0 1-.42.12.68.68 0 0 1-.59-.26.87.87 0 0 1-.15-.53.85.85 0 0 1 .2-.6.66.66 0 0 1 .5-.22.68.68 0 0 1 .54.23 1 1 0 0 1 .19.69h-1a.41.41 0 0 0 .1.28.3.3 0 0 0 .23.1.24.24 0 0 0 .16-.05.32.32 0 0 0 .1-.17m0-.41a.39.39 0 0 0-.09-.27.28.28 0 0 0-.21-.09.28.28 0 0 0-.22.1.38.38 0 0 0-.08.26zm1.46.21h.41a.51.51 0 0 0 .15.31.46.46 0 0 0 .31.1.47.47 0 0 0 .31-.09.26.26 0 0 0 .1-.2.2.2 0 0 0-.02-.2.35.35 0 0 0-.15-.09l-.34-.09a1.14 1.14 0 0 1-.48-.21.55.55 0 0 1-.2-.42.54.54 0 0 1 .09-.3.57.57 0 0 1 .26-.21 1.06 1.06 0 0 1 .42-.07.89.89 0 0 1 .6.17.61.61 0 0 1 .21.47h-.43a.35.35 0 0 0-.12-.23.43.43 0 0 0-.27-.07.49.49 0 0 0-.29.08.16.16 0 0 0-.07.13.16.16 0 0 0 .07.13 1.1 1.1 0 0 0 .39.14 2 2 0 0 1 .46.15.58.58 0 0 1 .23.21.64.64 0 0 1 .08.34.62.62 0 0 1-.1.34.6.6 0 0 1-.28.24 1.21 1.21 0 0 1-.46.08.91.91 0 0 1-.61-.19.8.8 0 0 1-.26-.54m1.97-.06a.81.81 0 0 1 .1-.39.68.68 0 0 1 .28-.29.83.83 0 0 1 .41-.1.77.77 0 0 1 .57.23.78.78 0 0 1 .22.57.79.79 0 0 1-.22.58.76.76 0 0 1-.56.23.88.88 0 0 1-.4-.1.65.65 0 0 1-.29-.28.91.91 0 0 1-.1-.45m.42 0a.51.51 0 0 0 .11.35.35.35 0 0 0 .53 0 .52.52 0 0 0 .11-.35.51.51 0 0 0-.11-.35.35.35 0 0 0-.53 0 .51.51 0 0 0-.11.35" transform="translate(-11.3)"/><path class="cls-4" d="M47.32 17.66h.41v2.11h-.41z"/><path class="cls-4" d="M60.45 19.77v-.23a.59.59 0 0 1-.22.19.61.61 0 0 1-.29.07.56.56 0 0 1-.28-.07.41.41 0 0 1-.18-.19.88.88 0 0 1-.05-.34v-1h.41v.7a2.07 2.07 0 0 0 0 .4.22.22 0 0 0 .08.12.26.26 0 0 0 .15 0 .32.32 0 0 0 .19-.06.28.28 0 0 0 .11-.14 1.58 1.58 0 0 0 0-.41v-.65h.41v1.53zm1.49-1.53v.32h-.28v.62a1.91 1.91 0 0 0 0 .22.09.09 0 0 0 0 .05h.23v.31a.81.81 0 0 1-.32.06.51.51 0 0 1-.2 0 .28.28 0 0 1-.13-.1.35.35 0 0 1-.06-.16 1.85 1.85 0 0 1 0-.28v-.67H61v-.32h.18v-.3l.41-.24v.54zm.28-.58h.4V18h-.4zm0 .58h.4v1.53h-.4zm.73.76a.82.82 0 0 1 .1-.39.68.68 0 0 1 .28-.29.83.83 0 0 1 .41-.1.77.77 0 0 1 .57.23.78.78 0 0 1 .22.57.79.79 0 0 1-.23.58.76.76 0 0 1-.56.23.88.88 0 0 1-.4-.1.65.65 0 0 1-.29-.28.92.92 0 0 1-.1-.45m.42 0a.51.51 0 0 0 .11.35.35.35 0 0 0 .53 0 .51.51 0 0 0 .11-.35.5.5 0 0 0-.11-.35.35.35 0 0 0-.53 0 .51.51 0 0 0-.11.35m2.87.77h-.41V19a1.22 1.22 0 0 0 0-.32.23.23 0 0 0-.08-.11.24.24 0 0 0-.14 0 .33.33 0 0 0-.19.06.29.29 0 0 0-.11.15 1.36 1.36 0 0 0 0 .35v.69h-.41v-1.58h.38v.23a.63.63 0 0 1 .75-.21.41.41 0 0 1 .17.12.45.45 0 0 1 .08.17 1.33 1.33 0 0 1 0 .27zm.27-.44l.4-.06a.3.3 0 0 0 .11.18.36.36 0 0 0 .22.06.4.4 0 0 0 .24-.06.13.13 0 0 0 .05-.11.1.1 0 0 0 0-.08.31.31 0 0 0-.14-.05 2.2 2.2 0 0 1-.62-.2.39.39 0 0 1-.18-.34.42.42 0 0 1 .16-.33.74.74 0 0 1 .49-.14.85.85 0 0 1 .47.1.52.52 0 0 1 .21.3l-.38.07a.24.24 0 0 0-.09-.14.33.33 0 0 0-.2 0 .44.44 0 0 0-.23 0 .1.1 0 0 0 0 .08.09.09 0 0 0 0 .07 1.5 1.5 0 0 0 .38.11 1.12 1.12 0 0 1 .45.18.37.37 0 0 1 .13.3.46.46 0 0 1-.18.36.78.78 0 0 1-.52.15.85.85 0 0 1-.49-.13.58.58 0 0 1-.24-.34m2.56.46v-2.11h.68a2.51 2.51 0 0 1 .51 0 .56.56 0 0 1 .3.21.66.66 0 0 1 .12.41.68.68 0 0 1-.07.33.58.58 0 0 1-.18.21.61.61 0 0 1-.22.1 2.47 2.47 0 0 1-.44 0h-.28v.8zm.43-1.77v.6h.23a1.1 1.1 0 0 0 .34 0 .27.27 0 0 0 .13-.1.3.3 0 0 0 0-.35.31.31 0 0 0-.17-.09h-.51zm1.96 1.77l-.62-1.53h.42l.29.78.08.26v-.26l.29-.78h.42l-.61 1.53zm1.92-1.53v.32h-.28v.62a1.91 1.91 0 0 0 0 .22.08.08 0 0 0 0 .05h.23v.31a.81.81 0 0 1-.32.06.52.52 0 0 1-.2 0 .28.28 0 0 1-.13-.1.36.36 0 0 1-.06-.16 1.9 1.9 0 0 1 0-.28v-.67h-.18v-.32h.18v-.3l.41-.24v.54z" transform="translate(-11.3)"/><path class="cls-4" d="M62.41 19.37h.41v.4h-.41zm1.65.4v-2.1h.43v1.74h1.06v.36h-1.49z"/><path class="cls-4" d="M77.85 18.24v.32h-.28v.62a1.58 1.58 0 0 0 0 .22.09.09 0 0 0 0 .05h.23v.31a.81.81 0 0 1-.32.06.51.51 0 0 1-.2 0 .3.3 0 0 1-.13-.1.39.39 0 0 1-.06-.16 1.9 1.9 0 0 1 0-.28v-.67H77v-.32h.19v-.3l.41-.24v.54zm1.69 1.53h-.38v-.22a.63.63 0 0 1-.22.19.57.57 0 0 1-.26.06.59.59 0 0 1-.45-.21A.86.86 0 0 1 78 19a.85.85 0 0 1 .18-.59.6.6 0 0 1 .46-.2.57.57 0 0 1 .45.21v-.76h.41zM78.45 19a.7.7 0 0 0 .07.35.31.31 0 0 0 .28.16.29.29 0 0 0 .24-.12.54.54 0 0 0 .1-.35.6.6 0 0 0-.09-.38.31.31 0 0 0-.48 0 .51.51 0 0 0-.1.34" transform="translate(-11.3)"/><path class="cls-4" d="M68.64 19.37h.4v.4h-.4z"/><path class="cls-5" d="M51.06 15.23V7.58h2.31l1.39 5.22 1.37-5.22h2.32v7.65h-1.44V9.21l-1.52 6.02h-1.48l-1.52-6.02v6.02h-1.43zm9.07 0V7.58h5.67v1.3h-4.13v1.69h3.84v1.29h-3.84v2.08h4.28v1.29h-5.82z"/><path class="cls-5" d="M78.82 7.58h2.82a5.49 5.49 0 0 1 1.46.15 2.55 2.55 0 0 1 1.15.7A3.33 3.33 0 0 1 85 9.67a5.63 5.63 0 0 1 .25 1.81 5 5 0 0 1-.25 1.63 3.37 3.37 0 0 1-.82 1.35 2.71 2.71 0 0 1-1.08.61 4.67 4.67 0 0 1-1.37.16h-2.9zm1.54 1.29v5.07h1.15a4.17 4.17 0 0 0 .93-.07 1.41 1.41 0 0 0 .62-.32 1.63 1.63 0 0 0 .41-.74 5 5 0 0 0 .16-1.4 4.58 4.58 0 0 0-.16-1.36 1.76 1.76 0 0 0-.47-.74 1.47 1.47 0 0 0-.68-.31 7 7 0 0 0-1.27-.07z" transform="translate(-11.3)"/></g><g clip-path="url(#clip-path-2)"><path fill="url(#linear-gradient)" d="M0 11.05h16.44V22.2H0z"/></g><g clip-path="url(#clip-path-3)"><path fill="url(#linear-gradient-2)" d="M0 0h16.44v11.05H0z"/></g></g></g></svg>