<svg xmlns="http://www.w3.org/2000/svg" viewBox="0 0 76.25 24.76"><defs><style>.cls-1{fill:none}.cls-3{fill:#136db5}.cls-4{fill:#a5243b}.cls-5{fill:#3f1c2e}</style><clipPath id="clip-path"><path class="cls-1" d="M66 1a17.34 17.34 0 0 0 0 4 16.28 16.28 0 0 0 .6 3 15.4 15.4 0 0 1 2.92-1 24.28 24.28 0 0 1 6.7-.61 4.94 4.94 0 0 0-.81-2.62 21.79 21.79 0 0 0-6.54.32A29.68 29.68 0 0 1 68.56 0 4.72 4.72 0 0 0 66 1"/></clipPath><radialGradient id="radial-gradient" cx="-714.85" cy="7259.52" r="1" gradientTransform="matrix(6.14 0 0 6.14 4457.1 -44556.21)" gradientUnits="userSpaceOnUse"><stop offset="0" stop-color="#008dd0"/><stop offset=".01" stop-color="#008dd0"/><stop offset=".99" stop-color="#136db5"/><stop offset="1" stop-color="#136db5"/></radialGradient><clipPath id="clip-path-2"><path class="cls-1" d="M66.75 8.26a11.7 11.7 0 0 0 3.23 5.15 5.72 5.72 0 0 0 2.86-.9s-1.91-1.34-3.17-5.3a16.65 16.65 0 0 0-2.88 1M63 7.15a5.66 5.66 0 0 0 .75 2.91 7.76 7.76 0 0 1 2.58-1.93 19.05 19.05 0 0 1-.62-3 8.84 8.84 0 0 0-2.7 2"/></clipPath><radialGradient id="radial-gradient-2" cx="-714.85" cy="7259.52" r="1" gradientTransform="matrix(5.2 0 0 5.2 3786.69 -37765.65)" gradientUnits="userSpaceOnUse"><stop offset="0" stop-color="#e4003f"/><stop offset=".31" stop-color="#cc0e3d"/><stop offset=".75" stop-color="#b01e3c"/><stop offset="1" stop-color="#a5243b"/></radialGradient></defs><g id="Layer_2" data-name="Layer 2"><g id="Layer_1-2" data-name="Layer 1"><path d="M23.94 15.27a6.29 6.29 0 0 0 .81 0 2.48 2.48 0 0 0 .56-.13 1.09 1.09 0 0 0 .59-.45 1.28 1.28 0 0 0 .16-.65 1.17 1.17 0 0 0-.13-.56.88.88 0 0 0-.44-.38 1.83 1.83 0 0 0-.5-.14 5.45 5.45 0 0 0-.75 0h-1.37v2.39zM27.5 14a2.19 2.19 0 0 1-.44 1.39 2.61 2.61 0 0 1-1.37.84L28 19.49h-1.72l-2.08-3h-1.33v3h-1.4v-7.8h2.7a8.17 8.17 0 0 1 1.07.07 3.92 3.92 0 0 1 .85.2 2.23 2.23 0 0 1 1 .78A2.2 2.2 0 0 1 27.5 14m4.8 2.67a2.76 2.76 0 0 0-.1-.79 1.7 1.7 0 0 0-.29-.58 1.15 1.15 0 0 0-.44-.35 1.33 1.33 0 0 0-.56-.12 1.3 1.3 0 0 0-.55.12 1.15 1.15 0 0 0-.44.35 1.72 1.72 0 0 0-.29.58 3.11 3.11 0 0 0 0 1.59 1.68 1.68 0 0 0 .29.58 1.23 1.23 0 0 0 .44.35 1.29 1.29 0 0 0 .56.12 1.26 1.26 0 0 0 .55-.12 1.21 1.21 0 0 0 .43-.35 1.69 1.69 0 0 0 .29-.58 2.76 2.76 0 0 0 .1-.79m1.4 0a3.63 3.63 0 0 1-.19 1.21 2.69 2.69 0 0 1-.56.94 2.47 2.47 0 0 1-.88.6 3 3 0 0 1-1.15.21 3 3 0 0 1-1.17-.21 2.42 2.42 0 0 1-.88-.6 2.66 2.66 0 0 1-.55-.94 3.69 3.69 0 0 1-.19-1.21 3.63 3.63 0 0 1 .19-1.21 2.66 2.66 0 0 1 .56-.94 2.48 2.48 0 0 1 .88-.6 3 3 0 0 1 1.15-.21 3 3 0 0 1 1.17.21 2.42 2.42 0 0 1 .88.6 2.68 2.68 0 0 1 .55.94 3.69 3.69 0 0 1 .19 1.21m4.78 2.69a3.33 3.33 0 0 1-.63.19 3.75 3.75 0 0 1-.78.08 3.49 3.49 0 0 1-1.12-.17 2.52 2.52 0 0 1-.91-.53 2.45 2.45 0 0 1-.61-.9 3.34 3.34 0 0 1-.22-1.27 3.45 3.45 0 0 1 .26-1.4 2.71 2.71 0 0 1 .66-.95 2.64 2.64 0 0 1 .92-.54 3.16 3.16 0 0 1 1-.17 3.7 3.7 0 0 1 .71.07 3.21 3.21 0 0 1 .62.18v1.13a3 3 0 0 0-.53-.18 2.62 2.62 0 0 0-.61-.07 1.91 1.91 0 0 0-.62.1 1.4 1.4 0 0 0-.53.32 1.55 1.55 0 0 0-.36.59 2.56 2.56 0 0 0-.13.88 2.38 2.38 0 0 0 .1.7A1.6 1.6 0 0 0 36 18a1.46 1.46 0 0 0 .5.38 1.69 1.69 0 0 0 .72.14 2.74 2.74 0 0 0 .67-.08 4 4 0 0 0 .57-.19zm1.23-7.56h1.35v4.32h.03l2.11-2.29h1.67l-2.42 2.65 2.44 3h-1.64l-2.16-2.63h-.03v2.63H39.7v-7.68zm6.04 0h1.35v7.68h-1.35zm6.04 5.27l-.45-.08a3.27 3.27 0 0 0-.51 0 1.35 1.35 0 0 0-.79.2.7.7 0 0 0-.29.62.8.8 0 0 0 .07.33.67.67 0 0 0 .18.24.76.76 0 0 0 .26.14 1.07 1.07 0 0 0 .31 0 1.38 1.38 0 0 0 .39-.05 1.79 1.79 0 0 0 .34-.14 1.69 1.69 0 0 0 .28-.19 1.92 1.92 0 0 0 .21-.2zm.11 1.81a2.7 2.7 0 0 1-.27.25 2.58 2.58 0 0 1-.37.24 2.11 2.11 0 0 1-.46.18 2 2 0 0 1-.54.07 2.12 2.12 0 0 1-.74-.12 1.63 1.63 0 0 1-1-.93 1.94 1.94 0 0 1-.14-.75 2 2 0 0 1 .16-.82 1.75 1.75 0 0 1 .47-.61 2 2 0 0 1 .7-.38 2.9 2.9 0 0 1 .9-.13 4.33 4.33 0 0 1 .66 0 4.63 4.63 0 0 1 .53.11v-.23a1.15 1.15 0 0 0-.07-.38.87.87 0 0 0-.21-.33 1.05 1.05 0 0 0-.38-.23 1.69 1.69 0 0 0-.57-.08 3.71 3.71 0 0 0-.82.09 6.24 6.24 0 0 0-.89.28v-1.03a4.32 4.32 0 0 1 .89-.29 5 5 0 0 1 1-.1 3.36 3.36 0 0 1 1.06.15 2.25 2.25 0 0 1 .76.42 1.7 1.7 0 0 1 .46.63 2 2 0 0 1 .15.79v3.85h-1.22zm4.01-4.26a2.13 2.13 0 0 1 .72-.64 2.39 2.39 0 0 1 .52-.21 2.19 2.19 0 0 1 .6-.08 2.47 2.47 0 0 1 .59.07 1.75 1.75 0 0 1 .52.22 1.64 1.64 0 0 1 .41.38 1.82 1.82 0 0 1 .28.56 1.9 1.9 0 0 1 .08.39v4.16H58.3v-3.87a1.22 1.22 0 0 0-.06-.29.72.72 0 0 0-.31-.39 1 1 0 0 0-.51-.12 1.61 1.61 0 0 0-.76.19 2 2 0 0 0-.64.55v3.89h-1.37v-5.6h1.12zm7.62 3.94a1.34 1.34 0 0 0 .38-.05 1.69 1.69 0 0 0 .34-.14 1.71 1.71 0 0 0 .28-.19l.21-.2v-2.7a2.32 2.32 0 0 0-.53-.29 1.53 1.53 0 0 0-.63-.13 1.25 1.25 0 0 0-.44.09 1.09 1.09 0 0 0-.42.3 1.66 1.66 0 0 0-.32.58 3 3 0 0 0-.13 1 2.36 2.36 0 0 0 .32 1.33 1.08 1.08 0 0 0 .95.48m-2.67-1.76a4 4 0 0 1 .2-1.32 2.9 2.9 0 0 1 .55-1 2.25 2.25 0 0 1 1.72-.78 2.1 2.1 0 0 1 .42 0 2.17 2.17 0 0 1 .38.11 2.58 2.58 0 0 1 .33.16l.28.18v-2.4h1.35v7.72H64.9l-.06-.6a2.23 2.23 0 0 1-.29.29 2 2 0 0 1-.37.24 2.12 2.12 0 0 1-.45.16 2.25 2.25 0 0 1-.53.06 2.33 2.33 0 0 1-.86-.16 2.07 2.07 0 0 1-.74-.5 2.45 2.45 0 0 1-.53-.89 3.84 3.84 0 0 1-.2-1.3"/><path d="M5.92 16.65c0-1.44.76-2 1.57-2s1.56.8 1.56 2-.72 2-1.58 2c-1 0-1.55-1-1.55-2m6.57 1.46c0 .43-.37.63-.85.63a2.34 2.34 0 0 1-1.34-.48 4.06 4.06 0 0 0 .3-1.32c.89.44 1.88.67 1.88 1.17m-2.93 1.21a3.47 3.47 0 0 0 2.09.68C13 20 14 19.24 14 18c0-2.16-3.32-2-3.32-3 0-.38.38-.58.93-.58.34 0 .78.15.78.46v.32h1.37v-.67c0-1.06-1.35-1.35-2.2-1.35a2.7 2.7 0 0 0-2 .7 2.54 2.54 0 0 0-1.8-.7 2.4 2.4 0 0 0-1.43.43v-.43h-.76a1 1 0 0 0-.61.15H3.65v1.37h.49a.28.28 0 0 1 .17 0l-.84 2.44a9 9 0 0 0-.22.93 7.21 7.21 0 0 0-.25-.84l-1.18-3.4a.82.82 0 0 0-.92-.61H0v1.37h.14a.32.32 0 0 1 .34.23l1.79 4.88h1.85l.29-.78v3.48H6v-3.25a2.16 2.16 0 0 0 1.75.85 2.66 2.66 0 0 0 1.81-.68" fill="#fff"/><path class="cls-3" d="M6.42 13.22v.43zm-.02 0h-1a.83.83 0 0 0-.39.14h.08c.58 0 .79.27.79.62v.25a1.89 1.89 0 0 1 .56-.6zm-5.48 0a.82.82 0 0 1 .92.61L3 17.23a7.29 7.29 0 0 1 .23.93 7.43 7.43 0 0 0-.23-.93l-1.18-3.4a.82.82 0 0 0-.92-.61m3.49 5.69l-.29.78.31-.69z"/><path class="cls-3" d="M.9 13.22H0v1.37h.16a.32.32 0 0 1 .34.23l1.79 4.88h1.83l.29-.78V19v-4a.27.27 0 0 0-.1-.23l-.84 2.44a8.71 8.71 0 0 0-.22.93 7.49 7.49 0 0 0-.25-.91l-1.18-3.4a.82.82 0 0 0-.92-.61"/><path class="cls-4" d="M7.85 13.22h-.32.3a2.54 2.54 0 0 1 1.8.7 2.54 2.54 0 0 0-1.79-.69m-.54 1.4c-.74.08-1.39.71-1.39 2 0 1 .52 2 1.55 2-1 0-1.55-1-1.55-2 0-1.32.64-1.94 1.37-2m3.29 2.33a4 4 0 0 1-.3 1.31 4 4 0 0 0 .3-1.31M6 19.15v3.24-3.24m3.6.17a2.63 2.63 0 0 1-1.5.66 2.64 2.64 0 0 0 1.51-.65"/><path class="cls-4" d="M7.83 13.22h-.3a2.32 2.32 0 0 0-1.11.41v.94h-.14a.32.32 0 0 0-.34.23l-1.5 4.09v3.48H6v-3.22a2.17 2.17 0 0 0 1.77.85h.29a2.63 2.63 0 0 0 1.49-.66 2.76 2.76 0 0 1-.52-.48l.74-1.06a3.16 3.16 0 0 0 .51.46 4 4 0 0 0 .3-1.31 2.08 2.08 0 0 1-1.42-1.83 1.68 1.68 0 0 1 .45-1.19 2.54 2.54 0 0 0-1.8-.7m-.52 1.39h.2c.92 0 1.56.8 1.56 2s-.65 1.93-1.45 2h-.14c-1 0-1.55-1-1.55-2 0-1.33.65-2 1.39-2m-2.33-1.25h-1.3 1.3m.03 0H3.67v1.37h.49a.29.29 0 0 1 .17 0l.33-1a.92.92 0 0 1 .34-.37"/><path class="cls-5" d="M5.06 13.37H5a.91.91 0 0 0-.31.46l-.33 1a.26.26 0 0 1 .09.23v3.89l1.5-4.09a.32.32 0 0 1 .34-.23h.15v-.94a1.89 1.89 0 0 0-.56.6V14c0-.36-.21-.62-.78-.62"/><path class="cls-3" d="M11.64 13.22h-.45.43c.85 0 2.2.29 2.2 1.35v.67-.67c0-1.05-1.35-1.35-2.2-1.35m-.18 1.26c-.44 0-.73.24-.73.57 0 1 3.32.81 3.32 3a2 2 0 0 1-2 2 2 2 0 0 0 2-2c0-2.16-3.32-2-3.32-3 0-.33.28-.52.71-.57m-1.13 3.79a2.33 2.33 0 0 0 1.33.47 2.33 2.33 0 0 1-1.34-.48"/><path class="cls-3" d="M11.62 13.22h-.43a2.45 2.45 0 0 0-1.53.67 3.66 3.66 0 0 1 1 2.69v.33c.89.44 1.88.67 1.88 1.17s-.29.58-.69.63h-.18a2.32 2.32 0 0 1-1.32-.47 3 3 0 0 1-.74 1 3.47 3.47 0 0 0 2.09.68l.3.08a2 2 0 0 0 2-2c0-2.16-3.32-2-3.32-3 0-.33.29-.53.73-.57h.22c.34 0 .79.15.79.46v.32h1.35v-.67c0-1.05-1.35-1.35-2.2-1.35"/><path class="cls-5" d="M9.66 13.92a1.68 1.68 0 0 0-.45 1.19 2.07 2.07 0 0 0 1.42 1.83v-.33a3.65 3.65 0 0 0-1-2.69m.14 3.87l-.74 1.06a2.75 2.75 0 0 0 .52.48 3 3 0 0 0 .74-1 3.13 3.13 0 0 1-.51-.46"/><path d="M17.56 11.81H18v7.89h-.44zM42 23.55h-.64v-.31h1v1.39h-.8a1.87 1.87 0 0 1-.64-.1 1.26 1.26 0 0 1-.46-.29 1.2 1.2 0 0 1-.28-.45 1.73 1.73 0 0 1-.1-.59 1.83 1.83 0 0 1 .11-.64 1.33 1.33 0 0 1 .31-.49 1.36 1.36 0 0 1 .5-.17 1.7 1.7 0 0 1 .63-.11h.63v.31l-.29-.07h-.33a1.41 1.41 0 0 0-.46.07 1.08 1.08 0 0 0-.38.22 1.06 1.06 0 0 0-.26.38 1.31 1.31 0 0 0-.1.53 1.49 1.49 0 0 0 .08.51.93.93 0 0 0 .23.36.91.91 0 0 0 .36.21 1.56 1.56 0 0 0 .47.07h.45zm1.02-1.94h.33v3.1h-.33zm2.41 2.08a1.15 1.15 0 0 0 0-.33.73.73 0 0 0-.13-.25.52.52 0 0 0-.19-.15.59.59 0 0 0-.49 0 .51.51 0 0 0-.19.15.71.71 0 0 0-.13.25 1.26 1.26 0 0 0 0 .67.7.7 0 0 0 .13.25.56.56 0 0 0 .19.15.58.58 0 0 0 .24.05.55.55 0 0 0 .24-.05.54.54 0 0 0 .19-.15.74.74 0 0 0 .13-.25 1.13 1.13 0 0 0 0-.33m.34 0a1.34 1.34 0 0 1-.07.44 1 1 0 0 1-.19.34.85.85 0 0 1-.3.22 1 1 0 0 1-.39.08 1 1 0 0 1-.4-.08.85.85 0 0 1-.3-.22 1 1 0 0 1-.19-.34 1.37 1.37 0 0 1-.07-.44 1.35 1.35 0 0 1 .07-.44 1 1 0 0 1 .19-.34.85.85 0 0 1 .3-.22 1 1 0 0 1 .39-.08 1 1 0 0 1 .4.08.83.83 0 0 1 .3.22 1 1 0 0 1 .19.34 1.4 1.4 0 0 1 .07.44m1.97-.02a1.13 1.13 0 0 0-.05-.39.62.62 0 0 0-.14-.24.48.48 0 0 0-.19-.12.61.61 0 0 0-.2 0 .66.66 0 0 0-.28.06.84.84 0 0 0-.23.17v1.04l.08.09.11.09.15.07a.53.53 0 0 0 .18 0 .54.54 0 0 0 .26-.06.52.52 0 0 0 .18-.16.75.75 0 0 0 .11-.25 1.3 1.3 0 0 0 0-.32m.34 0a1.42 1.42 0 0 1-.08.49 1 1 0 0 1-.2.34.8.8 0 0 1-.28.2.85.85 0 0 1-.33.07.69.69 0 0 1-.22 0l-.17-.08-.11-.09-.06-.07-.07.23h-.23v-3.1h.33v1.26a.77.77 0 0 1 .25-.18.79.79 0 0 1 .33-.06h.18l.19.07a.8.8 0 0 1 .18.12.74.74 0 0 1 .16.19 1.06 1.06 0 0 1 .11.27 1.51 1.51 0 0 1 0 .36m1.7.13h-.48a.51.51 0 0 0-.32.09.33.33 0 0 0-.12.28.44.44 0 0 0 0 .17.34.34 0 0 0 .08.12.32.32 0 0 0 .12.07h.15a.59.59 0 0 0 .2 0l.16-.07.12-.09.07-.07zm0 .67l-.1.1-.14.09-.17.06h-.2a.75.75 0 0 1-.27 0 .58.58 0 0 1-.21-.13.62.62 0 0 1-.13-.21.73.73 0 0 1 0-.28.67.67 0 0 1 .05-.27.59.59 0 0 1 .15-.2.69.69 0 0 1 .23-.13 1 1 0 0 1 .3 0h.29l.24.06v-.14a1.27 1.27 0 0 0 0-.15.46.46 0 0 0 0-.11.43.43 0 0 0-.17-.17.66.66 0 0 0-.32-.07 1.35 1.35 0 0 0-.28 0l-.26.08v-.28h.59a1 1 0 0 1 .49.11.64.64 0 0 1 .18.16.55.55 0 0 1 0 .15 1 1 0 0 1 0 .18v1.36h-.27zm.97-2.87h.33v3.1h-.33zm2.22.23v2.55h1.37v.32h-1.71v-2.87h.34zm1.87.83h.33v2h-.33zm0-.84h.33v.37h-.33zm2.13.04h-.27a.66.66 0 0 0-.2 0 .34.34 0 0 0-.14.09.37.37 0 0 0-.09.16.75.75 0 0 0 0 .24v.31h.59V23h-.59v1.75h-.33V23h-.35v-.28h.35v-.31a1.06 1.06 0 0 1 .06-.37.67.67 0 0 1 .16-.25.64.64 0 0 1 .24-.14.91.91 0 0 1 .29 0h.32zm.98 1.03a.47.47 0 0 0-.21 0 .53.53 0 0 0-.17.12.59.59 0 0 0-.12.18.74.74 0 0 0-.06.22h1a.8.8 0 0 0 0-.22.56.56 0 0 0-.09-.18.41.41 0 0 0-.15-.12.43.43 0 0 0-.2 0m.17 1.57a1.48 1.48 0 0 0 .29 0l.27-.08v.28a1.06 1.06 0 0 1-.26.08 1.8 1.8 0 0 1-.34 0 1.37 1.37 0 0 1-.4-.06.8.8 0 0 1-.54-.5 1.35 1.35 0 0 1-.08-.48 1.4 1.4 0 0 1 .08-.48 1 1 0 0 1 .2-.34.8.8 0 0 1 .29-.21.86.86 0 0 1 .34-.07.83.83 0 0 1 .31.06.62.62 0 0 1 .25.18.87.87 0 0 1 .17.31 1.52 1.52 0 0 1 .06.46v.08h-1.37a.86.86 0 0 0 .06.33.57.57 0 0 0 .16.22.61.61 0 0 0 .23.12 1 1 0 0 0 .29 0m2.04-1.75a1.18 1.18 0 0 1 .28 0 .79.79 0 0 1 .23.09V23l-.24-.08h-.23a.74.74 0 0 0-.24 0 .56.56 0 0 0-.21.13.68.68 0 0 0-.15.25 1.1 1.1 0 0 0-.06.38 1 1 0 0 0 0 .3.67.67 0 0 0 .13.24.59.59 0 0 0 .21.16.71.71 0 0 0 .29.06h.24l.24-.08v.28h-.53a1.17 1.17 0 0 1-.38-.06.86.86 0 0 1-.31-.19.89.89 0 0 1-.21-.33 1.28 1.28 0 0 1-.08-.47 1.48 1.48 0 0 1 0-.36 1.12 1.12 0 0 1 .11-.28.84.84 0 0 1 .17-.21.89.89 0 0 1 .2-.14.92.92 0 0 1 .22-.08h.23m2.26 1.29h-.48a.52.52 0 0 0-.32.09.33.33 0 0 0-.12.28.44.44 0 0 0 0 .17.33.33 0 0 0 .08.12.32.32 0 0 0 .12.07h.15a.59.59 0 0 0 .2 0l.16-.07.12-.09.07-.07zm0 .67l-.1.1-.14.09-.17.06h-.2a.75.75 0 0 1-.27 0 .58.58 0 0 1-.21-.13.61.61 0 0 1-.14-.21.75.75 0 0 1 0-.28.68.68 0 0 1 .05-.27.58.58 0 0 1 .15-.2.68.68 0 0 1 .23-.13.94.94 0 0 1 .3 0h.29l.23.06v-.14a1.06 1.06 0 0 0 0-.15.39.39 0 0 0 0-.11.43.43 0 0 0-.17-.17.66.66 0 0 0-.32-.07 1.34 1.34 0 0 0-.28 0l-.34.07v-.28h.59a1 1 0 0 1 .49.11.64.64 0 0 1 .27.29.59.59 0 0 1 0 .15 1.12 1.12 0 0 1 0 .18v1.36h-.27zm2.05-1.54h-.23l-.21.07a.78.78 0 0 0-.18.11.59.59 0 0 0-.13.15v1.42h-.32v-2h.25l.06.32a.76.76 0 0 1 .12-.15.77.77 0 0 1 .16-.12.79.79 0 0 1 .19-.08h.3zm1.11-.04a.48.48 0 0 0-.21 0 .54.54 0 0 0-.17.12.63.63 0 0 0-.12.18.77.77 0 0 0-.05.22h1a.84.84 0 0 0 0-.22.57.57 0 0 0-.09-.18.41.41 0 0 0-.15-.12.43.43 0 0 0-.2 0m.17 1.57h.29l.27-.08v.28a1.06 1.06 0 0 1-.26.08 1.81 1.81 0 0 1-.34 0 1.36 1.36 0 0 1-.4-.06.8.8 0 0 1-.54-.5 1.35 1.35 0 0 1-.08-.48 1.4 1.4 0 0 1 .08-.48 1 1 0 0 1 .2-.34.8.8 0 0 1 .29-.21.86.86 0 0 1 .34-.07.83.83 0 0 1 .31.06.62.62 0 0 1 .25.18.87.87 0 0 1 .17.31 1.52 1.52 0 0 1 .06.46v.08h-1.38a.84.84 0 0 0 .06.33.57.57 0 0 0 .16.22.59.59 0 0 0 .23.12 1 1 0 0 0 .29 0" fill="#b8b7b6"/><g clip-path="url(#clip-path)"><path fill="url(#radial-gradient)" d="M65.78 0h10.46v8H65.78z"/></g><g clip-path="url(#clip-path-2)"><path fill="url(#radial-gradient-2)" d="M62.98 5.13h9.82v8.3h-9.82z"/></g></g></g></svg>