<svg xmlns="http://www.w3.org/2000/svg" viewBox="0 0 72.49 40.24"><defs><clipPath id="a"><path d="M36.24 0H0v40.24h64.29a8.36 8.36 0 0 0 8.2-8.35V0z" fill="none"/></clipPath><linearGradient id="b" x1="-928.69" y1="7267.26" x2="-927.69" y2="7267.26" gradientTransform="translate(67319.68 -526776.55) scale(72.49)" gradientUnits="userSpaceOnUse"><stop offset="0" stop-color="#1d71b8"/><stop offset=".07" stop-color="#1c68ae"/><stop offset=".24" stop-color="#1a5599"/><stop offset=".43" stop-color="#18488a"/><stop offset=".66" stop-color="#174081"/><stop offset="1" stop-color="#173e7e"/><stop offset="1" stop-color="#203e76"/><stop offset="1" stop-color="#4e3f4a"/><stop offset="1" stop-color="#6b3f2f"/><stop offset="1" stop-color="#763f25"/></linearGradient></defs><g data-name="Layer 2"><g data-name="Layer 1"><g clip-path="url(#a)"><path fill="url(#b)" d="M0 0h72.49v40.24H0z"/></g><path d="M9 28.91A6.54 6.54 0 0 1 7.76 23a31.25 31.25 0 0 1 1.94-5.24 20.65 20.65 0 0 0 1.94-5.26s.8-3.24-2.59-6.2a6.82 6.82 0 0 1 1.19 6.07 31.47 31.47 0 0 1-2 5.22 22.7 22.7 0 0 0-1.87 5.24S5.66 25.95 9 28.91m2.61 5.04a5 5 0 0 1-1-4.49 23.88 23.88 0 0 1 1.47-4 15.65 15.65 0 0 0 1.47-4 5 5 0 0 0-2-4.71 5.18 5.18 0 0 1 .9 4.61 23.46 23.46 0 0 1-1.53 4 17.28 17.28 0 0 0-1.42 4s-.53 2.36 2 4.62" fill="#e30613"/><path d="M17.81 30.26h-.27v-2.14h-.58v-.25h1.43v.25h-.58v2.14zm3.47-1.42v-.97h.27v2.39h-.27v-1.17h-1.22v1.17h-.27v-2.39h.27v.97h1.22zm1.88-.97h1.23v.25h-.97v.71h.95v.24h-.95v.94h.97v.25h-1.23v-2.39zm6.39.97v-.97h.27v2.39h-.27v-1.17h-1.22v1.17h-.27v-2.39h.27v.97h1.22zm1.88-.97h1.24v.25h-.98v.71h.95v.24h-.95v.94h.98v.25h-1.24v-2.39zm3.68.51l-.41 1h.81zm-.52 1.2l-.29.68H34l1.1-2.5 1.08 2.5h-.3l-.28-.68zm3.24.43h.66v.25h-.93v-2.39h.27v2.14zm2.04-2.14h.27v2.39h-.27zm1.88-.1l1.86 1.95v-1.85h.27v2.49l-1.87-1.94v1.84h-.26v-2.49zm5.96 1.29a1.13 1.13 0 0 1-.25.84 1.19 1.19 0 0 1-.89.4 1.24 1.24 0 1 1 1-2l-.2.18a1 1 0 0 0-.82-.45 1 1 0 0 0-1 1 1 1 0 0 0 .28.67 1 1 0 0 0 .68.31.82.82 0 0 0 .85-.75h-.71v-.25zm4.22 1.2h-.27v-2.14h-.58v-.25h1.43v.25h-.58v2.14zm2.07-1.2a1 1 0 1 0 1-1 1 1 0 0 0-1 1m2.23 0A1.25 1.25 0 1 1 55 27.83a1.24 1.24 0 0 1 1.25 1.24m1.75.22a.88.88 0 0 0 .1.53.62.62 0 0 0 .48.23.64.64 0 0 0 .47-.21.82.82 0 0 0 .12-.55v-1.42h.27v1.5a.83.83 0 0 1-.21.66.87.87 0 0 1-.64.27.89.89 0 0 1-.62-.24.85.85 0 0 1-.23-.69v-1.5H58zm4.85-.9a1 1 0 0 0-.73-.32 1 1 0 0 0 0 2 1.05 1.05 0 0 0 .73-.32v.33a1.24 1.24 0 1 1-.71-2.24 1.16 1.16 0 0 1 .71.23zm3.07.45v-.97h.27v2.39h-.27v-1.17h-1.23v1.17h-.26v-2.39h.26v.97h1.23zm-48.28-5.59h1.68v.63h-2.36v-6.07h.68v5.44zm3.02 0h1.68v.63h-2.35v-6.07h.67v5.44zm6.17-2.98v-2.46h.67v6.07h-.67V20.9h-3.11v2.98h-.68v-6.07h.68v2.46h3.11zm8.23 0v-2.46h.67v6.07h-.67V20.9h-3.11v2.98h-.68v-6.07h.68v2.46h3.11zm2.3.57a2.49 2.49 0 1 0 2.49-2.51 2.51 2.51 0 0 0-2.49 2.51m5.66 0a3.17 3.17 0 1 1-3.17-3.15A3.15 3.15 0 0 1 43 20.85M46.69 19a1.11 1.11 0 0 0-1.05-.66 1 1 0 0 0-1 .94c0 .52.54.76 1 1l.4.18c.79.35 1.46.74 1.46 1.71a1.92 1.92 0 0 1-3.8.31l.66-.19a1.25 1.25 0 0 0 1.22 1.13 1.22 1.22 0 0 0 1.25-1.18c0-.71-.56-.95-1.12-1.21l-.37-.16c-.71-.32-1.32-.69-1.32-1.55a1.59 1.59 0 0 1 1.7-1.54 1.75 1.75 0 0 1 1.57.94zm2.42 1.59h.45c.75 0 1.39-.23 1.39-1.1s-.8-1.06-1.59-1.06h-.25zm0 3.28h-.68v-6.06h1a2.56 2.56 0 0 1 1.51.32 1.67 1.67 0 0 1 .68 1.38 1.71 1.71 0 0 1-.58 1.3 2.2 2.2 0 0 1-1.44.4h-.49zm3.4-6.06h.68v6.07h-.68zm3.52 6.07h-.68v-5.44h-1.47v-.63h3.63v.63h-1.48v5.44zm4.39-4.78l-1 2.43h2.06zm-1.31 3.06l-.73 1.72h-.74l2.8-6.36 2.73 6.36h-.75l-.72-1.72zm5.4 1.09h1.68v.63h-2.36v-6.07h.68v5.44zM21.34 10.49a.3.3 0 1 0-.3-.3.29.29 0 0 0 .3.3m-.43.7a.31.31 0 0 0 .31-.32.31.31 0 0 0-.31-.31.32.32 0 0 0 0 .63m.56-.32a.31.31 0 0 0 .31.32.32.32 0 0 0 .31-.32.31.31 0 0 0-.63 0m3.21 3.2h-1.44v-.87a6.68 6.68 0 0 0-.21-1.68l-.53.1a6.48 6.48 0 0 1 .2 1.63v.82h-.27c-.62 0-.78-.19-.78-.8v-1.42h-.54v1.45c0 .5-.12.82-.55.82s-.55-.32-.55-.83v-1.21h-.54v2.15c0 .9-.4 1.2-1 1.2s-1-.26-1-1.27a4.26 4.26 0 0 1 .22-1.16l-.56.11a4.37 4.37 0 0 0-.12 1.11c0 1.21.66 1.65 1.47 1.65A1.36 1.36 0 0 0 20 14.44a.66.66 0 0 0 0-.16.67.67 0 0 0 .6.27.75.75 0 0 0 .7-.55c.12.33.43.47 1 .47h2.91v-2.74h-.54zm-.26-2.88a.32.32 0 0 0 .31-.32.31.31 0 1 0-.31.32m.87-.63a.32.32 0 1 0 .31.31.31.31 0 0 0-.31-.31m1.01-.22h.55v4.16h-.55zm4.58 3.86c0 .94-.39 1.23-.86 1.23s-1-.26-1-1.27a4.25 4.25 0 0 1 .2-1.16l-.56.1a4.39 4.39 0 0 0-.15 1.12c0 1.21.64 1.65 1.45 1.65s1.46-.5 1.46-1.72v-3.81h-.54zm1.65-3.86h.54v4.16h-.54zM37 14.2c0 .94-.39 1.23-.86 1.23s-1-.26-1-1.27a4.25 4.25 0 0 1 .15-1.16l-.56.1a4.34 4.34 0 0 0-.15 1.12c0 1.21.64 1.65 1.45 1.65s1.46-.5 1.46-1.72v-3.81H37zm1.6-3.86h.54v4.16h-.54zm10.23.75a.32.32 0 1 0-.32-.32.32.32 0 0 0 .32.32m4.55-.22a.31.31 0 0 0 .31.32.32.32 0 0 0 .31-.32.31.31 0 0 0-.63 0m-.12-.38a.3.3 0 1 0-.3-.3.29.29 0 0 0 .3.3m-.43.7a.31.31 0 0 0 .31-.32.31.31 0 0 0-.31-.31.32.32 0 0 0 0 .63m4.38 0a.31.31 0 0 0 .31-.32.31.31 0 0 0-.31-.31.32.32 0 1 0 0 .63m-.88 0a.32.32 0 0 0 .31-.32.31.31 0 1 0-.31.32m9.33 2.88H65c-.72 0-1-.3-1-.92s.33-1.06.86-1.06.81.29.81 1.06zm-16.84 0c-.53 0-.83-.35-.83-1a.85.85 0 0 1 .83-1c.54 0 .81.35.81 1s-.38 1-.82 1m16.08-2.41a1.4 1.4 0 0 0-1.44 1.54c0 .7-.22.87-.52.87h-.69v-.87a6.6 6.6 0 0 0-.21-1.68l-.53.1a6.59 6.59 0 0 1 .19 1.63v.82h-.27c-.63 0-.78-.19-.78-.8v-1.42h-.53v1.45c0 .5-.12.82-.55.82S59 13.8 59 13.3v-1.22h-.54v1.16c0 .64-.19.83-.61.83h-.73v-2.34h-.54v2.34h-1.43v-.87a6.69 6.69 0 0 0-.15-1.67l-.53.1a6.49 6.49 0 0 1 .2 1.63 8.1 8.1 0 0 1 0 .82h-.27c-.62 0-.78-.19-.78-.8v-1.43H53v1.45c0 .5-.12.82-.55.82s-.55-.31-.55-.82v-1.22h-.54v1.16c0 .64-.19.83-.61.83H49.7a1.31 1.31 0 0 0 .48-1.07 1.21 1.21 0 0 0-1.32-1.37 1.37 1.37 0 0 0-1.43 1.44 1.15 1.15 0 0 0 .39 1h-1.27V13c0-.81-.33-1.29-1.32-1.29a5.81 5.81 0 0 0-1.08.11v2.3h-.5c-1.24 0-1.59-.46-1.59-1.35a2.53 2.53 0 0 1 .22-1l-.58.1a2.6 2.6 0 0 0-.2 1c0 1.12.58 1.72 2.08 1.72h1.1v-2.45a3.23 3.23 0 0 1 .5 0c.6 0 .84.26.84.93v1.48h4.73a.74.74 0 0 0 .8-.47.77.77 0 0 0 .84.52.83.83 0 0 0 .83-.52c.13.33.43.47 1 .47h3.64a.74.74 0 0 0 .8-.47.77.77 0 0 0 .83.52.83.83 0 0 0 .83-.52c.13.33.43.47 1 .47h1.6a.79.79 0 0 0 .79-.5c.18.32.55.5 1.23.5h1.27v-1.49c0-.9-.41-1.4-1.3-1.4" fill="#fff"/></g></g></svg>