<svg xmlns="http://www.w3.org/2000/svg" viewBox="0 0 91.75 13.53"><defs><style>.cls-3{fill:#2a2522}</style></defs><g id="Layer_2" data-name="Layer 2"><g id="Layer_1-2" data-name="Layer 1"><path fill="#e30613" d="M84.34.04h7.41v13.49h-7.41z"/><path fill="#00508f" d="M0 .04h7.41v13.49H0z"/><path class="cls-3" d="M27 .58a.15.15 0 0 0 .14-.15.14.14 0 1 0-.29 0 .14.14 0 0 0 .15.15M23.83 1.9h1.61v-.55a.3.3 0 0 0-.3-.27h-.25a1 1 0 0 0 .34-.68l-.29-.22v.18a1.06 1.06 0 0 1-.44.84v.07h.5c.15 0 .16.15.17.31v.07h-5.63a6.43 6.43 0 0 0-.07-.81l-.21.16a6.59 6.59 0 0 1 .05.7H12.9v-.56l-.16.09-.09.05v.6a.5.5 0 0 1-.37.51h-.06c.58 0 .66-.27.67-.52h10.94z"/><path class="cls-3" d="M19.12 2.26a.13.13 0 1 0-.12.14.13.13 0 0 0 .13-.14m.2-.13a.14.14 0 1 0 .13.14.13.13 0 0 0-.13-.14m18.09.13a.13.13 0 1 0 .13-.13.13.13 0 0 0-.13.13m1.3-.83l.12.22h-.32a1.48 1.48 0 0 0 .2-.22m-.54.23v.24h.92a3.79 3.79 0 0 0-.27-.62A3.79 3.79 0 0 0 39.21 0l-.26.11a3.9 3.9 0 0 1-.24.95c-.26-.45-.54-.85-.54-.85L38 .38a10 10 0 0 1 .63.88 1 1 0 0 1-.43.41m-1.12.59a.13.13 0 0 0 .13.14.14.14 0 0 0 0-.27.13.13 0 0 0-.13.13m-10.23-.91c0-.15.09-.29.13-.29s.13.37.14.61a.41.41 0 0 1-.27-.31m9.93.55h1v-.26a6.87 6.87 0 0 0-.07-.81l-.25.16a6.35 6.35 0 0 1 .05.7H27.34c0-.18 0-.81-.29-.81a.56.56 0 0 0-.43.55.29.29 0 0 0 .17.25h-.25c-.3 0-.41-.2-.41-.47a1.72 1.72 0 0 1 0-.18 1.16 1.16 0 0 0-.13.47c0 .21.1.43.49.43h10.29zM12.81 3.56h-.67v4.47h1.99v-.64h-1.32V3.56zm2.19 0h.67v4.46H15zm1.98 4.47h.67V5.9h1.5v-.63h-1.5V4.2h1.56v-.64h-2.23v4.47zm3.24 0h2.46v-.64h-1.79V5.9h1.74v-.63h-1.74V4.2h1.79v-.64h-2.46v4.47zm3.92-3.74a2.29 2.29 0 0 0-.56 1.52 2.21 2.21 0 0 0 .67 1.63 2.24 2.24 0 0 0 1.63.67 2.43 2.43 0 0 0 1.21-.33V7l-.31.24a1.81 1.81 0 0 1-.29.16 1.43 1.43 0 0 1-.61.12A1.56 1.56 0 0 1 24.73 7a1.63 1.63 0 0 1-.47-1.19 1.67 1.67 0 0 1 .47-1.2 1.54 1.54 0 0 1 1.16-.49 1.87 1.87 0 0 1 1.21.49V3.8a2.3 2.3 0 0 0-1.16-.33 2.25 2.25 0 0 0-1.8.82m5.14 2.02L30 4.79l.66 1.52zM27.77 8h.73l.5-1.05h1.91L31.38 8h.74L30 3.28zm5.81-2.39V4.2h.24q.93 0 .93.69c0 .49-.32.73-1 .73zm1.56.08a1.27 1.27 0 0 0 .27-.82 1.22 1.22 0 0 0-.43-1 2 2 0 0 0-1.28-.33h-.8V8h.67V6.2h.12L35 8h.82l-1.38-1.9a1.21 1.21 0 0 0 .72-.44m1.54 2.37h2.46v-.64h-1.79V5.9h1.74v-.63h-1.74V4.2h1.79v-.64H36.7v4.47zM65.07.64a.14.14 0 0 0 .14-.14.14.14 0 1 0-.28 0 .14.14 0 0 0 .14.14M60.9.51a.15.15 0 0 0 .1-.15.15.15 0 1 0-.31 0 .15.15 0 0 0 .16.15m4.39-.18a.14.14 0 0 0 .14-.14.14.14 0 0 0-.14-.19.14.14 0 0 0-.14.14.14.14 0 0 0 .14.14m4.02.5a.14.14 0 0 0 .14-.13.14.14 0 1 0-.28 0 .14.14 0 0 0 .14.14m.35-.01a.14.14 0 0 0 .14-.14.14.14 0 1 0-.28 0 .14.14 0 0 0 .14.14M65.28.5a.14.14 0 0 0 .14.14.14.14 0 0 0 .15-.14.15.15 0 0 0-.14-.14.14.14 0 0 0-.14.14"/><path class="cls-3" d="M60.71 1.31c0-.16.09-.31.13-.31s.14.38.15.63a.43.43 0 0 1-.29-.33m18.51-.09a.21.21 0 0 1 .21.21.21.21 0 1 1-.21-.21m-1.16.66h1.17a.46.46 0 1 0-.46-.46.61.61 0 0 0 0 .2h-4.11V.77h-.1l-.18.13v.72h-.17V.91h-.1l-.17.09v.59h-.25v-.57l-.22.12v.45h-3.71a3.55 3.55 0 0 0 0-.59l-.23.12a2.85 2.85 0 0 1 0 .49h-3.67V.77h-.1l-.18.13v.72h-.17V.91h-.1l-.18.09v.59h-.22v-.57l-.23.12v.45h-3.44c0-.19 0-.84-.3-.84a.59.59 0 0 0-.46.57.31.31 0 0 0 .18.26h-6.29L54.05 1a.28.28 0 0 0-.25-.16c-.15 0-.37.11-.37.29s0 .14.21.51h-.42c-.42 0-.49-.36-.49-.72a1.84 1.84 0 0 0-.07.45c0 .3.15.53.65.53h.74a7.38 7.38 0 0 1-.38-.77s0-.07.09-.07.08 0 .11.09l.38.74h23.8zM55.34 5.31h-1.93V3.56h-.67v4.47h.67V5.94h1.93v2.09h.67V3.56h-.67v1.75zM60.36 7a1.66 1.66 0 0 1-2.82-1.21 1.65 1.65 0 0 1 1.66-1.68 1.58 1.58 0 0 1 1.17.49 1.63 1.63 0 0 1 .48 1.2 1.64 1.64 0 0 1-.49 1.2m-1.15-3.52a2.28 2.28 0 0 0-1.65.68 2.19 2.19 0 0 0-.69 1.62 2.2 2.2 0 0 0 .76 1.74 2.36 2.36 0 0 0 3.22-.08 2.19 2.19 0 0 0 .69-1.63 2.23 2.23 0 0 0-.69-1.64 2.23 2.23 0 0 0-1.64-.68M64 5.37l-.45-.18c-.32-.13-.48-.31-.48-.53a.49.49 0 0 1 .19-.39.69.69 0 0 1 .46-.16.68.68 0 0 1 .37.09.92.92 0 0 1 .29.35l.55-.33a1.34 1.34 0 0 0-1.21-.75 1.39 1.39 0 0 0-1 .34 1.07 1.07 0 0 0-.38.84 1.24 1.24 0 0 0 .92 1.13l.44.22a1.62 1.62 0 0 1 .29.15.92.92 0 0 1 .2.17.61.61 0 0 1 .11.2.75.75 0 0 1 0 .24.72.72 0 0 1-.21.53.77.77 0 0 1-1.09-.1 1.15 1.15 0 0 1-.16-.54l-.68.15a1.6 1.6 0 0 0 .47 1 1.37 1.37 0 0 0 1 .34 1.4 1.4 0 0 0 1-.4 1.36 1.36 0 0 0 .41-1 1.21 1.21 0 0 0-.25-.78 1.89 1.89 0 0 0-.79-.59m2.75.22h-.25V4.18h.22q1 0 1 .69c0 .48-.31.71-.93.71m.69-1.95a3.45 3.45 0 0 0-.85-.08h-.77V8h.67V6.22h.31a1.63 1.63 0 0 0 1.11-.36 1.23 1.23 0 0 0 .41-1 1.27 1.27 0 0 0-.39-.95 1.14 1.14 0 0 0-.51-.3m1.57-.05h.67v4.46h-.67zm4 0h-2.72v.64h1.02v3.83H72V4.2h1.03v-.64zm1.35 2.75l.69-1.52.66 1.52zM72.88 8h.73l.5-1.08H76L76.48 8h.74l-2.14-4.72zm5.57-.61V3.56h-.68v4.47h1.99v-.64h-1.31z"/><path d="M47.69 1.92a3.55 3.55 0 0 0-.84-1.1A4.7 4.7 0 0 1 47.47 2a8.74 8.74 0 0 1 .42 1.69A14.07 14.07 0 0 1 48 5.81a11.35 11.35 0 0 1-.14 1.85 7.55 7.55 0 0 1-.43 1.55 8.78 8.78 0 0 1-.76 1.47 4.57 4.57 0 0 0 .77-.94A5.55 5.55 0 0 0 48 8.63a7.23 7.23 0 0 0 .31-1.33 11.48 11.48 0 0 0 .11-1.63 10.92 10.92 0 0 0-.19-2.11 6.09 6.09 0 0 0-.54-1.63m-3.62-.27a6.21 6.21 0 0 0-.72 1.25 6.78 6.78 0 0 0-.44 1.41 7.89 7.89 0 0 0-.14 1.51 6.67 6.67 0 0 0 .15 1.43 6.5 6.5 0 0 0 .45 1.34 6.39 6.39 0 0 0 .72 1.21 6.78 6.78 0 0 0 1 1 13.61 13.61 0 0 1-.93-1.38 7.3 7.3 0 0 1-.68-1.62 7.09 7.09 0 0 1-.28-2A8 8 0 0 1 43.67 3a7.41 7.41 0 0 1 1.4-2.4 5.28 5.28 0 0 0-1 1m.06-.38" fill="#fff"/><path d="M43.45 7.82a7.29 7.29 0 0 0 .68 1.61 13.84 13.84 0 0 0 .93 1.38 6.68 6.68 0 0 1-1-1 6.33 6.33 0 0 1-.72-1.21 6.57 6.57 0 0 1-.45-1.34 6.66 6.66 0 0 1-.15-1.43 7.9 7.9 0 0 1 .14-1.51 6.8 6.8 0 0 1 .44-1.41 6.2 6.2 0 0 1 .72-1.25 5.26 5.26 0 0 1 1-1A7.44 7.44 0 0 0 43.67 3a8 8 0 0 0-.5 2.73 7.09 7.09 0 0 0 .28 2M45.66.35l-.21-.22c-.28.2-.5.37-.66.5a5.58 5.58 0 0 0-.49.46 5.14 5.14 0 0 0-.49.6 5.8 5.8 0 0 0-.45.75 6.57 6.57 0 0 0-.41 1 7.77 7.77 0 0 0-.35 2.36 6.68 6.68 0 0 0 .24 1.8 7 7 0 0 0 .65 1.6 6.13 6.13 0 0 0 .92 1.24 4.47 4.47 0 0 0 1 .83l.21-.24A6.1 6.1 0 0 1 45 10a7.22 7.22 0 0 1-.52-1.29 10 10 0 0 1-.31-1.47A11.58 11.58 0 0 1 44 5.6a9.82 9.82 0 0 1 .49-3.25 4.89 4.89 0 0 1 1.15-2m2.68 6.94A7.32 7.32 0 0 1 48 8.63a5.52 5.52 0 0 1-.52 1.12 4.56 4.56 0 0 1-.77.94 8.84 8.84 0 0 0 .76-1.47 7.6 7.6 0 0 0 .42-1.55A11.36 11.36 0 0 0 48 5.81a14.06 14.06 0 0 0-.15-2.1A8.68 8.68 0 0 0 47.47 2a4.69 4.69 0 0 0-.62-1.17 3.55 3.55 0 0 1 .84 1.1 6.1 6.1 0 0 1 .54 1.63 10.92 10.92 0 0 1 .19 2.11 11.65 11.65 0 0 1-.1 1.63M49 3.46a7.08 7.08 0 0 0-.41-1 5.7 5.7 0 0 0-2.1-2.35l-.26.21A7.21 7.21 0 0 1 47 1.4a5.57 5.57 0 0 1 .34.8 8.47 8.47 0 0 1 .29 1 11.53 11.53 0 0 1 .17 1.17 13.8 13.8 0 0 1 .06 1.38 10.68 10.68 0 0 1-.2 2.12 8.06 8.06 0 0 1-.57 1.79 5.55 5.55 0 0 1-.86 1.34l.2.24a5 5 0 0 0 1.49-1.35 6.58 6.58 0 0 0 1-2 7.57 7.57 0 0 0 .36-2.33 7.42 7.42 0 0 0-.08-1.1 7.31 7.31 0 0 0-.2-1" fill="#9e9e9f"/><path d="M40.87 4.56a5.26 5.26 0 0 0 1 1 6.32 6.32 0 0 0 1.25.71 6.84 6.84 0 0 0 1.41.44 7.86 7.86 0 0 0 1.47.13 6.66 6.66 0 0 0 1.43-.15 6.32 6.32 0 0 0 1.34-.45A6.28 6.28 0 0 0 50 5.51a6.81 6.81 0 0 0 1-1 13.72 13.72 0 0 1-1.38.94 7.32 7.32 0 0 1-1.62.72 7 7 0 0 1-2 .28A8 8 0 0 1 43.27 6a7.46 7.46 0 0 1-2.4-1.4" fill="#db1a1b"/></g></g></svg>