<svg xmlns="http://www.w3.org/2000/svg" xmlns:xlink="http://www.w3.org/1999/xlink" viewBox="0 0 58.48 41"><defs><style>.cls-1{fill:none}.cls-9{fill:#006b37}</style><clipPath id="clip-path"><path class="cls-1" d="M22 10.19c1.06 1.87 3.23 1.63 3.93 1.5a9.86 9.86 0 0 1-1.64-2.27 49.13 49.13 0 0 1-2.52-5.53 49 49 0 0 1 3.44 5 9.92 9.92 0 0 1 1.1 2.58 5.17 5.17 0 0 0 .5-.66 4.09 4.09 0 0 1-1.64-3.28 6.45 6.45 0 0 1 .32-1.88 17.47 17.47 0 0 0-3.95-2.16s-.82 4.45.45 6.7"/></clipPath><linearGradient id="linear-gradient" x1="-1041.67" y1="7267.05" x2="-1040.67" y2="7267.05" gradientTransform="matrix(7.87 0 0 7.87 8221.43 -57198.69)" gradientUnits="userSpaceOnUse"><stop offset="0" stop-color="#fff6b2"/><stop offset=".01" stop-color="#fdf1a8"/><stop offset=".07" stop-color="#f5dd7c"/><stop offset=".13" stop-color="#eecb56"/><stop offset=".2" stop-color="#e9bc37"/><stop offset=".26" stop-color="#e4b11e"/><stop offset=".33" stop-color="#e1a90d"/><stop offset=".41" stop-color="#e0a503"/><stop offset=".5" stop-color="#dfa300"/><stop offset=".61" stop-color="#b77f06"/><stop offset=".72" stop-color="#925d0c"/><stop offset=".83" stop-color="#774510"/><stop offset=".93" stop-color="#673613"/><stop offset="1" stop-color="#613114"/><stop offset="1" stop-color="#763f25"/></linearGradient><clipPath id="clip-path-2"><path class="cls-1" d="M25.44 7.53c0 2.67 2.5 3.75 3.34 4a12 12 0 0 1-.39-3.46A61.51 61.51 0 0 1 29 .57a61.23 61.23 0 0 1 .66 7.53 12.16 12.16 0 0 1-.39 3.46c.84-.28 3.34-1.35 3.34-4C32.66 4.31 29 0 29 0s-3.61 4.31-3.61 7.53"/></clipPath><linearGradient id="linear-gradient-2" x1="-1041.67" y1="7267.05" x2="-1040.67" y2="7267.05" gradientTransform="matrix(6.59 0 0 6.59 6886.18 -47854.22)" xlink:href="#linear-gradient"/><clipPath id="clip-path-3"><path class="cls-1" d="M32.65 5.65A6.52 6.52 0 0 1 33 7.53a4.08 4.08 0 0 1-1.64 3.28 5.09 5.09 0 0 0 .5.66 9.81 9.81 0 0 1 1.1-2.58 49.22 49.22 0 0 1 3.44-5 49.26 49.26 0 0 1-2.52 5.53 10 10 0 0 1-1.64 2.27c.7.13 2.87.37 3.93-1.5 1.27-2.25.46-6.7.46-6.7a17.46 17.46 0 0 0-3.95 2.16"/></clipPath><linearGradient id="linear-gradient-3" x1="-1041.67" y1="7267.05" x2="-1040.67" y2="7267.05" gradientTransform="translate(12070.48 -84022.95) scale(11.56)" xlink:href="#linear-gradient"/></defs><g id="Layer_2" data-name="Layer 2"><g id="Layer_1-2" data-name="Layer 1"><g clip-path="url(#clip-path)"><path fill="url(#linear-gradient)" d="M20.69 3.49h6.08v8.57h-6.08z"/></g><g clip-path="url(#clip-path-2)"><path fill="url(#linear-gradient-2)" d="M25.44 0h7.22v11.56h-7.22z"/></g><g clip-path="url(#clip-path-3)"><path fill="url(#linear-gradient-3)" d="M31.33 3.49h6.08v8.57h-6.08z"/></g><path d="M10.4 34c.19 0 .24-.2.24-.43s0-.44-.24-.44-.24.2-.24.44 0 .43.24.43m.41.11a.62.62 0 0 1-.81 0 .71.71 0 0 1-.19-.54A.72.72 0 0 1 10 33a.63.63 0 0 1 .81 0 .73.73 0 0 1 .19.55.72.72 0 0 1-.19.54m1.61-.22a.47.47 0 0 0 .06.25.35.35 0 0 1-.22.07c-.14 0-.19-.07-.19-.22v-.62c0-.15 0-.22-.14-.22a.39.39 0 0 0-.26.13v.91h-.35v-1.31h.13a.18.18 0 0 1 .19.16.62.62 0 0 1 .4-.17c.24 0 .36.19.36.46zm.65-.48h.44c0-.15-.06-.28-.22-.28s-.21.11-.22.31m0 .24c0 .18.07.32.27.32a.88.88 0 0 0 .36-.09.4.4 0 0 1 .1.21.9.9 0 0 1-.51.15c-.45 0-.57-.34-.57-.69s.18-.7.57-.7a.52.52 0 0 1 .54.56.83.83 0 0 1 0 .24zm2.29.14v-.62a.43.43 0 0 0-.22-.08c-.14 0-.22.15-.22.44s.09.4.2.4a.31.31 0 0 0 .24-.13m-.27-1a.6.6 0 0 1 .27.07v-.67h.13c.14 0 .19.06.19.22v1.37a.29.29 0 0 0 .08.22.36.36 0 0 1-.11.18.3.3 0 0 1-.25-.16.5.5 0 0 1-.37.17c-.31 0-.47-.28-.47-.68s.25-.7.52-.7m1.68 1.01v-.23h-.19a.18.18 0 0 0-.21.2.14.14 0 0 0 .15.16.37.37 0 0 0 .25-.12m.3.36a.32.32 0 0 1-.25-.15.55.55 0 0 1-.39.17.39.39 0 0 1-.4-.4c0-.31.24-.45.52-.45h.22v-.07c0-.14-.07-.2-.2-.2a1.37 1.37 0 0 0-.4.09.46.46 0 0 1-.09-.25 1.69 1.69 0 0 1 .58-.12.42.42 0 0 1 .46.45v.55a.23.23 0 0 0 .07.2.37.37 0 0 1-.12.18m1.16-.06c-.11.38-.24.62-.63.62a1 1 0 0 1-.29-.05.39.39 0 0 1 .07-.25.83.83 0 0 0 .22 0c.15 0 .24-.1.29-.27-.13 0-.21 0-.24-.15l-.33-1.16a.54.54 0 0 1 .21-.05c.08 0 .14 0 .17.15l.15.56c0 .1.06.27.08.37l.26-1.08h.14a.53.53 0 0 1 .18 0zm1.05-.3a.87.87 0 0 0 .37.12c.12 0 .19-.05.2-.13s0-.11-.14-.15l-.15-.06c-.19-.07-.33-.18-.33-.39s.2-.42.5-.42a1.23 1.23 0 0 1 .46.1.35.35 0 0 1-.1.25.94.94 0 0 0-.36-.09c-.09 0-.15.05-.15.12s0 .1.13.13l.16.06a.45.45 0 0 1 .35.42c0 .26-.21.42-.53.42a1.06 1.06 0 0 1-.51-.13.42.42 0 0 1 .1-.24m1.22-.69a.46.46 0 0 0-.06-.25.36.36 0 0 1 .22-.07c.14 0 .19.08.19.22v.62c0 .15 0 .21.14.21a.4.4 0 0 0 .26-.12v-.91h.35v.95a.29.29 0 0 0 .07.22.35.35 0 0 1-.12.18.31.31 0 0 1-.27-.19.64.64 0 0 1-.42.19c-.25 0-.36-.19-.36-.46zm1.51-.33a.35.35 0 0 1 .3.24.35.35 0 0 1 .34-.24h.16a.7.7 0 0 1-.08.32h-.12a.28.28 0 0 0-.25.17v.85H22v-.89a.36.36 0 0 0-.1-.27.35.35 0 0 1 .11-.18m1.74.36a.34.34 0 0 0-.22-.11c-.14 0-.23.15-.23.44s.09.4.2.4a.34.34 0 0 0 .25-.12v-.6zm-.28-.37a.51.51 0 0 1 .35.13.31.31 0 0 1 .22-.11.33.33 0 0 1 .11.18.3.3 0 0 0-.08.22V34a.92.92 0 0 1-.13.6.58.58 0 0 1-.47.19 1.38 1.38 0 0 1-.48-.09.45.45 0 0 1 .09-.26.89.89 0 0 0 .36.08c.23 0 .3-.14.3-.32v-.1a.54.54 0 0 1-.33.12c-.32 0-.47-.28-.47-.68s.25-.7.52-.7m1.3.55h.44c0-.15-.06-.28-.22-.28s-.21.11-.22.31m0 .24c0 .18.07.32.27.32a.89.89 0 0 0 .36-.09.39.39 0 0 1 .1.21.9.9 0 0 1-.51.15c-.45 0-.57-.34-.57-.69s.18-.7.57-.7a.52.52 0 0 1 .54.56.83.83 0 0 1 0 .24zm1.12-.82a.35.35 0 0 1 .3.24.35.35 0 0 1 .34-.24h.16a.71.71 0 0 1-.08.32h-.12a.28.28 0 0 0-.25.17v.85h-.35v-.89a.36.36 0 0 0-.1-.27.36.36 0 0 1 .11-.18m1.85 1.31c-.11.38-.24.62-.63.62a1 1 0 0 1-.29-.05.38.38 0 0 1 .07-.25.81.81 0 0 0 .22 0c.15 0 .24-.1.29-.27-.13 0-.21 0-.24-.15l-.33-1.16a.53.53 0 0 1 .21-.05c.09 0 .14 0 .17.15l.15.56c0 .1.06.27.08.37l.26-1.08h.14a.52.52 0 0 1 .18 0z"/><path stroke-miterlimit="10" stroke-width=".3" stroke="#000" fill="none" d="M29.21 32.14v2.75"/><path d="M30.46 34.22V34h.61a.18.18 0 0 0 0-.06.26.26 0 0 0 0-.12l-.07-.25-.12-.13-.14-.12.22-.21a1.74 1.74 0 0 1 .34.36.61.61 0 0 1 .12.33.41.41 0 0 1 0 .11h.36v.08h-.08a.65.65 0 0 1-.22 0 .5.5 0 0 1-.15-.09.46.46 0 0 1-.16.09.79.79 0 0 1-.24 0z"/><path d="M31.85 33.27h.34a.5.5 0 0 1 .18 0 .39.39 0 0 1 .22.21.58.58 0 0 1 0 .16v.14a.74.74 0 0 0 0 .12.25.25 0 0 0 0 .08.1.1 0 0 0 .07 0v.25H31.6v-.08h.81a.29.29 0 0 1 0-.08.61.61 0 0 1 0-.08v-.13a.45.45 0 0 0 0-.12.24.24 0 0 0-.07-.08.19.19 0 0 0-.12 0h-.38zm1.21-.71h.3v1.66h-.3zM34.38 34v-.11a.86.86 0 0 0 0-.19.35.35 0 0 0 0-.12.15.15 0 0 0-.07-.06h-.17l-.07.05a.3.3 0 0 0-.05.08.31.31 0 0 0 0 .1.23.23 0 0 0 .07.17.3.3 0 0 0 .21.06zm-.16.25a.73.73 0 0 1-.27 0 .47.47 0 0 1-.17-.11.4.4 0 0 1-.1-.15.47.47 0 0 1 0-.16.54.54 0 0 1 0-.2.5.5 0 0 1 .11-.17.52.52 0 0 1 .17-.12.56.56 0 0 1 .22 0h.22l.1.06a.45.45 0 0 1 .08.1.59.59 0 0 1 .06.15.84.84 0 0 1 0 .2V34H35v.08h-.3a.58.58 0 0 1-.12.2.81.81 0 0 1-.19.15 1.09 1.09 0 0 1-.24.1l-.28.05v-.25h.2l.16-.06.12-.08a.39.39 0 0 0 .08-.09z"/><path d="M34.88 34.22h-.07v-.08h.35v-1.58h.3v1.66zm.88-1.66h.3v1.66h-.3zM38 33.77a.28.28 0 0 0 0-.08.32.32 0 0 0 0-.09l-.07-.07a.19.19 0 0 0-.1 0 .18.18 0 0 0-.1 0 .33.33 0 0 0-.09.09.62.62 0 0 0-.07.13.82.82 0 0 0 0 .15h.41a.15.15 0 0 0 .05-.06.28.28 0 0 0 0-.11m-.22.47h-.35l-.08-.05h-.09l-.08.05a.27.27 0 0 0-.06.1.39.39 0 0 0 0 .14 1.07 1.07 0 0 0 0 .13v.32a1.87 1.87 0 0 0 .06.18l-.28.09.07-.22v-.38a1.1 1.1 0 0 1 0-.15.63.63 0 0 1 0-.17.58.58 0 0 1 .05-.13L37 34l.09-.08.09-.06h.08a1.18 1.18 0 0 1 .08-.22.94.94 0 0 1 .09-.16.56.56 0 0 1 .1-.11l.1-.07h.35l.13.06.1.09a.46.46 0 0 1 .06.11.38.38 0 0 1 0 .11.42.42 0 0 1 0 .11.59.59 0 0 1 0 .17.42.42 0 0 1-.09.15.44.44 0 0 1-.15.11.57.57 0 0 1-.22 0m1.48-.21v-.11a.79.79 0 0 0 0-.19.33.33 0 0 0 0-.12.15.15 0 0 0-.07-.06h-.17l-.07.05-.05.08a.31.31 0 0 0 0 .1.23.23 0 0 0 .07.17.3.3 0 0 0 .21.06zm-.16.25a.73.73 0 0 1-.27 0 .47.47 0 0 1-.17-.11.4.4 0 0 1-.1-.15.49.49 0 0 1 0-.16.54.54 0 0 1 0-.2.49.49 0 0 1 .11-.17.52.52 0 0 1 .17-.12.56.56 0 0 1 .22 0h.22l.1.06a.41.41 0 0 1 .08.1.52.52 0 0 1 .06.15.79.79 0 0 1 0 .2V34h.29v.08h-.3a.6.6 0 0 1-.12.2.83.83 0 0 1-.19.15 1.13 1.13 0 0 1-.24.1l-.28.05v-.25h.2l.16-.06.12-.08.08-.09zm1.09.3a.14.14 0 0 1 0-.06h.12a.16.16 0 0 1 0 .12h-.12a.14.14 0 0 1 0-.06m-.35 0a.13.13 0 0 1 0-.06h.11a.16.16 0 0 1 0 .12H40a.13.13 0 0 1 0-.06m.49-.71h.32v.08h-.09a.65.65 0 0 1-.2 0l-.14-.07a.28.28 0 0 1-.1.07h-.46v-.08H40a.12.12 0 0 0 0-.05.37.37 0 0 0 0-.08v-.53h.3z"/><path d="M40.62 34.22h-.07V34h.35v-1.44h.3v1.66zm.88-1.66h.3v1.66h-.3zm1.81.22a.14.14 0 0 1 0-.06h.12a.14.14 0 0 1 0 .06.14.14 0 0 1 0 .06h-.03a.14.14 0 0 1 0-.06m-.35 0a.16.16 0 0 1 0-.06h.11a.16.16 0 0 1 0 .06.16.16 0 0 1 0 .06H43a.16.16 0 0 1 0-.06m.36.67h-.18l-.14.06a.28.28 0 0 0-.09.08.17.17 0 0 0 0 .1.15.15 0 0 0 0 .08v.05h.38zm.3.38a.63.63 0 0 0 0 .07h.19v.08h-.5v-.06l-.15.06h-.31a.46.46 0 0 1-.14-.07.33.33 0 0 1-.11-.12.32.32 0 0 1 0-.17.34.34 0 0 1 0-.16.41.41 0 0 1 .09-.13l.13-.1.14.07.16-.06h.15v-.13h.3z"/><path d="M44 33.27h.34a.49.49 0 0 1 .18 0 .39.39 0 0 1 .13.08.42.42 0 0 1 .09.13.65.65 0 0 1 0 .16v.14a.64.64 0 0 0 0 .12.23.23 0 0 0 0 .08.1.1 0 0 0 .07 0v.25h-1.08v-.08h.81a.29.29 0 0 1 0-.08v-.21a.45.45 0 0 0 0-.12.23.23 0 0 0-.07-.08.18.18 0 0 0-.11 0h-.29zm1.19-.71h.3v1.66h-.3zm.45 1.88h.16a.26.26 0 0 0 .1-.08.26.26 0 0 0 0-.1.82.82 0 0 0 0-.14v-.8h.3V34h.28v.08h-.32a.7.7 0 0 1-.06.19.43.43 0 0 1-.11.14.59.59 0 0 1-.17.09l-.23.06z"/><path d="M46.88 34.55a.16.16 0 0 1 0-.06H47a.15.15 0 0 1 0 .06.14.14 0 0 1 0 .06.16.16 0 0 1 0-.06m-.22-1.29h.34a.49.49 0 0 1 .18 0 .4.4 0 0 1 .13.08.38.38 0 0 1 .09.13.55.55 0 0 1 0 .16v.14a.89.89 0 0 0 0 .12.29.29 0 0 0 0 .08h.16v.08h-1.27v-.08h.81v-.07a.63.63 0 0 1 0-.09v-.13a.55.55 0 0 0 0-.12.23.23 0 0 0-.07-.08.19.19 0 0 0-.12 0h-.28z"/><path d="M47.68 34.22h-.08v-.08h.4v-1.58h.3v1.66zM34.47 18.24a.42.42 0 0 1-.13.18.58.58 0 0 1-.21.1 1.1 1.1 0 0 1-.27 0h-.21l-.22-.06-.19-.08-.12-.08a2.54 2.54 0 0 1 .11-.39 1.79 1.79 0 0 1 .17-.34.91.91 0 0 1 .22-.24.45.45 0 0 1 .27-.09.5.5 0 0 1 .27.07.67.67 0 0 1 .2.18.82.82 0 0 1 .12.23.78.78 0 0 1 0 .23.7.7 0 0 1 0 .27m.65-.89a1.54 1.54 0 0 0-.18-.29 1.21 1.21 0 0 0-.26-.24 1.31 1.31 0 0 0-.34-.16 1.35 1.35 0 0 0-.41-.06 1.31 1.31 0 0 0-.36.06 1.16 1.16 0 0 0-.4.22 1.9 1.9 0 0 0-.4.48 3.39 3.39 0 0 0-.34.81.46.46 0 0 1-.17.25.45.45 0 0 1-.27.08h-2a2.11 2.11 0 0 1-.36 0 1.61 1.61 0 0 1-.31-.09V16.7H29c-.33 0-.45.14-.45.51v1.1a.34.34 0 0 1-.07.14.24.24 0 0 1-.12.07h-3.48V16.7h-.32c-.33 0-.45.14-.45.51v1.56a1.9 1.9 0 0 1 0 .38.66.66 0 0 1-.12.28.71.71 0 0 1-.26.2 1.89 1.89 0 0 1-.43.13l.1.68a3.06 3.06 0 0 0 .6-.15 1.54 1.54 0 0 0 .44-.25 1.17 1.17 0 0 0 .3-.37 1.67 1.67 0 0 0 .16-.51h3.58a1 1 0 0 0 .39-.07.74.74 0 0 0 .27-.18 1.46 1.46 0 0 0 .38.18 1.71 1.71 0 0 0 .52.07h2.11a.91.91 0 0 0 .79-.38l.19.15a1.29 1.29 0 0 0 .24.13 1.55 1.55 0 0 0 .31.1 1.82 1.82 0 0 0 .39 0 1.32 1.32 0 0 0 .54-.1 1.18 1.18 0 0 0 .4-.27 1.21 1.21 0 0 0 .24-.39 1.31 1.31 0 0 0 .08-.46 1.51 1.51 0 0 0-.14-.63m4.22-2.59c-.33 0-.45.14-.45.51v3.27h-.8v-2.68h-.32c-.33 0-.45.15-.45.51v2.2h-1.47v.67h3.78v-4.39zm-9.73 5a.38.38 0 0 0-.28-.12.37.37 0 0 0-.15 0 .4.4 0 0 0-.21.21.39.39 0 0 0 0 .15.39.39 0 0 0 .11.28.41.41 0 0 0 .13.08.39.39 0 0 0 .15 0 .4.4 0 0 0 .16 0 .42.42 0 0 0 .12-.08.43.43 0 0 0 .09-.12.41.41 0 0 0 0-.15.4.4 0 0 0 0-.15.41.41 0 0 0-.09-.12m21.02-2.3a2.18 2.18 0 0 0-.3-.33c-.12-.11-.26-.22-.42-.34l.76-1.26c.17-.28.14-.45-.11-.6l-.25-.15L49 17l.3.18.2.13a3.31 3.31 0 0 1 .37.29 1.3 1.3 0 0 1 .23.28.5.5 0 0 1 .08.26.47.47 0 0 1 0 .16.27.27 0 0 1-.09.12.5.5 0 0 1-.19.08 1.31 1.31 0 0 1-.3 0h-4.45v-1.8h-.32c-.33 0-.45.15-.45.51v1.61a1.91 1.91 0 0 1 0 .38.68.68 0 0 1-.12.28.58.58 0 0 1-.13.12.8.8 0 0 1-.62 0 .83.83 0 0 0 .06.54c.14.29.32.27.63.2h.07a1.53 1.53 0 0 0 .44-.25 1.15 1.15 0 0 0 .3-.37 1.7 1.7 0 0 0 .16-.51h4.59a1.83 1.83 0 0 0 .59-.08 1.09 1.09 0 0 0 .4-.23.86.86 0 0 0 .23-.33 1.15 1.15 0 0 0 .07-.41 1.18 1.18 0 0 0-.06-.37 1.29 1.29 0 0 0-.18-.34M41 14.76c-.33 0-.45.14-.45.51v3.91h.8v-4.37zm16.62 3.47a.44.44 0 0 1-.13.18.58.58 0 0 1-.21.1 1.1 1.1 0 0 1-.27 0h-.21l-.22-.06-.19-.08-.12-.08a2.55 2.55 0 0 1 .11-.39 1.72 1.72 0 0 1 .17-.34.9.9 0 0 1 .22-.24.45.45 0 0 1 .27-.09.51.51 0 0 1 .27.07.68.68 0 0 1 .2.18.77.77 0 0 1 .12.23.75.75 0 0 1 0 .23.7.7 0 0 1 0 .27m.75-.57a1.5 1.5 0 0 0-.11-.31 1.46 1.46 0 0 0-.18-.29 1.25 1.25 0 0 0-.26-.24 1.33 1.33 0 0 0-.34-.16 1.35 1.35 0 0 0-.41-.06 1.32 1.32 0 0 0-.36.06 1.16 1.16 0 0 0-.4.22 1.92 1.92 0 0 0-.4.48 3.38 3.38 0 0 0-.34.81.46.46 0 0 1-.17.25.45.45 0 0 1-.26.08h-2.28V16.7h-.32c-.33 0-.45.15-.45.51v1.61a1.91 1.91 0 0 1 0 .38.65.65 0 0 1-.12.28.63.63 0 0 1-.18.15.82.82 0 0 1-.56 0 .84.84 0 0 0 .06.54c.14.3.33.27.65.2a1.51 1.51 0 0 0 .44-.25 1.16 1.16 0 0 0 .3-.37 1.7 1.7 0 0 0 .16-.51h2.43a.91.91 0 0 0 .79-.38l.19.15a1.28 1.28 0 0 0 .24.13 1.53 1.53 0 0 0 .31.1 1.82 1.82 0 0 0 .39 0 1.33 1.33 0 0 0 .54-.1 1.17 1.17 0 0 0 .39-.27 1.21 1.21 0 0 0 .24-.39 1.3 1.3 0 0 0 .08-.46 1.49 1.49 0 0 0 0-.31m-37.63-2.9c-.33 0-.45.14-.45.51v3.9h.81v-4.41zm7.93 5a.39.39 0 0 0-.43-.08.37.37 0 0 0-.12.08.4.4 0 0 0-.12.28.38.38 0 0 0 0 .15.39.39 0 0 0 .08.12.4.4 0 0 0 .12.08.39.39 0 0 0 .15 0 .4.4 0 0 0 .15 0 .42.42 0 0 0 .12-.08.41.41 0 0 0 .08-.12.38.38 0 0 0 0-.15.37.37 0 0 0 0-.15.39.39 0 0 0-.08-.12M3 21a.4.4 0 0 0-.12-.08.38.38 0 0 0-.15 0 .38.38 0 0 0-.15 0 .4.4 0 0 0-.12.08.39.39 0 0 0-.08.13.37.37 0 0 0 0 .15.37.37 0 0 0 0 .15.4.4 0 0 0 .08.12.4.4 0 0 0 .28.12.4.4 0 0 0 .15 0 .39.39 0 0 0 .11-.12.45.45 0 0 0 .09-.12.41.41 0 0 0 0-.15.4.4 0 0 0 0-.15A.42.42 0 0 0 3 21m-.92 0a.4.4 0 0 0-.12-.08.4.4 0 0 0-.31 0 .38.38 0 0 0-.12.08.4.4 0 0 0-.08.13.39.39 0 0 0 0 .15.39.39 0 0 0 0 .15.42.42 0 0 0 .08.12.38.38 0 0 0 .12.08.39.39 0 0 0 .43-.08.44.44 0 0 0 .08-.12.37.37 0 0 0 0-.15.37.37 0 0 0 0-.15.42.42 0 0 0-.1-.13m8.56-1.22a.38.38 0 0 0-.28-.12.39.39 0 0 0-.39.39.38.38 0 0 0 0 .15.39.39 0 0 0 .08.12.41.41 0 0 0 .13.08.39.39 0 0 0 .15 0 .39.39 0 0 0 .15 0 .41.41 0 0 0 .21-.21.4.4 0 0 0 0-.15.38.38 0 0 0-.12-.28m33.83-4a.38.38 0 0 0 .13.08.39.39 0 0 0 .31 0 .39.39 0 0 0 .13-.08.38.38 0 0 0 .08-.12.4.4 0 0 0 0-.31.39.39 0 0 0-.08-.12.42.42 0 0 0-.12-.08.4.4 0 0 0-.31 0 .41.41 0 0 0-.12.08.38.38 0 0 0-.11.28.39.39 0 0 0 0 .15.38.38 0 0 0 .08.12m-6.17-.62h-.1a.42.42 0 0 1-.28-.08.24.24 0 0 1-.09-.18.16.16 0 0 1 .06-.15.28.28 0 0 1 .16 0h.26l.06-.38h-.34a.86.86 0 0 0-.28 0 .54.54 0 0 0-.19.11.42.42 0 0 0-.11.16.47.47 0 0 0 0 .18.43.43 0 0 0 0 .19.73.73 0 0 0 .09.15h-.3v.37h1.14zM15.92 18.5h-2.15A2.84 2.84 0 0 1 14 18a2.45 2.45 0 0 1 .34-.45 1.66 1.66 0 0 1 .4-.31.87.87 0 0 1 .42-.11.83.83 0 0 1 .29 0 .55.55 0 0 1 .23.17.85.85 0 0 1 .16.31 1.65 1.65 0 0 1 .06.48zm3.59-3.69h-.32c-.33 0-.45.14-.45.51v3.18h-2V18a2.27 2.27 0 0 0-.08-.63 1.42 1.42 0 0 0-.25-.51 1.2 1.2 0 0 0-.43-.34 1.43 1.43 0 0 0-.61-.12 1.69 1.69 0 0 0-.7.14 2.38 2.38 0 0 0-.57.36v-2.09h-.4c-.33 0-.45.14-.45.51v2.67l-.15.29c0 .09-.08.18-.12.27h-1.57a2.11 2.11 0 0 1-.36 0 1.53 1.53 0 0 1-.3-.08V16.7h-.32c-.33 0-.45.14-.45.51v.89a.93.93 0 0 1 0 .22.3.3 0 0 1-.07.14.24.24 0 0 1-.12.07H5.97a.15.15 0 0 1-.09-.07.41.41 0 0 1 0-.16 2 2 0 0 1 0-.27v-1.38H4.87a1.49 1.49 0 0 0-1.06.35 1.28 1.28 0 0 0-.34 1v1a.66.66 0 0 1-.08.32.85.85 0 0 1-.24.27 1.31 1.31 0 0 1-.39.19 1.7 1.7 0 0 1-.51.07 2.38 2.38 0 0 1-.52-.05 1.49 1.49 0 0 1-.37-.14.9.9 0 0 1-.26-.19 1 1 0 0 1-.16-.23.86.86 0 0 1-.08-.24 1.17 1.17 0 0 1 0-.22 1.38 1.38 0 0 1 0-.23 1.9 1.9 0 0 1 .05-.24 1.49 1.49 0 0 1 .09-.23 1.17 1.17 0 0 1 .11-.19l-.63-.34a2 2 0 0 0-.18.27 2 2 0 0 0-.14.31 2.38 2.38 0 0 0-.09.34 1.92 1.92 0 0 0 0 .35 1.6 1.6 0 0 0 0 .32 1.57 1.57 0 0 0 .13.37 1.75 1.75 0 0 0 .26.37 1.6 1.6 0 0 0 .41.33 2.24 2.24 0 0 0 .58.23 3.19 3.19 0 0 0 .79.09 2.46 2.46 0 0 0 .85-.14 2 2 0 0 0 .64-.39 1.55 1.55 0 0 0 .4-.51 1.35 1.35 0 0 0 .14-.59V18a1.13 1.13 0 0 1 .05-.37.49.49 0 0 1 .15-.22.51.51 0 0 1 .23-.1 1.67 1.67 0 0 1 .31 0v.92a1.1 1.1 0 0 0 .08.44.84.84 0 0 0 .21.3.81.81 0 0 0 .3.17 1.13 1.13 0 0 0 .34.05h3.9a1 1 0 0 0 .39-.07.74.74 0 0 0 .27-.18 1.46 1.46 0 0 0 .38.18 1.71 1.71 0 0 0 .52.07h8.11v-3.61zm17.21 12.25a.87.87 0 0 1-.59.28.34.34 0 0 1-.35-.37.44.44 0 0 1 .49-.47h.45zm.82-1.32a1 1 0 0 0-1.07-1.06 4 4 0 0 0-1.38.28 1.07 1.07 0 0 0 .21.58 3.14 3.14 0 0 1 1-.22.41.41 0 0 1 .46.48v.2h-.53c-.7 0-1.23.28-1.23 1a.91.91 0 0 0 .94.94 1.3 1.3 0 0 0 .93-.4.75.75 0 0 0 .6.36.88.88 0 0 0 .28-.43.54.54 0 0 1-.18-.46zm1.91 1.53c-.19 0-.27-.1-.27-.29v-3.22c0-.37-.11-.51-.45-.51h-.31v3.85c0 .52.21.77.7.77a4.4 4.4 0 0 0 .61-.06.79.79 0 0 0 0-.18 1.13 1.13 0 0 0-.07-.4zM28.63 27a.72.72 0 0 1-.57.31c-.26 0-.47-.27-.47-.94s.2-1 .53-1a1 1 0 0 1 .51.18zm.8-3.22c0-.37-.11-.51-.44-.51h-.32v1.57a1.44 1.44 0 0 0-.64-.17c-.65 0-1.23.56-1.23 1.66 0 .95.36 1.61 1.11 1.61a1.2 1.2 0 0 0 .89-.41.7.7 0 0 0 .59.37.83.83 0 0 0 .27-.43.68.68 0 0 1-.18-.52zm3.87 1.53c.39 0 .46.32.46.77a1.32 1.32 0 0 0 .33 0 .38.38 0 0 0 .41-.42 1.06 1.06 0 0 0-1.18-1c-.68 0-1.36.47-1.36 1.66 0 .94.43 1.63 1.34 1.63a1.7 1.7 0 0 0 1.17-.47.88.88 0 0 0-.32-.47 1.3 1.3 0 0 1-.73.29c-.4 0-.62-.27-.62-1s.16-1 .5-1m9.36 0c.39 0 .46.32.46.77a1.31 1.31 0 0 0 .33 0 .38.38 0 0 0 .41-.42 1.06 1.06 0 0 0-1.18-1c-.68 0-1.36.47-1.36 1.66 0 .94.43 1.63 1.34 1.63a1.7 1.7 0 0 0 1.17-.47.88.88 0 0 0-.32-.47 1.3 1.3 0 0 1-.73.29c-.4 0-.62-.27-.62-1s.16-1 .5-1m3.57.72h-1c0-.48.19-.74.53-.74s.51.3.51.67zm-.51-1.33c-.94 0-1.36.72-1.36 1.66s.3 1.66 1.35 1.66a2.14 2.14 0 0 0 1.21-.36 1 1 0 0 0-.23-.5 2.07 2.07 0 0 1-.85.21c-.48 0-.62-.31-.64-.74h1.73A2 2 0 0 0 47 26a1.23 1.23 0 0 0-1.28-1.33M25.44 26h-1c0-.48.19-.74.53-.74s.51.3.51.67zm-.51-1.33c-.94 0-1.36.72-1.36 1.66S23.86 28 24.92 28a2.14 2.14 0 0 0 1.21-.36 1 1 0 0 0-.23-.5 2.08 2.08 0 0 1-.85.21c-.48 0-.61-.31-.64-.74h1.73a2 2 0 0 0 .07-.58 1.23 1.23 0 0 0-1.28-1.33M55.15 26h-1c0-.48.19-.74.53-.74s.51.3.51.67zm-.51-1.33c-.94 0-1.36.72-1.36 1.66S53.57 28 54.63 28a2.14 2.14 0 0 0 1.21-.36 1 1 0 0 0-.23-.5 2.07 2.07 0 0 1-.85.21c-.48 0-.62-.31-.64-.74h1.73a2 2 0 0 0 .07-.58 1.23 1.23 0 0 0-1.28-1.33m3.47 0a.83.83 0 0 0-.8.56.82.82 0 0 0-.7-.57.85.85 0 0 0-.26.43.85.85 0 0 1 .23.65v2.09a2.88 2.88 0 0 0 .41 0 2.82 2.82 0 0 0 .41 0v-2a.66.66 0 0 1 .59-.39 1.13 1.13 0 0 1 .29 0 1.67 1.67 0 0 0 .2-.77 1.35 1.35 0 0 0-.38 0m-7.79 1.06c0-.62-.28-1.08-.85-1.08a1.46 1.46 0 0 0-.94.4.41.41 0 0 0-.44-.38h-.31v3.11a2.83 2.83 0 0 0 .41 0 2.74 2.74 0 0 0 .41 0v-2.07a.92.92 0 0 1 .62-.3c.26 0 .33.16.33.51v1.46c0 .33.11.51.44.51a.82.82 0 0 0 .51-.18 1.1 1.1 0 0 1-.13-.6zm1.81-1v-.92h-.32c-.33 0-.45.14-.45.5v.45h-.48a1.13 1.13 0 0 0 0 .29 1.17 1.17 0 0 0 0 .3h.48v1.8a.67.67 0 0 0 .76.77 5.88 5.88 0 0 0 .75-.06.62.62 0 0 0 0-.18 1.36 1.36 0 0 0-.06-.4h-.39c-.19 0-.27-.11-.27-.29v-1.69h.76a1.22 1.22 0 0 0 0-.3 1.19 1.19 0 0 0 0-.29zm-21.46 0h-.59a1.2 1.2 0 0 0 0 .3 1.08 1.08 0 0 0 0 .28h.08c.21 0 .28.13.28.34v2.19a2.9 2.9 0 0 0 .41 0 2.74 2.74 0 0 0 .41 0v-2.48a.59.59 0 0 0-.6-.66m-20.25 1c0-.62-.28-1.08-.86-1.08a1.45 1.45 0 0 0-.94.4.42.42 0 0 0-.44-.38h-.29v3.11a2.79 2.79 0 0 0 .41 0 2.71 2.71 0 0 0 .41 0v-2.04a.93.93 0 0 1 .62-.3c.26 0 .33.16.33.51v1.46c0 .33.11.51.44.51a.83.83 0 0 0 .51-.18 1.09 1.09 0 0 1-.13-.6zm-6.23-.5a.82.82 0 0 0-.7-.57.84.84 0 0 0-.27.43.85.85 0 0 1 .23.65v2.09a2.87 2.87 0 0 0 .41 0 2.82 2.82 0 0 0 .42 0v-2a.67.67 0 0 1 .59-.39 1.12 1.12 0 0 1 .29 0 1.67 1.67 0 0 0 .2-.77 1.36 1.36 0 0 0-.38 0 .83.83 0 0 0-.8.56m26.54-1a.94.94 0 0 0 .41-.09.84.84 0 0 0 .06-.33.87.87 0 0 0-.06-.33 1 1 0 0 0-.41-.08 1 1 0 0 0-.41.08.88.88 0 0 0 0 .65.93.93 0 0 0 .41.09m-29.37 3a1 1 0 0 1-.51-.18v-1.38a.73.73 0 0 1 .57-.33c.26 0 .47.28.47.94s-.2 1-.53 1m.26-2.63a1.2 1.2 0 0 0-.82.36.48.48 0 0 0-.46-.31H.08v4.42H.4c.33 0 .45-.14.45-.51v-1a1.36 1.36 0 0 0 .65.17c.65 0 1.23-.55 1.23-1.65 0-.95-.37-1.61-1.11-1.61m10.82.62c.39 0 .47.32.46.77a1.32 1.32 0 0 0 .33 0 .38.38 0 0 0 .41-.42 1.06 1.06 0 0 0-1.18-1c-.68 0-1.36.47-1.36 1.66 0 .94.43 1.63 1.34 1.63a1.7 1.7 0 0 0 1.18-.47.87.87 0 0 0-.32-.47 1.3 1.3 0 0 1-.73.29c-.4 0-.62-.27-.62-1s.16-1 .5-1m-6-1a1 1 0 0 0 .41-.09.86.86 0 0 0 .06-.33.88.88 0 0 0-.06-.33 1 1 0 0 0-.41-.08 1 1 0 0 0-.41.08.89.89 0 0 0 0 .65 1 1 0 0 0 .41.09m-.06.44h-.61a1.15 1.15 0 0 0 0 .3 1 1 0 0 0 0 .28h.08c.21 0 .28.13.28.34v2.19a2.92 2.92 0 0 0 .42 0 2.74 2.74 0 0 0 .41 0v-2.27a.59.59 0 0 0-.6-.66m16.52 1c0-.56-.27-1-.82-1a1.51 1.51 0 0 0-1 .45.77.77 0 0 0-.73-.45 1.33 1.33 0 0 0-.87.41.43.43 0 0 0-.45-.39h-.31v3.11a2.83 2.83 0 0 0 .41 0 2.72 2.72 0 0 0 .41 0v-2.13a.88.88 0 0 1 .55-.3c.19 0 .33.13.33.51v1.93a2.81 2.81 0 0 0 .41 0 2.71 2.71 0 0 0 .41 0v-2.13a.85.85 0 0 1 .54-.3c.19 0 .33.12.33.5v1.47c0 .33.11.51.44.51a.84.84 0 0 0 .51-.18 1.09 1.09 0 0 1-.13-.6zM16 26h-1c0-.48.19-.74.53-.74s.52.3.52.67zm-.52-1.33c-.94 0-1.36.72-1.36 1.66S14.43 28 15.49 28a2.13 2.13 0 0 0 1.21-.36 1 1 0 0 0-.23-.5 2.08 2.08 0 0 1-.85.21c-.48 0-.62-.31-.64-.74h1.73a2 2 0 0 0 .07-.58 1.23 1.23 0 0 0-1.28-1.33"/><path class="cls-9" d="M2.64 40.1a1.1 1.1 0 0 0 .13.61.85.85 0 0 1-.53.18c-.34 0-.45-.18-.45-.52v-1.5c0-.36-.07-.52-.33-.52a1 1 0 0 0-.64.31v2.19a2.66 2.66 0 0 1-.41 0 2.71 2.71 0 0 1-.41 0v-4.7h.37c.33 0 .45.15.45.52V38a1.43 1.43 0 0 1 .94-.39c.59 0 .88.47.88 1.1zm2.1.2c.47 0 .57-.49.57-1.05s-.1-1.06-.57-1.06-.58.49-.58 1.06.1 1.05.58 1.05m1 .27a1.36 1.36 0 0 1-1 .37 1.35 1.35 0 0 1-1-.37 2.15 2.15 0 0 1 0-2.65 1.38 1.38 0 0 1 1-.36 1.39 1.39 0 0 1 1 .36 2.15 2.15 0 0 1 0 2.65m2.53-2.22a.91.91 0 0 0-.56.3v2.2a2.74 2.74 0 0 1-.42 0 2.8 2.8 0 0 1-.42 0v-3.19h.32a.44.44 0 0 1 .46.4 1.36 1.36 0 0 1 .9-.42.78.78 0 0 1 .75.46 1.57 1.57 0 0 1 1-.46c.57 0 .85.44.85 1v1.5a1.13 1.13 0 0 0 .13.61.87.87 0 0 1-.53.18c-.33 0-.45-.18-.45-.52v-1.54c0-.39-.15-.52-.34-.52a.88.88 0 0 0-.55.31v2.19a2.74 2.74 0 0 1-.42 0 2.8 2.8 0 0 1-.42 0v-2c0-.39-.14-.52-.33-.52m4.45.6h1.07v-.08c0-.37-.15-.68-.53-.68s-.51.27-.54.76m0 .59c0 .44.17.76.66.76a2.12 2.12 0 0 0 .87-.22 1 1 0 0 1 .24.51 2.19 2.19 0 0 1-1.24.37c-1.08 0-1.39-.81-1.39-1.68s.43-1.7 1.39-1.7a1.26 1.26 0 0 1 1.32 1.37 2.06 2.06 0 0 1-.07.59zm5.16-1.33c-.35 0-.52.34-.52 1.07s.23 1 .64 1a1.34 1.34 0 0 0 .75-.3.9.9 0 0 1 .33.48 1.75 1.75 0 0 1-1.21.48c-.93 0-1.37-.72-1.37-1.68 0-1.23.7-1.7 1.4-1.7a1.09 1.09 0 0 1 1.21 1 .39.39 0 0 1-.42.43 1.4 1.4 0 0 1-.34 0c0-.46-.07-.79-.47-.79M21.32 40v-.56h-.46a.45.45 0 0 0-.5.48.35.35 0 0 0 .36.38.89.89 0 0 0 .61-.28m.74.88a.76.76 0 0 1-.61-.37 1.34 1.34 0 0 1-1 .41.94.94 0 0 1-1-1c0-.75.58-1.09 1.26-1.09h.54v-.17c0-.33-.16-.49-.48-.49a3.24 3.24 0 0 0-1 .23 1.13 1.13 0 0 1-.22-.6 4.11 4.11 0 0 1 1.41-.29 1 1 0 0 1 1.1 1.09V40a.55.55 0 0 0 .18.48.9.9 0 0 1-.28.44m1.14-3.32a.84.84 0 0 1 .72.58.85.85 0 0 1 .82-.57 1.38 1.38 0 0 1 .39 0 1.71 1.71 0 0 1-.21.79 1.17 1.17 0 0 0-.3 0 .68.68 0 0 0-.61.4v2.06a2.84 2.84 0 0 1-.43 0 2.88 2.88 0 0 1-.42 0v-2.15a.87.87 0 0 0-.24-.66.87.87 0 0 1 .27-.44m2.9 1.32h1.1v-.08c0-.37-.15-.68-.53-.68s-.52.27-.54.76m0 .59c0 .44.17.76.66.76a2.12 2.12 0 0 0 .87-.22 1 1 0 0 1 .24.51 2.19 2.19 0 0 1-1.24.37c-1.08 0-1.39-.81-1.39-1.68s.43-1.7 1.39-1.7a1.26 1.26 0 0 1 1.32 1.37 2.1 2.1 0 0 1-.07.59z"/><path stroke="#006b37" stroke-miterlimit="10" stroke-width=".3" fill="none" d="M29.21 36.16V41"/><path class="cls-9" d="M32.12 37a.35.35 0 0 1 0-.14.34.34 0 0 1 .08-.11.36.36 0 0 1 .11-.08h.27a.36.36 0 0 1 .11.08.39.39 0 0 1 .07.11.36.36 0 0 1 0 .27.38.38 0 0 1-.07.11l-.11.07h-.27l-.11-.07a.34.34 0 0 1-.08-.11.35.35 0 0 1 0-.14M32 38.56l-.24.08-.18.09a.42.42 0 0 0-.12.11.24.24 0 0 0 0 .13.16.16 0 0 0 .07.14.31.31 0 0 0 .19.05h.16l.12-.06zM31.28 37a.36.36 0 0 1 .1-.25.36.36 0 0 1 .11-.08h.27a.36.36 0 0 1 .11.08.36.36 0 0 1 .08.11.35.35 0 0 1 0 .27.35.35 0 0 1-.08.11l-.11.07h-.27l-.11-.07a.36.36 0 0 1-.1-.25m1.47 2.09a.53.53 0 0 0 0 .08h.46a.16.16 0 0 1 0 .07v.22a.87.87 0 0 1 0 .13.18.18 0 0 1 0 .07h-.91l-.13-.07a.38.38 0 0 1-.09-.1l-.25.07h-.24a1.27 1.27 0 0 1-.32 0 .93.93 0 0 1-.29-.13.69.69 0 0 1-.21-.23.64.64 0 0 1-.08-.33.68.68 0 0 1 .06-.29.87.87 0 0 1 .16-.23 1.15 1.15 0 0 1 .23-.19l.27-.14.29-.11.3.1v-.24h.73z"/><path class="cls-9" d="M34 40.62a.37.37 0 0 1 0-.14.4.4 0 0 1 .07-.11.35.35 0 0 1 .11-.08.33.33 0 0 1 .13 0h.13l.11.08a.4.4 0 0 1 .07.11.33.33 0 0 1 0 .14.33.33 0 0 1 0 .14.38.38 0 0 1-.07.11l-.11.08h-.13a.33.33 0 0 1-.13 0 .37.37 0 0 1-.11-.08.38.38 0 0 1-.07-.11.36.36 0 0 1 0-.14m-.84 0a.35.35 0 0 1 0-.14.37.37 0 0 1 .08-.11.34.34 0 0 1 .11-.08h.14a.33.33 0 0 1 .13 0 .36.36 0 0 1 .11.08.36.36 0 0 1 .07.11.33.33 0 0 1 0 .14.33.33 0 0 1 0 .14.35.35 0 0 1-.07.11l-.11.08a.33.33 0 0 1-.13 0h-.14a.37.37 0 0 1-.18-.19.34.34 0 0 1 0-.14m1.21-1.5a.78.78 0 0 0 .24.09h.33a.19.19 0 0 1 0 .07v.22a1.07 1.07 0 0 1 0 .13.19.19 0 0 1 0 .07h-.08a.83.83 0 0 1-.32-.06 1 1 0 0 1-.3-.18.59.59 0 0 1-.22.18.79.79 0 0 1-.35.07h-.54a.21.21 0 0 1 0-.07 1 1 0 0 1 0-.13v-.22a.21.21 0 0 1 0-.07h.36a.15.15 0 0 0 .12 0 .25.25 0 0 0 0-.15v-1h.74z"/><path class="cls-9" d="M34.85 39.86h-.07a.2.2 0 0 1 0-.07.89.89 0 0 1 0-.13v-.22a.19.19 0 0 1 0-.07h.49v-2.45H36v2.94zm1.97-2.71a.32.32 0 0 1 0-.14.39.39 0 0 1 .07-.11.36.36 0 0 1 .11-.08.31.31 0 0 1 .13 0 .33.33 0 0 1 .14 0 .35.35 0 0 1 .11.08.4.4 0 0 1 .08.11.36.36 0 0 1 0 .14.37.37 0 0 1 0 .14.38.38 0 0 1-.08.11.36.36 0 0 1-.11.07.33.33 0 0 1-.14 0 .32.32 0 0 1-.13 0 .36.36 0 0 1-.11-.07.37.37 0 0 1-.07-.11.33.33 0 0 1 0-.14m-.52 3a.82.82 0 0 0 .28-.1.43.43 0 0 0 .15-.15.48.48 0 0 0 .06-.19 2.21 2.21 0 0 0 0-.22v-1.42h.73v1.21H38a.19.19 0 0 1 0 .07v.22a.9.9 0 0 1 0 .13.23.23 0 0 1 0 .07h-.55a1.31 1.31 0 0 1-.11.35.91.91 0 0 1-.21.27 1.12 1.12 0 0 1-.32.2 1.94 1.94 0 0 1-.44.12z"/><path class="cls-9" d="M38.45 37.15a.37.37 0 0 1 0-.14.39.39 0 0 1 .08-.11.35.35 0 0 1 .11-.08.33.33 0 0 1 .27 0 .35.35 0 0 1 .11.08.37.37 0 0 1 .07.11.33.33 0 0 1 0 .14.34.34 0 0 1 0 .14.35.35 0 0 1-.07.11l-.11.07a.33.33 0 0 1-.13 0h-.13a.35.35 0 0 1-.21-.32m.7 2a.79.79 0 0 0 .24.09h.33a.19.19 0 0 1 0 .07v.22a.88.88 0 0 1 0 .13.19.19 0 0 1 0 .07h-.08a.83.83 0 0 1-.32-.06 1 1 0 0 1-.3-.18.58.58 0 0 1-.22.18.79.79 0 0 1-.35.07h-.54a.21.21 0 0 1 0-.07 1 1 0 0 1 0-.13v-.22a.21.21 0 0 1 0-.07h.36a.15.15 0 0 0 .12 0 .25.25 0 0 0 0-.15v-1h.74z"/><path class="cls-9" d="M41.44 39a.37.37 0 0 0 0-.13.32.32 0 0 0-.17-.18.35.35 0 0 0-.14 0 .38.38 0 0 0-.28.13 1 1 0 0 0-.21.41l.1.05h.5l.12-.06a.28.28 0 0 0 .08-.1.39.39 0 0 0 0-.15m-1.13.67a.76.76 0 0 1-.23.17.73.73 0 0 1-.3.06h-.21a.2.2 0 0 1 0-.07 1.05 1.05 0 0 1 0-.13v-.22a.2.2 0 0 1 0-.07h.36v-.15a1.84 1.84 0 0 1 .24-.5 1.41 1.41 0 0 1 .3-.32 1 1 0 0 1 .31-.17 1 1 0 0 1 .28 0 1.06 1.06 0 0 1 .3 0 .92.92 0 0 1 .44.28 1 1 0 0 1 .21.42 1 1 0 0 1 0 .22.9.9 0 0 1 0 .2.81.81 0 0 0 .23.08h.32a.2.2 0 0 1 0 .07v.22a.86.86 0 0 1 0 .13.18.18 0 0 1 0 .07h-.25l-.17-.06-.14-.17-.15-.12a.9.9 0 0 1-.3.22 1 1 0 0 1-.44.08h-.26l-.22-.06-.19-.08-.15-.09z"/><path class="cls-9" d="M42.54 39.86h-.07a.22.22 0 0 1 0-.07 1.05 1.05 0 0 1 0-.13v-.22a.21.21 0 0 1 0-.07H43v-2.45h.74v2.94zm1.77-2.94h.73v2.94h-.73zm3.47.08a.33.33 0 0 1 0-.14.34.34 0 0 1 .08-.11.35.35 0 0 1 .11-.08h.27a.36.36 0 0 1 .11.08.35.35 0 0 1 .07.11.35.35 0 0 1 0 .27.35.35 0 0 1-.07.11l-.11.07h-.27l-.11-.07a.33.33 0 0 1-.08-.11.33.33 0 0 1 0-.14m-.1 1.52l-.24.08-.18.09a.41.41 0 0 0-.12.11.24.24 0 0 0 0 .13.16.16 0 0 0 .07.14.31.31 0 0 0 .19.05h.16l.15-.05zM46.94 37a.33.33 0 0 1 0-.14.37.37 0 0 1 .07-.11l.11-.08h.28l.11.08a.37.37 0 0 1 .07.11.34.34 0 0 1 0 .27.36.36 0 0 1-.07.11l-.11.07h-.28l-.12-.02a.36.36 0 0 1-.07-.11.33.33 0 0 1 0-.14m1.47 2.09a.53.53 0 0 0 0 .08h.46a.18.18 0 0 1 0 .07v.22a1.06 1.06 0 0 1 0 .13.18.18 0 0 1 0 .07h-.91l-.13-.07a.38.38 0 0 1-.09-.1l-.25.07h-.24a1.27 1.27 0 0 1-.32 0 .93.93 0 0 1-.29-.13.67.67 0 0 1-.21-.23.62.62 0 0 1-.08-.33.68.68 0 0 1 .06-.29.9.9 0 0 1 .16-.23 1.15 1.15 0 0 1 .23-.19l.27-.14.29-.11.28-.08v-.24h.73z"/><path class="cls-9" d="M49.8 40.62a.36.36 0 0 1 0-.14.39.39 0 0 1 .08-.11.36.36 0 0 1 .12-.07.34.34 0 0 1 .14 0 .33.33 0 0 1 .13 0 .34.34 0 0 1 .11.08.35.35 0 0 1 .07.11.35.35 0 0 1 0 .27.34.34 0 0 1-.07.11.36.36 0 0 1-.11.07H50l-.11-.07a.38.38 0 0 1-.08-.11.36.36 0 0 1 0-.14m-.84 0a.33.33 0 0 1 0-.14.32.32 0 0 1 .07-.11.34.34 0 0 1 .11-.08h.27l.11.08a.35.35 0 0 1 .07.11.33.33 0 0 1 0 .27.33.33 0 0 1-.07.11l-.11.07h-.27a.36.36 0 0 1-.11-.07.31.31 0 0 1-.07-.11.33.33 0 0 1 0-.14m-.12-.76h-.07a.22.22 0 0 1 0-.07 1.05 1.05 0 0 1 0-.13v-.22a.17.17 0 0 1 0-.07h.7v-1.29h.74v1.8zm1.97-2.93h.73V39a.32.32 0 0 0 .05.21.2.2 0 0 0 .17.06h.31a.18.18 0 0 1 0 .07v.22a.88.88 0 0 1 0 .13.18.18 0 0 1 0 .07h-.5a1 1 0 0 1-.34 0 .55.55 0 0 1-.37-.38 1.18 1.18 0 0 1 0-.32z"/><path class="cls-9" d="M54.1 39.28v.58h-2.16a.19.19 0 0 1 0-.07.88.88 0 0 1 0-.13v-.22a.19.19 0 0 1 0-.07h.45a1.85 1.85 0 0 1 0-.18 1 1 0 0 1 0-.17.93.93 0 0 1 .28-.67 1 1 0 0 1 .32-.21 1.06 1.06 0 0 1 .41-.08h.61l-.08.6h-.61a.3.3 0 0 0-.11.06.26.26 0 0 0-.07.1.35.35 0 0 0 0 .14.39.39 0 0 0 0 .15.33.33 0 0 0 .08.12.34.34 0 0 0 .12.08h.15zm.17.9a.83.83 0 0 0 .28-.1.44.44 0 0 0 .15-.15.47.47 0 0 0 .06-.19v-1.67h.73v1.21H56a.21.21 0 0 1 0 .07v.22a.88.88 0 0 1 0 .13.23.23 0 0 1 0 .07h-.55a1.28 1.28 0 0 1-.12.35.88.88 0 0 1-.21.27 1.12 1.12 0 0 1-.32.2 2 2 0 0 1-.44.12z"/><path class="cls-9" d="M55.95 39.86h-.06a.2.2 0 0 1 0-.07 1.06 1.06 0 0 1 0-.13v-.22a.17.17 0 0 1 0-.07h.49v-2.45h.74v2.94zm1.76-2.94h.73v2.94h-.73z"/></g></g></svg>