<svg xmlns="http://www.w3.org/2000/svg" viewBox="0 0 69.37 15.8"><g data-name="Layer 2"><path d="M17.9 0h2.19v12.98H17.9zM5.25 7.12c-.89-1-1.52-1.55-2.39-2.38a1.17 1.17 0 0 1-.4-1v-1.4a.39.39 0 0 1 .4-.34H3a.39.39 0 0 1 .29.37v2.31h2.39V2.37C5.68.65 4.32 0 2.83 0S0 .67 0 2.38v1.81a2.33 2.33 0 0 0 .34 1.3A23.8 23.8 0 0 0 2.9 8.13a1.26 1.26 0 0 1 .34.95v1.95a.37.37 0 0 1-.13.19L3 11.3h-.12a.39.39 0 0 1-.41-.3V8.13H0v2.74c0 1.72 1.36 2.35 2.85 2.35s2.86-.63 2.86-2.44V8.69a2 2 0 0 0-.47-1.57m6.24-.89V4.84A2.33 2.33 0 0 0 8.9 2.51a2.31 2.31 0 0 0-2.56 2.33v5.93A2.31 2.31 0 0 0 8.9 13.1a2.33 2.33 0 0 0 2.58-2.33V8.88H9.29V11a.37.37 0 0 1-.29.4h-.1a.3.3 0 0 1-.22-.09.37.37 0 0 1-.14-.31V4.58a.37.37 0 0 1 .74 0v1.65zm4.28-3.72a1.41 1.41 0 0 0-1.41 1h-.08V0h-2.2v13h2.19V4.77a.37.37 0 0 1 .24-.35h.14a.37.37 0 0 1 .37.37V13h2.19V4.78c0-1.19-.05-2.27-1.45-2.27m7.99.13v8.21a.37.37 0 0 1-.37.37h-.16a.38.38 0 0 1-.21-.34V2.64h-2.21v8.61c0 1.09.4 1.85 1.54 1.85a1.43 1.43 0 0 0 1.4-1.29v1.16h2.19V2.64zm9.52-.13c-.88 0-1.13.38-1.51 1.07a1.25 1.25 0 0 0-1.42-1.07c-.88 0-1.12.36-1.47 1.05v-.92h-2.22V13h2.19V4.78a.39.39 0 1 1 .78 0V13h2.19V4.78a.39.39 0 1 1 .78 0V13h2.19V4.44c0-.78-.14-1.92-1.52-1.92m5.81-.01a1.44 1.44 0 0 0-1.38 1V0h-2.22v13h2.19v-1.12a1.47 1.47 0 0 0 1.38 1.21c1.36 0 1.54-1.16 1.54-2.32v-6c0-1.16-.17-2.26-1.54-2.26m-.63 3.16v5.17a.38.38 0 0 1-.38.38.31.31 0 0 1-.18-.05.37.37 0 0 1-.18-.32V4.77a.38.38 0 0 1 .75 0zm7.98-.83a2.33 2.33 0 0 0-2.58-2.33 2.31 2.31 0 0 0-2.56 2.33v5.92a2.31 2.31 0 0 0 2.56 2.34 2.33 2.33 0 0 0 2.58-2.34V8.88h-2.19V11a.38.38 0 1 1-.75 0V8.15h2.95zm-2.19 1.77h-.76v-2a.38.38 0 0 1 .75 0v2zm6.65-4.1a1.63 1.63 0 0 0-1.55 1v-.87h-2.23V13h2.19V4.77a.38.38 0 0 1 .23-.35h.15a.38.38 0 0 1 .38.38v3.41h2.19V4.33c0-1.12-.28-1.81-1.36-1.81m12.8 2.32a2.58 2.58 0 0 0-5.14 0v5.92a2.58 2.58 0 0 0 5.14 0V8.88h-2.19V11a.38.38 0 0 1-.76 0V8.09h2.94zm-2.19.64v1.13h-.75v-2a.38.38 0 1 1 .75 0zM68 2.51a1.63 1.63 0 0 0-1.55 1v-.87h-2.22V13h2.19V4.77a.38.38 0 0 1 .75 0v3.44h2.19V4.33c0-1.12-.28-1.81-1.36-1.81m-12.28.12v1h-.08a1.73 1.73 0 0 0-1.48-1.09c-1 0-1.38.85-1.38 1.85v6.46a1.47 1.47 0 0 0 1.42 1.51 1.64 1.64 0 0 0 1.45-1h.08v2.48a.37.37 0 1 1-.75 0v-.94h-2.21v.57c0 1.7 1.05 2.34 2.58 2.34s2.56-.63 2.56-2.34V2.64zm0 7.53a.38.38 0 1 1-.75 0v-5.4a.38.38 0 1 1 .75 0v4.49z" fill="#1d3d81" data-name="Layer 1"/></g></svg>