<svg xmlns="http://www.w3.org/2000/svg" viewBox="0 0 81.18 21.63"><g data-name="Layer 2"><g data-name="Layer 1"><path d="M1.58 9.67V14l1.06.08c2 0 2.93-.78 2.93-2.33s-1-2.13-3.13-2.13a6.48 6.48 0 0 0-.86.08m0 5.71v4.45H0V8.26l2.16-.08q5 0 5 3.37 0 3.9-4.44 3.91c-.18 0-.57 0-1.17-.08m10-2.91a2.36 2.36 0 0 0-1.7.65 2.39 2.39 0 0 0-.73 1.54h4.71a2.15 2.15 0 0 0-.57-1.52 2.25 2.25 0 0 0-1.71-.67m3.65 3.27H9.09A3.07 3.07 0 0 0 9.9 18a2.54 2.54 0 0 0 1.85.7 3.19 3.19 0 0 0 2.16-.7l.64 1.08a2.83 2.83 0 0 1-1.07.59 5.63 5.63 0 0 1-2 .33 3.75 3.75 0 0 1-2.72-1.08A4.22 4.22 0 0 1 7.5 15.7a4.52 4.52 0 0 1 1.28-3.36 3.68 3.68 0 0 1 2.7-1.13 3.89 3.89 0 0 1 2.85 1 3.47 3.47 0 0 1 1 2.59 3.28 3.28 0 0 1-.12.91m2.16-3.12h-1v-1.2h1V9.62L18.86 9v2.34h2.34v1.19h-2.34v4.18a2.4 2.4 0 0 0 .36 1.51 1.38 1.38 0 0 0 1.16.46 2.75 2.75 0 0 0 1.19-.3l.22 1.32a8.45 8.45 0 0 1-2.13.24 2.11 2.11 0 0 1-1.23-.41 2.59 2.59 0 0 1-1.07-2.21zm10.39.22a1.73 1.73 0 0 0-1-.34 1.76 1.76 0 0 0-1.39.73 2.71 2.71 0 0 0-.6 1.77v4.87h-1.48v-8.45h1.49v1.32a2.62 2.62 0 0 1 2.44-1.5 7.19 7.19 0 0 1 1.16.14zm2.64 2.77q0 3.19 2.25 3.19a1.9 1.9 0 0 0 1.65-.86 4 4 0 0 0 .6-2.33q0-3.14-2.25-3.14a1.92 1.92 0 0 0-1.64.83 3.86 3.86 0 0 0-.61 2.3m-1.59 0a4.63 4.63 0 0 1 1-3.16 3.52 3.52 0 0 1 2.78-1.2 3.54 3.54 0 0 1 2.83 1.16 4.73 4.73 0 0 1 1 3.2 4.73 4.73 0 0 1-1 3.23 3.5 3.5 0 0 1-2.77 1.2 3.49 3.49 0 0 1-2.82-1.19 4.83 4.83 0 0 1-1-3.22m13.72-6.32a2.46 2.46 0 0 0-1-.16 1.48 1.48 0 0 0-1 .53 2 2 0 0 0-.44 1.31 3.21 3.21 0 0 0 0 .45h1.71v1.25h-1.67v7.19h-1.5v-7.2h-1.23v-1.25h1.23a3.77 3.77 0 0 1 .79-2.55 2.64 2.64 0 0 1 2.11-.93 4.72 4.72 0 0 1 1.45.24zm5.99 6.44a5 5 0 0 0-1-.19 2.89 2.89 0 0 0-1.87.58 1.73 1.73 0 0 0-.73 1.38q0 1.3 1.57 1.3a2.57 2.57 0 0 0 2-1.08zm.14 3.14A3.34 3.34 0 0 1 45.92 20a2.46 2.46 0 0 1-2.47-2.51 2.66 2.66 0 0 1 1.12-2.17 4.56 4.56 0 0 1 2.88-.89 3.28 3.28 0 0 1 1.08.21q0-2.06-1.84-2.07a3 3 0 0 0-2.17.75l-.63-1.25a3.5 3.5 0 0 1 1.18-.6 4.43 4.43 0 0 1 1.45-.24 3.61 3.61 0 0 1 2.67.84 3.66 3.66 0 0 1 .81 2.64v3a1.53 1.53 0 0 0 .66 1.48V20a2.8 2.8 0 0 1-1.36-.26 1.47 1.47 0 0 1-.65-.87m10.09-6.82l-.75 1a2.4 2.4 0 0 0-.82-.43 3.61 3.61 0 0 0-1.15-.2 2.44 2.44 0 0 0-2 .85 3.58 3.58 0 0 0-.73 2.36 3.21 3.21 0 0 0 .79 2.37 2.67 2.67 0 0 0 2 .78 3.39 3.39 0 0 0 2-.78l.59 1.26a5.38 5.38 0 0 1-3 .78 3.78 3.78 0 0 1-2.85-1.16 4.3 4.3 0 0 1-1.13-3.14 4.52 4.52 0 0 1 1.18-3.25 4.31 4.31 0 0 1 3.23-1.22 4.19 4.19 0 0 1 1.44.27 3.81 3.81 0 0 1 1.14.57"/><path d="M73.65.53c0 4.42 7.44 8.4 7.44 14.14 0 3.75-3 6.6-7.22 6.84h-1.34c-4.13-.31-7.22-3.09-7.22-6.84 0-5.74 7.45-9.72 7.45-14.14a.45.45 0 0 1 .9 0" fill="#967748"/><path d="M72.53 21.41c-4.13-.31-7.13-3.14-7.13-6.75 0-3 2.07-5.53 4.06-7.94 1.73-2.11 3.38-4.09 3.38-6.19a.34.34 0 0 1 .37-.33.41.41 0 0 1 .24.08.34.34 0 0 1 .1.25c0 2.1 1.64 4.09 3.37 6.19 2 2.42 4.07 4.92 4.07 7.94 0 3.73-2.93 6.51-7.13 6.75h-.68zM72.65.53c0 2-1.62 4-3.34 6.07-2 2.45-4.11 5-4.11 8.07 0 3.7 3.08 6.62 7.31 6.93h1.36c4.3-.24 7.31-3.1 7.31-6.93 0-3.09-2.1-5.62-4.11-8.07-1.72-2.08-3.33-4-3.33-6.07a.53.53 0 0 0-.17-.4.58.58 0 0 0-.36-.13.54.54 0 0 0-.56.53"/><path d="M71.57 8.31h2.69c.58 0 1.17 0 1.74.07a3.55 3.55 0 0 1 2.75 2 3.9 3.9 0 0 1-.32 3.58 3.79 3.79 0 0 1-2.76 1.75 12.85 12.85 0 0 1-2.12.08l-.86 4.16h-3.3l1.93-8.63h3.07L74 13.76a1.55 1.55 0 0 0 1.53-1.58c0-.42 0-1.07-.41-1.33a7.16 7.16 0 0 0-2-.13h-1.57A1.71 1.71 0 0 1 70 9.8a5 5 0 0 1-.69-1.48h2.27" fill="#fff"/><path d="M69.85 8.41h4.41c.57 0 1.16 0 1.73.08a3.44 3.44 0 0 1 2.68 1.92 3.8 3.8 0 0 1-.31 3.48 3.74 3.74 0 0 1-2.71 1.72 9 9 0 0 1-1.66.08h-.53v.08s-.81 3.95-.84 4.09h-3.1c0-.22 1.84-8.29 1.86-8.44h2.9l-.43 2.46H74a1.65 1.65 0 0 0 1.62-1.67c0-.74-.1-1.2-.45-1.42a5.41 5.41 0 0 0-1.86-.14h-1.76a1.62 1.62 0 0 1-1.47-.89 5.11 5.11 0 0 1-.65-1.33zm1.73-.2h-2.4v.12a4.91 4.91 0 0 0 .71 1.5 1.77 1.77 0 0 0 1.62 1h1.73a6.46 6.46 0 0 1 1.76.11c.24.15.37.49.37 1a1.5 1.5 0 0 1 0 .23 1.43 1.43 0 0 1-1.3 1.48c0-.22.42-2.45.42-2.45h-3.26l-2 8.82h3.5s.83-4 .85-4.16H74a9.17 9.17 0 0 0 1.7-.08A3.88 3.88 0 0 0 78.52 14a4 4 0 0 0 .33-3.67 3.66 3.66 0 0 0-2.84-2c-.58-.06-1.17-.07-1.75-.07h-2.69z"/></g></g></svg>