<svg xmlns="http://www.w3.org/2000/svg" viewBox="0 0 92.58 29.82"><defs><style>.cls-1{fill:#fff}.cls-2{fill:#ed2129}</style></defs><g id="Layer_2" data-name="Layer 2"><g id="Layer_1-2" data-name="Layer 1"><path d="M46.29 0L33.18 22.7H59.4L46.29 0z"/><path class="cls-1" d="M46.29 22.7l6.55-11.35h-13.1l6.55 11.35z"/><path class="cls-2" d="M47.87 8.47a1.85 1.85 0 1 1 0-1.75L49 6.1a3.09 3.09 0 1 0 0 3zM41.24 20a1.85 1.85 0 1 1 0-1.75l1.07-.62a3.09 3.09 0 1 0 0 3zm13.26 0a1.85 1.85 0 1 1 0-1.75l1.07-.62a3.09 3.09 0 1 0 0 3z"/><path d="M49.4 15.22a3.12 3.12 0 1 1-3.12-3.12 3.12 3.12 0 0 1 3.12 3.12"/><path class="cls-1" d="M46.37 18.17a3 3 0 0 0 2.88-2.9h-2.88z"/><path class="cls-2" d="M43.34 15.28a3 3 0 0 0 2.88 2.9v-2.9zm5.9-.16a3 3 0 0 0-2.87-2.85v2.85z"/><path class="cls-1" d="M46.21 12.27a3 3 0 0 0-2.87 2.85h2.88z"/><path d="M2.63 27.24l.76.24a1.71 1.71 0 0 1-.58.95 1.66 1.66 0 0 1-1 .31 1.67 1.67 0 0 1-1.31-.53 2 2 0 0 1-.5-1.45 2.12 2.12 0 0 1 .5-1.51 1.72 1.72 0 0 1 1.32-.54 1.62 1.62 0 0 1 1.18.43 1.54 1.54 0 0 1 .4.72l-.8.14a.8.8 0 0 0-.82-.65.88.88 0 0 0-.7.31 1.52 1.52 0 0 0-.27 1 1.63 1.63 0 0 0 .26 1 .86.86 0 0 0 .69.31.79.79 0 0 0 .54-.2 1.15 1.15 0 0 0 .32-.62m2.03.12a.93.93 0 0 0 .2.64.65.65 0 0 0 1 0 .94.94 0 0 0 .2-.65.93.93 0 0 0-.2-.64.65.65 0 0 0-1 0 .93.93 0 0 0-.2.64m-.76 0a1.52 1.52 0 0 1 .18-.72 1.26 1.26 0 0 1 .51-.54 1.54 1.54 0 0 1 .75-.18 1.41 1.41 0 0 1 1 .42 1.43 1.43 0 0 1 .41 1 1.45 1.45 0 0 1-.41 1.06 1.4 1.4 0 0 1-1 .42 1.64 1.64 0 0 1-.74-.17 1.2 1.2 0 0 1-.53-.55 1.71 1.71 0 0 1-.18-.82m6.05 1.49h-.74v-1.43a2.21 2.21 0 0 0 0-.59.41.41 0 0 0-.19-.21.44.44 0 0 0-.26-.07.6.6 0 0 0-.35.11.54.54 0 0 0-.21.28 2.43 2.43 0 0 0-.06.65v1.27h-.75v-2.82h.69v.41a1.15 1.15 0 0 1 1.38-.39.76.76 0 0 1 .31.23.83.83 0 0 1 .15.31 2.36 2.36 0 0 1 0 .5zm.5-.8l.75-.11a.54.54 0 0 0 .19.33.65.65 0 0 0 .41.11.74.74 0 0 0 .43-.11.24.24 0 0 0 .1-.2.19.19 0 0 0-.05-.14.6.6 0 0 0-.25-.1 4 4 0 0 1-1.14-.36.73.73 0 0 1-.33-.63.78.78 0 0 1 .29-.62 1.35 1.35 0 0 1 .9-.25 1.57 1.57 0 0 1 .86.19 1 1 0 0 1 .39.56l-.7.13a.43.43 0 0 0-.17-.25.63.63 0 0 0-.36-.09.81.81 0 0 0-.42.08.18.18 0 0 0-.08.15.16.16 0 0 0 .07.13 2.73 2.73 0 0 0 .7.21 2.08 2.08 0 0 1 .83.33.69.69 0 0 1 .23.55.85.85 0 0 1-.32.67 1.44 1.44 0 0 1-1 .28 1.57 1.57 0 0 1-.91-.23 1.07 1.07 0 0 1-.44-.63m3.89-.6a.93.93 0 0 0 .2.64.65.65 0 0 0 1 0 .94.94 0 0 0 .2-.65.93.93 0 0 0-.2-.64.65.65 0 0 0-1 0 .93.93 0 0 0-.2.64m-.76 0a1.52 1.52 0 0 1 .18-.72 1.26 1.26 0 0 1 .52-.53 1.54 1.54 0 0 1 .75-.18 1.41 1.41 0 0 1 1 .42 1.43 1.43 0 0 1 .41 1 1.45 1.45 0 0 1-.4 1.07 1.4 1.4 0 0 1-1 .42 1.63 1.63 0 0 1-.74-.17 1.2 1.2 0 0 1-.53-.51 1.71 1.71 0 0 1-.18-.82m3.47-2.45h.74v3.89h-.74zm1.51 1.07h.74v2.82h-.74zm0-1.07h.74v.69h-.74zm2.11 2.42a1.29 1.29 0 0 0 .12.65.56.56 0 0 0 .5.29.55.55 0 0 0 .44-.22 1 1 0 0 0 .18-.65 1.11 1.11 0 0 0-.18-.7.56.56 0 0 0-.45-.21.56.56 0 0 0-.45.21 1 1 0 0 0-.18.63m2 1.47h-.69v-.41a1.12 1.12 0 0 1-.41.36 1 1 0 0 1-.47.12 1.07 1.07 0 0 1-.83-.39 1.91 1.91 0 0 1 0-2.18 1.1 1.1 0 0 1 .85-.37 1.05 1.05 0 0 1 .82.39v-1.4h.75zm2.29-1.36l-.45.12a1.34 1.34 0 0 0-.41.13.31.31 0 0 0-.15.26.36.36 0 0 0 .12.27.4.4 0 0 0 .3.11.65.65 0 0 0 .38-.13.47.47 0 0 0 .18-.25 1.49 1.49 0 0 0 0-.36zm-1-.6l-.68-.12a1.05 1.05 0 0 1 .39-.6 1.43 1.43 0 0 1 .83-.2 1.8 1.8 0 0 1 .74.12.74.74 0 0 1 .34.3 1.54 1.54 0 0 1 .1.67v.87a3 3 0 0 0 0 .55 1.56 1.56 0 0 0 .13.38h-.74s0-.12-.07-.22v-.09a1.34 1.34 0 0 1-.41.28 1.17 1.17 0 0 1-.46.09 1 1 0 0 1-.69-.24.79.79 0 0 1-.25-.6.8.8 0 0 1 .11-.43.75.75 0 0 1 .32-.29 2.53 2.53 0 0 1 .59-.17 4.07 4.07 0 0 0 .72-.18v-.07a.38.38 0 0 0-.11-.31.64.64 0 0 0-.4-.09.45.45 0 0 0-.49.35m3.79-.86v.59h-.51v1.13a2.75 2.75 0 0 0 0 .4.16.16 0 0 0 .07.09.21.21 0 0 0 .13 0 1 1 0 0 0 .3-.07l.06.58a1.48 1.48 0 0 1-.59.11.93.93 0 0 1-.36-.07.53.53 0 0 1-.24-.17.69.69 0 0 1-.1-.29 3.6 3.6 0 0 1 0-.53v-1.18h-.34v-.59h.34v-.56l.75-.43v1zM29.86 27a.72.72 0 0 0-.17-.49.51.51 0 0 0-.39-.17.52.52 0 0 0-.4.18.69.69 0 0 0-.16.48zm0 .75l.74.13a1.22 1.22 0 0 1-.45.62 1.33 1.33 0 0 1-.77.21 1.26 1.26 0 0 1-1.09-.48 1.62 1.62 0 0 1-.28-1 1.55 1.55 0 0 1 .37-1.1 1.2 1.2 0 0 1 .93-.4 1.25 1.25 0 0 1 1 .42 1.83 1.83 0 0 1 .35 1.27h-1.93a.75.75 0 0 0 .18.52.56.56 0 0 0 .43.18.46.46 0 0 0 .29-.1.6.6 0 0 0 .18-.31m1.99-.5a1.29 1.29 0 0 0 .12.65.56.56 0 0 0 .5.29.55.55 0 0 0 .44-.22 1 1 0 0 0 .18-.65 1.11 1.11 0 0 0-.18-.7.56.56 0 0 0-.45-.21.56.56 0 0 0-.45.21 1 1 0 0 0-.18.63m2 1.47h-.68v-.41a1.12 1.12 0 0 1-.41.36 1 1 0 0 1-.47.12 1.07 1.07 0 0 1-.83-.39 1.91 1.91 0 0 1 0-2.18 1.1 1.1 0 0 1 .85-.37 1.05 1.05 0 0 1 .82.39v-1.4h.75zm4.74-1.44l.76.24a1.71 1.71 0 0 1-.58.95 1.83 1.83 0 0 1-2.3-.22 2 2 0 0 1-.5-1.45 2.12 2.12 0 0 1 .5-1.51 1.72 1.72 0 0 1 1.32-.54 1.62 1.62 0 0 1 1.16.42 1.54 1.54 0 0 1 .4.72l-.78.15a.8.8 0 0 0-.82-.65.88.88 0 0 0-.7.31 1.52 1.52 0 0 0-.27 1 1.63 1.63 0 0 0 .26 1 .86.86 0 0 0 .69.31.79.79 0 0 0 .54-.2 1.15 1.15 0 0 0 .32-.62m2.02.12a.93.93 0 0 0 .2.64.65.65 0 0 0 1 0 .94.94 0 0 0 .2-.65.93.93 0 0 0-.2-.64.65.65 0 0 0-1 0 .93.93 0 0 0-.2.64m-.76 0a1.52 1.52 0 0 1 .18-.72 1.26 1.26 0 0 1 .52-.53 1.54 1.54 0 0 1 .75-.18 1.41 1.41 0 0 1 1 .42 1.43 1.43 0 0 1 .41 1 1.45 1.45 0 0 1-.41 1.06 1.4 1.4 0 0 1-1 .42 1.63 1.63 0 0 1-.74-.17A1.2 1.2 0 0 1 40 28a1.71 1.71 0 0 1-.18-.82m6.01 1.49h-.75v-1.43a2.21 2.21 0 0 0 0-.59.41.41 0 0 0-.15-.21.44.44 0 0 0-.26-.07.6.6 0 0 0-.35.11.54.54 0 0 0-.21.28 2.43 2.43 0 0 0-.06.65v1.27h-.74v-2.82H44v.41a1.15 1.15 0 0 1 1.38-.39.76.76 0 0 1 .31.23.83.83 0 0 1 .15.31 2.36 2.36 0 0 1 0 .5zm2.05-2.81v.59h-.51v1.13a2.75 2.75 0 0 0 0 .4.16.16 0 0 0 .07.09.21.21 0 0 0 .13 0 1 1 0 0 0 .3-.07l.06.58a1.48 1.48 0 0 1-.59.11.93.93 0 0 1-.36-.07.53.53 0 0 1-.24-.17.71.71 0 0 1-.1-.29 3.6 3.6 0 0 1 0-.53v-1.18h-.34v-.59h.34v-.56l.75-.43v1zm1.23 2.81h-.75v-2.81h.69v.4a1.23 1.23 0 0 1 .32-.37.59.59 0 0 1 .32-.09.94.94 0 0 1 .49.14l-.23.65a.65.65 0 0 0-.35-.12.41.41 0 0 0-.26.09.59.59 0 0 0-.17.31 4.48 4.48 0 0 0-.06.94zm2.95-1.35l-.45.12a1.35 1.35 0 0 0-.41.13.31.31 0 0 0-.15.26.36.36 0 0 0 .12.27.4.4 0 0 0 .3.11.65.65 0 0 0 .38-.13.47.47 0 0 0 .18-.25 1.49 1.49 0 0 0 0-.36zm-1-.6l-.68-.12a1.05 1.05 0 0 1 .39-.6 1.44 1.44 0 0 1 .83-.2 1.79 1.79 0 0 1 .74.12.74.74 0 0 1 .34.3 1.52 1.52 0 0 1 .1.67v.87a3 3 0 0 0 0 .55 1.56 1.56 0 0 0 .13.38h-.74s0-.12-.07-.22v-.09a1.34 1.34 0 0 1-.41.28 1.17 1.17 0 0 1-.46.09 1 1 0 0 1-.69-.24.79.79 0 0 1-.25-.6.8.8 0 0 1 .11-.43.75.75 0 0 1 .32-.29 2.51 2.51 0 0 1 .59-.17 4.07 4.07 0 0 0 .72-.18v-.07a.38.38 0 0 0-.11-.31.63.63 0 0 0-.4-.09.45.45 0 0 0-.49.35m4.97-.03l-.73.13a.53.53 0 0 0-.17-.33.51.51 0 0 0-.34-.11.56.56 0 0 0-.44.19 1 1 0 0 0-.17.64 1.14 1.14 0 0 0 .17.71.55.55 0 0 0 .45.21.5.5 0 0 0 .33-.13.72.72 0 0 0 .19-.42l.73.13a1.3 1.3 0 0 1-.44.76 1.36 1.36 0 0 1-.87.26 1.29 1.29 0 0 1-1-.39 1.77 1.77 0 0 1 0-2.17 1.31 1.31 0 0 1 1-.39 1.37 1.37 0 0 1 .82.22 1.23 1.23 0 0 1 .44.67m1.87-.81v.59h-.51v1.13a2.75 2.75 0 0 0 0 .4.16.16 0 0 0 .07.09.21.21 0 0 0 .13 0 1 1 0 0 0 .3-.07l.06.58a1.48 1.48 0 0 1-.59.11.93.93 0 0 1-.36-.07.53.53 0 0 1-.24-.17.69.69 0 0 1-.1-.29 3.6 3.6 0 0 1 0-.53v-1.18h-.34v-.59h.34v-.56l.75-.43v1zm1.11 1.41a.93.93 0 0 0 .2.64.65.65 0 0 0 1 0 .94.94 0 0 0 .2-.65.93.93 0 0 0-.2-.64.65.65 0 0 0-1 0 .93.93 0 0 0-.2.64m-.76 0a1.52 1.52 0 0 1 .18-.72 1.26 1.26 0 0 1 .52-.53 1.54 1.54 0 0 1 .75-.18 1.41 1.41 0 0 1 1 .42 1.43 1.43 0 0 1 .41 1 1.45 1.45 0 0 1-.41 1.06 1.4 1.4 0 0 1-1 .42 1.64 1.64 0 0 1-.74-.17 1.2 1.2 0 0 1-.53-.51 1.71 1.71 0 0 1-.18-.82m4.2 1.44h-.75v-2.81h.69v.4a1.23 1.23 0 0 1 .32-.37.59.59 0 0 1 .32-.09.94.94 0 0 1 .49.14l-.23.65a.65.65 0 0 0-.35-.12.41.41 0 0 0-.26.09.59.59 0 0 0-.17.31 4.48 4.48 0 0 0-.06.94zm1.13-.8l.75-.11a.55.55 0 0 0 .19.33.65.65 0 0 0 .41.11.74.74 0 0 0 .43-.11.24.24 0 0 0 .1-.2.19.19 0 0 0-.05-.14.6.6 0 0 0-.25-.1 4 4 0 0 1-1.1-.36.73.73 0 0 1-.33-.63.78.78 0 0 1 .29-.62 1.35 1.35 0 0 1 .9-.25 1.57 1.57 0 0 1 .86.19 1 1 0 0 1 .39.56l-.7.13a.43.43 0 0 0-.17-.25.63.63 0 0 0-.36-.09.81.81 0 0 0-.42.08.18.18 0 0 0-.08.15.16.16 0 0 0 .07.13 2.73 2.73 0 0 0 .7.21 2.08 2.08 0 0 1 .83.33.69.69 0 0 1 .23.55.85.85 0 0 1-.32.67 1.44 1.44 0 0 1-1 .28 1.57 1.57 0 0 1-.89-.23 1.07 1.07 0 0 1-.44-.63m7.25-.63l.76.24a1.71 1.71 0 0 1-.58.95 1.83 1.83 0 0 1-2.3-.22 2 2 0 0 1-.5-1.45 2.12 2.12 0 0 1 .5-1.51 1.72 1.72 0 0 1 1.31-.53 1.62 1.62 0 0 1 1.16.42 1.54 1.54 0 0 1 .4.72l-.78.19a.8.8 0 0 0-.82-.65.88.88 0 0 0-.7.31 1.52 1.52 0 0 0-.27 1 1.63 1.63 0 0 0 .26 1 .86.86 0 0 0 .69.31.79.79 0 0 0 .54-.2 1.15 1.15 0 0 0 .32-.62m2.03.07a.93.93 0 0 0 .2.64.65.65 0 0 0 1 0 .94.94 0 0 0 .2-.65.93.93 0 0 0-.2-.64.65.65 0 0 0-1 0 .93.93 0 0 0-.2.64m-.76 0a1.52 1.52 0 0 1 .18-.72 1.26 1.26 0 0 1 .52-.53 1.54 1.54 0 0 1 .75-.18 1.41 1.41 0 0 1 1 .42 1.43 1.43 0 0 1 .41 1 1.45 1.45 0 0 1-.41 1.06 1.4 1.4 0 0 1-1 .42 1.63 1.63 0 0 1-.74-.17 1.2 1.2 0 0 1-.53-.51 1.71 1.71 0 0 1-.18-.82m3.43-1.37h.69v.38a1.11 1.11 0 0 1 .88-.45 1 1 0 0 1 .47.11.86.86 0 0 1 .33.34 1.29 1.29 0 0 1 .4-.34 1 1 0 0 1 .46-.11 1 1 0 0 1 .52.13.77.77 0 0 1 .32.37 1.59 1.59 0 0 1 .08.58v1.8h-.74v-1.61a1.18 1.18 0 0 0-.08-.54.35.35 0 0 0-.32-.16.51.51 0 0 0-.29.1.53.53 0 0 0-.2.28 2 2 0 0 0-.06.58v1.35h-.76v-1.54a2.12 2.12 0 0 0 0-.53.33.33 0 0 0-.12-.18.39.39 0 0 0-.23-.06.54.54 0 0 0-.31.09.5.5 0 0 0-.2.27 2 2 0 0 0-.06.58v1.37h-.78zm5.6 1.36a1.09 1.09 0 0 0 .19.7.58.58 0 0 0 .46.23.54.54 0 0 0 .43-.21 1.07 1.07 0 0 0 .17-.68 1 1 0 0 0-.18-.66.55.55 0 0 0-.44-.21.57.57 0 0 0-.45.21.94.94 0 0 0-.18.62m-.74-1.36h.69v.41a1 1 0 0 1 .37-.34 1 1 0 0 1 .51-.13 1.07 1.07 0 0 1 .83.38 1.55 1.55 0 0 1 .34 1.07 1.6 1.6 0 0 1-.35 1.1 1.07 1.07 0 0 1-.83.39.94.94 0 0 1-.42-.09 1.43 1.43 0 0 1-.4-.32v1.42h-.74zm4.89 1.46l-.45.12a1.35 1.35 0 0 0-.41.13.31.31 0 0 0-.15.26.36.36 0 0 0 .12.27.4.4 0 0 0 .3.11.65.65 0 0 0 .38-.13.47.47 0 0 0 .18-.25 1.49 1.49 0 0 0 0-.36zm-1-.6l-.68-.12A1.05 1.05 0 0 1 84 26a1.43 1.43 0 0 1 .83-.2 1.8 1.8 0 0 1 .74.12.74.74 0 0 1 .34.3 1.52 1.52 0 0 1 .1.67v.87a3 3 0 0 0 0 .55 1.56 1.56 0 0 0 .13.38h-.74s0-.12-.07-.22v-.09a1.34 1.34 0 0 1-.41.28 1.17 1.17 0 0 1-.46.09 1 1 0 0 1-.68-.24.79.79 0 0 1-.25-.6.8.8 0 0 1 .11-.43.74.74 0 0 1 .32-.29 2.51 2.51 0 0 1 .59-.17 4.07 4.07 0 0 0 .72-.18v-.07a.38.38 0 0 0-.11-.31.63.63 0 0 0-.4-.09.45.45 0 0 0-.49.35m5.01 1.95h-.75v-1.43a2.21 2.21 0 0 0 0-.59.41.41 0 0 0-.15-.21.44.44 0 0 0-.26-.07.6.6 0 0 0-.35.11.54.54 0 0 0-.21.28 2.43 2.43 0 0 0-.06.65v1.27h-.74v-2.82h.69v.41a1.15 1.15 0 0 1 1.38-.39.76.76 0 0 1 .31.23.83.83 0 0 1 .15.31 2.36 2.36 0 0 1 0 .5zm.4-2.81h.79l.67 2 .66-2h.77l-1 2.71-.18.49a1.93 1.93 0 0 1-.19.38.83.83 0 0 1-.2.21.9.9 0 0 1-.28.13 1.47 1.47 0 0 1-.38 0 2 2 0 0 1-.42 0l-.07-.58a1.66 1.66 0 0 0 .32 0 .47.47 0 0 0 .38-.15 1.06 1.06 0 0 0 .19-.39z"/></g></g></svg>