<svg xmlns="http://www.w3.org/2000/svg" viewBox="0 0 82.55 30.27"><defs><style>.cls-1{fill:#2dafe5}.cls-2{fill:#fff}</style></defs><g id="Layer_2" data-name="Layer 2"><g id="Layer_1-2" data-name="Layer 1"><path class="cls-1" d="M21.21 30.27H3.09A3.09 3.09 0 0 1 0 27.18V3.09A3.09 3.09 0 0 1 3.09 0h18.12a3.09 3.09 0 0 1 3.09 3.09v24.09a3.09 3.09 0 0 1-3.09 3.09"/><path class="cls-2" d="M7.08 8.33a1.54 1.54 0 1 1 1.55 1.54 1.54 1.54 0 0 1-1.55-1.54m7.47 0a5.93 5.93 0 1 0-5.93 5.93 5.93 5.93 0 0 0 5.93-5.93"/><path class="cls-1" d="M10.17 8.33a1.54 1.54 0 1 0-1.55 1.54 1.54 1.54 0 0 0 1.54-1.54"/><path class="cls-2" d="M8.63 15.64a1.28 1.28 0 0 0-1.28 1.28v6.48a1.28 1.28 0 1 0 2.57 0v-6.48a1.28 1.28 0 0 0-1.28-1.28m10.98 7.74a3.16 3.16 0 1 1-3.16-3.16 3.16 3.16 0 0 1 3.16 3.16M15 17a1.5 1.5 0 1 1 1.5 1.5A1.5 1.5 0 0 1 15 17m4.43-2.77h-5.9a2.33 2.33 0 0 0-2.33 2.34v8.73a2.33 2.33 0 0 0 2.33 2.33h5.85a2.34 2.34 0 0 0 2.33-2.33v-8.72a2.33 2.33 0 0 0-2.33-2.34"/><path class="cls-1" d="M16.46 18.52A1.5 1.5 0 1 0 15 17a1.5 1.5 0 0 0 1.5 1.5m1.79 4.88a1.84 1.84 0 1 1-1.84-1.84 1.84 1.84 0 0 1 1.84 1.84m-1.84-3.16a3.16 3.16 0 1 0 3.16 3.16 3.16 3.16 0 0 0-3.16-3.16"/><path class="cls-2" d="M16.46 21.54a1.84 1.84 0 1 0 1.84 1.84 1.84 1.84 0 0 0-1.84-1.84"/><path class="cls-1" d="M51.8 24.55L54.1 21h.18l2.29 3.5zm1.44-5.1l-5.46 8.33h1.91l1.08-1.64h6.86l1.07 1.64h1.9l-5.45-8.33zm15.39 3.37h-5.34a.89.89 0 1 1 0-1.77h7.29v-1.6h-7.29a2.48 2.48 0 0 0 0 5h5.33a.89.89 0 0 1 0 1.77h-7.28v1.59h7.28a2.48 2.48 0 1 0 0-5m12.12-3.36v3.36h-7.31v-3.36h-1.6v8.33h1.59v-3.37h7.32v3.37h1.59v-8.33zm-40.47 5.9v-5.9h-1.58v5.9a2.44 2.44 0 0 0 2.43 2.43h5.81v-1.59h-5.81a.84.84 0 0 1-.84-.84M29.5 21.88v5.9h1.59v-3.35h6.65v-1.6h-6.65v-1a.84.84 0 0 1 .84-.84h5.81v-1.54h-5.81a2.44 2.44 0 0 0-2.43 2.43m17.29-9.58a.92.92 0 0 1-.92.92H43a2.54 2.54 0 0 0 .17-.92V8.06h-1.68v4.24a.92.92 0 0 1-.92.92h-2.72v-5.1H36.2v5.8a2.7 2.7 0 1 1-5.41 0v-5.8h-1.66v5.8a4.36 4.36 0 0 0 8.61 1h8.13a2.58 2.58 0 0 0 2.57-2.57V8.06h-1.65zm34.1-.78a1.7 1.7 0 1 1-3.4 0v-.12a1.7 1.7 0 1 1 3.4 0zM79.19 8a3.36 3.36 0 0 0-3.36 3.36v.12a3.34 3.34 0 0 0 .46 1.7H57.65a2.54 2.54 0 0 0 .17-.92V6.07h-1.66v6.23a.92.92 0 0 1-.52.82l-2.57-7.06H51.3l2.61 7.16h-2.65v1.66h27.93a3.36 3.36 0 0 0 3.36-3.36v-.12A3.36 3.36 0 0 0 79.19 8M42.3 5a.93.93 0 1 0-.93-.93.93.93 0 0 0 .93.93m.64 1.08a.93.93 0 1 0 .93-.93.93.93 0 0 0-.93.93m-2.27.93a.93.93 0 1 0-.93-.93.93.93 0 0 0 .93.93m38.48 0a.93.93 0 1 0-.93-.93.93.93 0 0 0 .93.93"/></g></g></svg>