<svg xmlns="http://www.w3.org/2000/svg" viewBox="0 0 53.91 38.73"><g data-name="Layer 2"><g data-name="Layer 1"><path d="M47.89.4l-3.64 6.33h-.95L46.95.4H35.32l9.28 16.02L53.91.4h-6.02zM31.62.4l-3.65 6.33h-.94L30.67.4h-4.52L22.5 6.73h-.94L25.2.4h-6.99v16.02h15.81V.4h-2.4zM11.2.5A8.35 8.35 0 1 1 8.38 0a9.72 9.72 0 0 1 2 .26L6.69 6.73h.95z" fill="#003869"/><path d="M.62 31.06c0 4.3 2.73 7.67 7.31 7.67s7.31-3.37 7.31-7.67-2.74-7.67-7.31-7.67S.62 26.76.62 31.06m2.46 0c0-2.89 1.43-5.44 4.86-5.44s4.86 2.55 4.86 5.44-1.45 5.44-4.87 5.44-4.86-2.62-4.86-5.44m28.35 7.39h2.17V23.73h-3.28l-4 11.03-4.03-11.03h-3.26v14.72h2.22l-.03-11.77 4.32 11.77h1.55l4.34-11.77v11.77zm18.46-14.72l-5.19 11.2-5.17-11.2h-2.73l6.79 14.72h2.05l6.92-14.72h-2.67z"/><path fill="#65b32e" d="M.01 19.6h53.9v.82H.01z"/></g></g></svg>