<svg xmlns="http://www.w3.org/2000/svg" viewBox="0 0 44.92 40.48"><g data-name="Layer 2"><g data-name="Layer 1"><path d="M14.76 0L.15 19.89v10.98h5.1l15.7-20.56L20.84 0h-6.08zm15.56 0l14.6 19.89v10.98h-5.09L24.12 10.31 24.23 0h6.09z" fill="#d71b2c"/><path d="M4.39 37.15h-.78c-.66 0-2.31.1-2.31 1.28a1.17 1.17 0 0 0 1.24 1.08 1.68 1.68 0 0 0 1.85-1.75zm-3.63-3a4.23 4.23 0 0 1 2.19-.62c1.9 0 2.67.94 2.67 2.75V39a10.73 10.73 0 0 0 .05 1.3H4.52v-.86a2.46 2.46 0 0 1-2.06 1C1 40.48 0 39.85 0 38.4c0-1.67 1.82-2.19 3.09-2.19h1.3c0-1.15-.42-1.73-1.64-1.73a3.13 3.13 0 0 0-1.93.68zm6.93-.48h1.14v1a3 3 0 0 1 2.31-1.19 3.47 3.47 0 0 1 .81.09v1.13a2.56 2.56 0 0 0-.79-.19c-1.09 0-2.28.63-2.28 2.78v3H7.69zm9.01 3.48h-.78c-.66 0-2.31.1-2.31 1.28a1.17 1.17 0 0 0 1.24 1.08 1.68 1.68 0 0 0 1.85-1.75zm-3.63-3a4.23 4.23 0 0 1 2.19-.62c1.9 0 2.67.94 2.67 2.75V39a10.42 10.42 0 0 0 .05 1.3h-1.15v-.86a2.46 2.46 0 0 1-2.06 1c-1.43 0-2.44-.63-2.44-2.07 0-1.67 1.82-2.19 3.09-2.19h1.3c0-1.15-.42-1.73-1.64-1.73a3.13 3.13 0 0 0-1.93.68zm10.12.36c-1.33 0-2 1.26-2 2.5s.57 2.48 2 2.48S25 38 25 37c0-1.2-.49-2.46-1.82-2.46m-3.19-4h1.22v4a2.37 2.37 0 0 1 2.2-1.07c1.93 0 2.87 1.58 2.87 3.36s-.85 3.6-2.85 3.6a2.67 2.67 0 0 1-2.27-1.1v.94H20zM31 34.66h-1.8v3.64a1.05 1.05 0 0 0 1 1.19 1.5 1.5 0 0 0 .83-.23v1a3.83 3.83 0 0 1-1 .18c-1.26 0-2-.6-2-1.93v-3.85h-.88v-1H28v-1.52l1.23-.39v1.93H31zm6.1 1.7a1.68 1.68 0 0 0-1.65-1.85 1.84 1.84 0 0 0-1.78 1.85zm.8 3.69a5.08 5.08 0 0 1-2.1.43c-2.36 0-3.44-1.43-3.44-3.6a3.09 3.09 0 0 1 3.11-3.36c2.22 0 2.93 1.62 2.93 3.75h-4.74a2.17 2.17 0 0 0 2.19 2.21 3.92 3.92 0 0 0 2-.67zm6.85-4.78a3.4 3.4 0 0 0-1.75-.76A2.27 2.27 0 0 0 40.85 37a2.25 2.25 0 0 0 2.21 2.49 3.13 3.13 0 0 0 1.62-.57v1.12a4.43 4.43 0 0 1-1.76.45A3.37 3.37 0 0 1 39.55 37a3.28 3.28 0 0 1 3.39-3.48 3.9 3.9 0 0 1 1.82.63z"/></g></g></svg>