<svg xmlns="http://www.w3.org/2000/svg" viewBox="0 0 79.4 25.46"><defs><style>.cls-3{fill:#fff}</style></defs><g id="Layer_2" data-name="Layer 2"><g id="Layer_1-2" data-name="Layer 1"><path fill="#b2b2b2" d="M0 0h79.4v25.46H0z"/><path fill="#e30613" d="M0 0h26.55v25.46H0z"/><path class="cls-3" d="M7.61 12.3h-.27c-1.53-.34.27-1.38.27-1.38zm1.2-5.87h-4.6S4 6.4 4 6.7v2.25s0 .6 1.35.6c0 0 2.06-.15 2.14-1.69 0 0 1 .86-1.12 1.95 0 0-2.74 1-2.74 3.09 0 0 .06 1.76 3.32 2.47l1.15-1.19a2.11 2.11 0 0 0 2.44.69v-6.1s0-2.34-1.72-2.34m3.66 2.39a1.34 1.34 0 0 0 1.06-.87 6.83 6.83 0 0 1 .84-1.31c.19-.17-.06-.2-.06-.2h-4s-.25 0-.06.2a6 6 0 0 1 .84 1.31 1.37 1.37 0 0 0 1.36.87z"/><path class="cls-3" d="M8.22 14.88s.51.9 2.36.49c0 0 .33 1.06 1.25 1 0 0 1-.1.27-1.33a1.82 1.82 0 0 0-1.1-.77V8.6a1.47 1.47 0 0 0 2.58 0v8.59s-.05 2.31-2.9 2.31c0 0-3.06.11-3.49-2.53a2.3 2.3 0 0 1 .9-2.1zM20.25 9.6V6.41h-4a2.12 2.12 0 0 0-2.2 2.16v6.5a7.35 7.35 0 0 0 4.84-.18s2.23-.83 1.32-3.67a2.18 2.18 0 0 1-2.69.45 2.78 2.78 0 0 1-.94-2.31s-.17-1.92.57-2a1.66 1.66 0 0 0 .43 1.77 2.66 2.66 0 0 0 2.63.5M39 18.58l-.73-2-.72 2zm2 2.1h-1.23l-.46-1.21h-2.13l-.44 1.21h-1.13l2.07-5.31h1.13zm.54 0v-5.27h1.07v4.37h2.66v.9h-3.73zm8.34-5.31H51v3.36a3.45 3.45 0 0 1-.12 1 1.44 1.44 0 0 1-.56.74 1.88 1.88 0 0 1-1.08.28 1.6 1.6 0 0 1-1.24-.42 1.81 1.81 0 0 1-.45-1.33l1-.12a1.4 1.4 0 0 0 .13.65.58.58 0 0 0 .53.29.59.59 0 0 0 .51-.2 1.63 1.63 0 0 0 .15-.85zm5.03 3.21l-.73-2-.72 2zm2 2.1h-1.19l-.46-1.21h-2.13l-.44 1.21h-1.14l2.07-5.31h1.13zm1.62-2.32v1.42h1a4.81 4.81 0 0 0 .74 0 .63.63 0 0 0 .54-.66.7.7 0 0 0-.12-.41.65.65 0 0 0-.34-.24 3.58 3.58 0 0 0-1-.08zm0-2.11v1.23h1.48a.71.71 0 0 0 .43-.19.56.56 0 0 0 .16-.42.58.58 0 0 0-.14-.4.62.62 0 0 0-.41-.19h-.92zm-1.07-.88h2.12a6.26 6.26 0 0 1 .94.05 1.38 1.38 0 0 1 .55.22 1.35 1.35 0 0 1 .41.44 1.19 1.19 0 0 1 .16.62 1.23 1.23 0 0 1-.2.69 1.24 1.24 0 0 1-.54.47 1.39 1.39 0 0 1 .75.48 1.28 1.28 0 0 1 .26.8 1.57 1.57 0 0 1-.17.71 1.41 1.41 0 0 1-.46.55 1.51 1.51 0 0 1-.72.25h-3.1zm5.35 5.31v-5.31h3.94v.89h-2.87v1.18h2.67v.9h-2.67v1.44h2.97v.9h-4.04zm6.03-3.07h.79a4.14 4.14 0 0 0 1-.06.57.57 0 0 0 .3-.23.69.69 0 0 0 .11-.4.65.65 0 0 0-.14-.43.67.67 0 0 0-.41-.21h-1.62zm-1.07 3.06v-5.3H70a3.86 3.86 0 0 1 1.24.14 1.22 1.22 0 0 1 .62.51 1.52 1.52 0 0 1 .23.84 1.42 1.42 0 0 1-.35 1 1.68 1.68 0 0 1-1.05.49 2.52 2.52 0 0 1 .58.45 6.09 6.09 0 0 1 .61.86l.65 1h-1.27l-.78-1.16a7.41 7.41 0 0 0-.57-.78.83.83 0 0 0-.32-.22 1.8 1.8 0 0 0-.54-.06h-.22v2.22zm2.32-15.94h1.34v6.5h-1.34zM68 9.24a.69.69 0 0 1-.69.69h-5a3.4 3.4 0 0 0-3.42-3.33h-.61v1.34h.61a2.05 2.05 0 0 1 2 2H54.4a.69.69 0 0 1-.69-.69V4.76h-1.33v4.48a2 2 0 0 0 2 2h12.9a2 2 0 0 0 2-2V4.73H68zm-18 0a.69.69 0 0 1-.69.69H38.19a.69.69 0 0 1-.69-.69V6.5h-1.34v4.38A1.12 1.12 0 0 1 35 12v1.34a2.47 2.47 0 0 0 2.45-2.21 2 2 0 0 0 .7.13h11.1a2 2 0 0 0 2-2V6.49H50zm-.29 2.77h1.39v1.33h-1.39zm9.67 0h1.39v1.33h-1.39z"/></g></g></svg>