<svg xmlns="http://www.w3.org/2000/svg" xmlns:xlink="http://www.w3.org/1999/xlink" viewBox="0 0 58.53 61.04"><defs><style>.cls-1{fill:none}</style><clipPath id="clip-path"><path class="cls-1" d="M3.81 28.43c0 2.54 2.88 4.61 3.64 6.9l16.71-6.67a.85.85 0 0 0 .52-.78.84.84 0 0 0-.49-.77l-16.78-5.6C6.5 23.8 3.8 25.88 3.8 28.43"/></clipPath><linearGradient id="linear-gradient" x1="-935.65" y1="7462.42" x2="-934.65" y2="7462.42" gradientTransform="matrix(-20.88 0 0 20.88 -19514.75 -155803.95)" gradientUnits="userSpaceOnUse"><stop offset="0" stop-color="#fd0"/><stop offset=".25" stop-color="#fcc900"/><stop offset=".77" stop-color="#f39600"/><stop offset="1" stop-color="#ef7d00"/></linearGradient><clipPath id="clip-path-2"><path class="cls-1" d="M8.77 13.29c-1.49 2-.46 5.43-1.23 7.88l17.27 4.31a.87.87 0 0 0 .79-.48.84.84 0 0 0 0-.76L15.65 10c-2.09 1.3-5.44 1.37-6.87 3.32"/></clipPath><linearGradient id="linear-gradient-2" x1="-935.65" y1="7462.42" x2="-934.65" y2="7462.42" gradientTransform="matrix(0 -20.5 -20.5 0 153008.71 -19154.77)" xlink:href="#linear-gradient"/><clipPath id="clip-path-3"><path class="cls-1" d="M21.53 4.12C19.1 4.9 18 8.3 16 9.77l11 13.41a.86.86 0 0 0 .93.17.83.83 0 0 0 .51-.69l.65-17.2C27 5.39 24.64 4 22.61 4a3.51 3.51 0 0 0-1.08.16"/></clipPath><linearGradient id="linear-gradient-3" x1="-935.65" y1="7462.42" x2="-934.65" y2="7462.42" gradientTransform="matrix(0 -20.25 -20.25 0 151102.62 -18917.47)" xlink:href="#linear-gradient"/><clipPath id="clip-path-4"><path class="cls-1" d="M34.47 27.11a.84.84 0 0 0-.49.71v.11a.85.85 0 0 0 .51.73l16.62 6.67c.76-2.27 3.57-4.31 3.65-6.81v-.21c-.08-2.49-2.71-4.55-3.61-6.8z"/></clipPath><linearGradient id="linear-gradient-4" x1="-935.65" y1="7462.42" x2="-934.65" y2="7462.42" gradientTransform="matrix(20.78 0 0 -20.78 19480.49 155127.7)" xlink:href="#linear-gradient"/><clipPath id="clip-path-5"><path class="cls-1" d="M33.05 24.14a.88.88 0 0 0-.1.37v.07a.84.84 0 0 0 .08.31.86.86 0 0 0 .79.5L51 21.17c-.77-2.45.26-5.86-1.23-7.88S45 11.27 42.93 10z"/></clipPath><linearGradient id="linear-gradient-5" x1="-935.65" y1="7462.42" x2="-934.65" y2="7462.42" gradientTransform="matrix(20.47 0 0 -20.47 19183.58 152791.8)" xlink:href="#linear-gradient"/><clipPath id="clip-path-6"><path class="cls-1" d="M29.46 5.47l.68 17.2a.86.86 0 0 0 1.44.51l11-13.42c-2-1.48-3.15-4.87-5.57-5.65A3.54 3.54 0 0 0 36 4c-2 0-4.38 1.43-6.51 1.51"/></clipPath><linearGradient id="linear-gradient-6" x1="-935.65" y1="7462.42" x2="-934.65" y2="7462.42" gradientTransform="matrix(20.28 0 0 -20.28 18998.24 151342.16)" xlink:href="#linear-gradient"/><clipPath id="clip-path-7"><path class="cls-1" d="M3.81 3.96h50.96v57.08H3.81z"/></clipPath></defs><g id="Layer_2" data-name="Layer 2"><g id="Layer_1-2" data-name="Layer 1"><path d="M52.17 28.36A22.89 22.89 0 1 1 29.29 5.47a22.89 22.89 0 0 1 22.88 22.89" fill="#fff"/><path d="M29.28 29.51L7.55 35.66c.63 2.41-.35 5.65 1.07 7.62s5.08 2.07 7.12 3.57 3.17 4.95 5.62 5.75 5.35-1.3 8-1.3 5.44 2.1 7.77 1.36 3.56-4.21 5.6-5.67 5.65-1.46 7.15-3.49.29-5.35 1.09-7.8z" fill="#c00d0e"/><g clip-path="url(#clip-path)"><path transform="rotate(-1.49 14.242 28.644)" fill="url(#linear-gradient)" d="M3.63 21.24h21.23V35.6H3.63z"/></g><g clip-path="url(#clip-path-2)"><path transform="rotate(-55.12 16.494 17.726)" fill="url(#linear-gradient-2)" d="M4.86 5.73h23.27v24H4.86z"/></g><g clip-path="url(#clip-path-3)"><path transform="rotate(-18.52 22.51 13.713)" fill="url(#linear-gradient-3)" d="M13.19 2.38h18.66v22.7H13.19z"/></g><g clip-path="url(#clip-path-4)"><path fill="url(#linear-gradient-4)" d="M33.98 21.51h20.78v13.82H33.98z"/></g><g clip-path="url(#clip-path-5)"><path transform="rotate(-34.81 42.12 17.688)" fill="url(#linear-gradient-5)" d="M30.18 6.11h23.87v23.15H30.18z"/></g><g clip-path="url(#clip-path-6)"><path transform="rotate(-71.51 36.037 13.727)" fill="url(#linear-gradient-6)" d="M24.69 4.39h22.7v18.68h-22.7z"/></g><g clip-path="url(#clip-path-7)"><path d="M34.84 55.82c-1.87.12-3.23 1.16-3.23 2.6a2.83 2.83 0 0 0 2.9 2.58 7.79 7.79 0 0 0 2.9-.42v-1a8.61 8.61 0 0 1-2.33.4 1.75 1.75 0 0 1-1.85-1.65 1.83 1.83 0 0 1 1.93-1.68 9.78 9.78 0 0 1 2.25.25V56a14.06 14.06 0 0 0-2.57-.21m6.97.95a9.75 9.75 0 0 1 2.25.25V56a14 14 0 0 0-2.58-.21c-1.86.12-3.23 1.16-3.23 2.6A2.83 2.83 0 0 0 41.16 61a7.79 7.79 0 0 0 2.9-.42v-1a8.61 8.61 0 0 1-2.33.4 1.75 1.75 0 0 1-1.85-1.65 1.83 1.83 0 0 1 1.93-1.68m-25.08.09A9.76 9.76 0 0 1 19 57v-1a14 14 0 0 0-2.58-.21c-1.86.12-3.23 1.16-3.23 2.6A2.83 2.83 0 0 0 16.08 61a7.8 7.8 0 0 0 2.9-.42v-1a8.62 8.62 0 0 1-2.33.4 1.75 1.75 0 0 1-1.85-1.65 1.83 1.83 0 0 1 1.93-1.68"/></g><path d="M26.66 55.81v5.22h4.31v-.83h-2.88v-1.41h2.6v-.83h-2.6v-1.32h2.88v-.83h-4.31zm-3.01 0H20.2V61h1.43v-1.85h1.95A1.71 1.71 0 0 0 25.24 58a1.68 1.68 0 0 0-1.59-2.22M23 58.36h-1.36v-1.75H23a.88.88 0 1 1 0 1.75"/></g></g></svg>