<svg xmlns="http://www.w3.org/2000/svg" viewBox="0 0 45.4 49.86"><g data-name="Layer 2"><path d="M4 46.56l.62-1.89a9.13 9.13 0 0 0 .24-1.14 6.94 6.94 0 0 0 .26 1.14l.62 1.89zM3.33 41L0 49.86h3l.39-1.18h3.06l.38 1.18h3L6.48 41zm10.04-.04h-2.93v8.9h6.74V47.3h-3.81v-6.34zm8.39 6.44h-.83v-4h.83c1 0 1.68.54 1.68 2s-.64 2-1.68 2m.08-6.4H18v8.9h3.84c3.19 0 4.61-1.84 4.61-4.45S25 41 21.84 41m8.48 5.56l.62-1.89a9 9 0 0 0 .24-1.14 7 7 0 0 0 .26 1.14l.62 1.89zM29.61 41l-3.33 8.9h3l.39-1.18h3.08l.38 1.18h3L32.76 41zm11.17 4h-1.13v-1.65h1.13a.84.84 0 1 1 0 1.68m2.33 1.73a2.74 2.74 0 0 0 1.53-2.66c0-2.43-1.89-3.14-3.79-3.14h-4.14v8.9h2.94v-2.63h.69l1.83 2.63h3.23zM36.14 0h9.02v16.53h-9.02zm3.29 29.46c0 1.46-1.25 1.44-2.1 1.44h-4.18v7.32h12V24a17.91 17.91 0 0 0-5.78-6.2L34 23.11s5.39 2.79 5.39 6.35M12.41 12a13.39 13.39 0 0 1 3.08-8.21l6.15 3.44c-2.93 3.69-2.31 7.52 1.1 7.52A3.14 3.14 0 0 0 26 11.29V0h7.29v11.84a10.52 10.52 0 0 1-10.46 10.44A10.39 10.39 0 0 1 12.41 12m.25 7.11H9.51v3.51c0 8-4.41 8.7-6.94 8.67H.19v6.93h11.76c4.06-2.88 6.22-7.76 6.53-14.69a12.56 12.56 0 0 1-5.81-4.42m10.16 5.2a12.67 12.67 0 0 1-1.49-.09v14h9V21.81a12.47 12.47 0 0 1-7.51 2.5" data-name="Layer 1"/></g></svg>