<svg xmlns="http://www.w3.org/2000/svg" viewBox="0 0 76.23 28.48"><g data-name="Layer 2"><path d="M1.2 24.37a.52.52 0 0 1 .57-.57c.45 0 .51.4.51.8h1.08c.07-1.11-.46-1.6-1.54-1.6-1.35 0-1.75.67-1.75 1.5 0 1.58 2.23 1.64 2.23 2.59a.53.53 0 0 1-.56.6c-.61 0-.63-.43-.63-.93H0c-.06.92.2 1.73 1.57 1.73.84 0 1.85-.16 1.85-1.53 0-1.67-2.23-1.58-2.23-2.58m4.2 2.03l.51-2.29.54 2.29zm-.14-3.31l-1.47 5.3h1.1l.3-1.17h1.51L7 28.4h1.15l-1.44-5.3zm5.99 3.6h-.02l-.83-3.6H8.61v5.3h1.08v-4.09h.01l.97 4.09h1.06l1.02-4.09h.02v4.09h1.07v-5.3h-1.72l-.88 3.6zm36.24-3.6h1.08v5.3h-1.08zm18.37 0h1.08v5.3h-1.08zm-30.33-.02h-1.08v5.3h.02v.02h2.76v-.92h-1.7V26.2h1.55v-.92h-1.55v-1.26h1.7v-.94h-1.7zm19.94 0h-1.08v5.3h.02v.02h2.76v-.92h-1.7V26.2h1.55v-.92h-1.55v-1.26h1.7v-.94h-1.7zm3.63 0h-1.08v5.3h.02v.02h2.76v-.92h-1.7V26.2h1.55v-.92h-1.55v-1.26h1.7v-.94h-1.7zm-43.32 1.29a.52.52 0 0 1 .57-.57c.45 0 .51.4.51.8h1.08c.07-1.11-.46-1.6-1.54-1.6-1.35 0-1.75.66-1.75 1.49 0 1.58 2.23 1.64 2.23 2.59a.53.53 0 0 1-.56.6c-.61 0-.63-.43-.63-.93h-1.1c-.06.92.2 1.73 1.57 1.73.85 0 1.85-.16 1.85-1.48 0-1.67-2.23-1.58-2.23-2.58m5.46 2.36c0 .59-.22.91-.71.91s-.68-.26-.68-.91V23.1h-1.11v3.76c0 1 .59 1.63 1.81 1.63a1.58 1.58 0 0 0 1.8-1.63V23.1h-1.11zm4.9-.01h-.01l-1.41-3.67h-1.5v5.3h1.03v-3.88h.02l1.44 3.88h1.46v-5.3h-1.03v3.67zM29.89 23C28.07 23 28 24.37 28 25.7c0 2 .21 2.78 2.08 2.78a9.91 9.91 0 0 0 1.5-.18v-2.68h-1.71v.82h.6v1.17a1.73 1.73 0 0 1-.55.1c-.63 0-.79-.29-.79-2 0-1 0-2 .69-2s.67.43.66.92h1.1A1.51 1.51 0 0 0 29.89 23m11.09 3.77h-.01l-1.41-3.67h-1.5v5.3h1.03v-3.88h.02l1.45 3.88h1.46v-5.3h-1.04v3.67zm11.39 0h-.02l-1.41-3.67h-1.49v5.3h1.03v-3.88h.02l1.44 3.88h1.46v-5.3h-1.03v3.67zM44.74 23c-1.81 0-1.88 1.36-1.88 2.69 0 2 .21 2.78 2.08 2.78a9.91 9.91 0 0 0 1.5-.18v-2.67h-1.72v.82h.6v1.17a1.73 1.73 0 0 1-.55.1c-.63 0-.79-.29-.79-2 0-1 0-2 .69-2s.67.43.66.92h1.1A1.51 1.51 0 0 0 44.74 23m26.03 3.77h-.02l-1.41-3.67h-1.49v5.3h1.03v-3.88h.02l1.44 3.88h1.46v-5.3h-1.03v3.67zm5.45-2.04A1.51 1.51 0 0 0 74.53 23c-1.81 0-1.88 1.36-1.88 2.69 0 2 .21 2.78 2.08 2.78a9.94 9.94 0 0 0 1.5-.18v-2.67h-1.72v.82h.6v1.17a1.73 1.73 0 0 1-.55.1c-.63 0-.79-.29-.79-2 0-1 0-2 .69-2s.67.43.66.92zm-13.53.77V24a3.1 3.1 0 0 1 .59 0 .58.58 0 0 1 .57.65c0 .56.05.93-1.16.9m1.62.47c.39-.18.66-.56.66-1.38s-.4-1.5-1.75-1.5h-1.61v5.26h1.08v-2.2c1.37 0 1.18 1.19 1.18 2.2l1.13-.06c0-.94 0-1.88-.68-2.37M49.56 8.71H48l-1-3.38v3.38h-1V4.48h1.6l1 3.25-.06-3.25h1.08zm-4.76-.89c-.07.7-.57 1.06-1.49 1.06s-1.43-.36-1.5-1.06V4.48h1.1v3.16a.58.58 0 0 0 0 .16.37.37 0 0 0 .39.3.37.37 0 0 0 .4-.3 1.26 1.26 0 0 0 0-.16V4.48h1.1v3.34m-4 .11c-.12.83-.93 1-1.5 1-1 0-1.54-.41-1.54-1.24v-.36h1.15v.42a.36.36 0 0 0 .41.37.35.35 0 0 0 .4-.27.51.51 0 0 0 0-.3c-.21-.55-1.72-.8-1.89-1.66a1.45 1.45 0 0 1 0-.57c.13-.78.88-.94 1.48-.94a1.62 1.62 0 0 1 1.17.35 1 1 0 0 1 .26.72v.31h-1.08v-.28a.34.34 0 0 0-.38-.37.34.34 0 0 0-.37.27.49.49 0 0 0 0 .21c.12.47 1.72.76 1.89 1.64a2.12 2.12 0 0 1 0 .69m-5.14.83V5.04l-.69 3.71h-1.1L33.14 5v3.71H32l.09-4.28h1.76l.51 3.18.51-3.18h1.76l.09 4.28zM30 8.76L29.46 5l-.57 3.79H27.7l.79-4.28h1.92l.78 4.28zm28.83-5.58C58.28 0 48.83-.94 37.72 1a59.8 59.8 0 0 0-12.16 3.35 1.6 1.6 0 0 1 1.11.35 1 1 0 0 1 .26.72v.31h-1.09v-.27a.34.34 0 0 0-.38-.37.34.34 0 0 0-.37.27.54.54 0 0 0 0 .22c.12.48 1.73.77 1.91 1.65a2.18 2.18 0 0 1 0 .7c-.1.71-.72 1-1.52 1-1.11 0-1.56-.53-1.56-1.25v-.35h1.18v.43a.37.37 0 0 0 .41.37.36.36 0 0 0 .4-.28.56.56 0 0 0 0-.31C25.69 7 24.18 6.75 24 5.88a1.46 1.46 0 0 1 0-.58 1.1 1.1 0 0 1 .1-.3c-3.64 1.7-5.77 3.57-5.49 5.19.55 3.15 10 4.13 21.11 2.19a58.86 58.86 0 0 0 12.6-3.55h-.15c-.76 0-1.44-.28-1.51-1.06a2.76 2.76 0 0 1 0-.28V5.43c.09-.75.68-1.06 1.51-1.06.64 0 1.42.18 1.5 1.06v.44h-1.1v-.26a1.36 1.36 0 0 0 0-.16.43.43 0 0 0-.82 0 1 1 0 0 0 0 .2v1.94a.85.85 0 0 0 0 .16.44.44 0 0 0 .84 0 .82.82 0 0 0 0-.16V7h-.43v-.66h1.53V7.5a2.77 2.77 0 0 1 0 .28 1.12 1.12 0 0 1-.18.52C57 6.62 59.1 4.78 58.83 3.18" fill="#223c7e" data-name="Layer 1"/></g></svg>