<svg xmlns="http://www.w3.org/2000/svg" viewBox="0 0 83.32 40.02"><defs><style>.cls-1{fill:#00933a}.cls-2{fill:#e30613}</style></defs><g id="Layer_2" data-name="Layer 2"><g id="Layer_1-2" data-name="Layer 1"><path class="cls-1" d="M59.79 13.74h-4a8.18 8.18 0 0 0-8.18 8.18v1z"/><path class="cls-2" d="M56.05 12.67a26.75 26.75 0 0 0 2.12-4.83c.76-2.48.18-5.54 2.69-5.2S72.51 5.38 83.32 0c-8.46 10.16-18.83 13.53-27.27 12.67"/><path d="M0 19.57h10.94v-1.88H1.88v-4.75h8.07v-1.88H1.88V6.52h9.06V4.64H0v14.93zm20.4-6.27h4.53v3.34A6.28 6.28 0 0 1 21.07 18a5.76 5.76 0 0 1-5.9-5.87 5.91 5.91 0 0 1 10-4.23l1.3-1.36a7.79 7.79 0 0 0-13.18 5.59 7.6 7.6 0 0 0 7.79 7.75 8.2 8.2 0 0 0 5.42-2.09l.33-.28v-6.1H20.4zm13.02.44l3-6.54 3 6.54zm8.64 5.85h2.07L37.2 4.37h-1.55l-7 15.22h2.07l1.82-4h7.7zM.01 39.96h2.36v-.46H.47v-1h1.69v-.46H.47v-.95h1.9v-.46H.01v3.33zm5-1.63L3.94 36.6h-.5v3.36h.46v-2.54l1.12 1.79 1.08-1.8v2.55h.46V36.6h-.51l-1.04 1.73zm58.96 0L62.9 36.6h-.5v3.36h.46v-2.54l1.12 1.79 1.08-1.8v2.55h.46V36.6h-.51l-1.04 1.73zm7.05.95l-2.19-2.68h-.47v3.36h.46v-2.65l2.16 2.66h.49v-3.36h-.45v2.67zm9.69-2.68l-1.04 1.73-1.07-1.73h-.49v3.36h.46v-2.54l1.11 1.79 1.09-1.8v2.55h.45V36.6h-.51zm-39.63 2.92h-1.2v-1h1.2a.49.49 0 0 1 0 1m-1.2-2.46H41a.49.49 0 0 1 .49.49.49.49 0 0 1-.49.49h-1.13zm1.76 1.2a1 1 0 0 0 .28-.67 1 1 0 0 0-.95-1h-1.56V40h1.66a.95.95 0 0 0 .55-1.72M16.6 37.06h1.07v2.9h.46v-2.9h1.07v-.46h-2.6v.46zm-8.78-.45h.46v3.35h-.46zm58.96 0h.46v3.35h-.46zm13.97-9.3h.46v4.22h-.46zm-15.57 0h.46v4.22h-.46zm-9.12 0h.46v4.22h-.46zm16.4 9.3h.46v3.35h-.46zm-52.35 3.35h2.35v-.46h-1.89v-1h1.68v-.46h-1.68v-.95h1.89v-.46h-2.35v3.33zm12.42-3.36h-.46v3.36h2.35v-.46h-1.89v-2.9zm14.91 0h-.46v3.36h2.35v-.46h-1.89v-2.9zm8.46 0h-.46v3.36h2.35v-.46H55.9v-2.9zm23.55-9.28H79v3.75h-1.98v.46h2.43v-4.21zm-52.13 3.75h-1.6v-3.75h-.46v3.75h-1.98v.46h4.5v-4.21h-.46v3.75zm-21.08 0a.88.88 0 0 1-.88-.88V30a.88.88 0 0 1 .88-.88h.87v2zm11-1.11A.88.88 0 0 1 19 30v1.11h-.88a.88.88 0 0 1-.88-.88zm-7.66 1.57h6.36A1.49 1.49 0 0 0 17 31a1.34 1.34 0 0 0 1.08.55h4v-4.23h-.46v3.75h-2.17V30a1.34 1.34 0 0 0-2.67 0v.23a1.35 1.35 0 0 0 0 .17c0 .49-.61.71-.84.71h-1.29v-2.39h-.46v2.36h-2.88v-2.36h-.46v2.36H7.58v-2.45H6.24A1.34 1.34 0 0 0 4.9 30v.23a1.34 1.34 0 0 0 1.34 1.34h.88v.06a1.07 1.07 0 0 1-1.06 1.06 2 2 0 0 1-.92-.17l-.22.4a2.39 2.39 0 0 0 1.08.19h.06a1.51 1.51 0 0 0 1.52-1.51v-.06zm23.25-.46a.88.88 0 0 1-.83-.87V30a.88.88 0 0 1 .88-.88h.87v2zM40.24 30A.88.88 0 0 1 42 30v1.11h-.88a.88.88 0 0 1-.88-.88zM40 31a1.33 1.33 0 0 0 1.08.55h4v-4.23h-.46v3.75h-2.16V30a1.34 1.34 0 0 0-2.67 0v.23a1.17 1.17 0 0 0 0 .17c0 .49-.61.71-.84.71h-1.23v-2.39h-.46v2.36h-3.09v-2.45h-1.34A1.34 1.34 0 0 0 31.49 30v.23a1.34 1.34 0 0 0 1.34 1.34H39a1.49 1.49 0 0 0 1-.57m11.4-.47c-.32-.26-.62-.56-.86-.79l-.31-.3a1.68 1.68 0 0 1 1.48-.4.43.43 0 0 1 .3.45 1.36 1.36 0 0 1-.62 1m2.91.55h-1.83a1.37 1.37 0 0 1-.69-.27 1.77 1.77 0 0 0 .7-1.32.89.89 0 0 0-.61-.88 2.16 2.16 0 0 0-2.15.7l-.16.2.21.14a4.53 4.53 0 0 1 .45.42c.22.22.49.48.77.72a2.49 2.49 0 0 1-1.05.29H46.8v-3.72h-.46v4.21h3.59a3 3 0 0 0 1.45-.44 2 2 0 0 0 1.09.44h2.29v-4.21h-.46zm9.59-2.33h-.46v2.37h-1.36a1.31 1.31 0 0 1-1.31-1.31v-.12c0-.15.18-.55.31-.58l-.11-.45c-.42.11-.66.77-.66 1v.12a1.77 1.77 0 0 0 1.77 1.77h1.82zM67 32a.7.7 0 0 1-.7.7h-.62v.46h.62A1.16 1.16 0 0 0 67.47 32v-3.27H67zm8.58-.93h-.94a.94.94 0 0 1-.94-.94V30a.94.94 0 1 1 1.87 0zM76 30a1.4 1.4 0 0 0-2.79 0v.1a1.39 1.39 0 0 0 .36.94h-4.23v-3.72h-.46v4.21H76zM3.52 31.07h-.89a.94.94 0 0 1-.94-.94V30a.94.94 0 1 1 1.87 0zm.46.46V30a1.4 1.4 0 0 0-2.77-.27 1 1 0 0 0-1.09.54 3.92 3.92 0 0 0 .11 2 4.91 4.91 0 0 1 .12.73h.46a5 5 0 0 0-.13-.81 3.83 3.83 0 0 1-.13-1.74c.11-.27.45-.28.65-.26a1.4 1.4 0 0 0 1.39 1.3H4zm25.5 7.03h1v.69a1.34 1.34 0 0 1-.82.28 1.23 1.23 0 0 1-1.26-1.25 1.26 1.26 0 0 1 2.13-.9l.32-.33a1.72 1.72 0 0 0-2.91 1.23A1.68 1.68 0 0 0 29.63 40a1.81 1.81 0 0 0 1.2-.46l.08-.07V38.1h-1.43zm7.2.98a1.24 1.24 0 1 1 1.24-1.24 1.24 1.24 0 0 1-1.24 1.24m0-2.94a1.7 1.7 0 1 0 1.7 1.7 1.7 1.7 0 0 0-1.7-1.7m23.99 2a.89.89 0 0 1-1.79 0v-2h-.46v2a1.35 1.35 0 1 0 2.71 0v-2h-.46zm15.78 0a.89.89 0 0 1-1.79 0v-2h-.46v2a1.35 1.35 0 1 0 2.71 0v-2h-.46zm-51.73-.51c-.7-.17-.82-.32-.82-.58s.29-.45.69-.45a1.19 1.19 0 0 1 .76.33l.33-.32a1.65 1.65 0 0 0-1.09-.47c-.67 0-1.15.38-1.15.91 0 .73.7.91 1.17 1 .73.18.73.48.73.61a.29.29 0 0 1-.1.21.93.93 0 0 1-.66.19 1.36 1.36 0 0 1-1-.45l-.33.33a1.81 1.81 0 0 0 1.27.58h.06a1.32 1.32 0 0 0 .93-.32.75.75 0 0 0 .24-.54c0-.79-.81-1-1.08-1.06m37.11-9.89a.36.36 0 1 0-.36-.36.36.36 0 0 0 .36.36m.96 0a.36.36 0 1 0-.36-.36.36.36 0 0 0 .36.36m-30.32 0a.36.36 0 1 0-.36-.36.36.36 0 0 0 .36.36"/><path d="M14.45 28.17a.36.36 0 1 0-.36-.36.36.36 0 0 0 .36.36m18.93 0a.36.36 0 1 0-.36-.36.36.36 0 0 0 .36.36m3.77 4.28a.36.36 0 1 0-.36.36.36.36 0 0 0 .36-.36m.96 0a.36.36 0 1 0-.36.36.36.36 0 0 0 .36-.36m-28.04 0a.36.36 0 1 0 .36-.36.36.36 0 0 0-.36.36m.93 0a.36.36 0 1 0 .36-.36.36.36 0 0 0-.36.36m13.14-5.81h-.56a.24.24 0 1 1 0-.48h.47v-.31h-.47a.56.56 0 0 0-.5.8h-.31v.31h1.38zm.36 3.75l-.78-3.08h-.47l.78 3.08h.47zm53.7 0l-.78-3.08h-.48l.79 3.08h.47zm.61 2.41h-.56a.24.24 0 1 1 0-.48h.47V32h-.47a.56.56 0 0 0-.5.8h-.31v.31h1.38zm-35.09 5.86l.62-1.35.66 1.35zm.44-2L42.62 40h.51l.39-.84h1.65l.38.84h.51l-1.52-3.35zm-30.16 2l.62-1.35.61 1.35zm.44-2L12.92 40h.51l.39-.84h1.65l.38.84h.51l-1.52-3.35zm37.82 2l.62-1.35.61 1.35zm.44-2L51.15 40h.51l.39-.84h1.65l.38.84h.51l-1.52-3.35zM10 38.34v-1.28h1a.64.64 0 0 1 0 1.27zm2.14-.64a1.1 1.1 0 0 0-1.1-1.1H9.57V40H10v-1.21h.83l.78 1.15h.56l-.81-1.2a1.1 1.1 0 0 0 .78-1.05"/><path class="cls-1" d="M59.79 13.74h-4a8.18 8.18 0 0 0-8.18 8.18v1z"/><path class="cls-2" d="M56.05 12.67a26.75 26.75 0 0 0 2.12-4.83c.76-2.48.18-5.54 2.69-5.2S72.51 5.38 83.32 0c-8.46 10.16-18.83 13.53-27.27 12.67"/><path d="M0 19.57h10.94v-1.88H1.88v-4.75h8.07v-1.89H1.88V6.52h9.06V4.64H0v14.93zm20.4-6.27h4.53v3.34A6.28 6.28 0 0 1 21.07 18a5.76 5.76 0 0 1-5.9-5.87 5.91 5.91 0 0 1 10-4.23l1.3-1.36a7.79 7.79 0 0 0-13.18 5.59 7.6 7.6 0 0 0 7.79 7.75 8.2 8.2 0 0 0 5.42-2.09l.33-.28v-6.1H20.4zm13.02.44l3-6.54 3 6.54zm8.64 5.85h2.07L37.2 4.37h-1.55l-7 15.22h2.07l1.82-4h7.7zM.01 39.96h2.36v-.46H.47v-1h1.69v-.46H.47v-.95h1.9v-.46H.01v3.33zm5-1.63L3.94 36.6h-.5v3.36h.46v-2.54l1.12 1.79L6.1 37.4v2.56h.46V36.6h-.51l-1.04 1.73zm58.96 0L62.9 36.6h-.5v3.36h.46v-2.54l1.12 1.79 1.08-1.81v2.56h.46V36.6h-.51l-1.04 1.73zm7.05.95l-2.19-2.68h-.47v3.35h.46v-2.64l2.16 2.66h.49V36.6h-.45v2.68zm9.69-2.68l-1.04 1.73-1.07-1.73h-.49v3.36h.46v-2.54l1.11 1.79 1.09-1.81v2.56h.45V36.6h-.51zm-39.63 2.92h-1.2v-1h1.2a.49.49 0 0 1 0 1m-1.2-2.46H41a.49.49 0 0 1 .49.49.49.49 0 0 1-.49.49h-1.13zm1.76 1.2a1 1 0 0 0 .28-.67 1 1 0 0 0-.95-1h-1.56V40h1.66a.95.95 0 0 0 .55-1.72M16.6 37.06h1.07v2.9h.46v-2.9h1.07v-.46h-2.6v.46zm-8.77-.46h.46v3.35h-.46zm58.95 0h.46v3.35h-.46zm13.97-9.29h.46v4.22h-.46zm-15.57 0h.46v4.22h-.46zm-9.12 0h.46v4.22h-.46zm16.4 9.29h.46v3.35h-.46zm-52.35 3.36h2.35v-.46h-1.89v-1h1.68v-.46h-1.68v-.95h1.89v-.46h-2.35v3.33zm12.42-3.36h-.46v3.36h2.35v-.46h-1.89v-2.9zm14.91 0h-.46v3.36h2.35v-.46h-1.89v-2.9zm8.46 0h-.46v3.36h2.35v-.46H55.9v-2.9zm23.55-9.28H79v3.75h-1.98v.46h2.43v-4.21zm-52.13 3.75h-1.6v-3.75h-.46v3.75h-1.98v.46h4.5v-4.21h-.46v3.75zm-21.08 0a.88.88 0 0 1-.88-.88V30a.88.88 0 0 1 .88-.88h.87v2zm11-1.11A.88.88 0 0 1 19 30v1.11h-.88a.88.88 0 0 1-.88-.88zm-7.66 1.57h6.36A1.49 1.49 0 0 0 17 31a1.34 1.34 0 0 0 1.08.55h4v-4.23h-.46v3.75h-2.17V30a1.34 1.34 0 0 0-2.67 0v.23a1.35 1.35 0 0 0 0 .17c0 .49-.61.71-.84.71h-1.29v-2.39h-.46v2.36h-2.88v-2.36h-.46v2.36H7.58v-2.45H6.24A1.34 1.34 0 0 0 4.9 30v.23a1.34 1.34 0 0 0 1.34 1.34h.88v.06a1.07 1.07 0 0 1-1.06 1.06 2 2 0 0 1-.92-.17l-.22.4a2.39 2.39 0 0 0 1.08.19h.06a1.51 1.51 0 0 0 1.52-1.51v-.06zm23.25-.46a.88.88 0 0 1-.83-.87V30a.88.88 0 0 1 .88-.88h.87v2zM40.24 30A.88.88 0 0 1 42 30v1.11h-.88a.88.88 0 0 1-.88-.88zM40 31a1.33 1.33 0 0 0 1.08.55h4v-4.23h-.46v3.75h-2.16V30a1.34 1.34 0 0 0-2.67 0v.23a1.17 1.17 0 0 0 0 .17c0 .49-.61.71-.84.71h-1.23v-2.39h-.46v2.36h-3.09v-2.45h-1.34A1.34 1.34 0 0 0 31.49 30v.23a1.34 1.34 0 0 0 1.34 1.34H39a1.49 1.49 0 0 0 1-.57m11.4-.47c-.32-.26-.62-.56-.86-.79l-.31-.3a1.68 1.68 0 0 1 1.48-.4.43.43 0 0 1 .3.45 1.36 1.36 0 0 1-.62 1m2.91.55h-1.83a1.37 1.37 0 0 1-.69-.27 1.77 1.77 0 0 0 .7-1.32.89.89 0 0 0-.61-.88 2.16 2.16 0 0 0-2.15.7l-.16.2.21.14a4.53 4.53 0 0 1 .45.42c.22.22.49.48.77.72a2.49 2.49 0 0 1-1.05.29H46.8v-3.72h-.46v4.21h3.59a3 3 0 0 0 1.45-.44 2 2 0 0 0 1.09.44h2.29v-4.21h-.46zm9.59-2.34h-.46v2.37h-1.36a1.31 1.31 0 0 1-1.31-1.31v-.12c0-.15.18-.55.31-.58l-.11-.45c-.42.11-.66.77-.66 1v.12a1.77 1.77 0 0 0 1.77 1.77h1.82zM67 32a.7.7 0 0 1-.7.7h-.62v.46h.62A1.16 1.16 0 0 0 67.47 32v-3.27H67zm8.58-.93h-.94a.94.94 0 0 1-.94-.94V30a.94.94 0 0 1 1.87 0zM76 30a1.4 1.4 0 0 0-2.79 0v.1a1.39 1.39 0 0 0 .36.94h-4.23v-3.72h-.46v4.21H76zM3.52 31.07h-.89a.94.94 0 0 1-.94-.94V30a.94.94 0 1 1 1.87 0zm.46.46V30a1.4 1.4 0 0 0-2.77-.27 1 1 0 0 0-1.09.54 3.92 3.92 0 0 0 .11 2 4.91 4.91 0 0 1 .12.73h.46a5 5 0 0 0-.13-.81 3.83 3.83 0 0 1-.13-1.74c.11-.27.45-.28.65-.26a1.4 1.4 0 0 0 1.39 1.3H4zm25.5 7.03h1v.69a1.34 1.34 0 0 1-.82.28 1.23 1.23 0 0 1-1.26-1.25 1.26 1.26 0 0 1 2.13-.9l.32-.33a1.72 1.72 0 0 0-2.91 1.23A1.68 1.68 0 0 0 29.63 40a1.81 1.81 0 0 0 1.2-.46l.08-.07V38.1h-1.43zm7.2.98a1.24 1.24 0 1 1 1.24-1.24 1.24 1.24 0 0 1-1.24 1.24m0-2.94a1.7 1.7 0 1 0 1.7 1.7 1.7 1.7 0 0 0-1.7-1.7m23.99 2a.89.89 0 0 1-1.79 0v-2h-.46v2a1.35 1.35 0 1 0 2.71 0v-2h-.46zm15.78 0a.89.89 0 0 1-1.79 0v-2h-.46v2a1.35 1.35 0 1 0 2.71 0v-2h-.46zm-51.73-.51c-.7-.17-.82-.32-.82-.58s.29-.45.69-.45a1.19 1.19 0 0 1 .76.33l.33-.32a1.65 1.65 0 0 0-1.09-.47c-.67 0-1.15.38-1.15.91 0 .73.7.91 1.17 1 .73.18.73.48.73.61a.29.29 0 0 1-.1.21.93.93 0 0 1-.66.19 1.36 1.36 0 0 1-1-.45l-.33.33a1.81 1.81 0 0 0 1.27.58h.06a1.32 1.32 0 0 0 .93-.32.75.75 0 0 0 .24-.54c0-.79-.81-1-1.08-1.06m37.11-9.89a.36.36 0 1 0-.36-.36.36.36 0 0 0 .36.36m.96 0a.36.36 0 1 0-.36-.36.36.36 0 0 0 .36.36m-30.32 0a.36.36 0 1 0-.36-.36.36.36 0 0 0 .36.36"/><path d="M14.45 28.17a.36.36 0 1 0-.36-.36.36.36 0 0 0 .36.36m18.93 0a.36.36 0 1 0-.36-.36.36.36 0 0 0 .36.36m3.77 4.28a.36.36 0 1 0-.36.36.36.36 0 0 0 .36-.36m.96 0a.36.36 0 1 0-.36.36.36.36 0 0 0 .36-.36m-28.04 0a.36.36 0 1 0 .36-.36.36.36 0 0 0-.36.36m.93 0a.36.36 0 1 0 .36-.36.36.36 0 0 0-.36.36m13.14-5.82h-.56a.24.24 0 1 1 0-.48h.47v-.31h-.47a.56.56 0 0 0-.5.8h-.31v.31h1.38zm.36 3.76l-.78-3.08h-.47l.78 3.08h.47zm53.7 0l-.78-3.08h-.48l.79 3.08h.47zm.61 2.41h-.56a.24.24 0 1 1 0-.48h.47V32h-.47a.56.56 0 0 0-.5.8h-.31v.31h1.38zm-35.09 5.85l.62-1.35.66 1.35zm.44-2L42.62 40h.51l.39-.84h1.65l.38.84h.51l-1.52-3.35zm-30.16 2l.62-1.35.61 1.35zm.44-2L12.92 40h.51l.39-.84h1.65l.38.84h.51l-1.52-3.35zm37.82 2l.62-1.35.61 1.35zm.44-2L51.15 40h.51l.39-.84h1.65l.38.84h.51l-1.52-3.35zM10 38.33v-1.27h1a.64.64 0 0 1 0 1.27zm2.14-.64a1.1 1.1 0 0 0-1.1-1.1H9.57V40H10v-1.21h.83l.78 1.15h.56l-.81-1.2a1.1 1.1 0 0 0 .78-1.05"/></g></g></svg>