<svg id="Layer_1" data-name="Layer 1" xmlns="http://www.w3.org/2000/svg" width="0.45in" height="0.68in" viewBox="0 0 32.47 48.71"><defs><style>.cls-1{fill:#fff;}.cls-2{fill:#2a51a3;}</style></defs><title>Untitled-3</title><polygon class="cls-1" points="0 48.71 32.48 48.71 32.48 -0.01 0 -0.01 0 48.71 0 48.71"/><path class="cls-2" d="M25.06,24.77A8.93,8.93,0,0,1,22.71,29H29A13.16,13.16,0,0,0,18.87,14a9.18,9.18,0,0,1,6.19,10.78"/><path class="cls-2" d="M3.24,3.24V29H6a17,17,0,0,0,3-.11c3.93-.57,7.52-3.77,7.91-6.6a5.83,5.83,0,0,0-4.74-7l-.2-.06a13.61,13.61,0,0,1-3.14-.33,1.61,1.61,0,0,0-.45,1.72,4,4,0,0,1-.64-4.29A6.6,6.6,0,0,1,10.07,10l0-.05a10.6,10.6,0,0,1,3.37-2.41,13,13,0,0,1,4-1.1,13.39,13.39,0,0,1,11.72,5.13V3.24Z"/><path class="cls-2" d="M22,9.5a12.69,12.69,0,0,0-9.16,2.15,12,12,0,0,1,1.81-.8,2,2,0,0,0,1.55,1.46,1.92,1.92,0,0,0,2.31-1.4,1.62,1.62,0,0,0,0-.79,13.24,13.24,0,0,1,10.72,5.11V12.94A13.27,13.27,0,0,0,22,9.5"/><path class="cls-2" d="M5.18,40.2h1l1.93,5.14H7l-.41-1.19H4.77l-.41,1.19H3.26L5.18,40.2Zm1.11,3.07-.62-1.84-.62,1.84Z"/><path class="cls-2" d="M8.76,40.2h1.91a2.56,2.56,0,0,1,1.84.64,2.54,2.54,0,0,1,.66,1.9A3,3,0,0,1,13,43.86a2.13,2.13,0,0,1-.52.81,2.21,2.21,0,0,1-.84.5,3.62,3.62,0,0,1-1.13.17H8.76V40.2Zm1.76,4.22a1.92,1.92,0,0,0,.71-.12A1.08,1.08,0,0,0,11.7,44a1.21,1.21,0,0,0,.27-.53,2.38,2.38,0,0,0,.09-.68,2.84,2.84,0,0,0-.07-.68,1.28,1.28,0,0,0-.25-.51,1.14,1.14,0,0,0-.42-.33,1.76,1.76,0,0,0-.65-.11H9.83v3.3Z"/><polygon class="cls-2" points="14.01 40.2 14.98 40.2 17.09 43.57 17.09 40.2 18.13 40.2 18.13 45.34 17.18 45.34 15.06 42 15.06 45.34 14.01 45.34 14.01 40.2 14.01 40.2"/><path class="cls-2" d="M21.48,45.46a2.74,2.74,0,0,1-1-.18,2.23,2.23,0,0,1-.77-.54,2.63,2.63,0,0,1-.49-.85,3.77,3.77,0,0,1,0-2.24,2.63,2.63,0,0,1,.49-.85,2.33,2.33,0,0,1,.77-.54,2.82,2.82,0,0,1,1-.19,2.73,2.73,0,0,1,1,.19,2.23,2.23,0,0,1,.77.54,2.44,2.44,0,0,1,.48.85,4,4,0,0,1,0,2.24,2.59,2.59,0,0,1-.47.85,2.23,2.23,0,0,1-.77.54,2.78,2.78,0,0,1-1,.18m0-.92a1.15,1.15,0,0,0,1-.45,2.26,2.26,0,0,0,.33-1.32,2.22,2.22,0,0,0-.33-1.31,1.14,1.14,0,0,0-1-.47,1.16,1.16,0,0,0-1,.47,2.22,2.22,0,0,0-.33,1.31,2.26,2.26,0,0,0,.33,1.32,1.17,1.17,0,0,0,1,.45"/><path class="cls-2" d="M29.14,43.56a2.65,2.65,0,0,1-.19.76,2,2,0,0,1-.43.6,1.83,1.83,0,0,1-.66.4,2.52,2.52,0,0,1-.91.14,2.48,2.48,0,0,1-1-.19,1.94,1.94,0,0,1-.74-.55,2.23,2.23,0,0,1-.45-.85,3.8,3.8,0,0,1-.15-1.1,3.52,3.52,0,0,1,.16-1.12,2.44,2.44,0,0,1,.48-.85,2.12,2.12,0,0,1,.74-.54,2.66,2.66,0,0,1,1-.19,2.71,2.71,0,0,1,.85.13,1.74,1.74,0,0,1,.61.35,1.85,1.85,0,0,1,.4.55,3.12,3.12,0,0,1,.22.73L28,42a1.55,1.55,0,0,0-.31-.71A.91.91,0,0,0,27,41a1.06,1.06,0,0,0-.94.47,2.23,2.23,0,0,0-.32,1.31,2.18,2.18,0,0,0,.34,1.32,1.09,1.09,0,0,0,.92.45,1,1,0,0,0,.73-.25,1.32,1.32,0,0,0,.29-.73Z"/><path class="cls-2" d="M8.76,36.92V32.38H9.83v5.48H5.36a2.29,2.29,0,0,1-1.58-.46A1.82,1.82,0,0,1,3.27,36a2,2,0,0,1,.21-.92,1.66,1.66,0,0,1,.63-.63,2.39,2.39,0,0,1,1-.26l.12.92a1.12,1.12,0,0,0-.74.25.83.83,0,0,0-.22.64.89.89,0,0,0,.25.71,1.17,1.17,0,0,0,.79.22Zm-1-2.32V35H6.39V34.6h.17v-.23a.54.54,0,0,1,.16-.43.6.6,0,0,1,.44-.15.61.61,0,0,1,.41.12.65.65,0,0,1,.17.4l-.35,0a.31.31,0,0,0-.06-.18.21.21,0,0,0-.15,0q-.24,0-.24.27v.2Z"/><path class="cls-2" d="M20,34v2.88H14.16V35.83a1.87,1.87,0,0,0-.42-1.34A1.68,1.68,0,0,0,12.45,34a1.75,1.75,0,0,0-1.3.48,1.78,1.78,0,0,0-.47,1.29,2,2,0,0,0,.59,1.54,2.58,2.58,0,0,0,1.72.51h.14V38a1.31,1.31,0,0,1-.16.79l.53.82a1.12,1.12,0,0,0,.24-.19,2.47,2.47,0,0,0,.42-1.55h6.92V34Zm-6.91,2.88H12.8a1,1,0,0,1-1.09-1.11,1,1,0,0,1,.19-.66.63.63,0,0,1,.54-.23.78.78,0,0,1,.41.09.48.48,0,0,1,.21.31,3.09,3.09,0,0,1,.07.77v.83Z"/><polygon class="cls-2" points="21.08 32.49 20.04 32.49 20.04 33.52 21.08 33.52 21.08 32.49 21.08 32.49"/><path class="cls-2" d="M26,36.92v-.55a1.69,1.69,0,0,0-.27-1A1,1,0,0,0,24.9,35a2.4,2.4,0,0,0-.79.14l-.24-.92A3.68,3.68,0,0,1,25,34a1.92,1.92,0,0,1,1.51.58A2.35,2.35,0,0,1,27,36.27v1.59H21.86v-.94Z"/><path class="cls-2" d="M29.14,32.13v.36H27.77v-.36h.17V31.9a.54.54,0,0,1,.16-.43.59.59,0,0,1,.43-.15.62.62,0,0,1,.42.12.71.71,0,0,1,.17.4l-.35.05a.31.31,0,0,0-.06-.18.21.21,0,0,0-.15-.05q-.24,0-.24.27v.2Z"/><polygon class="cls-2" points="27.9 32.89 28.94 32.89 28.94 37.86 27.9 37.86 27.9 32.89 27.9 32.89"/></svg>