<svg xmlns="http://www.w3.org/2000/svg" viewBox="0 0 84.57 21.14"><g data-name="Layer 2"><g data-name="Layer 1"><path d="M8 10.57A2.52 2.52 0 1 0 10.57 8 2.52 2.52 0 0 0 8 10.57m-.37-2.94A3 3 0 0 0 6.7 6a9.22 9.22 0 0 0-2.34-1.64A9.13 9.13 0 0 0 6.05 6.7a3 3 0 0 0 1.58.92M4.69 9.51l.54.09a5.48 5.48 0 0 1 .87-2.07l-.45-.32a6 6 0 0 0-1 2.3m1.73 1.06zM9.6 5.24l-.09-.54a6 6 0 0 0-2.31.93l.32.45a5.41 5.41 0 0 1 2.08-.84m-3.18 5.33s-.33-.47-2.07-.4c-.58 0-3.92.1-4.35.4.42.3 3.77.38 4.35.4 1.75.07 2.06-.38 2.07-.4m9.49-1l.54-.09a6 6 0 0 0-.93-2.31l-.45.32a5.45 5.45 0 0 1 .84 2.08m-.81-2.89a9.18 9.18 0 0 0 1.69-2.34 9.26 9.26 0 0 0-2.34 1.69 3 3 0 0 0-.93 1.58 3 3 0 0 0 1.58-.93m-4.52-.29zm3.36-.77a6 6 0 0 0-2.3-1l-.09.54a5.43 5.43 0 0 1 2.07.86zm-3.36.77s.47-.32.4-2.07c0-.58-.1-3.93-.4-4.35-.3.42-.38 3.77-.4 4.35-.07 1.75.38 2.06.4 2.07m-4.95 7.55l.45-.32a5.43 5.43 0 0 1-.84-2.08l-.54.09a6 6 0 0 0 .93 2.31m5.92 2l.09.54a6 6 0 0 0 2.31-.93l-.32-.45a5.37 5.37 0 0 1-2.08.84m2-2.4a3 3 0 0 0 .93 1.58 9.15 9.15 0 0 0 2.34 1.69 9.24 9.24 0 0 0-1.69-2.34 3 3 0 0 0-1.58-.93m2.94-1.88l-.54-.09a5.39 5.39 0 0 1-.95 2.04l.45.32a6.06 6.06 0 0 0 1-2.3m.34-1.46c-1.74-.07-2.05.38-2.07.4s.32.47 2.07.4c.58 0 3.93-.1 4.35-.4-.42-.3-3.77-.38-4.35-.4m-2.07.4zM7.21 15.5a6 6 0 0 0 2.3 1l.09-.54A5.42 5.42 0 0 1 7.53 15zm3.36-.77s-.47.33-.4 2.07c0 .58.1 3.93.4 4.35.3-.42.38-3.77.4-4.35.07-1.74-.38-2.05-.4-2.07m-2.94-1.22zM6 14.44a9.17 9.17 0 0 0-1.69 2.34 9.13 9.13 0 0 0 2.39-1.69 3 3 0 0 0 .93-1.58 3 3 0 0 0-1.63.93m4.52.28z" fill="#b4b1b3"/><path d="M36 15.66c0 .82-.43 1.24-1.12 1.24s-1.13-.44-1.13-1.27v-2.54H33v2.56a1.76 1.76 0 0 0 1.9 2 1.78 1.78 0 0 0 1.92-2v-2.56H36zM35.48 11a.45.45 0 0 0 .12-.31.43.43 0 0 0-.12-.31.41.41 0 0 0-.31-.13.43.43 0 0 0-.32.13.41.41 0 0 0-.13.31.44.44 0 0 0 .13.31.43.43 0 0 0 .32.13.41.41 0 0 0 .31-.13m5.94 2.1h-1.66v4.45h1.66a2.23 2.23 0 0 0 2.37-2.23 2.22 2.22 0 0 0-2.37-2.21M43 15.33a1.45 1.45 0 0 1-1.55 1.5h-.88v-3h.88A1.46 1.46 0 0 1 43 15.32zM59.71 5.1h-.32a.38.38 0 0 1-.28-.1.24.24 0 0 1-.11-.16.19.19 0 0 1 .07-.15.34.34 0 0 1 .22-.05h.21l.1-.38h-.34a.82.82 0 0 0-.51.15.49.49 0 0 0-.2.41.54.54 0 0 0 0 .23V5v.05h-.41v.44h1.45zM43.19 6.2a1.53 1.53 0 0 0-.71.18 2.79 2.79 0 0 0-.64.47 4.07 4.07 0 0 0-.54.64c-.08.12-.16.24-.23.36V4.37h-.77V9h-4.76V6.31h-.77V9h-4.83V7.94a3.24 3.24 0 0 0-.07-.73 1.33 1.33 0 0 0-.26-.55 1.15 1.15 0 0 0-.49-.34 2.18 2.18 0 0 0-.75-.11 4.18 4.18 0 0 0-.55 0l-.57.1h-.05V9h-.83a3.73 3.73 0 0 1-1-.12 1.54 1.54 0 0 1-.63-.33 1.12 1.12 0 0 1-.32-.49 2.21 2.21 0 0 1-.09-.65 3.5 3.5 0 0 1 0-.55c0-.16.05-.32.08-.49v-.12h-.8c0 .13-.05.34-.08.53v.17a3.07 3.07 0 0 0 0 .52 2.82 2.82 0 0 0 .15.9 1.72 1.72 0 0 0 .48.7 2.28 2.28 0 0 0 .85.45 4.42 4.42 0 0 0 1.26.16H28V6.89h.33a.82.82 0 0 1 .65.25 1.27 1.27 0 0 1 .21.82v1.77h15.43V7.9a1.84 1.84 0 0 0-.38-1.27 1.34 1.34 0 0 0-1-.43m.57 2.8h-2.65a5.41 5.41 0 0 1 .39-.84 3.94 3.94 0 0 1 .51-.7 2.3 2.3 0 0 1 .53-.44 1 1 0 0 1 .48-.15.68.68 0 0 1 .34.08.63.63 0 0 1 .23.21 1 1 0 0 1 .13.34 2.32 2.32 0 0 1 0 .45zm26.26-3.18a.41.41 0 0 0 .31-.13.45.45 0 0 0 .12-.31.43.43 0 0 0-.12-.31.41.41 0 0 0-.31-.13.44.44 0 0 0-.32.13.42.42 0 0 0-.13.31.44.44 0 0 0 .13.31.43.43 0 0 0 .32.13m-27.9 0a.41.41 0 0 0 .31-.13.45.45 0 0 0 .12-.31.43.43 0 0 0-.12-.31.41.41 0 0 0-.31-.13.44.44 0 0 0-.32.13.42.42 0 0 0-.13.31.44.44 0 0 0 .13.31.43.43 0 0 0 .32.13M25 13.06l-2 4.49h.8l.46-1.07h2.14l.45 1.07h.83l-2-4.49zm-.41 2.72l.76-1.78.77 1.78zM27.51 11a.45.45 0 0 0 .12-.31.43.43 0 0 0-.12-.31.42.42 0 0 0-.31-.13.44.44 0 0 0-.32.13.42.42 0 0 0-.13.31.43.43 0 0 0 .13.31.43.43 0 0 0 .32.13.41.41 0 0 0 .31-.13m-1.38.13a.42.42 0 0 0 .36-.18.43.43 0 0 0 .08-.23.44.44 0 0 0-.12-.35.45.45 0 0 0-.63 0 .45.45 0 0 0 0 .62.42.42 0 0 0 .32.13m5.14 4.1a1.06 1.06 0 0 0 .64-1 1 1 0 0 0-.3-.74 1.61 1.61 0 0 0-1.16-.39h-2v4.45h2.06c1 0 1.65-.43 1.65-1.22a1.09 1.09 0 0 0-.88-1.08m-2.06-1.44h1.13c.5 0 .78.22.78.57 0 .41-.34.6-.84.6h-1.09zm2.16 2.46c0 .4-.32.61-.86.61h-1.3v-1.24h1.24c.62 0 .92.22.92.6zm24.54-11.9h-.32a.39.39 0 0 1-.28-.08.25.25 0 0 1-.08-.18.18.18 0 0 1 .07-.15.33.33 0 0 1 .21-.06h.22l.1-.38h-.35a.82.82 0 0 0-.51.15.5.5 0 0 0-.2.41.54.54 0 0 0 0 .23v.05h-.4v.45h1.45zM76.4 14.51a1.35 1.35 0 0 0-.37-1 1.8 1.8 0 0 0-1.29-.45h-2v4.45h.78V16h1l1.09 1.55h.92l-1.2-1.69a1.34 1.34 0 0 0 1.06-1.35m-2.86.79v-1.5h1.14c.58 0 .92.26.92.74 0 .45-.36.74-.92.74zm-1.94-5.57h.77V4.37h-.77zM69.49 13a2.28 2.28 0 0 0-2.33 2.3 2.33 2.33 0 0 0 4.66 0 2.26 2.26 0 0 0-2.33-2.3M71 15.33a1.5 1.5 0 0 1-1.5 1.57 1.53 1.53 0 0 1-1.5-1.58 1.5 1.5 0 0 1 1.5-1.57 1.53 1.53 0 0 1 1.5 1.57zm6-1.51h1.41v3.73h.79v-3.73h1.41v-.73H77zm5.8-7.38A1.74 1.74 0 0 0 81 8.12a1.45 1.45 0 0 1-.06.4.76.76 0 0 1-.15.28.46.46 0 0 1-.2.14.78.78 0 0 1-.24 0h-4.12V6.33h-.05l-.55-.08a5.17 5.17 0 0 0-.59 0 1.91 1.91 0 0 0-.77.15 1.67 1.67 0 0 0-.57.4 1.78 1.78 0 0 0-.36.59 2 2 0 0 0-.12.7 2.08 2.08 0 0 0 .09.61 1.45 1.45 0 0 0 .83.92 1.93 1.93 0 0 0 .79.15h.52c0 .68-.46 1-1.3 1a3.34 3.34 0 0 1-.49 0l-.49-.1h-.08l.06.85h.05l.43.05h.47a2.62 2.62 0 0 0 1-.17 1.83 1.83 0 0 0 .65-.44 1.69 1.69 0 0 0 .36-.59 2.36 2.36 0 0 0 .12-.58h4.13a1.22 1.22 0 0 0 .68-.2 1.06 1.06 0 0 0 .31-.37 1.78 1.78 0 0 0 3.22-1 1.72 1.72 0 0 0-1.77-1.78M75.46 9H75a1 1 0 0 1-.74-.28 1.23 1.23 0 0 1-.26-.81 1.09 1.09 0 0 1 .09-.46 1.05 1.05 0 0 1 .23-.33.94.94 0 0 1 .68-.25h.5zm8.32-.86a1 1 0 0 1-1 1 1 1 0 0 1-1-1 1 1 0 0 1 1-1 1 1 0 0 1 1 1zm-36.14 6.8h-2.13v-1.85h-.78v4.45h.78v-1.87h2.12v1.88h.78v-4.46h-.78zm17.22-1.85H63.1v4.45h.78v-1.43h.89c1 0 1.78-.52 1.78-1.52a1.5 1.5 0 0 0-1.69-1.49m.9 1.52c0 .46-.37.79-1 .79h-.91V13.8h.91c.58 0 1 .27 1 .79zm17.32.38c-.85-.2-1.06-.36-1.06-.7 0-.29.27-.53.73-.53a2 2 0 0 1 1.21.46l.42-.59a2.46 2.46 0 0 0-1.62-.64 1.36 1.36 0 0 0-1.52 1.29c0 .82.53 1.1 1.48 1.33s1 .36 1 .68c0 .34-.3.56-.79.56a2 2 0 0 1-1.41-.58l-.47.56a2.74 2.74 0 0 0 1.86.71c.93 0 1.59-.5 1.59-1.33 0-.74-.49-1.08-1.43-1.3m-29.6-4a.45.45 0 0 0 .12-.31.43.43 0 0 0-.12-.31.41.41 0 0 0-.31-.13.44.44 0 0 0-.32.13.42.42 0 0 0-.13.31.44.44 0 0 0 .13.31.43.43 0 0 0 .32.13.41.41 0 0 0 .32-.13m-.32-2h-4.8V6.33h-.06l-.55-.08a5.16 5.16 0 0 0-.59 0 1.91 1.91 0 0 0-.77.15 1.68 1.68 0 0 0-.57.4 1.78 1.78 0 0 0-.36.59 2 2 0 0 0-.12.7 2.09 2.09 0 0 0 .09.61 1.47 1.47 0 0 0 .3.54 1.49 1.49 0 0 0 .53.38 1.94 1.94 0 0 0 .79.15h.52c0 .68-.46 1-1.3 1a3.35 3.35 0 0 1-.49 0l-.49-.1h-.08l.06.85h.05l.43.05h.52a2.33 2.33 0 0 0 .94-.17 1.83 1.83 0 0 0 .65-.44 1.67 1.67 0 0 0 .36-.59 2.34 2.34 0 0 0 .12-.58h5.59V6.31h-.77zM47.58 9h-.43a1 1 0 0 1-.74-.28 1.23 1.23 0 0 1-.26-.85 1.06 1.06 0 0 1 .32-.79.9.9 0 0 1 .3-.19.88.88 0 0 1 .31-.06h.5zm16.3-1.92a1.27 1.27 0 0 1 .21.82v1.83h6.36V6.32h-.77V9h-4.81V7.94a3.3 3.3 0 0 0-.07-.73 1.32 1.32 0 0 0-.26-.55 1.14 1.14 0 0 0-.54-.34 2.17 2.17 0 0 0-.75-.11 4.17 4.17 0 0 0-.55 0l-.57.1V9h-.83a3.73 3.73 0 0 1-1-.12 1.54 1.54 0 0 1-.63-.33 1.11 1.11 0 0 1-.31-.49 2.18 2.18 0 0 1-.09-.65 3.34 3.34 0 0 1 0-.55c0-.16.05-.33.08-.51v-.12h-.8c0 .13-.05.34-.08.53v.17a2.94 2.94 0 0 0 0 .52 2.79 2.79 0 0 0 .15.9 1.71 1.71 0 0 0 .48.7 2.29 2.29 0 0 0 .85.45 4.42 4.42 0 0 0 1.26.16h1.69V6.89h.33a.81.81 0 0 1 .65.25m-12.74 5.92l-2 4.49H50l.46-1.07h2.1l.44 1.07h.83l-2-4.49zm-.41 2.72l.76-1.78.77 1.78zm8.49 1.77H60v-4.46h-.78zm-1.81-2.32a1.06 1.06 0 0 0 .64-1 1 1 0 0 0-.3-.74 1.61 1.61 0 0 0-1.17-.39h-2v4.45h2.06c1 0 1.65-.43 1.65-1.22a1.09 1.09 0 0 0-.88-1.08m-2.06-1.44h1.13c.5 0 .78.22.78.57 0 .41-.34.6-.84.6h-1.06zm2.16 2.46c0 .4-.32.61-.86.61h-1.3v-1.25h1.25c.62 0 .92.22.92.6zM55.85 5.31h-.77v4.42h.77z"/></g></g></svg>