<svg xmlns="http://www.w3.org/2000/svg" viewBox="0 0 60.98 32.44"><g data-name="Layer 2"><path d="M57.3 28h-1.43v4.28h1.43v-2.53a.76.76 0 0 1 1.52 0v2.56h1.33v-3a1.43 1.43 0 0 0-1.43-1.43h-.16a1.35 1.35 0 0 0-1.25.86zm-5.9 2.15a1.53 1.53 0 0 1 .19-.8.75.75 0 0 1 .69-.4.76.76 0 0 1 .7.4A1.78 1.78 0 0 1 53 31a.77.77 0 0 1-.7.39.75.75 0 0 1-.69-.39 1.53 1.53 0 0 1-.19-.8m-.8-1.61a2.34 2.34 0 0 0 0 3.23 2.51 2.51 0 0 0 3.35 0 2.32 2.32 0 0 0 0-3.23 2.49 2.49 0 0 0-3.35 0M48.69 28h-1.43v4.28h1.43zm0-1.61h-1.43v1.11h1.43zm-5 1.61h-.73v.91h.73v1.9A1.7 1.7 0 0 0 44 32a1.77 1.77 0 0 0 1.23.31h.79v-1h-.37q-.52 0-.52-.41v-1.96H46V28h-.9v-1.25h-1.44zm-6 2.07A2.12 2.12 0 0 0 40 32.32a1.91 1.91 0 0 0 2-1.74h-1.21a.92.92 0 0 1-.83.81c-.77 0-1-.74-1-1.28s.21-1.27 1-1.27c.24 0 .73.13.79.55H42a1.86 1.86 0 0 0-2-1.53 2.13 2.13 0 0 0-2.27 2.25M33.41 28h-1.32v3a1.43 1.43 0 0 0 1.43 1.43h.16a1.35 1.35 0 0 0 1.25-.86v.74h1.43V28h-1.43v2.56a.76.76 0 1 1-1.52 0zm-4 .08H28v4.27h1.44V30.2a1 1 0 0 1 .29-.72 1.06 1.06 0 0 1 .8-.3 2.28 2.28 0 0 1 .55.08V28a1.55 1.55 0 0 0-.34 0 1.28 1.28 0 0 0-1.32.83zm-4.94 0h-.73v.91h.73v1.9a1.7 1.7 0 0 0 .34 1.11 1.77 1.77 0 0 0 1.23.31h.79v-1h-.37c-.35 0-.52-.14-.52-.41v-1.96h.89V28h-.89v-1.25h-1.45zM14.6 28h-1.43v4.28h1.43v-2.53a.76.76 0 0 1 1.52 0v2.56h1.33v-3A1.43 1.43 0 0 0 16 27.92h-.16a1.35 1.35 0 0 0-1.26.86zm-5.91 2.18a1.53 1.53 0 0 1 .19-.8.75.75 0 0 1 .69-.4.77.77 0 0 1 .7.4 1.78 1.78 0 0 1 0 1.6.77.77 0 0 1-.7.39.75.75 0 0 1-.69-.37 1.53 1.53 0 0 1-.19-.8m-.8-1.61a2.34 2.34 0 0 0 0 3.23 2.29 2.29 0 0 0 1.67.64 2.3 2.3 0 0 0 1.68-.64 2.31 2.31 0 0 0 0-3.23 2.28 2.28 0 0 0-1.68-.65 2.28 2.28 0 0 0-1.67.65m-7.4.77a2.8 2.8 0 0 0 2.93 3A2.51 2.51 0 0 0 6.1 30H4.71a1.31 1.31 0 0 1-1.28 1.23c-1 0-1.5-.91-1.5-1.87s.48-1.92 1.5-1.92a1.21 1.21 0 0 1 1.22 1h1.4a2.43 2.43 0 0 0-2.62-2.06 2.81 2.81 0 0 0-2.93 3m3.34-16.22l.19-4H15l.18 4h-.48c-.6-2.21-1.19-3.61-3.67-3.42v11.13h1.47v.54h-6v-.54H8V9.73c-2.48-.19-3.07 1.21-3.66 3.42zM0 24.55h18.65V5.61H0zm20.81 3.37a2.93 2.93 0 0 0-1.33.27 1.09 1.09 0 0 0-.68 1 1 1 0 0 0 .33.82 1.9 1.9 0 0 0 .78.37l.93.21.45.12a.36.36 0 0 1 .26.33.39.39 0 0 1-.24.35.94.94 0 0 1-.44.1.89.89 0 0 1-.54-.15.56.56 0 0 1-.24-.48h-1.37a1.35 1.35 0 0 0 .71 1.21 2.86 2.86 0 0 0 1.45.32 2.78 2.78 0 0 0 1.43-.33 1.3 1.3 0 0 0 .69-1.14 1 1 0 0 0-.23-.64 1.45 1.45 0 0 0-.89-.51l-1.06-.21c-.38-.1-.57-.24-.57-.41s.21-.32.62-.32.65.16.65.48h1.34q-.06-1.38-2-1.38m8-10.9H31l-1.12-3.11zm7.92 4.67H31v-.54h1.39l-1-2.88H27.7l-.47 1.33a6.3 6.3 0 0 0-.36 1.24c0 .46 1.37.31 1.63.31v.54h-3.74v-.54c.43 0 1.22 0 1.42-.53l4.25-11.45h.71l4.47 12h1.08zm2.99-16.09H21.13v18.94h18.64zM34.86.56H36V0h-3v.56h1.17v3.13h.65zm3.32 1.56H36.8a.69.69 0 1 1 1.37 0m.59.39a1.29 1.29 0 1 0-2.55-.15 1.27 1.27 0 0 0 1.31 1.4 1.17 1.17 0 0 0 1.21-.91h-.56a.62.62 0 0 1-.65.44.71.71 0 0 1-.72-.79zm2.75-.15c0 .46-.2.94-.74.94S40 2.89 40 2.35s.25-.95.75-.95.74.46.74.95m.59 0A1.26 1.26 0 0 0 40.86.94a.89.89 0 0 0-.83.43V1h-.56v3.67H40V3.34a1 1 0 0 0 .89.42c.79 0 1.15-.68 1.15-1.4m15.5 7.37h-.74c-.43 0-.62.1-1.31 2.11l-3.36 9.84h-.55l-4.78-12h-1v-.5h5.59v.55H50l3 7.53 2.43-7.13c0-.15 0-.4-1-.4h-.6v-.55h3.76zm3.35-4.12H42.25v18.94h18.64zM44.43 2.12h-1.38a.69.69 0 1 1 1.37 0m.58.38a1.29 1.29 0 1 0-2.55-.15 1.27 1.27 0 0 0 1.31 1.4 1.17 1.17 0 0 0 1.24-.9h-.56a.62.62 0 0 1-.65.44.71.71 0 0 1-.72-.79zm4.22-.28h-1.11l.55-1.58zm.52 1.47h.69L49 0h-.69l-1.39 3.69h.67l.35-1h1.46zm3.64 0L52.27 2l1-1h-.72L51.5 2.1V0h-.59v3.69h.59v-1l.35-.34.82 1.3zM54.91.46a1 1 0 0 1 .27 0V0a1.65 1.65 0 0 0-.41 0c-.38 0-.74.11-.74.8V1h-.43v.44h.4v2.25h.59V1.46h.5V1h-.5V.74c0-.22.13-.28.29-.28m2.51 1.65h-1.34a.69.69 0 1 1 1.37 0m.58.39a1.29 1.29 0 1 0-2.55-.15 1.27 1.27 0 0 0 1.31 1.4 1.17 1.17 0 0 0 1.24-.9h-.56a.62.62 0 0 1-.65.44.71.71 0 0 1-.72-.79zm3 1.18V1.85a.84.84 0 0 0-1-.91 1 1 0 0 0-.83.48V1h-.56v2.69h.59V2.11a.65.65 0 0 1 .64-.7c.35 0 .51.18.52.6v1.68z" fill="#25346f" data-name="Layer 1"/></g></svg>