<svg xmlns="http://www.w3.org/2000/svg" viewBox="0 0 89.5 40.59"><g data-name="Layer 2"><g data-name="Layer 1"><path d="M0 0h89.5v40.59H0z"/><path d="M12.15 14.05h65.19v12.5H12.15z"/><path d="M15.54 18.3H14.5v3.99h3.43v-.88h-2.39V18.3zm6.22.01h-1.5l-2.06 4h1.2l.48-.93h2.29l.47.93h1.21l-2.05-4zm0 2.17h-1.42l.7-1.32.67 1.32m2.42-2.18v3.99h1.04V18.3h-1.04zm5.69.01v2.58l-2.59-2.58h-1.46v4h1v-2.85l2.87 2.83h1.19v-4h-1zm5-.04h-1.88c-1.08 0-1.47.38-1.48 1.47v1.18c0 1.21.72 1.38 1.48 1.38h1.88c1.14 0 1.46-.28 1.46-1.29v-1.16h-2.56v.85h1.5a1.22 1.22 0 0 1 0 .16.47.47 0 0 1 0 .14c-.08.23-.2.34-.66.34h-1.37c-.41 0-.69 0-.69-.63v-.83c0-.57.17-.74.69-.74h1.37c.54 0 .65.14.65.41v.05h1.07v-.05c0-1.07-.58-1.29-1.46-1.29m7.01.05h-1.7c-1.14 0-1.46.31-1.49 1.43v1.16c0 1.18.47 1.38 1.49 1.38h1.7c1 0 1.43-.19 1.46-1.38v-1.18c0-1.19-.54-1.43-1.46-1.43m.42 1.84v.6c0 .59-.16.61-.67.61h-1.2c-.55 0-.69 0-.7-.61v-.83c0-.58.12-.64.7-.64h1.2c.55 0 .67.06.67.64v.24m1.51-1.84l.14 1.37h.47l.13-1.37h-.74zm5.3 2.42a1.11 1.11 0 0 0 .46-1 1.34 1.34 0 0 0-1.41-1.42h-3v4h1v-1.16h1.79c.58 0 .68.16.68.5v.65h1v-.86a.69.69 0 0 0-.56-.72m-2.9-1.38H48c.32 0 .48.13.48.4s-.08.36-.45.36h-1.87zm7.2-1.02h-1.71c-1.14 0-1.46.31-1.48 1.43v1.18c0 1.18.47 1.38 1.48 1.38h1.71c1 0 1.43-.19 1.45-1.38v-1.18c0-1.19-.54-1.43-1.45-1.43m.42 1.84v.6c0 .59-.16.61-.68.61h-1.2c-.55 0-.69 0-.7-.61v-.85c0-.58.12-.64.7-.64h1.2c.51 0 .66 0 .68.64v.24M59 18.31v2.45c0 .55-.19.64-.62.65h-1.31c-.5 0-.66-.16-.66-.64v-2.46h-1v2.55c0 1 .4 1.42 1.49 1.43h1.7c1.06 0 1.44-.39 1.44-1.43v-2.55H59zm5.56 2.41a1.11 1.11 0 0 0 .46-1 1.34 1.34 0 0 0-1.4-1.42h-3v4h1v-1.16h1.78c.58 0 .69.16.69.5v.65h1v-.86a.69.69 0 0 0-.56-.72m-2.9-1.38h1.89c.32 0 .47.13.47.4s-.08.36-.45.36h-1.88zm8.83-1.02h-1.27l-2 1.36h-.39v-1.36h-1v4h1v-1.76h.39l2.07 1.74h1.34l-2.63-2.16 2.69-1.83zm4.53.87v-.88h-4.07v3.99h4.07v-.88h-3.04v-.73h2.95v-.89h-2.95v-.61h3.04z" fill="#fff"/><path fill="#e42316" d="M12.15 26.54h65.19v1.91H12.15z"/><path fill="#feeb00" d="M12.15 12.14h65.19v1.91H12.15z"/></g></g></svg>