<svg xmlns="http://www.w3.org/2000/svg" viewBox="0 0 67.94 42.01"><g data-name="Layer 2"><path d="M67.82 32.18h.12V42H65.6v-9.82zM61 34.31v2.53h-4.26v-2a.5.5 0 0 1 .5-.5zm-4.58-2.13a1.87 1.87 0 0 0-2 2V42h2.34v-3H61v3h2.34v-9.82h-6.93zM50 34.82v4.56a.5.5 0 0 1-.5.51h-3.76v-5.58h3.74a.49.49 0 0 1 .51.51m.33-2.64h-6.91V42h6.92a1.87 1.87 0 0 0 2-2v-5.81a1.87 1.87 0 0 0-2-2m-11.09 0a1.87 1.87 0 0 1 2 2V42H38.9v-7.19a.49.49 0 0 0-.5-.49h-3.75V42h-2.34v-9.82zm-11.42 0h2.34V40a1.87 1.87 0 0 1-2 2h-6.95v-9.82h2.34v7.71h3.75a.49.49 0 0 0 .5-.5zm-10.29 0h2.76l-4 6.43V42h-2.4v-3.4l-4-6.43h2.76l2.45 3.89zm-10.92 0h2.32V42H6.59v-4H2.34v4H0v-9.82h2.34v3.75h4.25zM24.4 3.08c.54-.1.91-.1 1 0a.34.34 0 0 1 0 .42 2 2 0 0 1-.23.31C20.56 9.32 17 17.4 16 19.73c-.08.16-.15.32-.21.43a.53.53 0 0 1-.44.31.94.94 0 0 1-.55-.18c-3.08-1.9-4.91-4.27-4.91-6.84 0-4.64 6-8.63 14.5-10.37m4.76 3.49c.44-1 1.19-3.19 2.92-4a4.33 4.33 0 0 1 1.75-.4h.26a45.66 45.66 0 0 1 13.16 1.78l.14.05c.35.12.53.28.53.48a.6.6 0 0 1-.21.43l-.24.21A30.63 30.63 0 0 1 39 9.64a41.69 41.69 0 0 1-6.18 2c-1.33.28-6.28 1-3.67-5m23.08.17a.52.52 0 0 1 .44-.31.92.92 0 0 1 .55.18c3.08 1.9 4.91 4.27 4.91 6.84 0 4.64-6 8.63-14.49 10.37-.55.11-.91.1-1 0a.33.33 0 0 1 0-.42 2 2 0 0 1 .23-.31C47.49 17.58 51 9.5 52 7.17c.07-.16.15-.32.21-.43M39 20.31c-.44 1-1.19 3.19-2.93 4a4.33 4.33 0 0 1-1.75.4H34a45.75 45.75 0 0 1-13.14-1.82l-.14-.06c-.35-.12-.53-.28-.53-.48a.58.58 0 0 1 .22-.43l.24-.21a30.59 30.59 0 0 1 8.45-4.52 41.8 41.8 0 0 1 6.18-2c1.33-.28 6.28-1 3.67 5M34 26.9c14.51 0 26.26-6 26.26-13.45S48.53 0 34 0 7.76 6 7.76 13.45 19.52 26.9 34 26.9" fill="#004587" data-name="Layer 1"/></g></svg>