<svg xmlns="http://www.w3.org/2000/svg" viewBox="0 0 85.54 26.7"><defs><style>.cls-1{fill:#202c56}.cls-2{fill:#5692ce}</style></defs><g id="Layer_2" data-name="Layer 2"><g id="Layer_1-2" data-name="Layer 1"><path class="cls-1" d="M73.34 5c0-.44-1.38-.68-2.15-.68-.36 0-.42 0-.49-.07L67.58.11s-.1-.11-.47-.11h-.22l1.55 3.3s.2.54.39 1.06a27.49 27.49 0 0 0-3.4.28 12.4 12.4 0 0 0-1.09-1.19 1 1 0 0 0-.34-.09L64.51 5l-.59 1.62a1 1 0 0 0 .37-.08 12.34 12.34 0 0 0 1.09-1.19 27.69 27.69 0 0 0 3.4.27c-.18.52-.37 1-.39 1.06L66.86 10h.22c.38 0 .47-.11.47-.11l3.15-4.1c.06-.06.13-.07.49-.07.77 0 2.15-.23 2.15-.68zM13.38 22c-8-.75-11.84-4.73-12-7.51a3.75 3.75 0 0 1 .08-1.13L0 18.79c-.6 4.28 5.36 6.91 10.49 7.61l1 .15zM1.42 13.37v-.16.16"/><path class="cls-2" d="M.13 18.45s-.05.14 0 0c3.8-10.66 43-13.16 61.41-12.85l.2-.56-.2-.53c-18.44-1-57.16-1.19-60 8.17z"/><path class="cls-1" d="M17.22 25.88h-1.83l-.26.73h-1.2L15.78 22h1.05l1.86 4.63h-1.2zm-.36-1l-.33-.9c-.1-.26-.22-.68-.22-.68s-.13.42-.23.68l-.33.9zM21.18 22a1.29 1.29 0 0 1 1.4 1.23 1 1 0 0 1-.58.91 1.21 1.21 0 0 1 .82 1.09c0 .77-.51 1.4-1.66 1.4h-2V22zm-.23 1.81a.44.44 0 1 0 0-.87h-.67v.87zm.11 1.89a.53.53 0 1 0 0-1h-.78v1zm6.39-3.7v2.58a2 2 0 1 1-4.09 0V22h1.11v2.55c0 .79.33 1.14.93 1.14s.94-.34.94-1.14V22zm4.43 0a2.31 2.31 0 0 1 2.4 2.34 2.27 2.27 0 0 1-2.4 2.3h-2V22zm0 3.6a1.2 1.2 0 0 0 1.24-1.26A1.23 1.23 0 0 0 31.88 23H31v2.55zm6.92-3.62v4.63h-1.12v-1.8h-1.73v1.8h-1.11v-4.63h1.11v1.79h1.73v-1.79h1.12zm3.85 3.9h-1.83l-.26.73h-1.2L41.21 22h1.05l1.85 4.63h-1.2zm-.36-1L42 24c-.1-.26-.22-.68-.23-.68s-.12.42-.23.68l-.33.9zM46.66 22a1.29 1.29 0 0 1 1.4 1.23 1 1 0 0 1-.58.91 1.21 1.21 0 0 1 .81 1.09c0 .77-.51 1.4-1.65 1.4h-2V22zm-.23 1.81a.44.44 0 1 0 0-.87h-.67v.87zm.1 1.89a.53.53 0 1 0 0-1h-.77v1zm2.36-3.72H50v4.63h-1.11zm6.78 3.9h-1.84l-.26.73h-1.2L54.23 22h1.05l1.86 4.63h-1.2zm-.36-1L55 24c-.1-.26-.22-.68-.22-.68s-.12.42-.23.68l-.33.9zm2.33-2.9h1.11v4.63h-1.11zM62 26.61l-.86-1.51h-.57v1.51h-1.11V22h1.73c1.17 0 1.87.63 1.87 1.59a1.39 1.39 0 0 1-.83 1.34l1 1.71zm-1.43-2.5h.77a.55.55 0 1 0 0-1.1h-.77zM65.59 22c1.14 0 1.83.6 1.83 1.59s-.69 1.59-1.83 1.59h-.65v1.46h-1.12V22zm0 2.14c.43 0 .69-.21.69-.55S66 23 65.57 23h-.64v1.1zm4.73-2.26a2.41 2.41 0 1 1-2.4 2.41 2.37 2.37 0 0 1 2.4-2.41m0 3.72a1.31 1.31 0 1 0-1.24-1.31 1.22 1.22 0 0 0 1.24 1.31m5.57 1.01L75 25.1h-.57v1.51h-1.08V22h1.73c1.17 0 1.87.63 1.87 1.59a1.39 1.39 0 0 1-.83 1.34l1 1.71zm-1.43-2.5h.77a.55.55 0 1 0 0-1.1h-.77zm7.02-2.13v1.04h-1.41v3.59h-1.12v-3.59h-1.39v-1.04h3.92zm2.95 1.47a.81.81 0 0 0-.8-.6c-.33 0-.52.17-.52.35s.46.42 1 .62 1.41.64 1.41 1.44-.73 1.45-1.81 1.45a2 2 0 0 1-2-1.4l1.13-.31a1 1 0 0 0 .94.7c.4 0 .58-.19.58-.41s-.54-.46-1.2-.72S82 24.08 82 23.26a1.58 1.58 0 0 1 1.74-1.38 1.84 1.84 0 0 1 1.81 1.27z"/><path class="cls-2" d="M19 19.5a.58.58 0 0 0-.42.16.57.57 0 0 0 0 .81.62.62 0 0 0 .84 0 .57.57 0 0 0 0-.81.58.58 0 0 0-.42-.16m-1.85 0a.58.58 0 0 0-.42.16.57.57 0 0 0 0 .81.58.58 0 0 0 .42.16.59.59 0 0 0 .42-.16.58.58 0 0 0 0-.81.59.59 0 0 0-.42-.16m9.63 0a.59.59 0 0 0-.42.16.53.53 0 0 0-.17.4.55.55 0 0 0 .17.41.59.59 0 0 0 .42.16.58.58 0 0 0 .41-.16.54.54 0 0 0 .17-.41.53.53 0 0 0-.17-.4.58.58 0 0 0-.41-.16m9.13-5.72a.58.58 0 0 0 .42-.17.56.56 0 0 0 0-.8.58.58 0 0 0-.42-.17.56.56 0 0 0-.41.17.56.56 0 0 0 0 .8.56.56 0 0 0 .41.17"/><path class="cls-2" d="M37 17.65h-3.22a2.35 2.35 0 0 1 .74-1.46 2 2 0 0 1 .61-.4 1.67 1.67 0 0 1 .65-.14 1.64 1.64 0 0 1 .5.07.93.93 0 0 1 .39.24 1.11 1.11 0 0 1 .25.44 2.37 2.37 0 0 1 .09.69zM38 16a2.17 2.17 0 0 0-.43-.77 2 2 0 0 0-.7-.51 2.37 2.37 0 0 0-1-.19 2.57 2.57 0 0 0-1.17.29 2.79 2.79 0 0 0-1 .85v-3.88h-1.06v5.86h-4.48a.78.78 0 0 1-.67-.25 1.06 1.06 0 0 1-.19-.65v-1.86h-1.11v2.25a.8.8 0 0 1-.07.37.3.3 0 0 1-.29.14h-1.46v-.75a2.07 2.07 0 0 0-.49-1.5 2.05 2.05 0 0 0-1.52-.5h-2.5v2.63h-4c-.29 0-.8-.07-.8-.6v-2h-1.14v2.12c0 .76.33 1.78 2.19 1.78H21V16h1.6a.74.74 0 0 1 .4.14.61.61 0 0 1 .2.31 1.81 1.81 0 0 1 .06.53v1.78h2.63a1.29 1.29 0 0 0 .71-.19 1.37 1.37 0 0 0 .46-.47 1.55 1.55 0 0 0 .4.45 1.07 1.07 0 0 0 .69.21h10V17a3.26 3.26 0 0 0-.15-1m8.86 3.49a.59.59 0 0 0-.42.16.54.54 0 0 0-.17.4.55.55 0 0 0 .17.41.58.58 0 0 0 .42.16.57.57 0 0 0 .41-.16.54.54 0 0 0 .17-.41.53.53 0 0 0-.17-.4.57.57 0 0 0-.41-.16m-4.63-1.85h-.68a1.48 1.48 0 0 1-.4-.05.91.91 0 0 1-.34-.18.92.92 0 0 1-.24-.31 1.14 1.14 0 0 1-.09-.46 1.08 1.08 0 0 1 .08-.42 1.06 1.06 0 0 1 .21-.32.92.92 0 0 1 .29-.2.79.79 0 0 1 .34-.07.71.71 0 0 1 .61.3 1.41 1.41 0 0 1 .22.86zm4.23-2.75v2.75h-3.13v-1.16a2.39 2.39 0 0 0-.13-.79 1.78 1.78 0 0 0-.37-.62 1.68 1.68 0 0 0-.59-.4 2.07 2.07 0 0 0-.78-.14 1.89 1.89 0 0 0-.84.18 2 2 0 0 0-.65.49 2.33 2.33 0 0 0-.42.73 2.57 2.57 0 0 0-.15.88 2.19 2.19 0 0 0 .12.71 1.7 1.7 0 0 0 .38.63 1.84 1.84 0 0 0 .67.45 2.66 2.66 0 0 0 1 .17h.65a1 1 0 0 1-.42.64 1.44 1.44 0 0 1-.83.2 4.51 4.51 0 0 1-.9-.09v1.09a5.65 5.65 0 0 0 .93.08 2.43 2.43 0 0 0 1.57-.5 1.77 1.77 0 0 0 .53-.66 2.39 2.39 0 0 0 .23-.77h4.24v-3.87zm2.44-3.1h1.11v6.99H48.9zm4.99 6.99a2 2 0 0 1-.72-.12 1.21 1.21 0 0 1-.47-.31 1.12 1.12 0 0 1-.25-.46 2.06 2.06 0 0 1-.07-.55v-1.65h1.11v1.46a.54.54 0 0 0 .11.4.56.56 0 0 0 .36.09h6.35v-2.75h1.13v3.89zm1.42-4.72a.54.54 0 0 1 .17-.4.62.62 0 0 1 .84 0 .56.56 0 0 1 0 .8.61.61 0 0 1-.84 0 .54.54 0 0 1-.17-.4m1.84 0a.55.55 0 0 1 .16-.4.57.57 0 0 1 .42-.17.58.58 0 0 1 .42.17.57.57 0 0 1 0 .8.58.58 0 0 1-.42.17.57.57 0 0 1-.42-.17.55.55 0 0 1-.16-.4m5.62-2.27h1.1v6.99h-1.1zm3.86 6.79a2.76 2.76 0 0 1-.12.82 1.94 1.94 0 0 1-.35.66 1.64 1.64 0 0 1-.58.44 1.83 1.83 0 0 1-.79.16h-.34l-.5-.08v-1.06a5.77 5.77 0 0 0 .84.1.61.61 0 0 0 .58-.33 1.72 1.72 0 0 0 .15-.8v-3.6h1.11zm17.64-1.16a1 1 0 0 1-1.38 0 1.13 1.13 0 0 1-.21-.68 1.33 1.33 0 0 1 .07-.46 1.15 1.15 0 0 1 .19-.35.83.83 0 0 1 .64-.3.76.76 0 0 1 .34.08.82.82 0 0 1 .28.22 1.18 1.18 0 0 1 .2.35 1.26 1.26 0 0 1 .08.46 1.09 1.09 0 0 1-.22.68M75 16.24a2.1 2.1 0 0 1 .63-.44 1.7 1.7 0 0 1 .73-.16 1.13 1.13 0 0 1 .95.38 1.72 1.72 0 0 1 .29 1.06v.56h-3.25a3.05 3.05 0 0 1 .23-.76 2.51 2.51 0 0 1 .45-.64m10.39-.35a1.88 1.88 0 0 0-.36-.7 1.64 1.64 0 0 0-.61-.46 2.07 2.07 0 0 0-.85-.17 2 2 0 0 0-.81.16 2 2 0 0 0-.64.45 2 2 0 0 0-.42.69 2.43 2.43 0 0 0-.15.87 2.65 2.65 0 0 0 .18.92h-3v-.64a3.13 3.13 0 0 0-.15-1 2.27 2.27 0 0 0-.42-.77 1.94 1.94 0 0 0-.69-.51 2.34 2.34 0 0 0-1-.18 2.44 2.44 0 0 0-1.25.33 3 3 0 0 0-.92.81v-3.9h-1.07v5.86h-4.18v-5.86H68v7h15.61a2.2 2.2 0 0 0 .89-.17 1.65 1.65 0 0 0 .94-1.08 2.74 2.74 0 0 0 .1-.74 3.28 3.28 0 0 0-.12-.9M50 9.93a1.32 1.32 0 0 0-.35 0 .36.36 0 0 0-.24.08.3.3 0 0 0-.1.25.37.37 0 0 0 .13.27.58.58 0 0 0 .41.13h.3v.52h-1.61v-.52H49l-.15-.23a.64.64 0 0 1-.07-.29.69.69 0 0 1 .21-.5.89.89 0 0 1 .65-.21h.49z"/></g></g></svg>