<svg xmlns="http://www.w3.org/2000/svg" viewBox="0 0 243.33 65.7"><defs><style>.cls-1{fill:#004891}.cls-3{fill:#e30613}</style></defs><g id="Layer_2" data-name="Layer 2"><g id="Layer_1-2" data-name="Layer 1"><path class="cls-1" d="M243.31 42.8V3h-62.47c-2.94.27-12.53 1.93-13 12.21a2.16 2.16 0 0 0 0 .31V65.7l62.46-.19c2.95-.26 12.53-1.92 13-12.21a2.1 2.1 0 0 0 0-.31z"/><path d="M214.41 28.53a8.19 8.19 0 0 0-1.55-5.2 6.16 6.16 0 0 0-2.69-2.07 11.24 11.24 0 0 0-4.08-.64h-6.43l-1.24 6h7.47a3.88 3.88 0 0 1 1.35.22 2.19 2.19 0 0 1 1 .73 2.91 2.91 0 0 1 .57 1.83 4.1 4.1 0 0 1-.81 2.5 4.19 4.19 0 0 1-3.47 1.46H197l-2.68 12.89h5.5l1.52-7.36h3.27a10.34 10.34 0 0 0 4.44-.92 8.58 8.58 0 0 0 3.23-2.56 11 11 0 0 0 2.12-6.89m-18.82-2.89a6.81 6.81 0 0 0-1.15-2.38 6.29 6.29 0 0 0-2.64-2 11 11 0 0 0-4.13-.68h-7.44l-1.27 6.12h8.46a2.84 2.84 0 0 1 2.39.92 2.59 2.59 0 0 1 .54 1.68 3.47 3.47 0 0 1-.71 2.2 3.28 3.28 0 0 1-1.38 1 5.23 5.23 0 0 1-2 .36h-8.6l-2.77 13.33h5.5l1.62-7.69h2.43l2.57 7.77h6l-3-8.65a8.78 8.78 0 0 0 2.48-1.3 9.08 9.08 0 0 0 1.61-1.59 7.94 7.94 0 0 0 1.41-2.78 12.35 12.35 0 0 0 .45-3.41 11 11 0 0 0-.37-2.89" fill="#fff"/><path class="cls-3" d="M232.3 47.34l4.82-26.52h-5.68l-5.96 9.89-3.29-9.89h-4.16l-5.51 26.52H167.8v4.5h49.73l.04-.18 3.58-17.53 2.72 7.57h.11l6.32-10-3.3 16.05-.84 4.09h17.17l-.02-4.5H232.3z"/><path class="cls-1" d="M.1 37V24.43a1.77 1.77 0 0 1 .44-1.25 1.66 1.66 0 0 1 1.26-.47h3.9a6.29 6.29 0 0 1 4 1.22 4.69 4.69 0 0 1 1.47 3.84A3.67 3.67 0 0 1 10 30.65 5.59 5.59 0 0 1 7.12 32l3.77 4a1.7 1.7 0 0 1 .35.51 1.34 1.34 0 0 1 .1.49 1.73 1.73 0 0 1-.46 1.17 1.53 1.53 0 0 1-1.2.53H9.4l-.28-.07-.39-.17-.35-.3-4.92-6V37a1.68 1.68 0 0 1-.48 1.29 1.64 1.64 0 0 1-1.18.45 1.65 1.65 0 0 1-1.18-.45A1.65 1.65 0 0 1 .1 37zm3.32-7.26H5.7a2 2 0 0 0 1.48-.5 1.87 1.87 0 0 0 .58-1.46 1.83 1.83 0 0 0-.58-1.46 2.18 2.18 0 0 0-1.48-.5H3.42zm9.88 7.17V24.63a2.17 2.17 0 0 1 .42-1.37 1.54 1.54 0 0 1 1.3-.54h5.5a1.48 1.48 0 0 1 1.18.5 1.67 1.67 0 0 1 .39 1.06v.07a1.59 1.59 0 0 1-.42 1 1.43 1.43 0 0 1-1.15.47h-3.9V29h3.64a1.56 1.56 0 0 1 1.21.51 1.61 1.61 0 0 1 .4 1.06v.07a1.61 1.61 0 0 1-.43 1 1.51 1.51 0 0 1-1.18.46h-3.64v3.38h4.1a1.46 1.46 0 0 1 1.18.5 1.64 1.64 0 0 1 .39 1.06v.07a1.58 1.58 0 0 1-.42 1 1.47 1.47 0 0 1-1.15.45H15a1.74 1.74 0 0 1-1.22-.45 1.55 1.55 0 0 1-.49-1.2zm16.12-14.49l.87.08a7.91 7.91 0 0 1 1.06.19 5.77 5.77 0 0 1 1.66.69 1.47 1.47 0 0 1 .75 1.3 1.8 1.8 0 0 1-.4 1.15 1.3 1.3 0 0 1-1.09.5h-.32l-.32-.07-.32-.12L31 26c-.24-.09-.48-.17-.74-.23a3.64 3.64 0 0 0-.9-.1 2.23 2.23 0 0 0-1.26.37 1.22 1.22 0 0 0-.55 1.08 1 1 0 0 0 .58.9 6.73 6.73 0 0 0 1.44.57l.82.26.86.26a8.15 8.15 0 0 1 2.55 1.46 3.89 3.89 0 0 1 1.15 3.14 4.61 4.61 0 0 1-1.68 3.77 6 6 0 0 1-4 1.38h-1a11.94 11.94 0 0 1-1.27-.2 7 7 0 0 1-2.15-.73 1.74 1.74 0 0 1-.58-2.67 1.35 1.35 0 0 1 1.09-.47 2.62 2.62 0 0 1 .82.14l.89.29c.31.11.63.22 1 .31a4 4 0 0 0 1 .13 2.38 2.38 0 0 0 1.69-.54 1.82 1.82 0 0 0 .57-1.37 1.2 1.2 0 0 0-.71-1.13 9 9 0 0 0-1.73-.62l-.62-.18-.64-.2a8.3 8.3 0 0 1-2.55-1.28 3.23 3.23 0 0 1-1.15-2.79 4.55 4.55 0 0 1 1.64-3.71 5.83 5.83 0 0 1 3.85-1.36zM37.22 37V24.43a1.74 1.74 0 0 1 .45-1.24 1.66 1.66 0 0 1 1.28-.48h3.92a5.87 5.87 0 0 1 4.05 1.5A5 5 0 0 1 48.53 28a4.86 4.86 0 0 1-1.63 3.86 5.72 5.72 0 0 1-3.9 1.48h-2.46V37a1.66 1.66 0 1 1-3.32 0zm3.32-6.61h2.26a2.09 2.09 0 0 0 1.66-.66 2.43 2.43 0 0 0 .62-1.73 2.39 2.39 0 0 0-.62-1.68 2.13 2.13 0 0 0-1.66-.69h-2.26zm11.38 6.1a8.41 8.41 0 0 1-2.12-5.83 8.45 8.45 0 0 1 2.12-5.85 7.51 7.51 0 0 1 11 0A8.46 8.46 0 0 1 65 30.66a8.46 8.46 0 0 1-2.1 5.83 7.59 7.59 0 0 1-11 0m8.63-2.24a6.71 6.71 0 0 0 0-7.17 3.92 3.92 0 0 0-6.24 0 6.69 6.69 0 0 0 0 7.15 3.5 3.5 0 0 0 3.13 1.55 3.44 3.44 0 0 0 3.13-1.53M67.17 37V24.28a1.68 1.68 0 0 1 .47-1.28 1.66 1.66 0 0 1 1.18-.45h.28l.31.1a3.08 3.08 0 0 1 .44.27 1.4 1.4 0 0 1 .35.33l7 9.42v-8.4a1.59 1.59 0 0 1 1.66-1.72 1.69 1.69 0 0 1 1.19.45 1.72 1.72 0 0 1 .47 1.3V37a1.72 1.72 0 0 1-.47 1.3 1.68 1.68 0 0 1-1.19.45h-.29l-.31-.09a2.21 2.21 0 0 1-.44-.25 1.5 1.5 0 0 1-.35-.34l-7-9.35V37a1.69 1.69 0 0 1-.47 1.28 1.79 1.79 0 0 1-2.37 0 1.68 1.68 0 0 1-.46-1.28zm21.17-14.58l.86.08a8 8 0 0 1 1.06.19 5.76 5.76 0 0 1 1.66.69 1.46 1.46 0 0 1 .75 1.3 1.8 1.8 0 0 1-.4 1.15 1.3 1.3 0 0 1-1.08.5h-.32l-.32-.07-.32-.12-.34-.14c-.24-.09-.49-.17-.74-.23a3.65 3.65 0 0 0-.9-.1A2.24 2.24 0 0 0 87 26a1.23 1.23 0 0 0-.55 1.08A1 1 0 0 0 87 28a6.66 6.66 0 0 0 1.44.57l.82.26.86.26a8.14 8.14 0 0 1 2.55 1.46 3.89 3.89 0 0 1 1.15 3.14 4.63 4.63 0 0 1-1.69 3.77 6.05 6.05 0 0 1-4 1.38h-1a11.94 11.94 0 0 1-1.22-.15 7 7 0 0 1-2.15-.73 1.73 1.73 0 0 1-.57-2.67 1.34 1.34 0 0 1 1.08-.47 2.68 2.68 0 0 1 .82.14l.89.29c.31.11.63.22 1 .31a4.09 4.09 0 0 0 1 .13 2.37 2.37 0 0 0 1.69-.54 1.83 1.83 0 0 0 .57-1.37 1.19 1.19 0 0 0-.71-1.13 9 9 0 0 0-1.72-.65l-.62-.18-.64-.2A8.27 8.27 0 0 1 84 30.3a3.23 3.23 0 0 1-1.15-2.79 4.55 4.55 0 0 1 1.64-3.71 5.84 5.84 0 0 1 3.86-1.36zm7.79 14.49V24.63a2.16 2.16 0 0 1 .42-1.37 1.55 1.55 0 0 1 1.31-.54h5.5a1.48 1.48 0 0 1 1.18.5 1.65 1.65 0 0 1 .38 1.06v.07a1.56 1.56 0 0 1-.42 1 1.42 1.42 0 0 1-1.15.47h-3.9V29h3.63a1.56 1.56 0 0 1 1.22.51 1.61 1.61 0 0 1 .4 1.06v.07a1.57 1.57 0 0 1-.43 1 1.51 1.51 0 0 1-1.18.46h-3.63v3.38h4.1a1.46 1.46 0 0 1 1.19.5 1.63 1.63 0 0 1 .39 1.06v.07a1.57 1.57 0 0 1-.42 1 1.46 1.46 0 0 1-1.15.45h-5.73a1.74 1.74 0 0 1-1.22-.45 1.55 1.55 0 0 1-.49-1.2z"/><path class="cls-3" d="M109.49 37V24.43a1.77 1.77 0 0 1 .45-1.24 1.67 1.67 0 0 1 1.28-.48h3.92a5.86 5.86 0 0 1 4.05 1.5 5 5 0 0 1 1.62 3.79 4.88 4.88 0 0 1-1.63 3.86 5.75 5.75 0 0 1-3.92 1.43h-2.46V37a1.66 1.66 0 1 1-3.32 0zm3.32-6.61h2.26a2.09 2.09 0 0 0 1.66-.66 2.42 2.42 0 0 0 .62-1.69 2.39 2.39 0 0 0-.62-1.68 2.13 2.13 0 0 0-1.66-.69h-2.26zm9.88 6.36V24.28a1.7 1.7 0 0 1 2.84-1.28 1.69 1.69 0 0 1 .48 1.3v11.21H130a1.47 1.47 0 0 1 1.13.44 1.72 1.72 0 0 1 .44.92v.27a1.52 1.52 0 0 1-1.57 1.45h-5.53a1.65 1.65 0 0 1-1.28-.49 1.88 1.88 0 0 1-.45-1.32zm10.19-4.49v-8a1.58 1.58 0 0 1 1.66-1.72 1.66 1.66 0 0 1 1.18.44 1.69 1.69 0 0 1 .48 1.29v7.79a3.91 3.91 0 0 0 .92 2.64 3.12 3.12 0 0 0 2.49 1.07 3.07 3.07 0 0 0 2.45-1.11 3.87 3.87 0 0 0 .94-2.58v-7.8a1.59 1.59 0 0 1 1.66-1.72 1.69 1.69 0 0 1 1.19.44 1.72 1.72 0 0 1 .47 1.29v8a6.23 6.23 0 0 1-2 4.72 6.93 6.93 0 0 1-9.48 0 6.18 6.18 0 0 1-2-4.7zm21.17-9.84l.86.08a7.92 7.92 0 0 1 1.06.19 5.68 5.68 0 0 1 1.66.69 1.46 1.46 0 0 1 .76 1.3 1.8 1.8 0 0 1-.4 1.15 1.3 1.3 0 0 1-1.09.5h-.32l-.33-.07-.32-.12-.34-.12c-.24-.09-.49-.17-.74-.23a3.61 3.61 0 0 0-.9-.1 2.24 2.24 0 0 0-1.26.37 1.22 1.22 0 0 0-.55 1.08 1 1 0 0 0 .57.9 6.57 6.57 0 0 0 1.44.57l.82.26.87.26a8.17 8.17 0 0 1 2.55 1.46 3.9 3.9 0 0 1 1.15 3.14 4.62 4.62 0 0 1-1.69 3.77 6 6 0 0 1-4 1.38h-1a12 12 0 0 1-1.22-.15 6.93 6.93 0 0 1-2.15-.73 1.73 1.73 0 0 1-.57-2.67 1.35 1.35 0 0 1 1.09-.47 2.65 2.65 0 0 1 .82.14l.89.29c.31.11.64.22 1 .31a4 4 0 0 0 1 .13 2.36 2.36 0 0 0 1.68-.54 1.82 1.82 0 0 0 .57-1.37 1.2 1.2 0 0 0-.7-1.13 9 9 0 0 0-1.73-.66l-.62-.18-.64-.2a8.31 8.31 0 0 1-2.55-1.28 3.23 3.23 0 0 1-1.15-2.79 4.54 4.54 0 0 1 1.64-3.71 5.82 5.82 0 0 1 3.85-1.36z"/><path class="cls-1" d="M79.47 52.79h-.05l-3.06-4.52v6.85h-.92v-8.47h.95l3.06 4.62 3.07-4.62h.96v8.47h-.95v-6.86l-3.06 4.53zm17.25-5.27H91.6v2.89h4.58v.87H91.6v2.97h5.18v.87h-6.13v-8.47h6.07v.87zm13.82 5.02a4 4 0 0 1-.92 1.35 4.33 4.33 0 0 1-1.42.9 4.85 4.85 0 0 1-1.8.32h-2.92v-8.47h2.92a4.91 4.91 0 0 1 1.8.32 4.25 4.25 0 0 1 1.42.89 4 4 0 0 1 .92 1.34 4.36 4.36 0 0 1 .32 1.67 4.41 4.41 0 0 1-.32 1.68m-.91-3a3.23 3.23 0 0 0-.7-1.07 3.19 3.19 0 0 0-1.1-.71 3.77 3.77 0 0 0-1.44-.26h-2v6.7h2a3.87 3.87 0 0 0 1.44-.26 3.09 3.09 0 0 0 1.1-.71 3.19 3.19 0 0 0 .7-1.06 3.55 3.55 0 0 0 .24-1.32 3.59 3.59 0 0 0-.24-1.32m8.11-2.89h.95v8.47h-.95zm14.73 7.74a4 4 0 0 1-.76.47 4.45 4.45 0 0 1-.88.31 4.82 4.82 0 0 1-1 .11 4.09 4.09 0 0 1-3-1.26 4.29 4.29 0 0 1-.88-1.38 4.59 4.59 0 0 1-.32-1.72 4.54 4.54 0 0 1 .32-1.71 4.44 4.44 0 0 1 .88-1.4 4.13 4.13 0 0 1 1.34-.95 4.2 4.2 0 0 1 1.71-.35 5.15 5.15 0 0 1 1 .1 4.44 4.44 0 0 1 .86.27 3.76 3.76 0 0 1 .73.42 5.58 5.58 0 0 1 .65.55l-.65.7a5.2 5.2 0 0 0-1.15-.84 3.13 3.13 0 0 0-1.48-.33 3.11 3.11 0 0 0-2.33 1 3.39 3.39 0 0 0-.68 1.1 3.76 3.76 0 0 0-.25 1.38 3.81 3.81 0 0 0 .25 1.38 3.38 3.38 0 0 0 .68 1.11 3.29 3.29 0 0 0 1 .75 3.12 3.12 0 0 0 1.29.27 3.2 3.2 0 0 0 1.48-.32 5.48 5.48 0 0 0 1.23-.9l.63.62a5.82 5.82 0 0 1-.68.61m14.97.75h-1l-1-2.24h-4.57l-1 2.24h-1l3.83-8.53h.89zm-4.28-7.4L141.22 52H145zm10.72-1.07h.95v7.58h4.73v.89h-5.68v-8.47zM118.63 5.67a.88.88 0 1 0-1.75 0v3.27a1.06 1.06 0 0 1-1.13 1.15h-3.24a1.24 1.24 0 0 1-.89-.42 1.77 1.77 0 0 1-.53-1.26V5.65a.87.87 0 1 0-1.74 0V9.1c0 .75-.33 1.12-1 1.12a1.38 1.38 0 0 1-1.08-.45 2 2 0 0 1-.49-1.41V6.13a.88.88 0 1 0-1.75 0v2.95c0 .75-.33 1.13-1 1.13a1.43 1.43 0 0 1-1.09-.45 2.15 2.15 0 0 1-.47-1.42V6.16a.89.89 0 0 0-.84-1 .93.93 0 0 0-.9 1v4.53a2.92 2.92 0 0 1-.79 2.05 2.49 2.49 0 0 1-3.77 0 2.86 2.86 0 0 1-.78-2V7.3a.9.9 0 0 0-.88-.95.94.94 0 0 0-.89 1l.07 3.38A4.69 4.69 0 0 0 95 14a4.16 4.16 0 0 0 6.2 0 4.65 4.65 0 0 0 1.28-2.91 2.27 2.27 0 0 0 2 .89 2.11 2.11 0 0 0 2.11-1.32 2.28 2.28 0 0 0 2.17 1.34 2.1 2.1 0 0 0 2.2-1.58 2.11 2.11 0 0 0 .75 1 1.63 1.63 0 0 0 1 .35h3.76a2 2 0 0 0 2.22-2.17V5.67zm41.01.09v-.05a.88.88 0 1 0-1.76 0v4.73a3.82 3.82 0 0 1-.26 1.42 4.19 4.19 0 0 1-2.57 1.83.91.91 0 0 0-.76 1 .86.86 0 0 0 1 .7 4.3 4.3 0 0 0 3.13-1.59 5.38 5.38 0 0 0 1.19-3.59zm-10.75-.01v-.08a.88.88 0 1 0-1.75 0v3.47c0 .75-.33 1.12-1 1.12a1.4 1.4 0 0 1-1.08-.45 2 2 0 0 1-.48-1.41V6.13a.87.87 0 1 0-1.74.06v2.93c0 .75-.33 1.14-1 1.14a1.39 1.39 0 0 1-1.08-.45 1.88 1.88 0 0 1-.48-1.19V6.2a.88.88 0 1 0-1.76 0c0 .46 0 1.76.05 3.95h-3.37a1.2 1.2 0 0 1-.91-.47 1.9 1.9 0 0 1-.51-1.4q0-1.65-.05-2.57a.88.88 0 1 0-1.74 0L132 9a1 1 0 0 1-.51.9 1.43 1.43 0 0 1-.86.27h-3.85V8.28a2.54 2.54 0 0 0-2.85-2.64 3 3 0 0 0-3.1 3.14 2.86 2.86 0 0 0 2.77 3h1.16l-.46.75a3.88 3.88 0 0 1-1.94 1.13.92.92 0 0 0-.76 1 .9.9 0 0 0 .9.7h.2a4.54 4.54 0 0 0 3.93-3.61h4.67a2.17 2.17 0 0 0 2.06-1.35 2.39 2.39 0 0 0 .41.72 1.62 1.62 0 0 0 1.28.63h5.2v-.63a2.3 2.3 0 0 0 1.94.87 2.15 2.15 0 0 0 2.12-1.32 2.25 2.25 0 0 0 2.22 1.33c1.57 0 2.35-1 2.37-2.74zm-25 4.4a1.37 1.37 0 0 1-1.29-1.45c0-1.1.58-1.82 1.34-1.82a1.21 1.21 0 0 1 1.08 1v2.26z"/><path class="cls-1" d="M155.4 8.65V6.2a.88.88 0 1 0-1.76 0v3.95h-3.33a1.21 1.21 0 0 1-.92-.47 1.91 1.91 0 0 1-.51-1.4V5.71a.88.88 0 1 0-1.74 0v3.27l1.34 1.44a2.39 2.39 0 0 0 .41.71 1.6 1.6 0 0 0 1.28.63h5.21v-.63"/><path class="cls-3" d="M90.22 5.67a.88.88 0 1 0-1.76 0v3.3a1.06 1.06 0 0 1-1.13 1.15H84.5a1.76 1.76 0 0 1-1.43-1.87c0-.5-.08-6.12-.08-7.36a.9.9 0 0 0-.87-.89.92.92 0 0 0-.87.92L81.31 9a1.3 1.3 0 0 1-1.38 1.17h-2.49a1.23 1.23 0 0 1-.89-.42A1.74 1.74 0 0 1 76 8.48V5.67a.87.87 0 1 0-1.73 0v3.5c0 .75-.33 1.12-1 1.12a1.39 1.39 0 0 1-1.08-.45 2 2 0 0 1-.48-1.41V6.16a.87.87 0 1 0-1.74 0v3c0 .75-.33 1.13-1 1.13a1.43 1.43 0 0 1-1.1-.45 2.17 2.17 0 0 1-.47-1.42V6.19a.87.87 0 1 0-1.74 0v4.49a2.9 2.9 0 0 1-.8 2.05 2.5 2.5 0 0 1-3.77 0 2.87 2.87 0 0 1-.78-2V7.32a.89.89 0 1 0-1.78 0l.07 3.37A4.7 4.7 0 0 0 59.88 14a4.16 4.16 0 0 0 6.21 0 4.64 4.64 0 0 0 1.27-2.91 2.28 2.28 0 0 0 2 .89 2.11 2.11 0 0 0 2.11-1.32A2.28 2.28 0 0 0 73.65 12a2.11 2.11 0 0 0 2.21-1.58 2.13 2.13 0 0 0 .75 1 1.64 1.64 0 0 0 1 .35h3a2.23 2.23 0 0 0 2.07-1.35 1.88 1.88 0 0 0 1.68 1.35H88a2 2 0 0 0 2.25-2.17V5.67m-3.1 6.86a.88.88 0 1 0 .86.88.88.88 0 0 0-.86-.88"/><path class="cls-1" d="M117.69 2.45a.88.88 0 1 0 .87.88.88.88 0 0 0-.87-.88m11.84 9.89a.88.88 0 1 0 .87.88.88.88 0 0 0-.87-.88m23.33 0a.88.88 0 1 0 .87.88.87.87 0 0 0-.87-.88m-2.23 0a.88.88 0 1 0 .87.88.88.88 0 0 0-.87-.88M1.11 10.54A3.22 3.22 0 0 0 2 12.83a2.83 2.83 0 0 0 2.14.95 2.77 2.77 0 0 0 2.13-1 3.19 3.19 0 0 0 .86-2.31L7 5.23h1c0 4.36 0 3.61.06 5.31a4.28 4.28 0 0 1-1.18 3 3.7 3.7 0 0 1-2.82 1.27 3.79 3.79 0 0 1-2.85-1.27A4.3 4.3 0 0 1 .1 10.52m12.97 1h-1.31a1.46 1.46 0 0 1-1.08-.44 1.81 1.81 0 0 1-.52-1.36V5.2h1v4.38c0 .57.24.89.71 1h1.14z"/><path class="cls-1" d="M25.26 10.54v1H12.67v-1h6.89a4 4 0 0 0-1-2.66 3 3 0 0 0-2.29-1 4.07 4.07 0 0 0-2.09.63l-.49-.88h.08L18.3 1.9l.7.69L15.43 6a6.11 6.11 0 0 1 1-.09c2.14 0 3.46 1.16 4 3.5a7.84 7.84 0 0 1 .17 1.1z"/><path class="cls-1" d="M28.68 9.53a1.85 1.85 0 0 1-2.06 2h-2v-1h2a1 1 0 0 0 1-1V5.97h1v3.59m-2.44 4.25h-1.06V12.6h1.12zm1.87 0H27V12.6h1.12zm12.33-2.29H30.5l.32-1H35a5 5 0 0 0-.74-2.63c-.43-.69-.88-1-1.38-1v-1a2.45 2.45 0 0 1 2 1.13A6.66 6.66 0 0 1 36 10.54h4.43z"/><path class="cls-1" d="M46.52 11.52h-1.35a1.48 1.48 0 0 1-1.17-.58 1.91 1.91 0 0 1-.37-.66 2.1 2.1 0 0 1-1.9 1.24h-2v-1h1.68a1.46 1.46 0 0 0 .79-.23 1 1 0 0 0 .47-.84V5.92h1v2.91a1.88 1.88 0 0 0 .47 1.29 1.15 1.15 0 0 0 .84.41h1.45v1zM43 13.78h-1.16V12.6H43zm1.85 0h-1.14V12.6h1.12z"/><path class="cls-1" d="M55 8.64c0 1.79-.92 2.88-2.51 2.88h-6.04v-1h4a3 3 0 0 1-.62-1.9c0-1.77 1-2.87 2.53-2.87a2.41 2.41 0 0 1 2 .92 3 3 0 0 1 .67 2m-1 0a2.28 2.28 0 0 0-.49-1.51 1.36 1.36 0 0 0-1-.49 1.26 1.26 0 0 0-1 .49A2.32 2.32 0 0 0 51 8.62a2.26 2.26 0 0 0 .48 1.52 1.37 1.37 0 0 0 1 .49 1.24 1.24 0 0 0 1-.49A2.33 2.33 0 0 0 54 8.62"/><path d="M95.09 61.27a.15.15 0 0 0-.16-.16h-.32v-.82h.93c.36 0 .5.16.5.5v1.72h2.29v-1.72c0-.35.15-.5.5-.5h.94v.82h-.32a.14.14 0 0 0-.16.16v4.26h-1v-2.2H96v2.2h-1zm10.03.4a1.62 1.62 0 0 1 1.65 1.79v.34h-2.58a1.07 1.07 0 0 0 1.12 1 1.69 1.69 0 0 0 1-.42l.39.65a2.28 2.28 0 0 1-1.5.57 1.92 1.92 0 0 1-2-2 1.85 1.85 0 0 1 1.9-2m.7 1.48a.73.73 0 0 0-.7-.76.9.9 0 0 0-.91.76zm6.74.08h.12c0-.54-.21-.74-.68-.74-.17 0-.5 0-.5.25v.2h-.87v-.4c0-.7 1-.77 1.37-.77 1.25 0 1.61.66 1.61 1.5v1.4a.15.15 0 0 0 .16.16h.25v.79h-.83c-.35 0-.48-.19-.48-.41v-.17a1.21 1.21 0 0 1-1.13.67 1.18 1.18 0 0 1-1.27-1.17c0-1.18 1.61-1.28 2.22-1.28m-.72 1.72a1 1 0 0 0 .85-1v-.09h-.16c-.48 0-1.25.07-1.25.59a.5.5 0 0 0 .56.49m5.97-3.66a.14.14 0 0 0-.16-.16h-.29v-.8h.89c.35 0 .49.16.49.51v3.79a.15.15 0 0 0 .16.16h.28v.79h-.88c-.35 0-.5-.15-.5-.5zm5.18 1.27h-.48v-.75h.5v-1h.91v1h.85v.75h-.85V64a.66.66 0 0 0 .74.71h.17v.82a1.63 1.63 0 0 1-.28 0 1.37 1.37 0 0 1-1.56-1.42zm5.62-1.27a.15.15 0 0 0-.16-.16h-.3v-.8h.9c.34 0 .49.16.49.5v1.64a1.44 1.44 0 0 1 1.28-.74c.84 0 1.31.43 1.31 1.43v1.47a.15.15 0 0 0 .16.16h.29v.79h-.89c-.35 0-.49-.15-.49-.5V63.3c0-.46-.12-.77-.59-.77a1 1 0 0 0-1 .78 1.66 1.66 0 0 0-.06.49v1.73h-.93zm9.39.43c.48 0 1.35.2 1.35.85V63h-.82v-.21c0-.21-.31-.3-.54-.3a1.17 1.17 0 0 0 .06 2.31 1.68 1.68 0 0 0 1.11-.51l.39.65a2.13 2.13 0 0 1-1.57.68 2 2 0 1 1 0-3.94m7.14 1.48h.12c0-.54-.21-.74-.69-.74-.17 0-.5 0-.5.25v.2h-.86v-.4c0-.7 1-.77 1.37-.77 1.25 0 1.62.66 1.62 1.5v1.4a.14.14 0 0 0 .16.16h.29v.79h-.84c-.34 0-.47-.19-.47-.41a1.61 1.61 0 0 1 0-.17 1.21 1.21 0 0 1-1.12.67 1.18 1.18 0 0 1-1.28-1.17c0-1.18 1.61-1.28 2.22-1.28m-.72 1.72a1 1 0 0 0 .85-1v-.09H145c-.49 0-1.25.07-1.25.59a.5.5 0 0 0 .56.49m6.01-2.18a.14.14 0 0 0-.16-.16h-.29v-.8h.85c.33 0 .5.14.5.46v.22a1.89 1.89 0 0 1 0 .24 1.29 1.29 0 0 1 1.19-1h.17v.92h-.23a1.05 1.05 0 0 0-1 .79 2.23 2.23 0 0 0-.08.61v1.49h-.92zm7.41-1.05a1.63 1.63 0 0 1 1.65 1.79v.34h-2.58a1.07 1.07 0 0 0 1.12 1 1.68 1.68 0 0 0 1-.42l.39.65a2.29 2.29 0 0 1-1.5.57 1.92 1.92 0 0 1-2-2 1.85 1.85 0 0 1 1.9-2m.7 1.48a.73.73 0 0 0-.7-.76.9.9 0 0 0-.92.76zm-92.07-1.81a.2.2 0 0 0-.23-.16H66v-.82h.61a.53.53 0 0 1 .62.43l1 2.92a7 7 0 0 1 .21.77 7.73 7.73 0 0 1 .2-.77l1-2.92a.52.52 0 0 1 .61-.43h.62v.82h-.14a.21.21 0 0 0-.23.16l-1.55 4.26h-1zm8.31-.16h-.48v-.82h2.38A1.6 1.6 0 0 1 78.21 62a1.62 1.62 0 0 1-1.65 1.73h-.94v1.81h-1zm1.73 1.78a.81.81 0 0 0 .85-.9.79.79 0 0 0-.83-.88h-.78v1.78zm5.75 1.24a1.89 1.89 0 0 0 1.26.62.66.66 0 0 0 .75-.62c0-.89-2.45-.82-2.45-2.45a1.57 1.57 0 0 1 1.73-1.48c.61 0 1.55.29 1.55 1v.49h-.86v-.24c0-.25-.35-.41-.69-.41s-.76.23-.76.56c0 .89 2.45.72 2.45 2.44a1.57 1.57 0 0 1-1.73 1.54 2.39 2.39 0 0 1-1.79-.81zm-33.39-2.46a2 2 0 1 1-2 2 2 2 0 0 1 2-2m0 3.15a1.18 1.18 0 1 0-1.11-1.17 1.11 1.11 0 0 0 1.11 1.17m5.9-2.31h-.46v-.75h.46v-.11a1.35 1.35 0 0 1 1.52-1.4 1.81 1.81 0 0 1 .31 0v.8h-.19c-.26 0-.72.06-.72.61v.09h.79v.75h-.79v3h-.93zm-39.9.21a.14.14 0 0 0-.16-.16h-.29v-.8h.89c.34 0 .49.16.49.5V64c0 .46.12.77.58.77a1.13 1.13 0 0 0 1-1.27v-1.74h.93v2.82a.15.15 0 0 0 .16.17h.29v.79h-.86c-.32 0-.48-.15-.48-.42v-.29a1.41 1.41 0 0 1-1.29.78c-.8 0-1.29-.41-1.29-1.43zm7.7 0a.14.14 0 0 0-.16-.16H22v-.8h.85c.33 0 .49.16.49.42v.11a1 1 0 0 1 0 .16 1.43 1.43 0 0 1 1.32-.78c.82 0 1.3.44 1.3 1.43v1.47a.15.15 0 0 0 .16.17h.29v.79h-.89c-.35 0-.5-.15-.5-.5V63.3c0-.46-.11-.77-.58-.77a1 1 0 0 0-1 .77 1.62 1.62 0 0 0-.07.5v1.73h-.92zm7.74 0a.15.15 0 0 0-.16-.16h-.29v-.8h.89c.35 0 .49.16.49.5v2.31a.15.15 0 0 0 .16.16h.29v.79h-.88c-.34 0-.49-.15-.49-.5zm0-2.44H31v.86h-.81zm5.18 2.23h-.48v-.75h.51v-1h.91v1h.85v.75h-.85V64a.67.67 0 0 0 .74.71h.17v.82a1.6 1.6 0 0 1-.28 0 1.37 1.37 0 0 1-1.55-1.42zM0 64.71h.12a.2.2 0 0 0 .23-.16l1.55-4.26h1l1.54 4.26a.19.19 0 0 0 .23.16h.12v.82H4.2a.53.53 0 0 1-.61-.43l-.33-.91H1.51l-.32.91a.52.52 0 0 1-.61.43H0zm3-1.32l-.4-1.32c-.1-.29-.2-.78-.2-.78s-.11.5-.2.78l-.45 1.31z" fill="#8c8c8c"/></g></g></svg>