<svg id="Layer_1" data-name="Layer 1" xmlns="http://www.w3.org/2000/svg" width="860.27" height="250.58" viewBox="0 0 860.27 250.58"><defs><style>.cls-1{fill:#005099;}.cls-2{fill:#fff;}.cls-3{fill:#ed1c24;}.cls-4{fill:#086fb8;}.cls-5{fill:#a91d41;}.cls-6{fill:#3f2b55;}.cls-7{fill:#717070;}</style></defs><title>RPM_Logo1_1</title><g id="_Group_" data-name="&lt;Group&gt;"><path id="_Path_" data-name="&lt;Path&gt;" class="cls-1" d="M901.16,199.81v-149H665.8a4.93,4.93,0,0,0-.67,0c-11.14,1-47.35,7.24-49.23,45.75a7.36,7.36,0,0,0-.09,1.16V285.67s235.81-.68,236-.71c11.14-1,47.36-7.22,49.24-45.76a10.71,10.71,0,0,0,.09-1.15V199.81Z" transform="translate(-40.95 -49.32)"/><path id="_Path_2" data-name="&lt;Path&gt;" class="cls-2" d="M792,146.33q0-12.08-5.86-19.49a23.28,23.28,0,0,0-10.17-7.76q-6.13-2.4-15.4-2.4H736.23l-4.69,22.37h28.23a14.78,14.78,0,0,1,5.12.83,8.16,8.16,0,0,1,3.72,2.75,10.78,10.78,0,0,1,2.13,6.86,15.39,15.39,0,0,1-2.87,9.48q-4.47,5.47-13.1,5.48h-2.13v0H726.21l-10.12,48.3h20.78l5.75-27.59H755a39.44,39.44,0,0,0,16.78-3.44,32.32,32.32,0,0,0,12.2-9.6q8-10.31,8-25.82" transform="translate(-40.95 -49.32)"/><path id="_Path_3" data-name="&lt;Path&gt;" class="cls-2" d="M720.8,135.48a25.37,25.37,0,0,0-4.37-8.92,23.59,23.59,0,0,0-10-7.34q-6.24-2.55-15.61-2.55H662.74l-4.81,22.93h32q6.39,0,9.06,3.43a9.67,9.67,0,0,1,2,6.31,13.06,13.06,0,0,1-2.66,8.24,12.63,12.63,0,0,1-5.22,3.85,19.73,19.73,0,0,1-7.57,1.37H653.06l-10.46,50h20.77l6.07-29.1h9.17l9.9,29.1h22.81l-11.62-32.4a33.79,33.79,0,0,0,9.38-4.87,34.42,34.42,0,0,0,6.07-6,29.76,29.76,0,0,0,5.33-10.44,45.69,45.69,0,0,0,1.71-12.77,41.29,41.29,0,0,0-1.39-10.85" transform="translate(-40.95 -49.32)"/><polygon id="_Path_4" data-name="&lt;Path&gt;" class="cls-3" points="818.6 167.52 836.79 68.11 815.35 68.11 792.81 105.18 780.41 68.11 764.69 68.11 743.88 167.52 574.91 167.52 574.91 184.37 762.8 184.37 762.92 183.71 776.5 118.01 786.75 146.38 787.17 146.38 811.03 108.88 798.56 169.06 795.38 184.37 860.27 184.37 860.22 167.52 818.6 167.52"/></g><g id="_Clip_Group_" data-name="&lt;Clip Group&gt;"><path id="_Compound_Path_" data-name="&lt;Compound Path&gt;" class="cls-1" d="M41,175.1V132.42a6,6,0,0,1,1.51-4.25,5.74,5.74,0,0,1,4.34-1.6l13.36-.08q8.82.08,13.86,4.18t5.06,13.07a12.46,12.46,0,0,1-4.1,9.84,19.28,19.28,0,0,1-10,4.51l12.91,13.75a6.05,6.05,0,0,1,1.18,1.75,4.34,4.34,0,0,1,.34,1.67,5.85,5.85,0,0,1-1.6,4,5.27,5.27,0,0,1-4.1,1.78l-1-.08-1-.22-1.32-.58-1.19-1L52.49,158.62h-.15V175.1A5.43,5.43,0,0,1,46.65,181a5.77,5.77,0,0,1-4.07-1.52A5.6,5.6,0,0,1,41,175.19Zm11.39-24.68h7.82a7.06,7.06,0,0,0,5.09-1.7,6.38,6.38,0,0,0,2-5,6.22,6.22,0,0,0-2-5,7.52,7.52,0,0,0-5.09-1.7L52.34,137Z" transform="translate(-40.95 -49.32)"/><path id="_Path_5" data-name="&lt;Path&gt;" class="cls-1" d="M86.22,174.88V133.1a7.35,7.35,0,0,1,1.44-4.67,5.34,5.34,0,0,1,4.48-1.85l18.84-.09a5.15,5.15,0,0,1,4.07,1.72,5.58,5.58,0,0,1,1.32,3.6V132a5.42,5.42,0,0,1-1.44,3.45,5,5,0,0,1-4,1.57L97.61,137v11.1h12.46a5.31,5.31,0,0,1,4.18,1.71,5.5,5.5,0,0,1,1.37,3.6v.23a5.43,5.43,0,0,1-1.49,3.46,5.18,5.18,0,0,1-4.06,1.55H97.61V170.1h14a5.08,5.08,0,0,1,4.07,1.71,5.57,5.57,0,0,1,1.33,3.6v.23a5.33,5.33,0,0,1-1.44,3.41,5.05,5.05,0,0,1-4,1.52H92.07a6,6,0,0,1-4.18-1.52A5.26,5.26,0,0,1,86.22,175Z" transform="translate(-40.95 -49.32)"/><path id="_Path_6" data-name="&lt;Path&gt;" class="cls-1" d="M141.51,125.59c.81,0,1.8.14,3,.26a30.15,30.15,0,0,1,3.65.64,19.31,19.31,0,0,1,5.69,2.36,5,5,0,0,1,2.59,4.4,6.12,6.12,0,0,1-1.37,3.92,4.5,4.5,0,0,1-3.72,1.7l-1.1-.07-1.1-.23-1.1-.41-1.18-.42a26.25,26.25,0,0,0-2.55-.8,12.26,12.26,0,0,0-3.07-.34,7.73,7.73,0,0,0-4.33,1.25,4.14,4.14,0,0,0-1.9,3.69,3.38,3.38,0,0,0,2,3.07,22.81,22.81,0,0,0,4.93,1.94c.92.3,1.85.59,2.81.87l3,.88a27.75,27.75,0,0,1,8.74,5q3.94,3.3,3.95,10.67,0,8.15-5.78,12.83a20.82,20.82,0,0,1-13.66,4.72c-1,0-2.2-.05-3.58-.16a36.59,36.59,0,0,1-4.17-.53,24,24,0,0,1-7.37-2.47,5.68,5.68,0,0,1-3.34-5.28,5.58,5.58,0,0,1,1.37-3.79,4.64,4.64,0,0,1,3.72-1.6,9.12,9.12,0,0,1,2.81.46c1,.3,2,.64,3,1s2.18.75,3.35,1.06a14.21,14.21,0,0,0,3.57.46,8.19,8.19,0,0,0,5.78-1.86,6.17,6.17,0,0,0,2-4.68,4,4,0,0,0-2.43-3.83,30.8,30.8,0,0,0-5.92-2.24l-2.13-.61c-.7-.2-1.44-.43-2.2-.69a28.53,28.53,0,0,1-8.73-4.33q-3.94-2.88-3.95-9.49,0-8,5.62-12.6a20.13,20.13,0,0,1,13.21-4.64Z" transform="translate(-40.95 -49.32)"/><path id="_Compound_Path_2" data-name="&lt;Compound Path&gt;" class="cls-1" d="M168.25,175.11V132.42a5.82,5.82,0,0,1,1.55-4.21,5.75,5.75,0,0,1,4.37-1.64l13.45-.08a20.19,20.19,0,0,1,13.89,5.1,16.89,16.89,0,0,1,5.55,13.13q0,8.29-5.59,13.15a19.78,19.78,0,0,1-13.41,4.86h-8.42v12.4a5.65,5.65,0,0,1-1.64,4.39,6.2,6.2,0,0,1-8.12,0,5.62,5.62,0,0,1-1.63-4.33Zm11.39-22.48h7.75a7.19,7.19,0,0,0,5.69-2.24,8.79,8.79,0,0,0,0-11.47,7.34,7.34,0,0,0-5.69-2.32l-7.75-.08Z" transform="translate(-40.95 -49.32)"/><path id="_Compound_Path_3" data-name="&lt;Compound Path&gt;" class="cls-1" d="M218.67,173.44q-7.28-8.06-7.28-19.83t7.25-19.9q7.26-8.06,18.88-8.05a24.08,24.08,0,0,1,18.79,8.2,28.6,28.6,0,0,1,7.33,19.75q0,11.77-7.22,19.83t-18.9,8.05q-11.55,0-18.85-8.05m29.59-7.64a22.7,22.7,0,0,0,0-24.38q-3.58-5.28-10.7-5.28t-10.72,5.28a22.63,22.63,0,0,0,0,24.32Q230.3,171,237.52,171c4.8.05,8.39-1.69,10.74-5.21" transform="translate(-40.95 -49.32)"/><path id="_Path_7" data-name="&lt;Path&gt;" class="cls-1" d="M270.94,175.09v-43.2a5.65,5.65,0,0,1,1.63-4.33,5.73,5.73,0,0,1,4.06-1.52l1,.11,1.07.34a13,13,0,0,1,1.51.92,4.93,4.93,0,0,1,1.21,1.14l24.08,32h.16V131.88a5.61,5.61,0,0,1,1.63-4.32,5.7,5.7,0,0,1,4.06-1.52A5.43,5.43,0,0,1,317,132v43.11a5.43,5.43,0,0,1-5.7,5.94l-1-.15-1.06-.3a8,8,0,0,1-1.52-.84,5.12,5.12,0,0,1-1.21-1.14l-24.08-31.82h-.15v28.33a5.83,5.83,0,0,1-9.76,4.4,5.62,5.62,0,0,1-1.63-4.33Z" transform="translate(-40.95 -49.32)"/><path id="_Path_8" data-name="&lt;Path&gt;" class="cls-1" d="M343.55,125.59c.8,0,1.79.14,3,.26a30.34,30.34,0,0,1,3.64.64,19.6,19.6,0,0,1,5.7,2.36,5,5,0,0,1,2.58,4.4,6.11,6.11,0,0,1-1.36,3.92,4.51,4.51,0,0,1-3.72,1.7l-1.1-.07-1.11-.23-1.1-.41-1.18-.42c-.81-.3-1.66-.57-2.54-.8a12.4,12.4,0,0,0-3.08-.34,7.68,7.68,0,0,0-4.32,1.25,4.14,4.14,0,0,0-1.9,3.69,3.37,3.37,0,0,0,2,3.07,22.81,22.81,0,0,0,4.93,1.94c.92.3,1.85.59,2.81.87s2,.57,3,.88a27.75,27.75,0,0,1,8.74,5q3.94,3.3,3.95,10.67,0,8.15-5.77,12.83a20.87,20.87,0,0,1-13.67,4.72c-1,0-2.2-.05-3.57-.16a36.47,36.47,0,0,1-4.18-.53,24,24,0,0,1-7.37-2.47,5.7,5.7,0,0,1-3.34-5.28,5.63,5.63,0,0,1,1.37-3.79,4.65,4.65,0,0,1,3.72-1.6,9.23,9.23,0,0,1,2.82.46c.95.3,2,.64,3,1s2.18.75,3.34,1.06a14.27,14.27,0,0,0,3.57.46,8.17,8.17,0,0,0,5.77-1.86,6.14,6.14,0,0,0,2-4.68,4.05,4.05,0,0,0-2.42-3.83,31.44,31.44,0,0,0-5.93-2.24l-2.12-.61c-.71-.2-1.45-.43-2.21-.69a28.53,28.53,0,0,1-8.73-4.33q-3.95-2.88-4-9.49,0-8,5.62-12.6a20.14,20.14,0,0,1,13.22-4.64Z" transform="translate(-40.95 -49.32)"/><path id="_Path_9" data-name="&lt;Path&gt;" class="cls-1" d="M370.28,174.88V133.1a7.35,7.35,0,0,1,1.45-4.67,5.31,5.31,0,0,1,4.47-1.85l18.84-.09a5.15,5.15,0,0,1,4.07,1.72,5.59,5.59,0,0,1,1.33,3.6V132a5.43,5.43,0,0,1-1.45,3.45,5,5,0,0,1-3.95,1.57L381.68,137v11.1h12.45a5.31,5.31,0,0,1,4.18,1.71,5.54,5.54,0,0,1,1.36,3.6v.23a5.3,5.3,0,0,1-1.47,3.46,5.2,5.2,0,0,1-4.07,1.55H381.68V170.1h14a5.07,5.07,0,0,1,4.07,1.71,5.57,5.57,0,0,1,1.33,3.6v.23a5.24,5.24,0,0,1-1.45,3.41,5,5,0,0,1-3.95,1.52H376.13a6,6,0,0,1-4.18-1.52,5.26,5.26,0,0,1-1.67-4.09Z" transform="translate(-40.95 -49.32)"/><path id="_Compound_Path_4" data-name="&lt;Compound Path&gt;" class="cls-3" d="M416.08,175.11V132.42a5.86,5.86,0,0,1,1.55-4.21,5.77,5.77,0,0,1,4.38-1.64l13.44-.08a20.19,20.19,0,0,1,13.89,5.1,16.86,16.86,0,0,1,5.56,13.13q0,8.29-5.59,13.15a19.78,19.78,0,0,1-13.41,4.86h-8.43v12.4a5.83,5.83,0,0,1-9.76,4.38,5.62,5.62,0,0,1-1.63-4.33Zm11.39-22.48h7.76a7.15,7.15,0,0,0,5.68-2.24,8.79,8.79,0,0,0,0-11.47,7.31,7.31,0,0,0-5.68-2.32l-7.76-.08Z" transform="translate(-40.95 -49.32)"/><path id="_Path_10" data-name="&lt;Path&gt;" class="cls-3" d="M461.35,174.34V131.9a5.64,5.64,0,0,1,1.63-4.34,5.71,5.71,0,0,1,9.76,4.42V170.1h13.52a5,5,0,0,1,3.87,1.52,5.77,5.77,0,0,1,1.52,3.11l.08.41v.5a5.25,5.25,0,0,1-5.47,4.94h-19a5.66,5.66,0,0,1-4.37-1.68,6.3,6.3,0,0,1-1.55-4.49Z" transform="translate(-40.95 -49.32)"/><path id="_Path_11" data-name="&lt;Path&gt;" class="cls-3" d="M496.28,159.05V131.9a5.65,5.65,0,0,1,1.64-4.34,5.7,5.7,0,0,1,9.75,4.41v26.48a13.25,13.25,0,0,0,3.16,9,10.71,10.71,0,0,0,8.54,3.65,10.52,10.52,0,0,0,8.4-3.77,13.11,13.11,0,0,0,3.23-8.78V131.9a5.64,5.64,0,0,1,1.63-4.34,5.71,5.71,0,0,1,9.76,4.41v27.08a21.07,21.07,0,0,1-6.8,16,23.91,23.91,0,0,1-32.52,0,21,21,0,0,1-6.79-16Z" transform="translate(-40.95 -49.32)"/><path id="_Path_12" data-name="&lt;Path&gt;" class="cls-3" d="M568.9,125.59c.8,0,1.79.14,3,.26a30,30,0,0,1,3.64.64,19.48,19.48,0,0,1,5.7,2.36,5,5,0,0,1,2.58,4.4,6.11,6.11,0,0,1-1.36,3.92,4.5,4.5,0,0,1-3.73,1.7l-1.09-.07-1.11-.23-1.1-.41-1.17-.42c-.82-.3-1.67-.57-2.55-.8a12.34,12.34,0,0,0-3.08-.34,7.73,7.73,0,0,0-4.33,1.25,4.13,4.13,0,0,0-1.89,3.69,3.37,3.37,0,0,0,2,3.07,23,23,0,0,0,4.93,1.94c.92.3,1.85.59,2.82.87l3,.88a27.7,27.7,0,0,1,8.73,5q4,3.3,4,10.67,0,8.15-5.78,12.83a20.87,20.87,0,0,1-13.67,4.72c-1,0-2.2-.05-3.57-.16a36.47,36.47,0,0,1-4.18-.53,23.9,23.9,0,0,1-7.37-2.47,5.7,5.7,0,0,1-3.34-5.28,5.63,5.63,0,0,1,1.37-3.79,4.68,4.68,0,0,1,3.73-1.6,9.22,9.22,0,0,1,2.81.46c1,.3,2,.64,3,1a33.74,33.74,0,0,0,3.35,1.06,14.13,14.13,0,0,0,3.56.46,8.15,8.15,0,0,0,5.77-1.86,6.14,6.14,0,0,0,2-4.68,4.05,4.05,0,0,0-2.42-3.83,30.92,30.92,0,0,0-5.93-2.24l-2.12-.61c-.71-.2-1.44-.43-2.21-.69a28.64,28.64,0,0,1-8.73-4.33q-3.94-2.88-4-9.49,0-8,5.62-12.6a20.14,20.14,0,0,1,13.22-4.64Z" transform="translate(-40.95 -49.32)"/></g><polygon id="_Path_13" data-name="&lt;Path&gt;" class="cls-1" points="272.18 179.57 272.01 179.57 261.52 164.17 261.52 187.47 258.35 187.47 258.35 158.66 261.65 158.66 272.14 174.39 282.63 158.66 285.93 158.66 285.93 187.47 282.68 187.47 282.68 164.14 272.18 179.57"/><polygon id="_Path_14" data-name="&lt;Path&gt;" class="cls-1" points="331.34 161.63 313.76 161.63 313.76 171.46 329.49 171.46 329.49 174.43 313.76 174.43 313.76 184.51 331.55 184.51 331.55 187.48 310.52 187.48 310.52 158.66 331.34 158.66 331.34 161.63"/><path id="_Compound_Path_5" data-name="&lt;Compound Path&gt;" class="cls-1" d="M419.68,228.05a13.48,13.48,0,0,1-3.15,4.59,14.92,14.92,0,0,1-4.86,3.05,17,17,0,0,1-6.19,1.1h-10V208h10a17.16,17.16,0,0,1,6.19,1.1,14.87,14.87,0,0,1,4.86,3,13.6,13.6,0,0,1,3.15,4.57,14.6,14.6,0,0,1,1.11,5.68,14.81,14.81,0,0,1-1.11,5.7m-3.11-10.11a10.72,10.72,0,0,0-2.39-3.64,10.83,10.83,0,0,0-3.76-2.42,13.09,13.09,0,0,0-4.94-.89h-6.75v22.8h6.75a13.49,13.49,0,0,0,4.94-.87,10.64,10.64,0,0,0,3.76-2.4,10.79,10.79,0,0,0,2.39-3.61,11.68,11.68,0,0,0,.85-4.48,12,12,0,0,0-.85-4.49" transform="translate(-40.95 -49.32)"/><rect id="_Path_15" data-name="&lt;Path&gt;" class="cls-1" x="403.44" y="158.65" width="3.25" height="28.82"/><path id="_Path_16" data-name="&lt;Path&gt;" class="cls-1" d="M494.88,234.3a13.78,13.78,0,0,1-2.61,1.59,15.15,15.15,0,0,1-3,1,16.47,16.47,0,0,1-3.6.37,14.15,14.15,0,0,1-10.32-4.3,14.55,14.55,0,0,1-3-4.71,15.56,15.56,0,0,1-1.09-5.85,15.34,15.34,0,0,1,1.09-5.8,14.73,14.73,0,0,1,3-4.75,13.83,13.83,0,0,1,4.61-3.22,14.45,14.45,0,0,1,5.85-1.17,17.43,17.43,0,0,1,3.55.33,15.41,15.41,0,0,1,2.95.92,13,13,0,0,1,2.5,1.44,20.74,20.74,0,0,1,2.23,1.88l-2.23,2.39a18.1,18.1,0,0,0-4-2.85,11.11,11.11,0,0,0-13.05,2.31,11.73,11.73,0,0,0-2.35,3.77,12.79,12.79,0,0,0-.84,4.67,13,13,0,0,0,.84,4.69,11.82,11.82,0,0,0,2.35,3.79,11.26,11.26,0,0,0,3.53,2.53,10.6,10.6,0,0,0,4.44.92,11.09,11.09,0,0,0,5.1-1.09,18.13,18.13,0,0,0,4.2-3.06l2.15,2.1a22.25,22.25,0,0,1-2.34,2.07" transform="translate(-40.95 -49.32)"/><path id="_Compound_Path_6" data-name="&lt;Compound Path&gt;" class="cls-1" d="M546.16,236.79h-3.5l-3.38-7.62H523.6l-3.41,7.62h-3.34l13.14-29h3ZM531.47,211.6l-6.59,14.7H538Z" transform="translate(-40.95 -49.32)"/><polygon id="_Path_17" data-name="&lt;Path&gt;" class="cls-1" points="527.32 158.66 530.57 158.66 530.57 184.47 546.79 184.47 546.79 187.48 527.32 187.48 527.32 158.66"/><path id="_Path_18" data-name="&lt;Path&gt;" class="cls-1" d="M447.41,68.61a3,3,0,1,0-6,0h0s0,0,0,.08a.37.37,0,0,0,0,.11h0c0,1.4,0,3.27.1,5.5.06,1.54.06,3.41.06,5.63a3.62,3.62,0,0,1-3.86,3.92h-11.1a4.27,4.27,0,0,1-3.07-1.42,5.91,5.91,0,0,1-1.82-4.27c-.06-4.26-.12-7.39-.12-9.38h0c0-.06,0-.11,0-.17a3,3,0,1,0-6,0h0v.16h0c.06,8,.06,11.89.06,11.71,0,2.57-1.14,3.82-3.47,3.82a4.79,4.79,0,0,1-3.69-1.54A6.75,6.75,0,0,1,406.87,78c-.05-3.47-.1-6-.1-7.57h0v-.16h0a3,3,0,1,0-6,.16h0c.06,5.87.06,9.23.06,10,0,2.56-1.14,3.87-3.47,3.87a4.92,4.92,0,0,1-3.75-1.54A7.21,7.21,0,0,1,392,77.94V70.26h0A3,3,0,0,0,389.15,67a3.2,3.2,0,0,0-3.07,3.29h0c0,1.42.06,6.54.11,15.41a9.81,9.81,0,0,1-2.72,7,8.61,8.61,0,0,1-12.91,0,9.75,9.75,0,0,1-2.67-6.88c-.06-3.41-.06-7.33-.06-11.71h0a3.09,3.09,0,0,0-3-3.22,3.2,3.2,0,0,0-3,3.32h0L362,85.67A15.9,15.9,0,0,0,366.38,97,14.16,14.16,0,0,0,377,101.77,14,14,0,0,0,387.65,97,15.8,15.8,0,0,0,392,87.15a7.79,7.79,0,0,0,6.71,3c3.58,0,6-1.59,7.21-4.49a7.86,7.86,0,0,0,7.63,4.49c4,0,6.48-1.87,7.56-5.4a7,7,0,0,0,2.56,3.42,5.62,5.62,0,0,0,3.3,1.19h12.91c4.95,0,7.63-2.85,7.63-7.4,0,.06-.06-4.38-.12-13.36Z" transform="translate(-40.95 -49.32)"/><path id="_Path_19" data-name="&lt;Path&gt;" class="cls-1" d="M588.06,68.89h0s0-.11,0-.16v-.12h0a3,3,0,0,0-6.06,0h0l.11,16.09a12.81,12.81,0,0,1-.89,4.85c-2.46,4.8-8.8,6.22-8.8,6.22a3.13,3.13,0,0,0-2.62,3.55,3,3,0,0,0,3.56,2.39h0a14.74,14.74,0,0,0,10.74-5.41,18.19,18.19,0,0,0,4.1-12.22Z" transform="translate(-40.95 -49.32)"/><path id="_Compound_Path_7" data-name="&lt;Compound Path&gt;" class="cls-1" d="M551.17,68.88h0v-.27h0a3,3,0,0,0-6,0v.07c0,.07,0,.14,0,.2h0c.05,7.94.05,11.79.05,11.62,0,2.55-1.13,3.81-3.46,3.81a4.83,4.83,0,0,1-3.7-1.54A6.74,6.74,0,0,1,536.38,78c-.06-3.58-.06-6.14-.11-7.73h0a3,3,0,1,0-6,.2h0c.06,5.85.06,9.19.06,10,0,2.56-1.14,3.87-3.46,3.87a4.81,4.81,0,0,1-3.7-1.54,6.36,6.36,0,0,1-1.65-4V70.42h0a3,3,0,1,0-6-.16v0s0,.08,0,.12h0c.05,1.57.11,6,.16,13.43H504.25a4.13,4.13,0,0,1-3.13-1.59,6.47,6.47,0,0,1-1.76-4.78q-.17-5.6-.17-8.73h0a3,3,0,1,0-6,0h0l.11,11.12a3.42,3.42,0,0,1-1.76,3.07,5,5,0,0,1-3,.91h-13.2V77.48c0-5.46-3.58-9-9.78-9A10.35,10.35,0,0,0,455,79.19c0,5.4,3.87,10.18,9.5,10.18h4l-1.61,2.54a13.28,13.28,0,0,1-6.64,3.84,3.12,3.12,0,0,0-2.62,3.56,3.06,3.06,0,0,0,3.08,2.38v0l.16,0,.52-.06h0c6.85-.86,11.75-5.44,13.46-12.26h16.05c3.12-.06,6.08-1.82,7.05-4.61a8,8,0,0,0,1.42,2.44,5.55,5.55,0,0,0,4.38,2.17H521.6V87.2a7.82,7.82,0,0,0,6.65,3c3.57,0,6-1.59,7.28-4.49a7.69,7.69,0,0,0,7.56,4.49c5.4-.11,8.07-3.24,8.13-9.32Zm-85.82,15c-2.39,0-4.33-2.22-4.33-4.94,0-3.76,2-6.21,4.61-6.21a4.18,4.18,0,0,1,3.7,3.47c0,.46,0,3,.05,7.68Z" transform="translate(-40.95 -49.32)"/><path id="_Path_20" data-name="&lt;Path&gt;" class="cls-1" d="M573.52,78.73V70.42h0a3,3,0,1,0-6-.16v0s0,.08,0,.12h0c0,1.57.11,6,.16,13.43H556.23a4.18,4.18,0,0,1-3.13-1.59,6.46,6.46,0,0,1-1.76-4.78q-.17-5.6-.17-8.73h0a3,3,0,1,0-6,0h0l.11,11.12,4.61,4.89a7.92,7.92,0,0,0,1.42,2.44,5.55,5.55,0,0,0,4.38,2.17h17.86V87.2" transform="translate(-40.95 -49.32)"/><path id="_Path_21" data-name="&lt;Path&gt;" class="cls-3" d="M350,68.61a3,3,0,1,0-6,0h0s0,0,0,.06h0c0,1.41,0,3.32.11,5.62.06,1.54.06,3.41.06,5.63a3.62,3.62,0,0,1-3.87,3.92h-9.9c-2.39,0-4.78-2.67-4.89-6.37-.06-1.7-.28-20.81-.28-25h0a3,3,0,1,0-6,0h0l.24,27.41c0,2.39-2.4,4-4.73,4H306.2a4.27,4.27,0,0,1-3.07-1.42,6,6,0,0,1-1.82-4.27c-.05-4.37-.11-7.56-.11-9.55a3,3,0,1,0-6,0h0c.06,8.13.06,12.06.06,11.88,0,2.57-1.14,3.82-3.47,3.82a4.83,4.83,0,0,1-3.7-1.54A6.74,6.74,0,0,1,286.47,78c-.06-3.58-.11-6.14-.11-7.73h0a3,3,0,1,0-6,0h0v.1c.05,5.91.05,9.29.05,10.08,0,2.56-1.14,3.87-3.46,3.87a5,5,0,0,1-3.76-1.54,7.26,7.26,0,0,1-1.59-4.83V70.38h0v-.12h0a3,3,0,1,0-6,.12h0c0,1.57,0,6.64.11,15.29a9.82,9.82,0,0,1-2.73,7,8.61,8.61,0,0,1-12.91,0,9.75,9.75,0,0,1-2.67-6.88c-.06-3.38-.06-7.26-.06-11.59h0a3.05,3.05,0,1,0-6.09-.12v.12l.23,11.48A15.9,15.9,0,0,0,246,97a14.32,14.32,0,0,0,21.27,0,15.79,15.79,0,0,0,4.38-9.89,7.8,7.8,0,0,0,6.71,3c3.58,0,6-1.59,7.22-4.49a7.84,7.84,0,0,0,7.62,4.49c4,0,6.48-1.87,7.56-5.4a7.14,7.14,0,0,0,2.56,3.42,5.64,5.64,0,0,0,3.3,1.19H317a7.67,7.67,0,0,0,7.11-4.61,6.44,6.44,0,0,0,5.74,4.61H342.5c4.94,0,7.61-2.85,7.61-7.4,0,.06-.05-4.38-.11-13.36Z" transform="translate(-40.95 -49.32)"/><path id="_Path_22" data-name="&lt;Path&gt;" class="cls-3" d="M339.48,92a3,3,0,1,0,3,3,3,3,0,0,0-3-3" transform="translate(-40.95 -49.32)"/><path id="_Path_23" data-name="&lt;Path&gt;" class="cls-1" d="M444.19,57.67a3,3,0,1,0,3,3,3,3,0,0,0-3-3" transform="translate(-40.95 -49.32)"/><path id="_Path_24" data-name="&lt;Path&gt;" class="cls-1" d="M484.79,91.28a3,3,0,1,0,3,3,3,3,0,0,0-3-3" transform="translate(-40.95 -49.32)"/><path id="_Path_25" data-name="&lt;Path&gt;" class="cls-1" d="M564.81,91.28a3,3,0,1,0,3,3,3,3,0,0,0-3-3" transform="translate(-40.95 -49.32)"/><path id="_Path_26" data-name="&lt;Path&gt;" class="cls-1" d="M557.15,91.28a3,3,0,1,0,3,3,3,3,0,0,0-3-3" transform="translate(-40.95 -49.32)"/><path id="_Path_27" data-name="&lt;Path&gt;" class="cls-1" d="M44.43,85.16a10.9,10.9,0,0,0,3,7.81,9.79,9.79,0,0,0,7.34,3.22,9.55,9.55,0,0,0,7.28-3.27,10.84,10.84,0,0,0,3-7.86l-.31-18h3.59c.1,14.84.16,12.29.21,18.06a14.53,14.53,0,0,1-4.06,10.36,12.72,12.72,0,0,1-9.67,4.31A13,13,0,0,1,45,95.52,14.53,14.53,0,0,1,41,85.11" transform="translate(-40.95 -49.32)"/><path id="_Path_28" data-name="&lt;Path&gt;" class="cls-1" d="M85.43,88.49H81a5.1,5.1,0,0,1-3.7-1.5,6.19,6.19,0,0,1-1.76-4.63L75.33,67h3.59l.15,14.9c0,1.93.83,3,2.45,3.28h3.91Z" transform="translate(-40.95 -49.32)"/><path id="_Path_29" data-name="&lt;Path&gt;" class="cls-1" d="M127.23,85.16v3.33H84.06V85.16h23.63a13.72,13.72,0,0,0-3.49-9,10.22,10.22,0,0,0-7.86-3.48,14,14,0,0,0-7.17,2.13l-1.67-3c0-.06.16-.06.26-.11l15.62-15.85,2.39,2.34L93.53,69.82A20,20,0,0,1,97,69.5c7.33,0,11.86,4,13.68,11.92a27.57,27.57,0,0,1,.57,3.74Z" transform="translate(-40.95 -49.32)"/><path id="_Compound_Path_8" data-name="&lt;Compound Path&gt;" class="cls-1" d="M139,81.73c0,4.16-2.5,6.76-7.08,6.76H125.1V85.16h6.76a3.27,3.27,0,0,0,3.54-3.53c0,.46-.06-3.54-.16-12.13h3.59c.1,8.23.16,12.28.16,12.23m-8.38,14.46h-3.84v-4h3.84Zm6.4,0h-3.85v-4H137Z" transform="translate(-40.95 -49.32)"/><path id="_Path_30" data-name="&lt;Path&gt;" class="cls-1" d="M179.1,88.49H145.23l1.09-3.33h14.2a17,17,0,0,0-2.55-9c-1.46-2.33-3-3.48-4.73-3.48V69.51c2.65,0,4.88,1.3,6.81,3.84,2.13,2.86,3.43,6.77,3.85,11.81h15.2Z" transform="translate(-40.95 -49.32)"/><path id="_Compound_Path_9" data-name="&lt;Compound Path&gt;" class="cls-1" d="M200.17,88.49h-4.63a5,5,0,0,1-3.95-2,6.25,6.25,0,0,1-1.3-2.23,7.18,7.18,0,0,1-6.51,4.21H177V85.16h5.77a5.08,5.08,0,0,0,2.71-.77,3.28,3.28,0,0,0,1.61-2.87c.1.84.1-3.17-.05-12h3.59c0,3.32.05,6.6.1,9.88a6.37,6.37,0,0,0,1.61,4.37,4,4,0,0,0,2.87,1.4h5v3.33ZM188,96.19h-3.9v-4H188Zm6.35,0H190.5v-4h3.85Z" transform="translate(-40.95 -49.32)"/><path id="_Compound_Path_10" data-name="&lt;Compound Path&gt;" class="cls-1" d="M229.32,78.71c0,6.09-3.17,9.78-8.58,9.78H199.91V85.16h13.85a10.25,10.25,0,0,1-2.13-6.45c0-6,3.28-9.77,8.69-9.77A8.25,8.25,0,0,1,227,72.06a10.11,10.11,0,0,1,2.29,6.65m-3.54,0a7.77,7.77,0,0,0-1.66-5.15,4.71,4.71,0,0,0-3.59-1.66A4.36,4.36,0,0,0,217,73.51a7.87,7.87,0,0,0-1.5,5.15,7.57,7.57,0,0,0,1.66,5.15,4.72,4.72,0,0,0,3.59,1.67,4.26,4.26,0,0,0,3.48-1.67,7.83,7.83,0,0,0,1.51-5.15" transform="translate(-40.95 -49.32)"/><g id="_Clip_Group_2" data-name="&lt;Clip Group&gt;"><g id="_Group_2" data-name="&lt;Group&gt;"><path id="_Path_31" data-name="&lt;Path&gt;" class="cls-4" d="M285.21,257.3v1.29h.13a9.9,9.9,0,0,1,2.93-3v-2.18h-4.38a5.42,5.42,0,0,0-3.2.78h.4c3,0,4.12,1.35,4.12,3.15" transform="translate(-40.95 -49.32)"/><path id="_Path_32" data-name="&lt;Path&gt;" class="cls-4" d="M277.3,261.36l-3.5,9.76-.94,2.62a43.27,43.27,0,0,0-1.15,4.69h-.13a36.82,36.82,0,0,0-1.22-4.69l-6.19-17.28c-.83-2.25-2.13-3.09-4.83-3.09h-4.7v7h.71a1.7,1.7,0,0,1,1.8,1.17l9.4,24.74h9.74l1.51-4V262.52a1.3,1.3,0,0,0-.5-1.16" transform="translate(-40.95 -49.32)"/><path id="_Path_33" data-name="&lt;Path&gt;" class="cls-5" d="M277.3,261.36l1.76-4.9a4.5,4.5,0,0,1,1.63-2.31H273.8v7h2.58a1.5,1.5,0,0,1,.92.26" transform="translate(-40.95 -49.32)"/><path id="_Compound_Path_11" data-name="&lt;Compound Path&gt;" class="cls-5" d="M302.89,263a8.41,8.41,0,0,1,2.36-6.06,13.63,13.63,0,0,0-3.13-2.13,14.19,14.19,0,0,0-6.35-1.42,12.88,12.88,0,0,0-7.5,2.18v4.79h-.78a1.69,1.69,0,0,0-1.8,1.16l-7.9,20.74V299.9h8.12V286.24a26.91,26.91,0,0,0-.13-2.78h.13a9.71,9.71,0,0,0,2.36,2.21,12.05,12.05,0,0,0,7.06,2.1,14.51,14.51,0,0,0,6.79-1.61,13.61,13.61,0,0,0,2.7-1.82,14.93,14.93,0,0,1-2.7-2.42l3.86-5.36a16.11,16.11,0,0,0,2.76,2.39,19.86,19.86,0,0,0,1.6-6.68c-3.89-1.86-7.45-4.47-7.45-9.29m-.77,8.73c-.37,5.87-4,9.17-8.28,9.17a7.15,7.15,0,0,1-5.57-2.49,11.65,11.65,0,0,1-2.54-7.61c0-3.66,1-6.27,2.54-7.94a7.53,7.53,0,0,1,5.7-2.44c4.55,0,7.79,3.6,8.15,9.27,0,.33,0,.69,0,1s0,.69,0,1" transform="translate(-40.95 -49.32)"/><path id="_Path_34" data-name="&lt;Path&gt;" class="cls-6" d="M287.49,260.33h.78v-4.78a9.75,9.75,0,0,0-2.93,3h-.13V257.3c0-1.8-1.1-3.15-4.12-3.15h-.4a4.5,4.5,0,0,0-1.63,2.31l-1.76,4.9a1.29,1.29,0,0,1,.49,1.16v19.73l7.9-20.75a1.69,1.69,0,0,1,1.8-1.17" transform="translate(-40.95 -49.32)"/><path id="_Path_35" data-name="&lt;Path&gt;" class="cls-4" d="M310.94,262.65c0-1.93,2-3,4.91-3,1.8,0,4.11.78,4.11,2.32v1.61h7.23v-3.41c0-5.35-7.1-6.84-11.54-6.84a19.26,19.26,0,0,0-5.25.69,11.26,11.26,0,0,0-5.15,2.87c3.27,3,5.15,7.82,5.15,13.64v1.72c4.67,2.23,9.83,3.37,9.83,5.9,0,2.18-1.94,3.2-4.45,3.2A11.61,11.61,0,0,1,310.4,280a17,17,0,0,1-1.66-1,15.12,15.12,0,0,1-3.92,5.39A18.36,18.36,0,0,0,310.4,287a19.41,19.41,0,0,0,5.38.75c7.15,0,12.63-3.87,12.63-10,0-11-17.47-9.93-17.47-15.08" transform="translate(-40.95 -49.32)"/><path id="_Path_36" data-name="&lt;Path&gt;" class="cls-4" d="M310.4,272.29v-1.72c0,.58,0,1.15-.06,1.7l.06,0" transform="translate(-40.95 -49.32)"/><path id="_Path_37" data-name="&lt;Path&gt;" class="cls-6" d="M308.74,279a16.11,16.11,0,0,1-2.76-2.39l-3.86,5.36a14.5,14.5,0,0,0,2.7,2.42,15.12,15.12,0,0,0,3.92-5.39" transform="translate(-40.95 -49.32)"/><path id="_Path_38" data-name="&lt;Path&gt;" class="cls-6" d="M305.25,256.92a8.33,8.33,0,0,0-2.36,6.05c0,4.83,3.56,7.44,7.45,9.3,0-.55.05-1.12.05-1.7,0-5.82-1.87-10.6-5.14-13.65" transform="translate(-40.95 -49.32)"/><path id="_Compound_Path_12" data-name="&lt;Compound Path&gt;" class="cls-7" d="M223.4,261.43v.79h-2.72v2.59h2.72V284h2.91V264.81h5.53v-2.59h-5.53v-.65c0-4.84,3.2-5.43,4.84-5.43a4.5,4.5,0,0,1,1,.1v-2.75a6.56,6.56,0,0,0-1.34-.12c-2.41,0-7.45.93-7.45,8.06m-19.9.28A11.2,11.2,0,0,0,192.1,273s0,0,0,.06,0,.05,0,.08a11.44,11.44,0,1,0,22.88,0s0,0,0-.08,0,0,0-.06a11.23,11.23,0,0,0-11.48-11.24m.06,20.07a8.55,8.55,0,0,1-8.45-8.77A8.43,8.43,0,1,1,212,273a8.53,8.53,0,0,1-8.4,8.77m-94.62-1.36v-18.2H106v10.41c0,4.69-3.06,9-8,9-4.19,0-4.76-3-4.76-6.43V264.77c0-1.74-.76-2.55-2.63-2.55h-3v2.69h1.79a.85.85,0,0,1,1,.94v10.28c0,5.65,2.17,8.43,7.28,8.43a9.31,9.31,0,0,0,8.47-5.46h.08a11.72,11.72,0,0,0-.08,1.4v1.13c0,1.63.81,2.41,2.62,2.41h3v-2.67h-1.82a.85.85,0,0,1-1-.95m-42.39-.14-9.9-26.67H53.41l-9.92,26.67c-.31.83-.78.94-1.55.94H41.4V284h1.4c2.15,0,2.77-.45,3.54-2.5L49,274.38H61.05l2.62,7.16c.78,2,1.42,2.5,3.57,2.5h1.37v-2.82h-.5c-.82,0-1.25-.11-1.56-.94m-16.68-8.65,3.94-10.7C54.31,259.52,55,257,55,257H55s.66,2.5,1.17,3.91l4,10.7Zm101.56-18h-2.87v3.82h2.87Zm-13.29,26.81v-10.3c0-5.35-1.9-8.41-7.29-8.41a9.19,9.19,0,0,0-8.61,5.48h-.09a10.25,10.25,0,0,0,.09-1.44v-1.1c0-1.62-.83-2.43-2.63-2.43h-3v2.69h1.81a.86.86,0,0,1,.95.94V284h2.92v-.13h0V273.6a11,11,0,0,1,.34-2.9,8.23,8.23,0,0,1,7.88-6.11c4.18,0,4.71,3,4.71,6.43v10.39c0,1.85.75,2.63,2.61,2.63h3.06v-2.67H139.1a.85.85,0,0,1-1-.95m13.46,0V264.85c0-1.82-.77-2.63-2.64-2.63h-3.05v2.69h1.8a.87.87,0,0,1,1,.94v15.56c0,1.85.75,2.63,2.61,2.63h3.06v-2.67h-1.8a.84.84,0,0,1-1-.95m13.75-4.7V264.81h5.42v-2.59h-5.42v-6h-2.89v6h-2.88v2.59h2.83v11.32c0,7.25,5.05,8.07,7.55,8.07a10.17,10.17,0,0,0,1.25-.07v-2.76a5.43,5.43,0,0,1-1,.08c-1.63,0-4.87-.65-4.87-5.73m349.88,3a9.57,9.57,0,0,1-7,3.08,8.3,8.3,0,0,1-8.47-8.6c0-5.23,3.75-8.7,8.4-8.7,1.79,0,4.94.86,4.94,2.68v1.25h2.77v-2.07c0-3.58-5.26-4.61-7.71-4.61a11.09,11.09,0,0,0-11.43,11.38s0,.05,0,.07,0,0,0,.06a11,11,0,0,0,11.37,11.34,11.45,11.45,0,0,0,8.5-3.54l0-.06,0-.06Zm24.59,1.74V270c0-4.66-1.64-8.32-8.5-8.32-1.89,0-7.07.64-7.07,3.66v2.2h2.8V266.2c0-1.61,3.15-1.9,4.21-1.9,4,0,5.61,1.6,5.61,6.11v.13h-1.19c-3.75,0-13.28.28-13.28,7.47,0,0,0,.05,0,.06s0,.05,0,.07c0,4.31,3.75,6.42,7.36,6.42a7.63,7.63,0,0,0,7.19-4.71H537c0,.23,0,.76,0,1.48v.12c0,1.76.74,2.59,2.59,2.59h3v-2.67h-1.8a.85.85,0,0,1-1-.95m-3-6.55c0,3.75-2.51,8.05-6.62,8.05-3.21,0-4.79-2-4.83-4,.06-4.81,6.84-4.9,10.22-4.9h1.23Zm-48.4,6.55v-10.3c0-5.35-1.93-8.41-7.31-8.41a9.3,9.3,0,0,0-8.58,5.39h-.07c0-.27.07-.9.07-1.64v-9.32c0-1.76-.76-2.53-2.61-2.53h-3.08v2.66h1.83a.86.86,0,0,1,.94.94V284h2.92V273.65a10.66,10.66,0,0,1,.34-2.89,8.27,8.27,0,0,1,7.86-6.17c4.22,0,4.75,3,4.75,6.43v10.39c0,1.85.79,2.63,2.62,2.63h3.06v-2.67H489.4a.84.84,0,0,1-.93-.95m97-8.7c0-5.4-3.09-10-9.1-10-5.81,0-10.68,4.25-10.68,11.38,0,0,0,.05,0,.07s0,0,0,.06a11,11,0,0,0,11.34,11.34,12.33,12.33,0,0,0,8.06-3.11l-.06-.08.06,0-1.42-2.2a9.67,9.67,0,0,1-6.52,2.65c-4.44,0-8.23-3.08-8.4-8.47h16.64s.08-.95.08-1.48v-.11M569,270.85c.78-4.28,3.89-6.55,7.42-6.55,3.14,0,5.88,2.17,6.11,6.55Zm-113,4.87V264.81h5.42v-2.59h-5.42v-6h-2.88v6h-2.9v2.59H453v11.32c0,7.25,5,8.07,7.55,8.07a9.53,9.53,0,0,0,1.22-.07v-2.76a5.06,5.06,0,0,1-1,.08c-1.64,0-4.88-.65-4.88-5.73M553,267.78h-.09a13.3,13.3,0,0,0,.09-1.51v-1.6c0-1.73-.84-2.45-2.64-2.45h-3v2.69h1.79a.85.85,0,0,1,1,.94V284h2.95v-9.15a13.48,13.48,0,0,1,.61-4.22c.93-3.18,3.21-5.6,6.28-5.6a7.8,7.8,0,0,1,1.07.08v-3a5.12,5.12,0,0,0-1.14-.14c-3.41,0-5.84,2.51-6.86,5.78m-180-11.54v11.15H355.65V256.24c0-1.86-.79-2.63-2.64-2.63h-3.19v2.8h1.85a.84.84,0,0,1,.94,1V284h3V270.19h17.41V284h3V257.37a.86.86,0,0,1,1-1h1.86v-2.8h-3.24c-1.82,0-2.58.77-2.58,2.63m69.13,24.18V256.24c0-1.86-.77-2.63-2.63-2.63h-3.07v2.66h1.83a.86.86,0,0,1,.94.94v24.2c0,1.85.78,2.63,2.63,2.63H445v-2.67h-1.82a.84.84,0,0,1-.94-.95m-13.2,0V270c0-4.66-1.63-8.32-8.49-8.32-1.91,0-7.07.64-7.07,3.66v2.2h2.8V266.2c0-1.61,3.15-1.9,4.22-1.9,4,0,5.61,1.6,5.61,6.11v.13h-1.2c-3.76,0-13.29.28-13.29,7.47v.13c0,4.31,3.74,6.42,7.38,6.42a7.71,7.71,0,0,0,7.2-4.71h.07c0,.23,0,.76,0,1.48h0a.49.49,0,0,0,0,.12c0,1.76.74,2.59,2.6,2.59h3v-2.67h-1.81a.85.85,0,0,1-.95-.95m-2.93-6.55c0,3.75-2.52,8.05-6.64,8.05-3.19,0-4.79-2-4.82-4,0-4.81,6.83-4.9,10.22-4.9h1.24Zm-30.31-12.16c-5.82,0-10.7,4.25-10.7,11.38,0,0,0,.05,0,.07s0,0,0,.06a11,11,0,0,0,11.33,11.34,12.31,12.31,0,0,0,8.07-3.11l-.05-.08.05,0-1.42-2.2a9.68,9.68,0,0,1-6.5,2.65c-4.46,0-8.27-3.08-8.42-8.47h16.64s.08-.95.08-1.48v-.11c0-5.4-3.09-10-9.08-10m-7.47,9.14c.77-4.28,3.9-6.55,7.43-6.55,3.15,0,5.87,2.17,6.09,6.55Z" transform="translate(-40.95 -49.32)"/></g></g></svg>