<svg xmlns="http://www.w3.org/2000/svg" viewBox="0 0 22.84 29.59"><defs><style>.cls-1{fill:none;stroke:#828487;stroke-miterlimit:10}</style></defs><g id="Layer_2" data-name="Layer 2"><g id="Layer_1-2" data-name="Layer 1"><path class="cls-1" d="M15.89.5H2.14A1.64 1.64 0 0 0 .5 2.15v25.29a1.64 1.64 0 0 0 1.64 1.65H20.7a1.64 1.64 0 0 0 1.64-1.65V7zm0 0V7h6.45"/><path class="cls-1" d="M9.52 14a9.92 9.92 0 0 1-2.37 3.3c-1.25.85-1.92-.57-1.23-1.42a14.23 14.23 0 0 1 6.76-3.37c3.38-.76 4.75-.76 5.27 0s-.73 1.94-2.34.83a16.1 16.1 0 0 1-5.33-7.13c-.92-3 1.2-3.52 1.74-2 .5 1.33-1.55 8.12-2.5 9.79zm-9.2 6.22h22.2"/><path d="M6.15 25a.81.81 0 0 0 .91-.79c0-.52-.36-.79-.94-.79h-.88V25zm-2.06-2.68h2.14a1.8 1.8 0 0 1 2 1.81A1.87 1.87 0 0 1 6.12 26h-.88v1.57H4.09zm7.05 4.2A1.49 1.49 0 0 0 12.72 25a1.51 1.51 0 0 0-1.58-1.58h-.89v3.16zm-2-4.2h2a2.61 2.61 0 0 1 2.79 2.61 2.63 2.63 0 0 1-2.79 2.62h-2zm5.81 0h3.99v1.05H16.1v1.12h2.5v1.05h-2.5v2.03h-1.15v-5.25z" fill="#828487"/></g></g></svg>